<?xml version="1.0" encoding="UTF-8"?>
<svg width="32px" height="32px" viewBox="0 0 32 32" version="1.1" xmlns="http://www.w3.org/2000/svg" xmlns:xlink="http://www.w3.org/1999/xlink">
    <title>regular/br-market</title>
    <g id="regular/br-market" stroke="none" stroke-width="1" fill="none" fill-rule="evenodd">
        <path d="M26.6302812,7.00696941 L31,17.9312663 L27.2884401,17.9312663 L27.2884401,29.7659213 L5.07570311,29.7659213 L5.07570311,17.9312663 L1,17.9312663 L5.36971876,7.00696941 L26.6302812,7.00696941 Z M25.467724,17.9312663 L6.89641926,17.9312663 L6.8955089,27.9442948 L25.4668136,27.9442948 L25.467724,17.9312663 Z M14.1792839,22.0278776 C14.6820607,22.0278776 15.0896419,22.4354588 15.0896419,22.9382357 C15.0896419,23.4051 14.7382071,23.7898822 14.2854508,23.8424691 L14.1792839,23.8485938 L10.5378516,23.8485938 C10.0350747,23.8485938 9.62749348,23.4410126 9.62749348,22.9382357 C9.62749348,22.4713715 9.97892828,22.0865892 10.4316846,22.0340023 L10.5378516,22.0278776 L14.1792839,22.0278776 Z M25.3976264,8.82768556 L6.60146324,8.82768556 L3.6883174,16.1105502 L28.3107722,16.1105502 L25.3976264,8.82768556 Z M26.0139388,2 C26.5167157,2 26.9242969,2.40758119 26.9242969,2.91035807 C26.9242969,3.37722232 26.5728621,3.76200457 26.1201058,3.8145915 L26.0139388,3.82071615 L5.98606118,3.82071615 C5.4832843,3.82071615 5.07570311,3.41313496 5.07570311,2.91035807 C5.07570311,2.44349383 5.42713791,2.05871158 5.8798942,2.00612464 L5.98606118,2 L26.0139388,2 Z" id="Combined-Shape" fill="#E21B23" fill-rule="nonzero"></path>
    </g>
</svg>