<?xml version="1.0" encoding="UTF-8"?>
<svg width="32px" height="32px" viewBox="0 0 32 32" version="1.1" xmlns="http://www.w3.org/2000/svg" xmlns:xlink="http://www.w3.org/1999/xlink">
    <title>privacy-police/bold</title>
    <defs>
        <path d="M16.3333333,1.5 C24.4923798,1.5 31.1666667,7.50685819 31.1666667,15 L31.1666667,15 L31.1666667,16.5 L17.833,16.5 L17.8333333,26.3333333 C17.8333333,27.3458554 18.6541446,28.1666667 19.6666667,28.1666667 C20.6285626,28.1666667 21.4174396,27.4258845 21.4939226,26.4836952 L21.5,26.3333333 L21.5,25.6666667 C21.5,24.8382395 22.1715729,24.1666667 23,24.1666667 C23.7796961,24.1666667 24.4204487,24.7615547 24.4931334,25.5222067 L24.5,25.6666667 L24.5,26.3333333 C24.5,29.0027097 22.336043,31.1666667 19.6666667,31.1666667 C17.0694356,31.1666667 14.9506732,29.1180996 14.8380426,26.5486289 L14.8333333,26.3333333 L14.833,16.5 L1.5,16.5 L1.5,15 C1.5,7.50685819 8.17428688,1.5 16.3333333,1.5 Z M16.3333333,4.5 C10.3903623,4.5 5.51464196,8.37875084 4.63983781,13.3848585 L4.63983781,13.3848585 L4.621,13.5 L28.045,13.5 L28.0268289,13.3848585 C27.1673721,8.46657729 22.4461508,4.63644351 16.64512,4.50356663 L16.64512,4.50356663 Z" id="path-1"></path>
    </defs>
    <g id="privacy-police/bold" stroke="none" stroke-width="1" fill="none" fill-rule="evenodd">
        <mask id="mask-2" fill="white">
            <use xlink:href="#path-1"></use>
        </mask>
        <use id="Mask" fill="#5AA617" fill-rule="nonzero" xlink:href="#path-1"></use>
    </g>
</svg>