<?xml version="1.0" encoding="UTF-8"?>
<svg width="32px" height="32px" viewBox="0 0 32 32" version="1.1" xmlns="http://www.w3.org/2000/svg" xmlns:xlink="http://www.w3.org/1999/xlink">
    <title>privacy-police/regular</title>
    <g id="privacy-police/regular" stroke="none" stroke-width="1" fill="none" fill-rule="evenodd">
        <path d="M17.3333333,26.3333333 C17.3333333,27.6219978 18.3780022,28.6666667 19.6666667,28.6666667 C20.9016368,28.6666667 21.9125207,27.7072399 21.9946169,26.4930877 L22,26.3333333 L22,25.6666667 C22,25.1143819 22.4477153,24.6666667 23,24.6666667 C23.5128358,24.6666667 23.9355072,25.0527069 23.9932723,25.5500455 L24,25.6666667 L24,26.3333333 C24,28.7265673 22.0599006,30.6666667 19.6666667,30.6666667 C17.343822,30.6666667 15.4478488,28.8390125 15.3383304,26.5432872 L15.3333333,26.3333333 L15.333,16 L2,16 L2,15 C2,7.79543313 8.43937014,2 16.3333333,2 C24.2272965,2 30.6666667,7.79543313 30.6666667,15 L30.6666667,15 L30.6666667,16 L17.333,16 L17.3333333,26.3333333 Z M16.3333333,4 C9.92023428,4 4.6819381,8.35927953 4.06151102,13.8964278 L4.06151102,13.8964278 L4.051,14 L28.615,14 L28.6051556,13.8964278 C27.9948995,8.45005245 22.9169388,4.14324374 16.6477693,4.00350059 L16.6477693,4.00350059 Z" id="Combined-Shape" fill="#E21B23" fill-rule="nonzero"></path>
    </g>
</svg>