<?xml version="1.0" encoding="UTF-8"?>
<svg width="32px" height="32px" viewBox="0 0 32 32" version="1.1" xmlns="http://www.w3.org/2000/svg" xmlns:xlink="http://www.w3.org/1999/xlink">
    <title>battery/bold</title>
    <defs>
        <path d="M26.8333333,6.5 L26.8334904,11.8425055 C27.5360718,11.9202467 28.092372,12.4832328 28.1598001,13.1888733 L28.1666667,13.3333333 L28.1666667,18.6666667 C28.1666667,19.4387051 27.5834065,20.0745157 26.8334904,20.1574945 L26.8333333,25.5 L2.5,25.5 L2.5,6.5 L26.8333333,6.5 Z M23.833,9.5 L5.5,9.5 L5.5,22.5 L23.833,22.5 L23.833,9.5 Z M14.6666667,11.8333333 C15.4463628,11.8333333 16.0871153,12.4282214 16.1598001,13.1888733 L16.1666667,13.3333333 L16.1666667,18.6666667 C16.1666667,19.4950938 15.4950938,20.1666667 14.6666667,20.1666667 C13.8869705,20.1666667 13.246218,19.5717786 13.1735332,18.8111267 L13.1666667,18.6666667 L13.1666667,13.3333333 C13.1666667,12.5049062 13.8382395,11.8333333 14.6666667,11.8333333 Z M9.33333333,11.8333333 C10.1130295,11.8333333 10.753782,12.4282214 10.8264668,13.1888733 L10.8333333,13.3333333 L10.8333333,18.6666667 C10.8333333,19.4950938 10.1617605,20.1666667 9.33333333,20.1666667 C8.55363722,20.1666667 7.91288466,19.5717786 7.84019991,18.8111267 L7.83333333,18.6666667 L7.83333333,13.3333333 C7.83333333,12.5049062 8.50490621,11.8333333 9.33333333,11.8333333 Z" id="path-1"></path>
    </defs>
    <g id="battery/bold" stroke="none" stroke-width="1" fill="none" fill-rule="evenodd">
        <mask id="mask-2" fill="white">
            <use xlink:href="#path-1"></use>
        </mask>
        <use id="Mask" fill="#5AA617" fill-rule="nonzero" xlink:href="#path-1"></use>
    </g>
</svg>