<?xml version="1.0" encoding="UTF-8"?>
<svg width="32px" height="32px" viewBox="0 0 32 32" version="1.1" xmlns="http://www.w3.org/2000/svg" xmlns:xlink="http://www.w3.org/1999/xlink">
    <title>battery/regular</title>
    <g id="battery/regular" stroke="none" stroke-width="1" fill="none" fill-rule="evenodd">
        <path d="M26.3333333,7 L26.3333141,12.390242 C26.4375792,12.3533872 26.549781,12.3333333 26.6666667,12.3333333 C27.1795025,12.3333333 27.6021738,12.7193735 27.6599389,13.2167122 L27.6666667,13.3333333 L27.6666667,18.6666667 C27.6666667,19.2189514 27.2189514,19.6666667 26.6666667,19.6666667 C26.549781,19.6666667 26.4375792,19.6466128 26.3333141,19.609758 L26.3333333,25 L3,25 L3,7 L26.3333333,7 Z M24.333,9 L5,9 L5,23 L24.333,23 L24.333,9 Z M14.6666667,12.3333333 C15.1795025,12.3333333 15.6021738,12.7193735 15.6599389,13.2167122 L15.6666667,13.3333333 L15.6666667,18.6666667 C15.6666667,19.2189514 15.2189514,19.6666667 14.6666667,19.6666667 C14.1538308,19.6666667 13.7311595,19.2806265 13.6733944,18.7832878 L13.6666667,18.6666667 L13.6666667,13.3333333 C13.6666667,12.7810486 14.1143819,12.3333333 14.6666667,12.3333333 Z M9.33333333,12.3333333 C9.84616917,12.3333333 10.2688405,12.7193735 10.3266056,13.2167122 L10.3333333,13.3333333 L10.3333333,18.6666667 C10.3333333,19.2189514 9.88561808,19.6666667 9.33333333,19.6666667 C8.82049749,19.6666667 8.39782617,19.2806265 8.34006106,18.7832878 L8.33333333,18.6666667 L8.33333333,13.3333333 C8.33333333,12.7810486 8.78104858,12.3333333 9.33333333,12.3333333 Z" id="Combined-Shape" fill="#E21B23" fill-rule="nonzero"></path>
    </g>
</svg>