<?xml version="1.0" encoding="UTF-8"?>
<svg width="32px" height="32px" viewBox="0 0 32 32" version="1.1" xmlns="http://www.w3.org/2000/svg" xmlns:xlink="http://www.w3.org/1999/xlink">
    <title>reports-money transfer/bold</title>
    <defs>
        <path d="M28.5,5.5 L28.5,24 L30,24 C30.8284271,24 31.5,24.6715729 31.5,25.5 C31.5,26.2796961 30.9051119,26.9204487 30.14446,26.9931334 L30,27 L2,27 C1.17157288,27 0.5,26.3284271 0.5,25.5 C0.5,24.7203039 1.09488808,24.0795513 1.85553999,24.0068666 L2,24 L3.88203584,23.9999005 C4.12656213,23.7267428 4.46972857,23.5437331 4.85553999,23.5068666 L5,23.5 L25.5,23.5 L25.5,8.5 L5,8.5 C4.22030388,8.5 3.57955132,7.90511192 3.50686658,7.14446001 L3.5,7 C3.5,6.22030388 4.09488808,5.57955132 4.85553999,5.50686658 L5,5.5 L28.5,5.5 Z M17.8181818,10.5 C18.5522574,10.5 19.1631731,11.0273101 19.2928084,11.7238097 C20.1913764,12.0293684 20.8370163,12.6558869 21.0881892,13.6229025 C21.2719526,14.3303917 20.9189569,15.0511284 20.2825422,15.3539897 L20.21,15.383 L20.2513139,15.4131126 C20.8075702,15.8342064 21.0964581,16.4116379 21.1325042,17.3039198 L21.1363636,17.5 C21.1363636,19.0230932 20.1366616,20.3167432 18.2378837,20.4821518 C18.0384789,21.0738525 17.4780964,21.5 16.8181818,21.5 C16.0384857,21.5 15.3977331,20.9051119 15.3250484,20.14446 L15.3181818,20 L15.3175352,19.6860639 C14.953779,19.3543386 14.6889871,18.9192264 14.5481744,18.3770976 C14.364411,17.6696083 14.7174068,16.9488716 15.3538214,16.6460104 L15.404,16.625 C14.8355172,16.1907054 14.5407472,15.601824 14.5039418,14.6984502 L14.5,14.5 C14.5,13.291154 15.1297376,12.22684 16.3389038,11.7564195 C16.4536635,11.0443271 17.0723555,10.5 17.8181818,10.5 Z M9,17 C9.82842712,17 10.5,17.6715729 10.5,18.5 C10.5,19.2796961 9.90511192,19.9204487 9.14446001,19.9931334 L9,20 L5,20 C4.17157288,20 3.5,19.3284271 3.5,18.5 C3.5,17.7203039 4.09488808,17.0795513 4.85553999,17.0068666 L5,17 L9,17 Z M9,12 C9.82842712,12 10.5,12.6715729 10.5,13.5 C10.5,14.2796961 9.90511192,14.9204487 9.14446001,14.9931334 L9,15 L5,15 C4.17157288,15 3.5,14.3284271 3.5,13.5 C3.5,12.7203039 4.09488808,12.0795513 4.85553999,12.0068666 L5,12 L9,12 Z" id="path-1"></path>
    </defs>
    <g id="reports-money-transfer/bold" stroke="none" stroke-width="1" fill="none" fill-rule="evenodd">
        <mask id="mask-2" fill="white">
            <use xlink:href="#path-1"></use>
        </mask>
        <use id="Mask" fill="#5AA617" fill-rule="nonzero" xlink:href="#path-1"></use>
    </g>
</svg>