<?xml version="1.0" encoding="UTF-8"?>
<svg width="32px" height="32px" viewBox="0 0 32 32" version="1.1" xmlns="http://www.w3.org/2000/svg" xmlns:xlink="http://www.w3.org/1999/xlink">
    <title>reports-money transfer/regular</title>
    <g id="reports-money-transfer/regular" stroke="none" stroke-width="1" fill="none" fill-rule="evenodd">
        <path d="M28,6 L28,24.5 L30,24.5 C30.5522847,24.5 31,24.9477153 31,25.5 C31,26.0128358 30.6139598,26.4355072 30.1166211,26.4932723 L30,26.5 L2,26.5 C1.44771525,26.5 1,26.0522847 1,25.5 C1,24.9871642 1.38604019,24.5644928 1.88337887,24.5067277 L2,24.5 L4.13385712,24.4998705 C4.28834779,24.2328945 4.56273149,24.0439704 4.88337887,24.0067277 L5,24 L26,24 L26,8 L5,8 C4.48716416,8 4.06449284,7.61395981 4.00672773,7.11662113 L4,7 C4,6.48716416 4.38604019,6.06449284 4.88337887,6.00672773 L5,6 L28,6 Z M17.8181818,11 C18.3310177,11 18.753689,11.3860402 18.8114541,11.8833789 L18.8181818,12 L18.818848,12.1067094 C19.7350805,12.3214443 20.3740597,12.8623793 20.6042473,13.7486017 C20.7430908,14.2831491 20.4223094,14.8290402 19.887762,14.9678837 C19.3913965,15.0968098 18.88525,14.8294266 18.7043099,14.3625827 L18.6684799,14.2513983 C18.6288566,14.0988484 18.4491321,14 17.8181818,14 C17.1351114,14 17,14.1611423 17,14.5 C17,14.6506861 17.0632478,14.7387156 17.4077985,14.8592215 L17.6249436,14.9287445 L17.9057481,15.00814 L18.0953609,15.0586275 C19.8621316,15.5231115 20.6363636,16.0157878 20.6363636,17.5 C20.6363636,18.8202874 19.7627863,19.9129511 18.0302129,19.9950491 L17.8181818,20 C17.8181818,20.5522847 17.3704666,21 16.8181818,21 C16.305346,21 15.8826747,20.6139598 15.8249095,20.1166211 L15.8181818,20 L15.8176937,19.4473146 C15.4357846,19.1619883 15.1654115,18.764585 15.0321163,18.2513984 C14.8932728,17.716851 15.2140542,17.1709598 15.7486016,17.0321163 C16.2449671,16.9031902 16.7511136,17.1705733 16.9320537,17.6374173 L16.9678837,17.7486016 C17.0075071,17.9011516 17.1872315,18 17.8181818,18 C18.5012523,18 18.6363636,17.8388577 18.6363636,17.5 C18.6363636,17.384671 18.5875622,17.3103682 18.3252309,17.2115147 L18.1408907,17.148732 L17.8973963,17.0769094 L17.5638836,16.9868636 C15.792395,16.5210645 15,16.0081496 15,14.5 C15,13.3977531 15.6088667,12.4541555 16.8181156,12.1247833 L16.8181818,12 C16.8181818,11.4477153 17.2658971,11 17.8181818,11 Z M9,17.5 C9.55228475,17.5 10,17.9477153 10,18.5 C10,19.0128358 9.61395981,19.4355072 9.11662113,19.4932723 L9,19.5 L5,19.5 C4.44771525,19.5 4,19.0522847 4,18.5 C4,17.9871642 4.38604019,17.5644928 4.88337887,17.5067277 L5,17.5 L9,17.5 Z M9,12.5 C9.55228475,12.5 10,12.9477153 10,13.5 C10,14.0128358 9.61395981,14.4355072 9.11662113,14.4932723 L9,14.5 L5,14.5 C4.44771525,14.5 4,14.0522847 4,13.5 C4,12.9871642 4.38604019,12.5644928 4.88337887,12.5067277 L5,12.5 L9,12.5 Z" id="Combined-Shape" fill="#E21B23"></path>
    </g>
</svg>