<?xml version="1.0" encoding="UTF-8"?>
<svg width="32px" height="32px" viewBox="0 0 32 32" version="1.1" xmlns="http://www.w3.org/2000/svg" xmlns:xlink="http://www.w3.org/1999/xlink">
    <title>contact/bold</title>
    <defs>
        <path d="M27.8333333,2.49999865 L27.8333333,29.4999987 L7.66666667,29.4999987 C5.36548019,29.4999987 3.5,27.6345198 3.5,25.3333333 L3.5,25.3333333 L3.5,6.66666532 C3.5,4.36547886 5.36548021,2.49999865 7.66666667,2.49999865 L7.66666667,2.49999865 L27.8333333,2.49999865 Z M8.833,5.49999865 L7.66666667,5.49999865 C7.06528994,5.49999865 6.57018681,5.95501 6.50684584,6.53954413 L6.50684584,6.53954413 L6.5,6.66666532 L6.5,25.3333333 C6.5,25.9776651 7.02233397,26.4999987 7.66666667,26.4999987 L7.66666667,26.4999987 L8.833,26.4989987 L8.833,5.49999865 Z M18.3333333,10.3888889 C16.8741614,10.3888889 16.2777777,11.1344523 16.2777777,13.3333333 C16.2777777,14.5847697 16.5015082,15.400986 16.8893008,16.0138855 L16.9816766,16.1518202 C16.8954974,16.030075 18.0956752,17.3264508 18.2121011,18.0250062 C18.3238456,18.6954726 18.0726861,19.2708564 17.6162157,19.7273269 C16.9192325,20.4243101 16.1510252,20.8164241 14.8441404,21.2525364 L13.4864665,21.6812926 C12.2032066,22.0965531 11.8648108,22.3237509 11.8354925,22.6214506 L11.8333333,22.6666667 L11.833,26.4989987 L24.833,26.499 L24.8333333,22.6666667 C24.8333333,22.3460005 24.527623,22.1173161 23.1802001,21.6812926 L22.4169629,21.4431526 C20.7365829,20.9222348 19.8470032,20.5238791 19.0504508,19.7273268 C18.5939806,19.2708564 18.342821,18.6954726 18.4545655,18.0250062 C18.5654474,17.3597154 19.6593241,16.1521838 19.6888066,16.1438574 C20.1294146,15.5239824 20.3888889,14.681034 20.3888889,13.3333333 C20.3888889,11.1344523 19.7925053,10.3888889 18.3333333,10.3888889 Z M24.833,5.499 L11.833,5.49999865 L11.8325542,19.0806603 C12.1150125,18.975749 12.4191799,18.8725411 12.7457845,18.7686853 L13.3614075,18.5776806 C13.8485457,18.4266678 14.2339838,18.294345 14.5424787,18.1685832 L14.693,18.105 L14.5330626,17.8851088 C13.7240612,16.7422339 13.2777777,15.292403 13.2777777,13.3333333 C13.2777777,9.60638101 15.0515719,7.38888889 18.3333333,7.38888889 C21.6150948,7.38888889 23.3888889,9.60638101 23.3888889,13.3333333 C23.3888889,15.292403 22.9426055,16.7422339 22.1336041,17.8851088 L21.973,18.105 C22.2597727,18.2301046 22.6161246,18.3585558 23.0700505,18.5036756 L23.6493973,18.6837538 C24.0805531,18.8165652 24.4750649,18.9472927 24.8344322,19.0807791 L24.833,5.499 Z" id="path-1"></path>
    </defs>
    <g id="contact/bold" stroke="none" stroke-width="1" fill="none" fill-rule="evenodd">
        <mask id="mask-2" fill="white">
            <use xlink:href="#path-1"></use>
        </mask>
        <use id="Mask" fill="#5AA617" fill-rule="nonzero" xlink:href="#path-1"></use>
    </g>
</svg>