<?xml version="1.0" encoding="UTF-8"?>
<svg width="32px" height="32px" viewBox="0 0 32 32" version="1.1" xmlns="http://www.w3.org/2000/svg" xmlns:xlink="http://www.w3.org/1999/xlink">
    <title>contact/regular</title>
    <g id="contact/regular" stroke="none" stroke-width="1" fill="none" fill-rule="evenodd">
        <path d="M27.3333333,2.99999865 L27.3333333,28.9999987 L7.66666667,28.9999987 C5.64162248,28.9999987 4,27.3583773 4,25.3333333 L4,25.3333333 L4,6.66666532 C4,4.64162124 5.64162258,2.99999865 7.66666667,2.99999865 L7.66666667,2.99999865 L27.3333333,2.99999865 Z M9.333,4.99999865 L7.66666667,4.99999865 C6.79463811,4.99999865 6.07902931,5.66971122 6.00611766,6.52285894 L6.00611766,6.52285894 L6,6.66666532 L6,25.3333333 C6,26.2538075 6.74619167,26.9999987 7.66666667,26.9999987 L7.66666667,26.9999987 L9.333,26.9989987 L9.333,4.99999865 Z M18.3333333,9.88888889 C16.5703965,9.88888889 15.7777777,10.8797738 15.7777777,13.3333333 C15.7777777,14.7829288 16.0683869,15.7270244 16.5735743,16.4407017 L16.7214392,16.6053989 C17.0156578,16.9409186 17.6519891,17.7057154 17.7189042,18.1072058 C17.8004668,18.596581 17.6150255,19.0214102 17.2626624,19.3737735 C16.5882586,20.0481772 15.8092747,20.4202832 14.393465,20.873694 L13.7532334,21.0729706 C11.9242288,21.6363694 11.3783734,21.9683236 11.3360608,22.5846246 L11.3333333,22.6666667 L11.333,26.9989987 L25.333,26.999 L25.3333333,22.6666667 C25.3333333,21.9967516 24.8219598,21.660865 22.9134332,21.0729706 L22.5650123,20.9655739 C20.9617213,20.4685538 20.1233683,20.0931375 19.4040042,19.3737734 C19.0516411,19.0214102 18.8661999,18.596581 18.9477625,18.1072058 C19.0352669,17.5821799 20.0965065,16.4358785 20.0930924,16.4407017 C20.5982797,15.7270244 20.8888889,14.7829288 20.8888889,13.3333333 C20.8888889,10.8797738 20.0962702,9.88888889 18.3333333,9.88888889 Z M25.333,4.999 L11.333,4.99999865 L11.332709,19.8264903 C11.7720068,19.6262785 12.2907752,19.4381652 12.8958334,19.2456556 L13.5094569,19.0552593 C14.3727466,18.7876395 14.9420415,18.5723624 15.3473129,18.3369173 L15.479,18.255 L15.234378,17.9799235 C15.1798194,17.9156576 15.1328313,17.8570301 15.0844755,17.7932035 L14.9411649,17.5962274 C14.1929263,16.539192 13.7777777,15.1905082 13.7777777,13.3333333 C13.7777777,9.86105956 15.3553368,7.88888889 18.3333333,7.88888889 C21.3113299,7.88888889 22.8888889,9.86105956 22.8888889,13.3333333 C22.8888889,15.1905082 22.4737403,16.539192 21.7255017,17.5962274 C21.5892967,17.788644 21.5051453,17.8986694 21.359501,18.0639763 L21.186,18.254 L21.202563,18.2656062 C21.5347999,18.4791207 21.9863662,18.6709707 22.648545,18.8920829 L23.5022045,19.1615972 C24.2237974,19.3838736 24.8309698,19.5972515 25.3339576,19.8264903 L25.333,4.999 Z" id="Combined-Shape" fill="#E21B23" fill-rule="nonzero"></path>
    </g>
</svg>