<?xml version="1.0" encoding="UTF-8"?>
<svg width="32px" height="32px" viewBox="0 0 32 32" version="1.1" xmlns="http://www.w3.org/2000/svg" xmlns:xlink="http://www.w3.org/1999/xlink">
    <title>receipt/bold</title>
    <defs>
        <path d="M28.6425054,2 L28.7908616,4.99264544 C26.7392806,5.19655513 25.9669508,5.95491 25.9669508,7.6 L25.9669508,7.6 L25.9669508,30.0213203 L21.686,25.74 L18.9046157,28.5213203 L16.167,25.784 L13.4300192,28.5213203 L10.692,25.783 L8.47024126,28.0065019 L4,27.8476406 L4,7.35367297 L4.18382388,6.81635151 C5.27987922,3.72000756 6.70708069,2 8.74986604,2 L8.74986604,2 L28.6425054,2 Z M23.505,5 L8.74986604,5 C8.63705877,5 8.4591852,5.10445495 8.17992655,5.456765 C7.83149643,5.89634112 7.47491307,6.57975453 7.12803854,7.49954061 L7.12803854,7.49954061 L7,7.851 L7,24.952 L7.272,24.962 L10.692721,21.5413814 L13.43,24.279 L16.1673175,21.5413814 L18.904,24.278 L21.6857832,21.4975121 L22.966,22.778 L22.9669508,7.6 C22.9669508,6.65393519 23.1354938,5.81623789 23.4602838,5.09496829 L23.4602838,5.09496829 L23.505,5 Z M15.2622329,14 C16.0906601,14 16.7622329,14.6715729 16.7622329,15.5 C16.7622329,16.2796961 16.1673448,16.9204487 15.4066929,16.9931334 L15.2622329,17 L10.2622329,17 C9.4338058,17 8.76223293,16.3284271 8.76223293,15.5 C8.76223293,14.7203039 9.35712101,14.0795513 10.1177729,14.0068666 L10.2622329,14 L15.2622329,14 Z M18.2622329,8.63092093 C19.0906601,8.63092093 19.7622329,9.30249381 19.7622329,10.1309209 C19.7622329,10.9106171 19.1673448,11.5513696 18.4066929,11.6240544 L18.2622329,11.6309209 L10.2622329,11.6309209 C9.4338058,11.6309209 8.76223293,10.9593481 8.76223293,10.1309209 C8.76223293,9.35122482 9.35712101,8.71047226 10.1177729,8.63778751 L10.2622329,8.63092093 L18.2622329,8.63092093 Z" id="path-1"></path>
    </defs>
    <g id="receipt/bold" stroke="none" stroke-width="1" fill="none" fill-rule="evenodd">
        <mask id="mask-2" fill="white">
            <use xlink:href="#path-1"></use>
        </mask>
        <use id="Mask" fill="#5AA617" fill-rule="nonzero" xlink:href="#path-1"></use>
    </g>
</svg>