<?xml version="1.0" encoding="UTF-8"?>
<svg width="32px" height="32px" viewBox="0 0 32 32" version="1.1" xmlns="http://www.w3.org/2000/svg" xmlns:xlink="http://www.w3.org/1999/xlink">
    <title>receipt/regular</title>
    <g id="receipt/regular" stroke="none" stroke-width="1" fill="none" fill-rule="evenodd">
        <path d="M28.1425054,3 L28.2414095,4.99509696 C25.9457878,5.22326222 24.9669508,6.18438768 24.9669508,8.1 L24.9669508,8.1 L24.9669508,29.3142136 L21.185,25.532 L18.4046157,28.3142136 L15.667,25.576 L12.9300192,28.3142136 L10.192,25.576 L7.77054675,27.9990896 L4,27.8650937 L4,7.93578198 L4.15819859,7.47467021 C5.18901484,4.56743644 6.49010252,3 8.24986604,3 L8.24986604,3 L28.1425054,3 Z M23.887,5 L8.24986604,5 C7.58236755,5 6.74538116,6.05593405 5.94748119,8.41981151 L5.999,8.268 L6,25.934 L6.972,25.969 L10.192721,22.7484882 L12.929,25.485 L15.6673175,22.7484882 L18.404,25.485 L21.1857832,22.7046189 L22.966,24.485 L22.9669508,8.1 C22.9669508,6.85095767 23.2802956,5.81467467 23.887,5 L23.887,5 Z M14.7622329,15 C15.3145177,15 15.7622329,15.4477153 15.7622329,16 C15.7622329,16.5128358 15.3761927,16.9355072 14.8788541,16.9932723 L14.7622329,17 L9.76223293,17 C9.20994818,17 8.76223293,16.5522847 8.76223293,16 C8.76223293,15.4871642 9.14827312,15.0644928 9.6456118,15.0067277 L9.76223293,15 L14.7622329,15 Z M17.7622329,9.63092093 C18.3145177,9.63092093 18.7622329,10.0786362 18.7622329,10.6309209 C18.7622329,11.1437568 18.3761927,11.5664281 17.8788541,11.6241932 L17.7622329,11.6309209 L9.76223293,11.6309209 C9.20994818,11.6309209 8.76223293,11.1832057 8.76223293,10.6309209 C8.76223293,10.1180851 9.14827312,9.69541377 9.6456118,9.63764867 L9.76223293,9.63092093 L17.7622329,9.63092093 Z" id="Combined-Shape" fill="#E21B23" fill-rule="nonzero"></path>
    </g>
</svg>