<?xml version="1.0" encoding="UTF-8"?>
<svg width="32px" height="32px" viewBox="0 0 32 32" version="1.1" xmlns="http://www.w3.org/2000/svg" xmlns:xlink="http://www.w3.org/1999/xlink">
    <title>reports-file/bold</title>
    <defs>
        <path d="M18.287987,2.5 L27.1666667,11.3786797 L27.166,27 L30,27 C30.8284271,27 31.5,27.6715729 31.5,28.5 C31.5,29.2796961 30.9051119,29.9204487 30.14446,29.9931334 L30,30 L2,30 C1.17157288,30 0.5,29.3284271 0.5,28.5 C0.5,27.7203039 1.09488808,27.0795513 1.85553999,27.0068666 L2,27 L5.499,27 L5.5,2.5 L18.287987,2.5 Z M16.166,5.5 L8.5,5.5 L8.5,26.5 L24.166,26.5 L24.165,13.5 L16.1666667,13.5 L16.166,5.5 Z M19.166,7.62 L19.166,10.5 L22.045,10.5 L19.166,7.62 Z" id="path-1"></path>
    </defs>
    <g id="reports-file/bold" stroke="none" stroke-width="1" fill="none" fill-rule="evenodd">
        <mask id="mask-2" fill="white">
            <use xlink:href="#path-1"></use>
        </mask>
        <use id="Mask" fill="#5AA617" xlink:href="#path-1"></use>
    </g>
</svg>