<?xml version="1.0" encoding="UTF-8"?>
<svg width="32px" height="32px" viewBox="0 0 32 32" version="1.1" xmlns="http://www.w3.org/2000/svg" xmlns:xlink="http://www.w3.org/1999/xlink">
    <title>reports-file/regular</title>
    <g id="reports-file/regular" stroke="none" stroke-width="1" fill="none" fill-rule="evenodd">
        <path d="M18.0808802,3 L18.3641344,3.28338304 C18.3702441,3.2893305 18.3762781,3.29535543 18.3822346,3.30145623 L26.6666667,11.5857864 L26.666,27.5 L30,27.5 C30.5522847,27.5 31,27.9477153 31,28.5 C31,29.0128358 30.6139598,29.4355072 30.1166211,29.4932723 L30,29.5 L2,29.5 C1.44771525,29.5 1,29.0522847 1,28.5 C1,27.9871642 1.38604019,27.5644928 1.88337887,27.5067277 L2,27.5 L5.999,27.5 L6,3 L18.0808802,3 Z M16.666,5 L8,5 L8,27 L24.666,27 L24.665,13 L16.6666667,13 L16.666,5 Z M18.666,6.415 L18.666,11 L23.251,11 L18.666,6.415 Z" id="Combined-Shape" fill="#E21B23"></path>
    </g>
</svg>