<?xml version="1.0" encoding="UTF-8"?>
<svg width="32px" height="32px" viewBox="0 0 32 32" version="1.1" xmlns="http://www.w3.org/2000/svg" xmlns:xlink="http://www.w3.org/1999/xlink">
    <title>edit/bold</title>
    <g id="edit/bold" stroke="none" stroke-width="1" fill="none" fill-rule="evenodd">
        <path d="M19.387055,4.82495789 C21.0142396,3.19777337 23.6524271,3.19777337 25.2796116,4.82495789 L25.2796116,4.82495789 L26.8417087,6.38705507 C28.4688933,8.01423962 28.4688933,10.6524271 26.8417087,12.2796116 L26.8417087,12.2796116 L10.9546537,28.1666667 L3.5,28.1666667 L3.5,20.712013 Z M18.583,9.8705695 L6.5,21.953 L6.5,25.166 L9.712,25.166 L21.795,13.0825695 L18.583,9.8705695 Z M23.1582913,6.94627827 C22.7026796,6.49066658 21.9639871,6.49066658 21.5083754,6.94627825 L21.5083754,6.94627825 L20.704,7.7495695 L23.916,10.9615695 L24.7203884,10.1582912 C25.1109127,9.76776694 25.1667019,9.16926493 24.8877559,8.71931841 L24.8110458,8.61013301 L24.7203883,8.50837539 Z" id="Combined-Shape" fill="#5AA617" fill-rule="nonzero"></path>
    </g>
</svg>