<?xml version="1.0" encoding="UTF-8"?>
<svg width="32px" height="32px" viewBox="0 0 32 32" version="1.1" xmlns="http://www.w3.org/2000/svg" xmlns:xlink="http://www.w3.org/1999/xlink">
    <title>edit/regular</title>
    <g id="edit/regular" stroke="none" stroke-width="1" fill="none" fill-rule="evenodd">
        <path d="M19.7406084,5.17851129 C21.1725309,3.7465889 23.4941358,3.7465889 24.9260582,5.17851129 L24.9260582,5.17851129 L26.4881553,6.74060846 C27.9200777,8.17253086 27.9200777,10.4941358 26.4881553,11.9260582 L26.4881553,11.9260582 L10.7475469,27.6666667 L4,27.6666667 L4,20.9191198 Z M18.333,9.4135695 L6,21.747 L6,25.666 L9.919,25.666 L22.252,13.3325695 L18.333,9.4135695 Z M23.5118447,6.59272487 C22.8609709,5.94185104 21.8056958,5.94185104 21.154822,6.59272486 L21.154822,6.59272486 L19.747,7.9995695 L23.666,11.9185695 L25.0739418,10.5118446 C25.6482422,9.9375442 25.715807,9.0483986 25.276636,8.40001693 L25.1820453,8.27371541 L25.0739417,8.15482201 Z" id="Combined-Shape" fill="#E21B23" fill-rule="nonzero"></path>
    </g>
</svg>