<?xml version="1.0" encoding="UTF-8"?>
<svg width="32px" height="32px" viewBox="0 0 32 32" version="1.1" xmlns="http://www.w3.org/2000/svg" xmlns:xlink="http://www.w3.org/1999/xlink">
    <title>gift-domesti/bold</title>
    <g id="gift-domesti/bold" stroke="none" stroke-width="1" fill="none" fill-rule="evenodd">
        <path d="M25.1187698,4.36821192 C25.930956,5.77495966 25.2665884,7.43065819 23.8791848,8.66246662 L26.3695652,8.66169018 C27.7502771,8.66169018 28.8695652,9.78097831 28.8695652,11.1616902 L28.8695652,11.1616902 L28.8695652,15.4225597 C28.8695652,16.2596843 28.4581163,17.0007098 27.8264149,17.4544398 L27.826087,25.8573424 C27.826087,27.1828258 26.794551,28.267381 25.4904626,28.3520247 L25.326087,28.3573424 L12.2310998,28.3573424 C11.2565585,28.3573424 10.3769409,27.7919169 9.96783617,26.9193291 L9.95343889,26.8848181 C9.68906497,27.2114511 9.40784197,27.5386265 9.10991011,27.8663515 L9.10991011,27.8663515 L8,29.0872527 L6.89008989,27.8663515 C4.32647602,25.0463763 3,22.2670932 3,19.524009 C3,17.8392444 3.78311838,16.3341291 5.00055514,15.3890118 L5,11.1616902 C5,9.78097831 6.11928813,8.66169018 7.5,8.66169018 L7.5,8.66169018 L9.98983504,8.66198233 C8.60280273,7.43022425 7.93871566,5.77477532 8.75079541,4.36821192 C9.76389081,2.61347921 12.2611464,2.65468835 14.3804348,3.87826007 C15.6044312,4.58493472 16.5499102,5.5979921 16.9351322,6.66585756 C17.319655,5.5979921 18.265134,4.58493472 19.4891304,3.87826007 C21.6084188,2.65468835 24.1056744,2.61347921 25.1187698,4.36821192 Z M24.826,17.9220808 L12.7546869,17.9220879 C12.9139976,18.4271043 13,18.9656921 13,19.524009 C13,21.8763405 12.0245205,24.2552923 10.1299012,26.6636981 L12.6979729,25.6783744 C12.6344372,25.512629 12.4889589,25.3951583 12.3182779,25.3649778 L12.2310998,25.3573424 L24.826,25.3570808 L24.826,17.9220808 Z M6.77333634,17.8153127 L6.74093904,17.8414842 C6.29117866,18.2362191 6,18.8390651 6,19.524009 C6,21.0292526 6.63103383,22.6650111 7.93742808,24.4290552 L7.93742808,24.4290552 L8,24.5110808 L8.28753478,24.117055 C9.37692506,22.5638049 9.93564489,21.1118537 9.99474949,19.7627633 L9.99474949,19.7627633 L10,19.524009 C10,18.8838499 9.74565372,18.3154038 9.34521224,17.9215469 L7.5,17.9225597 C7.24726572,17.9225597 7.0032907,17.8850569 6.77333634,17.8153127 Z M25.869,11.6610808 L7.999,11.6610808 L7.999,14.357 C8.82160228,14.3573424 9.59465048,14.5610905 10.2759757,14.9215134 L25.869,14.9220808 L25.869,11.6610808 Z M11.6221075,6.02556226 L11.7053572,6.13232809 C11.9296649,6.39746979 12.25338,6.66655414 12.6413043,6.89052234 C13.2687117,7.25275617 13.5354348,7.99979956 13.3154721,8.66140914 L14.0299775,8.66198367 C13.9467212,8.37142501 13.950822,8.05613796 14.0537736,7.75901782 L14.0537736,7.75901782 L14.0916766,7.66614299 L14.0617269,7.59826503 L14.0062504,7.49654102 C13.8007499,7.15379131 13.3976672,6.77496055 12.8804348,6.47633628 L12.8804348,6.47633628 L12.6861702,6.37089348 C12.3623555,6.20610358 12.0406568,6.09628386 11.7558457,6.04487936 L11.7558457,6.04487936 L11.6221075,6.02556226 Z M22.2476084,6.0254753 L22.1137195,6.04487936 C21.8289084,6.09628386 21.5072097,6.20610358 21.183395,6.37089348 L20.9891304,6.47633628 C20.471898,6.77496055 20.0688153,7.15379131 19.8633148,7.49654102 L19.8078383,7.59826503 L19.7780392,7.66605603 L19.8157916,7.75901782 C19.9187432,8.05613796 19.922844,8.37142501 19.8395878,8.66198367 L20.5540931,8.66140914 C20.3341304,7.99979956 20.6008535,7.25275617 21.2282609,6.89052234 C21.6161852,6.66655414 21.9399003,6.39746979 22.1642081,6.13232809 L22.2476084,6.0254753 Z" id="Combined-Shape" fill="#5AA617"></path>
    </g>
</svg>