<?xml version="1.0" encoding="UTF-8"?>
<svg width="32px" height="32px" viewBox="0 0 32 32" version="1.1" xmlns="http://www.w3.org/2000/svg" xmlns:xlink="http://www.w3.org/1999/xlink">
    <title>owndevice/bold</title>
    <g id="owndevice/bold" stroke="none" stroke-width="1" fill="none" fill-rule="evenodd">
        <path d="M19.7,3 C21.1911688,3 22.4,4.20883118 22.4,5.7 L22.4,5.7 L22.4016059,15.1379075 C22.6051637,15.5690912 22.7164814,16.0453344 22.7164814,16.54011 L22.7164814,16.54011 L22.7164814,19.1174536 C22.7164814,19.6527505 22.6017788,20.1360506 22.4011242,20.5587943 L22.4,27.3 C22.4,28.7911688 21.1911688,30 19.7,30 L19.7,30 L7.7,30 C6.20883118,30 5,28.7911688 5,27.3 L5,27.3 L5,5.7 C5,4.20883118 6.20883118,3 7.7,3 L7.7,3 Z M9.8,6 L8,6 L8,27 L19.4,27 L19.4004692,22.4941626 L19.4004692,22.4941626 L19.2750464,22.4991284 L19.2750464,22.4991284 L19.1202351,22.4993712 C18.1392229,22.4802284 17.1529036,22.0666869 16.4446133,21.1743922 L16.4446133,21.1743922 L15.5032619,19.9885679 C15.4108812,19.8721818 15.2531506,19.8043065 15.0888552,19.8013048 L14.9899604,19.8074195 C14.9241324,19.8168604 14.8591352,19.8372047 14.7987309,19.8694996 L14.7987309,19.8694996 L12.9460918,20.8601881 C12.5703935,21.0610545 12.163769,21.177892 11.7503726,21.2108483 L11.5432219,21.220337 C10.851584,21.2286704 10.1523179,21.0040691 9.55724915,20.547218 L9.55724915,20.547218 L9.38402854,20.3975739 C8.08125398,19.171722 8.18029731,17.1173981 9.58821094,16.0137122 L9.58821094,16.0137122 L13.7445335,12.7549623 C14.3693029,12.2652117 15.1478798,12 15.9484293,12 L15.9484293,12 L16.7510337,12 L16.7510337,12 L16.9777299,12.0071002 C17.429886,12.0354543 17.8732282,12.1484507 18.2826138,12.3410469 L18.2826138,12.3410469 L19.4,12.867 L19.4,6 L17.6,6 L17.6,7.2 L9.8,7.2 L9.8,6 Z M24.5914814,12.75 C25.3711776,12.75 26.0119301,13.3448881 26.0846149,14.10554 L26.0914814,14.25 L26.0914814,23.25 C26.0914814,24.0296961 25.4965934,24.6704487 24.7359415,24.7431334 L24.5914814,24.75 L24.5914814,24.75 C23.8117853,24.75 23.1710328,24.1551119 23.098348,23.39446 L23.0914814,23.25 L23.0914814,14.25 C23.0914814,13.4215729 23.7630543,12.75 24.5914814,12.75 Z M16.7510337,15 L15.9484293,15 C15.8146207,15 15.6885337,15.0429498 15.5954485,15.1159184 L15.5954485,15.1159184 L11.883,18.026 L13.3841616,17.2239384 C13.9274539,16.9334692 14.5217339,16.7961083 15.1091996,16.8013981 L15.3046898,16.8084303 C16.2150596,16.8657694 17.0933995,17.2654764 17.7221388,17.9681886 L17.7221388,17.9681886 L17.8529689,18.1233933 L18.7942965,19.3091874 C18.908742,19.4533643 19.0791807,19.5080602 19.2425067,19.4991765 L19.3232849,19.4895562 C19.3494784,19.484726 19.3751947,19.4782916 19.4001526,19.4703682 L19.4,16.181 L19.298,16.133 L17.0055593,15.0556614 C16.9542724,15.0315334 16.8982192,15.0148376 16.8398998,15.0063881 L16.7510337,15 Z" id="Combined-Shape" fill="#5AA617"></path>
    </g>
</svg>