<?xml version="1.0" encoding="UTF-8"?>
<svg width="32px" height="32px" viewBox="0 0 32 32" version="1.1" xmlns="http://www.w3.org/2000/svg" xmlns:xlink="http://www.w3.org/1999/xlink">
    <title>owndevice/regular</title>
    <g id="owndevice/regular" stroke="none" stroke-width="1" fill="none" fill-rule="evenodd">
        <path d="M20.2,3 C21.4150264,3 22.4,3.98497356 22.4,5.2 L22.4,5.2 L22.4007604,14.7532898 C22.6043921,15.1447248 22.7164814,15.5833723 22.7164814,16.04011 L22.7164814,16.04011 L22.7164814,18.6174536 C22.7164814,19.1107202 22.6011646,19.5524152 22.4018287,19.9331167 L22.4,26.8 C22.4,28.0150264 21.4150264,29 20.2,29 L20.2,29 L8.2,29 C6.98497356,29 6,28.0150264 6,26.8 L6,26.8 L6,5.2 C6,3.98497355 6.98497355,3 8.2,3 L8.2,3 Z M10.8,5 L8.2,5 C8.08954305,5 8,5.08954305 8,5.2 L8,5.2 L8,26.8 C8,26.9104569 8.08954308,27 8.2,27 L8.2,27 L20.2,27 C20.3104569,27 20.4,26.9104569 20.4,26.8 L20.4,26.8 L20.400866,21.4210291 C19.3335767,21.6618683 18.1304184,21.3640363 17.3362222,20.3635185 L17.3362222,20.3635185 L16.3948887,19.1777168 C16.0955233,18.8005604 15.5158411,18.6864465 15.0629525,18.9285817 L15.0629525,18.9285817 L13.2103464,19.9192526 C12.3186175,20.396014 11.2168826,20.3075184 10.3808788,19.666083 L10.3808788,19.666083 L10.2266681,19.5334336 C9.14735869,18.5178524 9.22909491,16.8225066 10.3967158,15.90719 L10.3967158,15.90719 L14.5530003,12.6484699 C15.0891747,12.228168 15.7590033,12 16.4484293,12 L16.4484293,12 L17.2510337,12 C17.7077975,12 18.1589359,12.1002043 18.5697769,12.2934852 L18.5697769,12.2934852 L20.4,13.154 L20.4,5.2 C20.4,5.10795257 20.3378173,5.03042863 20.2531679,5.0071442 L20.2,5 L17.6,5 L17.6,6.2 L10.8,6.2 L10.8,5 Z M25.0914814,12.75 C25.6043173,12.75 26.0269886,13.1360402 26.0847537,13.6333789 L26.0914814,13.75 L26.0914814,22.75 C26.0914814,23.3022847 25.6437662,23.75 25.0914814,23.75 C24.5786456,23.75 24.1559743,23.3639598 24.0982092,22.8666211 L24.0914814,22.75 L24.0914814,13.75 C24.0914814,13.1977153 24.5391967,12.75 25.0914814,12.75 Z M17.2510337,14 L16.4484293,14 C16.2034972,14 15.9686619,14.0799934 15.7869436,14.2224407 L15.7869436,14.2224407 L11.6306716,17.481151 C11.4242853,17.6429404 11.4117775,17.9023736 11.5592063,18.042883 L11.5592063,18.042883 L11.6358981,18.1096923 C11.808949,18.2421325 12.0666344,18.2628308 12.2672988,18.1555459 L12.2672988,18.1555459 L14.1199063,17.1648743 C15.4178137,16.4709529 17.0558055,16.7934012 17.9613601,17.934267 L17.9613601,17.934267 L18.9026777,19.1200486 C19.2940291,19.6130679 19.9949999,19.5897279 20.401393,19.2592767 L20.4010945,15.399715 C20.3379105,15.3474482 20.266199,15.3017634 20.1868523,15.2644384 L20.1868523,15.2644384 L17.7184073,14.1032282 C17.5746904,14.0356163 17.414339,14 17.2510337,14 L17.2510337,14 Z" id="Combined-Shape" fill="#E21B23"></path>
    </g>
</svg>