<?xml version="1.0" encoding="UTF-8"?>
<svg width="32px" height="32px" viewBox="0 0 32 32" version="1.1" xmlns="http://www.w3.org/2000/svg" xmlns:xlink="http://www.w3.org/1999/xlink">
    <title>pos/bold</title>
    <g id="pos/bold" stroke="none" stroke-width="1" fill="none" fill-rule="evenodd">
        <path d="M25.0196429,3 C26.1042274,3 27.1,3.7966181 27.1,4.96428571 L27.1,4.96428571 L27.1,11.5714286 L22.457,11.571 L22.457,13.214 L25.6,13.2142857 C27.0346827,13.2142857 28.2991176,14.221998 28.3942595,15.6271341 L28.4,15.797619 L28.399,26.956 L29.5,26.9571429 C30.3284271,26.9571429 31,27.6287157 31,28.4571429 C31,29.236839 30.4051119,29.8775915 29.64446,29.9502763 L29.5,29.9571429 L3.5,29.9571429 C2.67157288,29.9571429 2,29.28557 2,28.4571429 C2,27.6774467 2.59488808,27.0366942 3.35553999,26.9640094 L3.5,26.9571429 L4.6,26.956 L4.6,15.797619 C4.6,14.3616655 5.80925477,13.2987242 7.2287192,13.2190837 L7.4,13.2142857 L19.457,13.214 L19.457,11.571 L14.8142857,11.5714286 L14.8142857,4.96428571 C14.8142857,3.7966181 15.8100583,3 16.8946429,3 L16.8946429,3 Z M25.399,16.214 L7.6,16.214 L7.6,25.657 L25.399,25.657 L25.399,16.214 Z M24.1,6 L17.814,6 L17.814,8.571 L24.1,8.571 L24.1,6 Z" id="Combined-Shape" fill="#5AA617"></path>
    </g>
</svg>