<?xml version="1.0" encoding="UTF-8"?>
<svg width="32px" height="32px" viewBox="0 0 32 32" version="1.1" xmlns="http://www.w3.org/2000/svg" xmlns:xlink="http://www.w3.org/1999/xlink">
    <title>pos/regular</title>
    <g id="pos/regular" stroke="none" stroke-width="1" fill="none" fill-rule="evenodd">
        <path d="M24.5196429,3 C25.34954,3 26.1,3.600368 26.1,4.46428571 L26.1,4.46428571 L26.1,10.5714286 L21.457,10.571 L21.457,13.214 L25.1,13.2142857 C26.280383,13.2142857 27.3069898,14.0270239 27.3940286,15.1435328 L27.4,15.297619 L27.399,26.957 L29,26.9571429 C29.5522847,26.9571429 30,27.4048581 30,27.9571429 C30,28.4699787 29.6139598,28.89265 29.1166211,28.9504151 L29,28.9571429 L3,28.9571429 C2.44771525,28.9571429 2,28.5094276 2,27.9571429 C2,27.444307 2.38604019,27.0216357 2.88337887,26.9638706 L3,26.9571429 L4.6,26.957 L4.60014608,26.6744106 C4.60004883,26.6686663 4.6,26.6629103 4.6,26.6571429 L4.6,26.64 L4.6,15.297619 C4.6,14.1545463 5.57528584,13.2921093 6.74006564,13.2192755 L6.9,13.2142857 L19.457,13.214 L19.457,10.571 L14.8142857,10.5714286 L14.8142857,4.46428571 C14.8142857,3.600368 15.5647457,3 16.3946429,3 L16.3946429,3 Z M25.1,15.2142857 L6.9,15.2142857 C6.7653976,15.2142857 6.67693174,15.2506177 6.63291031,15.2753091 L6.63291031,15.2753091 L6.6,15.297619 L6.6,25.657 L25.399,25.657 L25.4,15.297619 L25.3670897,15.2753091 C25.3340736,15.2567906 25.2760576,15.2317242 25.1923276,15.2203484 L25.1923276,15.2203484 L25.1,15.2142857 Z M24.1,4.999 L16.814,4.999 L16.814,8.571 L24.1,8.571 L24.1,4.999 Z" id="Combined-Shape" fill="#E21B23"></path>
    </g>
</svg>