<?xml version="1.0" encoding="UTF-8"?>
<svg width="32px" height="32px" viewBox="0 0 32 32" version="1.1" xmlns="http://www.w3.org/2000/svg" xmlns:xlink="http://www.w3.org/1999/xlink">
    <title>logout/bold</title>
    <defs>
        <path d="M20.1666667,27.8333333 L2.5,27.8333333 L2.5,3.5 L20.1666667,3.5 L20.166,14.166 L23.045,14.166 L21.6060065,12.7273268 C21.0568317,12.1781521 21.0225083,11.3090896 21.5030362,10.7199289 L21.6060065,10.6060065 C22.1551813,10.0568317 23.0242437,10.0225083 23.6134044,10.5030362 L23.7273268,10.6060065 L28.787987,15.6666667 L23.7273268,20.7273268 C23.1415404,21.3131133 22.1917929,21.3131133 21.6060065,20.7273268 C21.0568317,20.1781521 21.0225083,19.3090896 21.5030362,18.7199289 L21.6060065,18.6060065 L23.046,17.166 L20.166,17.166 L20.1666667,27.8333333 Z M17.166,6.5 L5.5,6.5 L5.5,24.833 L17.166,24.833 L17.166,17.166 L14,17.1666667 C13.1715729,17.1666667 12.5,16.4950938 12.5,15.6666667 C12.5,14.8869705 13.0948881,14.246218 13.85554,14.1735332 L14,14.1666667 L17.166,14.166 L17.166,6.5 Z" id="path-1"></path>
    </defs>
    <g id="logout/bold" stroke="none" stroke-width="1" fill="none" fill-rule="evenodd">
        <mask id="mask-2" fill="white">
            <use xlink:href="#path-1"></use>
        </mask>
        <use id="Mask" fill="#5AA617" fill-rule="nonzero" xlink:href="#path-1"></use>
    </g>
</svg>