<?xml version="1.0" encoding="UTF-8"?>
<svg width="32px" height="32px" viewBox="0 0 32 32" version="1.1" xmlns="http://www.w3.org/2000/svg" xmlns:xlink="http://www.w3.org/1999/xlink">
    <title>logout/regular</title>
    <g id="logout/regular" stroke="none" stroke-width="1" fill="none" fill-rule="evenodd">
        <path d="M19.6666667,27.3333333 L3,27.3333333 L3,4 L19.6666667,4 L19.666,14.666 L24.252,14.666 L21.9595599,12.3737734 C21.5990759,12.0132895 21.5713464,11.4460584 21.8763713,11.0537672 L21.9595599,10.9595599 C22.3200438,10.5990759 22.8872749,10.5713464 23.2795661,10.8763713 L23.3737734,10.9595599 L28.0808802,15.6666667 L23.3737734,20.3737734 C22.9832492,20.7642977 22.3500842,20.7642977 21.9595599,20.3737734 C21.5990759,20.0132895 21.5713464,19.4460584 21.8763713,19.0537672 L21.9595599,18.9595599 L24.252,16.666 L19.666,16.666 L19.6666667,27.3333333 Z M17.666,6 L5,6 L5,25.333 L17.666,25.333 L17.666,16.666 L14,16.6666667 C13.4477153,16.6666667 13,16.2189514 13,15.6666667 C13,15.1538308 13.3860402,14.7311595 13.8833789,14.6733944 L14,14.6666667 L17.666,14.666 L17.666,6 Z" id="Combined-Shape" fill="#E21B23" fill-rule="nonzero"></path>
    </g>
</svg>