<?xml version="1.0" encoding="UTF-8"?>
<svg width="32px" height="32px" viewBox="0 0 32 32" version="1.1" xmlns="http://www.w3.org/2000/svg" xmlns:xlink="http://www.w3.org/1999/xlink">
    <title>kiosk/bold</title>
    <g id="kiosk/bold" stroke="none" stroke-width="1" fill="none" fill-rule="evenodd">
        <path d="M24.78125,2 C26.514667,2 27.5,3.7517031 27.5,5.66666667 L27.5,5.66666667 L27.5,31 L5,31 L5,5.66666667 C5,3.7517031 5.98533299,2 7.71875,2 L7.71875,2 Z M24.393,5 L8.106,5 L8.07967682,5.07674718 C8.04315973,5.19787957 8.01660006,5.34335455 8.00560255,5.50286267 L8.00560255,5.50286267 L8,5.66666667 L8,28 L24.5,28 L24.5,5.66666667 C24.5,5.4430426 24.4690126,5.23825704 24.4203232,5.07674718 L24.4203232,5.07674718 L24.393,5 Z M16.25,17.84375 C17.0784271,17.84375 17.75,18.5153229 17.75,19.34375 C17.75,20.1234461 17.1551119,20.7641987 16.39446,20.8368834 L16.25,20.84375 L11.375,20.84375 C10.5465729,20.84375 9.875,20.1721771 9.875,19.34375 C9.875,18.5640539 10.4698881,17.9233013 11.23054,17.8506166 L11.375,17.84375 L16.25,17.84375 Z M21.9375,17.84375 C22.7659271,17.84375 23.4375,18.5153229 23.4375,19.34375 C23.4375,20.1234461 22.8426119,20.7641987 22.08196,20.8368834 L21.9375,20.84375 L20.3125,20.84375 C19.4840729,20.84375 18.8125,20.1721771 18.8125,19.34375 C18.8125,18.5640539 19.4073881,17.9233013 20.16804,17.8506166 L20.3125,17.84375 L21.9375,17.84375 Z M20.6480978,6.875 C21.7770893,6.875 22.7663043,7.74174084 22.7663043,8.91666667 L22.7663043,8.91666667 L22.7663043,16.375 L9.875,16.375 L9.875,8.91666667 C9.875,7.74174084 10.8642151,6.875 11.9932065,6.875 L11.9932065,6.875 Z M19.766,9.875 L12.874,9.875 L12.874,13.375 L19.766,13.375 L19.766,9.875 Z" id="Combined-Shape" fill="#5AA617"></path>
    </g>
</svg>