<?xml version="1.0" encoding="UTF-8"?>
<svg width="32px" height="32px" viewBox="0 0 32 32" version="1.1" xmlns="http://www.w3.org/2000/svg" xmlns:xlink="http://www.w3.org/1999/xlink">
    <title>kiosk/regular</title>
    <g id="kiosk/regular" stroke="none" stroke-width="1" fill="none" fill-rule="evenodd">
        <path d="M24.28125,2 C25.661227,2 26.5,3.49115197 26.5,5.16666667 L26.5,5.16666667 L26.5,30 L5,30 L5,5.16666667 C5,3.49115197 5.83877298,2 7.21875,2 L7.21875,2 Z M24.28125,4 L7.25374631,4.00106894 C7.28119025,4.00368672 7.28650473,4.01239071 7.27443858,4.04013809 L7.27443858,4.04013809 L7.22853915,4.12486321 C7.08977396,4.37155688 7,4.74888929 7,5.16666667 L7,5.16666667 L7,28 L24.5,28 L24.5,5.16666667 C24.5,4.80857177 24.4340436,4.48019155 24.3278133,4.23832441 L24.3278133,4.23832441 L24.2714609,4.12486321 L24.2255614,4.04013809 C24.2094732,4.00314158 24.2242839,4 24.28125,4 L24.28125,4 Z M15.75,17.84375 C16.3022847,17.84375 16.75,18.2914653 16.75,18.84375 C16.75,19.3565858 16.3639598,19.7792572 15.8666211,19.8370223 L15.75,19.84375 L10.875,19.84375 C10.3227153,19.84375 9.875,19.3960347 9.875,18.84375 C9.875,18.3309142 10.2610402,17.9082428 10.7583789,17.8504777 L10.875,17.84375 L15.75,17.84375 Z M21.4375,17.84375 C21.9897847,17.84375 22.4375,18.2914653 22.4375,18.84375 C22.4375,19.3565858 22.0514598,19.7792572 21.5541211,19.8370223 L21.4375,19.84375 L19.8125,19.84375 C19.2602153,19.84375 18.8125,19.3960347 18.8125,18.84375 C18.8125,18.3309142 19.1985402,17.9082428 19.6958789,17.8504777 L19.8125,17.84375 L21.4375,17.84375 Z M20.1480978,6.875 C21.0145675,6.875 21.7663043,7.5336647 21.7663043,8.41666667 L21.7663043,8.41666667 L21.7663043,15.375 L9.875,15.375 L9.875,8.41666667 C9.875,7.5336647 10.6267369,6.875 11.4932065,6.875 L11.4932065,6.875 Z M19.766,8.875 L11.874,8.875 L11.874,13.375 L19.766,13.375 L19.766,8.875 Z" id="Combined-Shape" fill="#E21B23"></path>
    </g>
</svg>