<?xml version="1.0" encoding="UTF-8"?>
<svg width="32px" height="32px" viewBox="0 0 32 32" version="1.1" xmlns="http://www.w3.org/2000/svg" xmlns:xlink="http://www.w3.org/1999/xlink">
    <title>location/bold</title>
    <defs>
        <path d="M16,2.5 C21.2467051,2.5 25.5,6.75329488 25.5,12 C25.5,17.5043199 22.662442,23.1794359 17.0862069,29.0344828 L17.0862069,29.0344828 L16,30.175 L14.9137931,29.0344828 C9.33755804,23.1794359 6.5,17.5043199 6.5,12 C6.5,6.75329488 10.7532949,2.5 16,2.5 Z M16,5.5 C12.4101491,5.5 9.5,8.41014912 9.5,12 C9.5,16.1774024 11.5325499,20.6500536 15.6703216,25.4112404 L15.6703216,25.4112404 L15.999,25.785 L16.3296784,25.4112404 C20.3556184,20.7787344 22.3885947,16.4193781 22.4955445,12.3393552 L22.4955445,12.3393552 L22.5,12 C22.5,8.41014912 19.5898509,5.5 16,5.5 Z M16,9.16666667 C17.5648068,9.16666667 18.8333333,10.4351932 18.8333333,12 C18.8333333,13.5648068 17.5648068,14.8333333 16,14.8333333 C14.4351932,14.8333333 13.1666667,13.5648068 13.1666667,12 C13.1666667,10.4351932 14.4351932,9.16666667 16,9.16666667 Z" id="path-1"></path>
    </defs>
    <g id="location/bold" stroke="none" stroke-width="1" fill="none" fill-rule="evenodd">
        <mask id="mask-2" fill="white">
            <use xlink:href="#path-1"></use>
        </mask>
        <use id="Mask" fill="#5AA617" fill-rule="nonzero" xlink:href="#path-1"></use>
    </g>
</svg>