<?xml version="1.0" encoding="UTF-8"?>
<svg width="32px" height="32px" viewBox="0 0 32 32" version="1.1" xmlns="http://www.w3.org/2000/svg" xmlns:xlink="http://www.w3.org/1999/xlink">
    <title>location/regular</title>
    <g id="location/regular" stroke="none" stroke-width="1" fill="none" fill-rule="evenodd">
        <path d="M16,3 C20.9705627,3 25,7.02943725 25,12 C25,17.3584355 22.2194058,22.919624 16.7241379,28.6896552 L16.7241379,28.6896552 L16,29.45 L15.2758621,28.6896552 C9.78059425,22.919624 7,17.3584355 7,12 C7,7.02943725 11.0294373,3 16,3 Z M16,5 C12.1340067,5 9,8.13400675 9,12 C9,16.4338337 11.2010863,21.1527086 15.6560385,26.151749 L15.6560385,26.151749 L16,26.532 L16.3439615,26.151749 C20.6846842,21.2808892 22.885642,16.6760115 22.9956577,12.3416263 L22.9956577,12.3416263 L23,12 C23,8.13400675 19.8659933,5 16,5 Z M16,9.66666667 C17.2886644,9.66666667 18.3333333,10.7113356 18.3333333,12 C18.3333333,13.2886644 17.2886644,14.3333333 16,14.3333333 C14.7113356,14.3333333 13.6666667,13.2886644 13.6666667,12 C13.6666667,10.7113356 14.7113356,9.66666667 16,9.66666667 Z M16,11.6666667 C15.8159051,11.6666667 15.6666667,11.8159051 15.6666667,12 C15.6666667,12.1840949 15.8159051,12.3333333 16,12.3333333 C16.1840949,12.3333333 16.3333333,12.1840949 16.3333333,12 C16.3333333,11.8159051 16.1840949,11.6666667 16,11.6666667 Z" id="Combined-Shape" fill="#E21B23" fill-rule="nonzero"></path>
    </g>
</svg>