<?xml version="1.0" encoding="UTF-8"?>
<svg width="32px" height="32px" viewBox="0 0 32 32" version="1.1" xmlns="http://www.w3.org/2000/svg" xmlns:xlink="http://www.w3.org/1999/xlink">
    <title>reports-transaction/bold</title>
    <defs>
        <path d="M9,2.87867966 L14.0606602,7.93933983 C14.6464466,8.52512627 14.6464466,9.47487373 14.0606602,10.0606602 C13.5114854,10.609835 12.642423,10.6441584 12.0532622,10.1636304 L11.9393398,10.0606602 L10.5,8.62067966 L10.5,25 C10.5,25.3842788 10.3554968,25.7348071 10.1178648,26.0002105 L21.212,25.9996797 L17.2726732,22.0606602 C16.6868867,21.4748737 16.6868867,20.5251263 17.2726732,19.9393398 C17.8218479,19.390165 18.6909104,19.3558416 19.2800711,19.8363696 L19.3939935,19.9393398 L20.833,21.3786797 L20.8333333,5 C20.8333333,4.17157288 21.5049062,3.5 22.3333333,3.5 C23.1130295,3.5 23.753782,4.09488808 23.8264668,4.85553999 L23.8333333,5 L23.833,21.3776797 L25.2726732,19.9393398 C25.8584596,19.3535534 26.8082071,19.3535534 27.3939935,19.9393398 C27.9431683,20.4885146 27.9774917,21.357577 27.4969638,21.9467378 L27.3939935,22.0606602 L23.454,25.9996797 L30,26 C30.8284271,26 31.5,26.6715729 31.5,27.5 C31.5,28.2796961 30.9051119,28.9204487 30.14446,28.9931334 L30,29 L2,29 C1.17157288,29 0.5,28.3284271 0.5,27.5 C0.5,26.7203039 1.09488808,26.0795513 1.85553999,26.0068666 L2,26 L7.88213518,26.0002105 C7.67463767,25.7684633 7.53814698,25.471812 7.50686658,25.14446 L7.5,25 L7.5,8.61967966 L6.06066017,10.0606602 C5.51148539,10.609835 4.64242298,10.6441584 4.05326224,10.1636304 L3.93933983,10.0606602 C3.39016504,9.51148539 3.35584162,8.64242298 3.83636956,8.05326224 L3.93933983,7.93933983 L9,2.87867966 Z" id="path-1"></path>
    </defs>
    <g id="reports-transaction/bold" stroke="none" stroke-width="1" fill="none" fill-rule="evenodd">
        <mask id="mask-2" fill="white">
            <use xlink:href="#path-1"></use>
        </mask>
        <use id="Mask" fill="#5AA617" xlink:href="#path-1"></use>
    </g>
</svg>