<?xml version="1.0" encoding="UTF-8"?>
<svg width="32px" height="32px" viewBox="0 0 32 32" version="1.1" xmlns="http://www.w3.org/2000/svg" xmlns:xlink="http://www.w3.org/1999/xlink">
    <title>reports-transaction/regular</title>
    <g id="reports-transaction/regular" stroke="none" stroke-width="1" fill="none" fill-rule="evenodd">
        <path d="M30,26.9142136 C30.5522847,26.9142136 31,27.3619288 31,27.9142136 C31,28.4270494 30.6139598,28.8497207 30.1166211,28.9074858 L30,28.9142136 L2,28.9142136 C1.44771525,28.9142136 1,28.4664983 1,27.9142136 C1,27.4013777 1.38604019,26.9787064 1.88337887,26.9209413 L2,26.9142136 L30,26.9142136 Z M22.3333333,4.41421356 C22.8461692,4.41421356 23.2688405,4.80025375 23.3266056,5.29759244 L23.3333333,5.41421356 L23.333,22.999 L25.6262266,20.7071068 C25.9867105,20.3466228 26.5539416,20.3188933 26.9462328,20.6239182 L27.0404401,20.7071068 C27.4009241,21.0675907 27.4286536,21.6348218 27.1236287,22.027113 L27.0404401,22.1213203 L22.3333333,26.8284271 L17.6262266,22.1213203 C17.2357023,21.7307961 17.2357023,21.0976311 17.6262266,20.7071068 C17.9867105,20.3466228 18.5539416,20.3188933 18.9462328,20.6239182 L19.0404401,20.7071068 L21.333,22.999 L21.3333333,5.41421356 C21.3333333,4.86192881 21.7810486,4.41421356 22.3333333,4.41421356 Z M9,4 L13.7071068,8.70710678 C14.0976311,9.09763107 14.0976311,9.73079605 13.7071068,10.1213203 C13.3466228,10.4818043 12.7793918,10.5095338 12.3871006,10.204509 L12.2928932,10.1213203 L10,7.829 L10,25.4142136 C10,25.9664983 9.55228475,26.4142136 9,26.4142136 C8.48716416,26.4142136 8.06449284,26.0281734 8.00672773,25.5308347 L8,25.4142136 L8,7.829 L5.70710678,10.1213203 C5.34662282,10.4818043 4.77939176,10.5095338 4.38710056,10.204509 L4.29289322,10.1213203 C3.93240926,9.76083638 3.90467972,9.19360533 4.20970461,8.80131412 L4.29289322,8.70710678 L9,4 Z" id="Combined-Shape" fill="#E21B23"></path>
    </g>
</svg>