<svg id="accessory" xmlns="http://www.w3.org/2000/svg" width="30" height="30" viewBox="0 0 30 30">
  <path id="Контур_4" data-name="Контур 4" d="M15,28.125A13.125,13.125,0,1,0,1.875,15,13.125,13.125,0,0,0,15,28.125ZM15,30A15,15,0,1,0,0,15,15,15,0,0,0,15,30Z" fill-rule="evenodd"/>
  <path id="Контур_5" data-name="Контур 5" d="M11.091,6.588,6.764,7.13l-.155.718L7.46,8c.555.132.665.333.544.886L6.61,15.443c-.367,1.695.2,2.492,1.527,2.492a3.913,3.913,0,0,0,2.768-1.13l.166-.786a2.093,2.093,0,0,1-1.3.465c-.52,0-.708-.365-.574-1.007Z" transform="translate(5.671 5.708)"/>
  <circle id="Эллипс_1" data-name="Эллипс 1" cx="1.889" cy="1.889" r="1.889" transform="translate(13.111 6.555)"/>
</svg>
