<svg xmlns="http://www.w3.org/2000/svg" width="27.857" height="30" viewBox="0 0 27.857 30" fill="currentColor">
  <path d="M14.5,14.946a.268.268,0,1,0,0-.536A2.429,2.429,0,0,1,12.089,12a.268.268,0,0,0-.536,0A2.944,2.944,0,0,0,14.5,14.946ZM3.618,9.857H25.382Q20.929,4.835,20.929-4.071a4.314,4.314,0,0,0-.4-1.758,6.4,6.4,0,0,0-1.155-1.724A5.608,5.608,0,0,0,17.338-8.9,7.385,7.385,0,0,0,14.5-9.429a7.385,7.385,0,0,0-2.838.527A5.608,5.608,0,0,0,9.628-7.554,6.4,6.4,0,0,0,8.473-5.829a4.314,4.314,0,0,0-.4,1.758Q8.071,4.835,3.618,9.857Zm24.81,0A2.173,2.173,0,0,1,26.286,12h-7.5A4.287,4.287,0,0,1,14.5,16.286,4.287,4.287,0,0,1,10.214,12h-7.5a2.059,2.059,0,0,1-1.507-.636A2.059,2.059,0,0,1,.571,9.857,14.7,14.7,0,0,0,2.095,8.384a13.277,13.277,0,0,0,1.423-2A15.039,15.039,0,0,0,4.765,3.73,19.536,19.536,0,0,0,5.6.281a27.385,27.385,0,0,0,.326-4.353A6.961,6.961,0,0,1,7.887-8.8a8.277,8.277,0,0,1,5.14-2.653,1.667,1.667,0,0,1-.134-.653,1.55,1.55,0,0,1,.469-1.138,1.55,1.55,0,0,1,1.138-.469,1.55,1.55,0,0,1,1.138.469,1.55,1.55,0,0,1,.469,1.138,1.667,1.667,0,0,1-.134.653A8.277,8.277,0,0,1,21.113-8.8a6.961,6.961,0,0,1,1.959,4.729A27.384,27.384,0,0,0,23.4.281a19.536,19.536,0,0,0,.837,3.449,15.039,15.039,0,0,0,1.247,2.653,13.277,13.277,0,0,0,1.423,2A14.7,14.7,0,0,0,28.429,9.857Z" transform="translate(-0.571 13.714)"/>
</svg>
