<?xml version="1.0" encoding="UTF-8"?>
<svg width="30px" height="30px" viewBox="0 0 30 30" version="1.1" xmlns="http://www.w3.org/2000/svg" xmlns:xlink="http://www.w3.org/1999/xlink">
    <!-- Generator: Sketch 58 (84663) - https://sketch.com -->
    <title>gift intl</title>
    <desc>Created with Sketch.</desc>
    <defs>
        <path d="M15.1,3.21384388 C15.8,2.91384388 16.7,2.91384388 17.4,3.31384388 C18.7,3.91384388 19.2,4.91384388 19,6.01384388 C18.7,7.01384388 17.9,7.81384388 17,8.31384388 L17,8.31384388 L19.7,8.31384388 L19.7,8.31384388 L19.8403703,8.32039002 C20.6717452,8.39833141 21.3,9.1612123 21.3,10.0138439 L21.3,10.0138439 L21.3011188,11.8603846 C24.4819457,12.8448421 26.8,15.8144225 26.8,19.3138439 C26.8,23.6138439 23.3,27.1138439 19,27.1138439 C15.3911488,27.1138439 12.3457939,24.6485478 11.4600544,21.3140749 L5.1,21.3138439 L5.1,21.3138439 L4.95962968,21.3072977 C4.12825485,21.2293563 3.5,20.4664755 3.5,19.6138439 L3.5,19.6138439 L3.5,14.8138439 C3.5,14.6138439 3.6,14.3138439 3.7,14.1138439 C3.2,13.8138439 3,13.3138439 3,12.8138439 L3,12.8138439 L3,10.0138439 L3,10.0138439 L3.00639575,9.86578146 C3.07839506,9.03822659 3.75,8.41384388 4.6,8.41384388 L4.6,8.41384388 L7.4,8.41384388 C6.4,7.91384388 5.7,7.11384388 5.4,6.11384388 C5.2,5.01384388 5.8,4.01384388 7.1,3.41384388 C7.8,3.01384388 8.6,3.01384388 9.4,3.31384388 C10.6,4.11384388 11.5,5.21384388 11.9,6.51384388 L11.9,6.51384388 L12.2,7.01384388 L12.4,6.51384388 C12.8,5.21384388 13.7,4.11384388 15.1,3.21384388 Z M16,22.3138439 C16.2,23.0138439 16.4,23.6138439 16.7,24.2138439 C17,25.0138439 17.7,25.4138439 18.4,25.6138439 L18.4,25.6138439 L18.4,22.4138439 C17.5,22.4138439 16.7,22.3138439 16,22.3138439 Z M22.1,22.3138439 C21.2,22.4138439 20.4,22.4138439 19.6,22.4138439 L19.6,22.4138439 L19.6,25.6138439 C20.3,25.5138439 21,25.0138439 21.3,24.2138439 C21.7,23.6138439 21.9,22.9138439 22.1,22.3138439 Z M12.9,21.9138439 C13.5,23.3138439 14.5,24.4138439 15.8,25.1138439 C15.7,25.0138439 15.6,24.9138439 15.6,24.8138439 C15.1,23.9138439 14.8,23.0138439 14.6,22.1138439 C14,22.1138439 13.5,22.0138439 12.9,21.9138439 Z M25,22.1138439 C24.4,22.1138439 24,22.2138439 23.3,22.3138439 C23.1,23.2138439 22.7,24.1138439 22.3,24.9138439 C22.3,24.9138439 22.3,25.0138439 22.2,25.1138439 C23.4,24.4138439 24.4,23.3138439 25,22.1138439 Z M18.3,17.5138439 C17.4,17.5138439 16.5,17.5138439 15.6,17.6138439 C15.5,18.2138439 15.5,18.7138439 15.5,19.3138439 L15.5008,19.6634439 C15.504,20.1178439 15.52,20.5338439 15.6,21.0138439 C16.5,21.1138439 17.4,21.1138439 18.3,21.1138439 L18.3,21.1138439 Z M19.7,17.5138439 L19.7,21.1138439 C20.6,21.1138439 21.5,21.1138439 22.4,21.0138439 C22.5,20.4138439 22.5,19.9138439 22.5,19.3138439 C22.5,18.7138439 22.4,18.2138439 22.4,17.6138439 C21.5,17.5138439 20.6,17.5138439 19.7,17.5138439 L19.7,17.5138439 Z M14.3,17.8138439 L12.5,18.1138439 C12.4,18.5138439 12.4,18.9138439 12.4,19.3138439 L12.4008,19.5642439 C12.404,19.9098439 12.42,20.2938439 12.5,20.6138439 L12.5,20.6138439 L14.3,20.9138439 C14.2,20.3138439 14.2,19.8138439 14.2,19.3138439 L14.2008,19.0138439 C14.204,18.6138439 14.22,18.2138439 14.3,17.8138439 L14.3,17.8138439 Z M23.6,17.8138439 C23.7,18.3138439 23.7,18.8138439 23.7,19.3138439 C23.7,19.9138439 23.7,20.4138439 23.6,20.9138439 C24.1,20.8138439 24.8,20.7138439 25.4,20.6138439 C25.5,20.2138439 25.6,19.8138439 25.6,19.3138439 C25.6,18.9138439 25.6,18.5138439 25.5,18.1138439 C24.9,18.0138439 24.2,17.9138439 23.6,17.8138439 Z M11.6,14.5138439 L5.2,14.5138439 C5,14.5138439 4.8,14.7138439 4.8,14.9138439 L4.8,14.9138439 L4.8,19.7138439 C4.8,19.9138439 5,20.1138439 5.2,20.1138439 L5.2,20.1138439 L11.2407406,20.1138203 C11.2138031,19.8507623 11.2,19.5838806 11.2,19.3138439 C11.2,18.4525887 11.340409,17.623427 11.5995321,16.8480536 L11.6,14.5138439 Z M22.3,13.6138439 C22.4,13.7138439 22.5,13.8138439 22.4,13.9138439 C22.9,14.8138439 23.2,15.7138439 23.4,16.6138439 C23.9,16.6138439 24.5,16.7138439 25,16.8138439 C24.7,15.9138439 24.2,15.2138439 23.6,14.6138439 L23.6,14.6138439 L23.399537,14.4217142 C23.0638889,14.1138439 22.7166667,13.8638439 22.3,13.6138439 Z M15.6,13.6138439 L15.3284024,13.8020551 C14.2633136,14.5694652 13.4538462,15.5138439 12.9,16.7138439 C13.5,16.7138439 14,16.6138439 14.5,16.6138439 C14.7,15.7138439 15.1,14.8138439 15.5,13.9138439 C15.6,13.8138439 15.6,13.7138439 15.6,13.6138439 L15.6,13.6138439 Z M19.6,12.8138439 L19.6,16.3138439 C20.4,16.3138439 21.3,16.4138439 22,16.5138439 C21.9,15.8138439 21.6,15.1138439 21.3,14.5138439 C21,13.7138439 20.4,13.0138439 19.6,12.8138439 L19.6,12.8138439 Z M18.3,12.7138439 L18.2,12.7138439 C17.5,13.1138439 16.9,13.7138439 16.6,14.5138439 C16.3,15.1138439 16.1,15.8138439 15.8,16.4138439 C16.7,16.3138439 17.5,16.3138439 18.3,16.3138439 L18.3,16.3138439 L18.3,12.7138439 L18.3,12.7138439 Z M12.7800603,14.6129225 L12.7,14.6138439 L12.7001937,14.7202099 C12.7265166,14.6842133 12.75314,14.6484495 12.7800603,14.6129225 Z M19.7746094,9.62282825 L19.7,9.61384388 L12.8,9.61384388 L12.8,13.4138439 L13.9050735,13.4129771 C15.2729541,12.2302297 17.0546044,11.5138439 19,11.5138439 C19.3736724,11.5138439 19.7413033,11.5402748 20.1011211,11.5913649 L20.1,10.0138439 L20.1,10.0138439 L20.0910156,9.9392345 C20.05,9.76696888 19.875,9.61384388 19.7,9.61384388 Z M11.5,9.61384388 L4.6,9.61384388 L4.6,9.61384388 L4.52539063,9.62282825 C4.353125,9.66384388 4.2,9.83884388 4.2,10.0138439 L4.2,10.0138439 L4.2,12.8138439 L4.2,12.8138439 L4.20898438,12.8884533 C4.25,13.0607189 4.425,13.2138439 4.6,13.2138439 L4.6,13.2138439 L11.5,13.2138439 L11.5,9.61384388 Z M15.9,4.41384388 C15.7,4.41384388 15.6,4.41384388 15.4,4.51384388 C14.5,5.11384388 13.8,6.01384388 13.5,7.01384388 C13.3,7.51384388 13.2,7.91384388 12.9,8.31384388 C13.9,8.21384388 15,8.01384388 15.9,7.51384388 C16.7,7.21384388 17.3,6.61384388 17.6,5.91384388 C17.7,5.41384388 17.4,5.01384388 16.6,4.61384388 C16.4,4.51384388 16.1,4.41384388 15.9,4.41384388 Z M8.9,4.51384388 C8.5,4.31384388 8.1,4.31384388 7.7,4.51384388 C6.9,4.91384388 6.6,5.31384388 6.7,5.81384388 C7,6.61384388 7.5,7.11384388 8.3,7.51384388 C9.2,7.91384388 10.3,8.21384388 11.3,8.31384388 C11.2,7.91384388 11,7.51384388 10.8,7.01384388 C10.5,6.01384388 9.8,5.11384388 8.9,4.51384388 Z" id="path-1"></path>
    </defs>
    <g id="gift-intl" stroke="none" stroke-width="1" fill="none" fill-rule="evenodd">
        <mask id="mask-2" fill="white">
            <use xlink:href="#path-1"></use>
        </mask>
        <use id="Mask" fill="#000000" fill-rule="nonzero" xlink:href="#path-1"></use>
        <g id="palette/additional/lightblue" mask="url(#mask-2)" fill="white" fill-rule="nonzero">
            <g transform="translate(-59.000000, -38.000000)" id="color">
                <rect x="0" y="0" width="147" height="106"></rect>
            </g>
        </g>
    </g>
</svg>