<svg width="30px" height="30px" viewBox="0 0 30 30" fill="currentColor" version="1.1" xmlns="http://www.w3.org/2000/svg" xmlns:xlink="http://www.w3.org/1999/xlink">
	<path d="M5.1,3 L16,3 C17.0521739,3 18.0128544,3.82344045 18.0944029,4.9452289 L18.1,5.1 L18.0990208,11.2408434 C18.3624034,11.2138382 18.6296202,11.2 18.9,11.2 C23.2,11.2 26.7,14.7 26.7,19 C26.7,23.3 23.2,26.8 18.9,26.8 C17.0100881,26.8 15.2747145,26.1238948 13.9231154,25.0009206 L5.1,25 C4.04782609,25 3.08714556,24.1765595 3.00559711,23.0547711 L3,22.9 L3,5.1 L3.00559711,4.95716282 C3.0832623,3.96456379 3.9583262,3.08742521 4.95039689,3.00613899 L5.1,3 L16,3 Z M22,22 C21.1,22.1 20.3,22.1 19.5,22.1 L19.5,22.1 L19.5,25.3 C20.2,25.2 20.9,24.7 21.2,23.9 C21.6,23.3 21.8,22.6 22,22 Z M15.9,22 C16.1,22.7 16.3,23.3 16.6,23.9 C16.9,24.7 17.6,25.1 18.3,25.3 L18.3,25.3 L18.3,22.1 C17.4,22.1 16.6,22 15.9,22 Z M12.8,21.6 C13.4,22.9 14.4,24.1 15.7,24.8 C15.6,24.7 15.5,24.6 15.5,24.5 C15,23.6 14.7,22.7 14.5,21.8 C13.9,21.8 13.4,21.7 12.8,21.6 Z M24.9,21.8 C24.3,21.8 23.9,21.9 23.2,22 C23,22.9 22.6,23.8 22.2,24.6 C22.2,24.6 22.2,24.7 22.1,24.8 C23.3,24.1 24.3,23 24.9,21.8 Z M12.6800603,23.7009214 C12.0975469,22.9321712 11.6540222,22.0526171 11.3872896,21.1000626 L4.3,21.1 L4.3,22.9 L4.30691853,23.0117888 C4.35657301,23.4050523 4.66623645,23.6520608 4.99953707,23.6937214 L5.1,23.7 Z M18.2,17.2 C17.3,17.2 16.4,17.2 15.5,17.3 C15.4,17.9 15.4,18.4 15.4,19 L15.4008,19.3496 C15.404,19.804 15.42,20.22 15.5,20.7 C16.4,20.8 17.3,20.8 18.2,20.8 L18.2,20.8 Z M20.14,17.2008 L19.6,17.2 L19.6,20.8 C20.5,20.8 21.4,20.8 22.3,20.7 C22.4,20.1 22.4,19.6 22.4,19 C22.4,18.4 22.3,17.9 22.3,17.3 C21.4,17.2 20.5,17.2 19.6,17.2 Z M14.2,17.5 L12.4,17.8 C12.3,18.2 12.3,18.6 12.3,19 L12.3008,19.2504 C12.304,19.596 12.32,19.98 12.4,20.3 L12.4,20.3 L14.2,20.6 C14.1,20 14.1,19.5 14.1,19 L14.1008,18.7 C14.104,18.3 14.12,17.9 14.2,17.5 L14.2,17.5 Z M23.5,17.5 C23.6,18 23.6,18.5 23.6,19 C23.6,19.6 23.6,20.1 23.5,20.6 C24,20.5 24.7,20.4 25.3,20.3 C25.4,19.9 25.5,19.4 25.5,19 C25.5,18.6 25.5,18.2 25.4,17.8 C24.8,17.7 24.1,17.6 23.5,17.5 Z M16.7989418,11.4875684 L16.8,8.3 L4.3,8.3 L4.3,19.8 L11.1407406,19.7999764 C11.1138031,19.5369184 11.1,19.2700367 11.1,19 C11.1,15.4276201 13.515719,12.4074045 16.7989418,11.4875684 Z M10.5,9.3 L10.7127825,9.51011946 C10.9133577,9.54757874 11.0524213,9.68664226 11.0898805,9.88721755 L13.6,12.4 C13.8,12.6 13.8,12.9 13.6,13.1 C13.6,13.2 13.5,13.3 13.3,13.3 C13.2,13.3 13,13.2 12.9,13.2 L11.099,11.32 L11.1,18.3 C11.1,18.6 10.9,18.8 10.6,18.8 C10.3,18.8 10.1,18.6 10.1,18.3 L10.099,11.3 L8.2,13.2 C8,13.4 7.7,13.4 7.4,13.2 C7.2,13 7.2,12.7 7.4,12.4 L10.5,9.3 Z M22.2,13.3 C22.3,13.4 22.4,13.5 22.3,13.6 C22.8,14.5 23.1,15.4 23.3,16.3 C23.8,16.3 24.4,16.4 24.9,16.5 C24.6,15.6 24.1,14.9 23.5,14.3 L23.5,14.3 L23.299537,14.1078704 C22.9638889,13.8 22.6166667,13.55 22.2,13.3 Z M15.5,13.3 L15.247449,13.4560496 C14.1729592,14.1581633 13.3571429,15.1928571 12.8,16.4 C13.4,16.4 13.9,16.3 14.4,16.3 C14.6,15.4 15,14.5 15.4,13.6 C15.5,13.5 15.5,13.4 15.5,13.3 L15.5,13.3 Z M19.5,12.5 L19.5,16 C20.3,16 21.2,16.1 21.9,16.2 C21.8,15.5 21.5,14.8 21.2,14.2 C20.9,13.4 20.3,12.7 19.5,12.5 L19.5,12.5 Z M18.2,12.4 L18.1,12.4 C17.4,12.8 16.8,13.4 16.5,14.2 C16.2,14.8 16,15.5 15.7,16.1 C16.6,16 17.4,16 18.2,16 L18.2,16 L18.2,12.4 L18.2,12.4 Z M16,4.3 L5.1,4.3 L5.00787437,4.30691853 C4.67419622,4.35657301 4.36218547,4.66623645 4.30821392,4.99953707 L4.3,5.1 L4.3,7 L16.8,7 L16.8,5.1 L16.7930815,5.00787437 C16.7384615,4.6408284 16.3692308,4.3 16,4.3 Z" id="path-imtu-red"></path>	
</svg>