<svg xmlns="http://www.w3.org/2000/svg" width="30.016" height="30" viewBox="0 0 30.016 30">
  <path id="brand-manual" d="M1.637.748a.96.96,0,0,0-.465-.6A.8.8,0,0,0,.077.283.585.585,0,0,0-.006.748a.96.96,0,0,0,.465.57,1.065,1.065,0,0,0,.532.15.75.75,0,0,0,.2-.052l4.5,2.692.39-.637L1.644.815A.607.607,0,0,0,1.637.748ZM21.882,6.814V7.2l.345-.607.562-.99-2.25-.885-.315.75L19.85,6.5l1.14.157ZM18.215,6.3l1.057-2.175-2.714-.69-.75,1.5-.42.945Zm7.806,6.659L28.1,10.016l.4-.57-1.515-1.44L24.6,12.258ZM21.815,11.7l1.447.51.157-.21.142-.27,1.762-3.367.517-.982.15-.292-1.725-.945v.045l-1.6,3.637ZM10.087,6.229l2.392,1.4L13.311,6.3l.4-.652.427.06.667-1.365L12.187,2.8Zm10.22,6.156.352.5.21.12-.06-.45-.255-.09ZM11.857,8.636l-2.392-1.4a1.26,1.26,0,0,1-.6-.75A.877.877,0,0,1,8.992,5.8l2.332-3.787a1.087,1.087,0,0,1,1.5-.232l2.557,1.5.187-.39.112-.225L11.714.343A2.339,2.339,0,0,0,10.492,0a1.05,1.05,0,0,0-.9.427L6.668,5.179c-.33.532.075,1.357.9,1.845l3.877,2.25Zm17.306,1.972-2.13,3-.57.81-.9-.427-1.455-.682h-.067l-.187.337-.937-.33-1.5-.54-.187.435,5.2,3.082.75.457L29.89,12.34C30.175,11.83,29.853,11.1,29.163,10.608Zm-9.32,3.164-1.5-2.145-2.152-.277.555-.555-.127-.142-.42-.472.652.225.945.33,3.179-1.042-.142-1.86-6.516-.907L11.242,11.9l5.774,7.6-.487,10.5h8.211l-.472-10.978s.915-1.08,1.5-1.725Z" transform="translate(0.022 0.009)" fill="#e21b23"/>
</svg>
