<svg xmlns="http://www.w3.org/2000/svg" width="30" height="30" viewBox="0 0 30 30">
  <g id="gradient" transform="translate(-1 -1)">
    <path id="Контур_1" data-name="Контур 1" d="M1,4.214A3.214,3.214,0,0,1,4.214,1H6.357A3.214,3.214,0,0,1,9.571,4.214V6.357A3.214,3.214,0,0,1,6.357,9.571H4.214A3.214,3.214,0,0,1,1,6.357ZM4.214,3.143A1.071,1.071,0,0,0,3.143,4.214V6.357A1.071,1.071,0,0,0,4.214,7.429H6.357A1.071,1.071,0,0,0,7.429,6.357V4.214A1.071,1.071,0,0,0,6.357,3.143Zm18.214,22.5a3.214,3.214,0,0,1,3.214-3.214h2.143A3.214,3.214,0,0,1,31,25.643v2.143A3.214,3.214,0,0,1,27.786,31H25.643a3.214,3.214,0,0,1-3.214-3.214Zm3.214-1.071a1.071,1.071,0,0,0-1.071,1.071v2.143a1.071,1.071,0,0,0,1.071,1.071h2.143a1.071,1.071,0,0,0,1.071-1.071V25.643a1.071,1.071,0,0,0-1.071-1.071Z" transform="translate(0 0)" fill-rule="evenodd"/>
    <path id="Контур_2" data-name="Контур 2" d="M6.767,7.765C6.3,5.993,5.592,4.955,4.5,4.955V2.5H10V4.955H7.124A12,12,0,0,1,7.608,6.44,40.155,40.155,0,0,1,8.5,16c0,4.892.257,7.589.713,9.082.418,1.372,1.089,1.964,2.287,1.964V29.5H6V27.045H8.577q-.087-.236-.165-.491C7.743,24.363,7.5,20.926,7.5,16A35.023,35.023,0,0,0,6.767,7.765Z" transform="translate(8 0)" fill-rule="evenodd"/>
    <path id="Контур_3" data-name="Контур 3" d="M11,4.333c0,1.289-.448,2.333-1,2.333S9,5.622,9,4.333,9.448,2,10,2,11,3.045,11,4.333ZM7,27.667C7,28.955,6.552,30,6,30s-1-1.045-1-2.333.448-2.333,1-2.333S7,26.378,7,27.667Z" transform="translate(8 0)"/>
  </g>
</svg>
