<svg xmlns="http://www.w3.org/2000/svg" xmlns:xlink="http://www.w3.org/1999/xlink" width="136" height="50" viewBox="0 0 136 50">
  <defs>
    <clipPath id="clip-custom_1">
      <rect width="136" height="50"/>
    </clipPath>
  </defs>
  <g id="custom_1" data-name="custom – 1" clip-path="url(#clip-custom_1)">
    <rect width="136" height="50" fill="#e21a24"/>
    <g id="logo-bossrevolution-horizontal" transform="translate(10.317 -6.534)">
      <g id="Group_1" data-name="Group 1" transform="translate(4.683 9.534)">
        <path id="Path_1" data-name="Path 1" d="M.066,2.482c.154-.246.573-.267.942-.041s.553.6.41.842c-.154.226-.573.246-.942.031S-.077,2.719.066,2.482Z" transform="translate(-0.016 -1.497)" fill-rule="evenodd"/>
        <path id="Path_2" data-name="Path 2" d="M2.523,4.2l7.2,4.333.1-.185L2.625,4.03" transform="translate(-1.03 -2.202)" fill-rule="evenodd"/>
        <path id="Path_3" data-name="Path 3" d="M13.921,8.1a1.2,1.2,0,0,0-.174.647,1.971,1.971,0,0,0,.389,1.109,3.541,3.541,0,0,0,1.055.955l23.5,13.822a3.324,3.324,0,0,0,1.638.483,1.869,1.869,0,0,0,.809-.164,1.344,1.344,0,0,0,.573-.493l3.973-6.48a1.122,1.122,0,0,0,.174-.647,1.937,1.937,0,0,0-.4-1.109,3.421,3.421,0,0,0-1.055-.955L20.925,1.445A3.325,3.325,0,0,0,19.287.962a1.868,1.868,0,0,0-.809.164,1.305,1.305,0,0,0-.584.493Z" transform="translate(-5.567 -0.962)" fill="#fff" fill-rule="evenodd"/>
        <path id="Path_4" data-name="Path 4" d="M18.13,1.763a1.063,1.063,0,0,1,.461-.38,1.621,1.621,0,0,1,.7-.133,3,3,0,0,1,1.495.442l23.5,13.822a2.958,2.958,0,0,1,.962.873,1.711,1.711,0,0,1,.348.945.89.89,0,0,1-.133.493L41.486,24.3a.97.97,0,0,1-.45.38,1.622,1.622,0,0,1-.7.134,3,3,0,0,1-1.495-.442L15.334,10.553a3.076,3.076,0,0,1-.963-.873,1.711,1.711,0,0,1-.348-.945.89.89,0,0,1,.133-.493l3.973-6.48-.236-.144L13.921,8.1a1.2,1.2,0,0,0-.174.647,1.971,1.971,0,0,0,.389,1.109,3.541,3.541,0,0,0,1.055.955l23.5,13.822a3.324,3.324,0,0,0,1.638.483,1.869,1.869,0,0,0,.809-.164,1.344,1.344,0,0,0,.573-.493l3.973-6.48a1.122,1.122,0,0,0,.174-.647,1.937,1.937,0,0,0-.4-1.109,3.421,3.421,0,0,0-1.055-.955L20.925,1.445A3.325,3.325,0,0,0,19.287.962a1.868,1.868,0,0,0-.809.164,1.305,1.305,0,0,0-.584.493Z" transform="translate(-5.567 -0.962)" fill-rule="evenodd"/>
        <path id="Path_5" data-name="Path 5" d="M38.566,25.593l8.622,5.073.123-.206-8.622-5.073Z" transform="translate(-15.6 -10.836)" fill-rule="evenodd"/>
        <path id="Path_6" data-name="Path 6" d="M40.736,25.043l.533-.893,1.433.842-.522.853-1.443-.8-.4.051,1.946,1.14.829-1.345-1.945-1.14-.83,1.345Z" transform="translate(-16.316 -10.174)" fill-rule="evenodd"/>
        <path id="Path_7" data-name="Path 7" d="M44.171,27.085l.525-.842,1.443.842-.522.852-1.446-.852-.4.113,1.946,1.14.819-1.345L44.6,25.852,43.774,27.2Z" transform="translate(-17.706 -11.024)" fill-rule="evenodd"/>
        <path id="Path_8" data-name="Path 8" d="M45.652,24.681l.532-.893,1.434.842-.522.853-1.443-.8-.4.051,1.946,1.14.819-1.345-1.936-1.14-.829,1.345Z" transform="translate(-18.303 -10.028)" fill-rule="evenodd"/>
        <path id="Path_9" data-name="Path 9" d="M47.682,29.094l.513-.852,1.433.852-.522.853-1.424-.853-.419.1,1.946,1.14.829-1.345-1.946-1.14L47.263,29.2Z" transform="translate(-19.116 -11.833)" fill-rule="evenodd"/>
        <path id="Path_10" data-name="Path 10" d="M20.978,12.167a.885.885,0,0,1-.287-.257.416.416,0,0,1-.092-.257.207.207,0,0,1,.031-.113l3.164-5.165a.224.224,0,0,1,.1-.092.5.5,0,0,1,.195-.041.9.9,0,0,1,.451.133L32.5,11.047a.884.884,0,0,1,.287.257.491.491,0,0,1,.092.257.208.208,0,0,1-.031.113l-3.174,5.165c-.02.041-.061.062-.1.092a.5.5,0,0,1-.195.041.9.9,0,0,1-.451-.134l-7.946-4.672-.133.257,7.946,4.662a1.2,1.2,0,0,0,.594.175.745.745,0,0,0,.307-.062.564.564,0,0,0,.236-.205l3.164-5.165a.5.5,0,0,0,.072-.267.8.8,0,0,0-.143-.421,1.386,1.386,0,0,0-.379-.349L24.685,6.118a1.2,1.2,0,0,0-.594-.175.746.746,0,0,0-.307.062.563.563,0,0,0-.235.205l-3.164,5.165a.5.5,0,0,0-.072.267.7.7,0,0,0,.154.431,1.388,1.388,0,0,0,.379.349Z" transform="translate(-8.221 -2.976)" fill-rule="evenodd"/>
        <path id="Path_11" data-name="Path 11" d="M35.9,8.84l4.034,1.026-1.505,3.492-4.506-.472Z" transform="translate(-13.724 -4.147)" fill="#fff" fill-rule="evenodd"/>
        <path id="Path_12" data-name="Path 12" d="M34.071,12.6,35.82,8.885l3.758.966-1.393,3.234L34.071,12.6l-.524.292,4.823.5,1.607-3.738L35.667,8.547l-2.12,4.344Z" transform="translate(-13.571 -4.028)" fill-rule="evenodd"/>
        <path id="Path_13" data-name="Path 13" d="M44.478,11.011l3.757,1.51-2.16,4.98L45.7,14.677,42.88,14.3Z" transform="translate(-17.344 -5.025)" fill="#fff" fill-rule="evenodd"/>
        <path id="Path_14" data-name="Path 14" d="M44.379,11.062l3.516,1.42L46,16.856l-.328-2.413-2.724-.369,1.43-3.011-.095-.325L42.519,14.31l2.9.39.441,3.224,2.416-5.6-3.99-1.591Z" transform="translate(-17.198 -4.914)" fill-rule="evenodd"/>
        <path id="Path_15" data-name="Path 15" d="M50.943,14.855,46.816,22.2l3.195,1.13,3.85-6.87Z" transform="translate(-18.935 -6.579)" fill="#fff" fill-rule="evenodd"/>
        <path id="Path_16" data-name="Path 16" d="M50.752,14.528l-4.28,7.619,3.471,1.233,3.983-7.116-3.174-1.735.115.377,2.66,1.471L49.811,23.02l-2.919-1.037L50.867,14.9Z" transform="translate(-18.796 -6.446)" fill-rule="evenodd"/>
        <path id="Path_17" data-name="Path 17" d="M58.272,19.285l-3.1,5.935,1.977.935,3.379-4.8Z" transform="translate(-22.312 -8.369)" fill="#fff" fill-rule="evenodd"/>
        <path id="Path_18" data-name="Path 18" d="M58.1,18.889l-3.256,6.233,2.222,1.048,3.522-4.991L58.1,18.889l.075.477L60.2,21.22l-3.235,4.59-1.731-.822,2.942-5.623Z" transform="translate(-22.18 -8.209)" fill-rule="evenodd"/>
        <path id="Path_19" data-name="Path 19" d="M44.062,30.847l-8.079-4.806-2.058-2.916-2.918-.38.747-.75-.747-.842,2.171.75L37.5,20.485,37.3,17.949l-8.826-1.232-4.229,6.777,7.895,10.361-.655,16.522H42.895L42,33.188c-.01.01,1.239-1.468,2.058-2.341" transform="translate(-9.812 -7.331)" fill="#fff" fill-rule="evenodd"/>
        <path id="Path_20" data-name="Path 20" d="M44.156,30.711l-8.2-4.878-2.075-2.947-2.689-.349.644-.647-.481-.534,1.7.585,4.458-1.468-.2-2.762L28.3,16.458,23.974,23.4l7.9,10.4-.654,16.481H42.908l-.9-17.2,2.147-2.372-.449.072C42.879,31.656,41.753,33,41.753,33L42.612,50h-11.1l.644-16.286L24.3,23.379l4.12-6.613,8.608,1.2.174,2.31-4.161,1.376-2.116-.739-.153.226.665.739-.859.863,3.139.411,2.035,2.9,7.955,4.734" transform="translate(-9.701 -7.227)" fill-rule="evenodd"/>
      </g>
      <path id="Path_21" data-name="Path 21" d="M54.677.435H52.756V4.458L51.467.435H49.546V9.364h1.921V5.3l1.2,4.064h2.015ZM48.713,5.668V4.132c0-.911-.027-1.563-.067-1.93a2.091,2.091,0,0,0-.4-1.019A2.169,2.169,0,0,0,47.33.476,3.446,3.446,0,0,0,46.054.245a3.3,3.3,0,0,0-1.316.245,2.109,2.109,0,0,0-.886.707,2.209,2.209,0,0,0-.389,1.019c-.04.367-.067,1.006-.067,1.9V5.654c0,.924.027,1.563.067,1.93a2.092,2.092,0,0,0,.4,1.019,2.169,2.169,0,0,0,.913.707,3.447,3.447,0,0,0,1.276.231,3.234,3.234,0,0,0,1.3-.245,2.038,2.038,0,0,0,.886-.72,1.948,1.948,0,0,0,.4-1.006C48.687,7.2,48.713,6.565,48.713,5.668Zm-2.3,1.169a4.614,4.614,0,0,1-.067.992.292.292,0,0,1-.3.217.276.276,0,0,1-.3-.177,4.057,4.057,0,0,1-.067-.951V2.745a2.217,2.217,0,0,1,.094-.829.32.32,0,0,1,.282-.136.259.259,0,0,1,.282.177,3.081,3.081,0,0,1,.067.8V6.836Zm-4,2.528V.435h-2.3V9.364ZM39.312,2.2V.408h-5.05V2.2h1.37V9.378h2.31V2.2Zm-5.99,4.2V.435h-2.3V7.013a3.326,3.326,0,0,1-.067.843.259.259,0,0,1-.282.177.252.252,0,0,1-.255-.163,2.647,2.647,0,0,1-.067-.748V.421h-2.3V5.708c0,1.006.013,1.672.054,1.984a1.959,1.959,0,0,0,.349.9,2.089,2.089,0,0,0,.9.693,3.467,3.467,0,0,0,1.4.258,3.212,3.212,0,0,0,1.249-.217,2.042,2.042,0,0,0,.846-.652,1.8,1.8,0,0,0,.4-.843A10.934,10.934,0,0,0,33.321,6.4ZM27.4,9.364V7.57H26.015V.421h-2.3V9.364Zm-4.526-3.7V4.132c0-.911-.027-1.563-.067-1.93a2.092,2.092,0,0,0-.4-1.019,2.169,2.169,0,0,0-.913-.707A3.446,3.446,0,0,0,20.213.245,3.3,3.3,0,0,0,18.9.489a2.11,2.11,0,0,0-.886.707,2.072,2.072,0,0,0-.389,1.019c-.04.367-.054,1.006-.054,1.9V5.654c0,.924.027,1.563.067,1.93A2.112,2.112,0,0,0,18.05,8.6a2.169,2.169,0,0,0,.913.707,3.447,3.447,0,0,0,1.276.231A3.3,3.3,0,0,0,21.556,9.3a2.158,2.158,0,0,0,.9-.72A2.488,2.488,0,0,0,22.8,7.57C22.845,7.2,22.872,6.565,22.872,5.668Zm-2.3,1.169a4.614,4.614,0,0,1-.067.992.291.291,0,0,1-.3.217c-.161,0-.255-.054-.3-.177a4.06,4.06,0,0,1-.067-.951V2.745a2.217,2.217,0,0,1,.094-.829.32.32,0,0,1,.282-.136.259.259,0,0,1,.282.177,3.081,3.081,0,0,1,.067.8V6.836ZM17.231.435H14.813s-.416,4.539-.537,6.252c-.121-1.7-.322-3.778-.6-6.252H11.254l1.33,8.929h3.479ZM11.12,9.364V7.57H9.441V5.613h1.437v-1.7H9.441v-1.7h1.531V.421H7.144V9.364Zm-4.862,0V7.013A8.314,8.314,0,0,0,6.2,5.695a1.333,1.333,0,0,0-.3-.53A1.786,1.786,0,0,0,5,4.7,1.308,1.308,0,0,0,6,4.268a2.6,2.6,0,0,0,.255-1.4A2.934,2.934,0,0,0,5.9,1.21a1.476,1.476,0,0,0-.94-.652,12.779,12.779,0,0,0-2.2-.122H1.127V9.364h2.3V5.341c.309,0,.51.054.578.177a1.962,1.962,0,0,1,.107.883V9.364ZM4.122,3.14c0,.394-.054.625-.148.707a1.03,1.03,0,0,1-.537.109v-2a.819.819,0,0,1,.551.136.787.787,0,0,1,.148.557V3.14Z" transform="translate(42.339 43.009)" fill-rule="evenodd"/>
      <g id="Group_6" data-name="Group 6" transform="translate(43.3 26.129)">
        <g id="Group_2" data-name="Group 2" transform="translate(0.671 0.543)">
          <path id="Path_22" data-name="Path 22" d="M6.264,15.081H1.012a.95.95,0,0,1-.886-.6l-.107-.245a.953.953,0,0,1-.04-.612L3.2,1.245a.953.953,0,0,1,.927-.72h6.716c2.27,0,3.68.462,4.446,1.454a3.059,3.059,0,0,1,.389,2.759,4.567,4.567,0,0,1-2.028,2.841,2.608,2.608,0,0,1,.363.408,3.144,3.144,0,0,1,.322,2.745c-.712,2.759-3.653,4.349-8.072,4.349Zm.994-5.219-.188.72c.7-.082.779-.381.833-.584a.174.174,0,0,0,.013-.082,2.344,2.344,0,0,0-.591-.054ZM8.52,5,8.4,5.458c.416-.082.524-.272.564-.448A2.368,2.368,0,0,0,8.614,5Z" transform="translate(0.054 -0.28)" fill="rgba(0,0,0,0.2)" fill-rule="evenodd"/>
          <path id="Path_23" data-name="Path 23" d="M30.422,15.159h-.336c-2.512,0-4.19-.625-5.171-1.9-1.263-1.658-.9-3.9-.389-5.871C25.237,4.667,26.419.114,33.672.114c2.7,0,4.5.625,5.466,1.9,1.33,1.74.712,4.132.255,5.871-.873,3.384-2.686,7.271-8.972,7.271Zm.2-4.838a1.277,1.277,0,0,0,.39.041c.954,0,1.222-.421,1.88-2.976a8.356,8.356,0,0,0,.43-2.446,1.358,1.358,0,0,0-.389-.041c-.954,0-1.222.421-1.88,2.976a7.925,7.925,0,0,0-.43,2.446Z" transform="translate(-9.692 -0.114)" fill="rgba(0,0,0,0.2)" fill-rule="evenodd"/>
          <path id="Path_24" data-name="Path 24" d="M51.837,15.159a7.736,7.736,0,0,1-4.379-1.223A.956.956,0,0,1,47.1,12.9l.7-2.664a.949.949,0,0,1,.9-.72l.51-.014a.943.943,0,0,1,.645.231,3.878,3.878,0,0,0,2.4.734,2.706,2.706,0,0,0,1.383-.231,9.3,9.3,0,0,0-1.209-.571c-1.665-.693-4.459-1.848-3.613-5.056.752-2.868,3.505-4.5,7.589-4.5,2.283,0,3.64.394,4.822,1.386a.984.984,0,0,1,.309.992l-.7,2.677a.965.965,0,0,1-.913.72h-.363a.949.949,0,0,1-.685-.285,3.318,3.318,0,0,0-2.23-.707,3.874,3.874,0,0,0-1.182.136c.242.109.524.231.752.313,1.6.652,4.567,1.862,3.72,5.069-.564,2.175-2.431,4.743-8.1,4.743Z" transform="translate(-18.992 -0.114)" fill="rgba(0,0,0,0.2)" fill-rule="evenodd"/>
          <path id="Path_25" data-name="Path 25" d="M71.518,15.169a7.736,7.736,0,0,1-4.378-1.223.955.955,0,0,1-.363-1.033s.47-1.808.7-2.664a.95.95,0,0,1,.9-.72l.5-.014a.91.91,0,0,1,.631.231,3.878,3.878,0,0,0,2.4.734,2.98,2.98,0,0,0,1.383-.217,9.307,9.307,0,0,0-1.209-.571C70.417,9,67.637,7.829,68.469,4.636c.752-2.868,3.506-4.5,7.589-4.5,2.283,0,3.64.394,4.822,1.386a.984.984,0,0,1,.309.992s-.5,1.876-.7,2.677a.949.949,0,0,1-.9.72L79.228,5.9a.979.979,0,0,1-.7-.285,3.285,3.285,0,0,0-2.216-.707,3.874,3.874,0,0,0-1.182.136c.242.109.524.231.752.313,1.6.652,4.567,1.862,3.72,5.069-.551,2.175-2.4,4.743-8.086,4.743Z" transform="translate(-26.949 -0.123)" fill="rgba(0,0,0,0.2)" fill-rule="evenodd"/>
        </g>
        <g id="Group_3" data-name="Group 3" transform="translate(0 0)">
          <path id="Path_26" data-name="Path 26" d="M6.264,15.081H1.012a.95.95,0,0,1-.886-.6l-.107-.245a.953.953,0,0,1-.04-.612L3.2,1.245a.953.953,0,0,1,.927-.72h6.716c2.27,0,3.68.462,4.446,1.454a3.059,3.059,0,0,1,.389,2.759,4.567,4.567,0,0,1-2.028,2.841,2.608,2.608,0,0,1,.363.408,3.144,3.144,0,0,1,.322,2.745c-.712,2.759-3.653,4.349-8.072,4.349Zm.994-5.219-.188.72c.7-.082.779-.381.833-.584a.174.174,0,0,0,.013-.082,2.344,2.344,0,0,0-.591-.054ZM8.52,5,8.4,5.458c.416-.082.524-.272.564-.448A2.368,2.368,0,0,0,8.614,5Z" transform="translate(0.054 -0.28)" fill="#fff" fill-rule="evenodd"/>
          <path id="Path_27" data-name="Path 27" d="M30.422,15.159h-.336c-2.512,0-4.19-.625-5.171-1.9-1.263-1.658-.9-3.9-.389-5.871C25.237,4.667,26.419.114,33.672.114c2.7,0,4.5.625,5.466,1.9,1.33,1.74.712,4.132.255,5.871-.873,3.384-2.686,7.271-8.972,7.271Zm.2-4.838a1.277,1.277,0,0,0,.39.041c.954,0,1.222-.421,1.88-2.976a8.356,8.356,0,0,0,.43-2.446,1.358,1.358,0,0,0-.389-.041c-.954,0-1.222.421-1.88,2.976a7.925,7.925,0,0,0-.43,2.446Z" transform="translate(-9.692 -0.114)" fill="#fff" fill-rule="evenodd"/>
          <path id="Path_28" data-name="Path 28" d="M51.837,15.159a7.736,7.736,0,0,1-4.379-1.223A.956.956,0,0,1,47.1,12.9l.7-2.664a.949.949,0,0,1,.9-.72l.51-.014a.943.943,0,0,1,.645.231,3.878,3.878,0,0,0,2.4.734,2.706,2.706,0,0,0,1.383-.231,9.3,9.3,0,0,0-1.209-.571c-1.665-.693-4.459-1.848-3.613-5.056.752-2.868,3.505-4.5,7.589-4.5,2.283,0,3.64.394,4.822,1.386a.984.984,0,0,1,.309.992l-.7,2.677a.965.965,0,0,1-.913.72h-.363a.949.949,0,0,1-.685-.285,3.318,3.318,0,0,0-2.23-.707,3.874,3.874,0,0,0-1.182.136c.242.109.524.231.752.313,1.6.652,4.567,1.862,3.72,5.069-.564,2.175-2.431,4.743-8.1,4.743Z" transform="translate(-18.992 -0.114)" fill="#fff" fill-rule="evenodd"/>
          <path id="Path_29" data-name="Path 29" d="M71.518,15.169a7.736,7.736,0,0,1-4.378-1.223.955.955,0,0,1-.363-1.033s.47-1.808.7-2.664a.95.95,0,0,1,.9-.72l.5-.014a.91.91,0,0,1,.631.231,3.878,3.878,0,0,0,2.4.734,2.98,2.98,0,0,0,1.383-.217,9.307,9.307,0,0,0-1.209-.571C70.417,9,67.637,7.829,68.469,4.636c.752-2.868,3.506-4.5,7.589-4.5,2.283,0,3.64.394,4.822,1.386a.984.984,0,0,1,.309.992s-.5,1.876-.7,2.677a.949.949,0,0,1-.9.72L79.228,5.9a.979.979,0,0,1-.7-.285,3.285,3.285,0,0,0-2.216-.707,3.874,3.874,0,0,0-1.182.136c.242.109.524.231.752.313,1.6.652,4.567,1.862,3.72,5.069-.551,2.175-2.4,4.743-8.086,4.743Z" transform="translate(-26.949 -0.123)" fill="#fff" fill-rule="evenodd"/>
        </g>
        <g id="Group_4" data-name="Group 4" transform="translate(1.147 1.101)">
          <path id="Path_30" data-name="Path 30" d="M.068,12.562C.524,10.8,3.291.181,3.291.181h6.716c3.223,0,4.432,1.006,3.908,3C13.552,4.57,12.572,5.9,9.886,6.242l-.013.041c2.727.163,3.089,1.427,2.7,2.895-.645,2.46-3.452,3.629-7.172,3.629H.148l-.081-.245Zm4.916-2.3h.806c1.236,0,1.947-.408,2.189-1.332S7.723,7.588,6.488,7.588H5.682l-.7,2.677Zm1.343-5.11h.806c1.061,0,1.719-.394,1.934-1.25S8.825,2.736,7.79,2.736H6.958L6.327,5.155ZM27.9,6.487c-.766,2.949-2.243,6.632-8.22,6.564-6.017.068-5.574-3.6-4.808-6.564s1.853-6.564,8.22-6.564S28.662,3.538,27.9,6.487Zm-7.481,3.7c1.813,0,2.216-1.413,2.807-3.7s.927-3.7-.886-3.7S20.12,4.2,19.529,6.487s-.927,3.7.886,3.7Zm19.233-6.4a4.177,4.177,0,0,0-2.9-.992c-1.155,0-2.256.231-2.458,1.006-.376,1.468,5.843,1.359,4.835,5.233-.685,2.637-3.143,4.009-7.186,4.009a6.782,6.782,0,0,1-3.814-1.046s.47-1.808.7-2.664l.51-.014a4.845,4.845,0,0,0,3.022.951c1.759,0,2.256-.489,2.4-1.046.484-1.862-5.977-1.522-4.929-5.532C30.449,1.3,32.8-.091,36.493-.091c2.162,0,3.25.353,4.217,1.169,0,0-.5,1.889-.7,2.677l-.363.027Zm11.725,0a4.164,4.164,0,0,0-2.888-.992c-1.155,0-2.256.231-2.458,1.006-.389,1.468,5.843,1.359,4.835,5.233-.685,2.637-3.143,4.009-7.186,4.009a6.782,6.782,0,0,1-3.814-1.046s.47-1.808.7-2.664l.51-.014a4.845,4.845,0,0,0,3.022.951c1.759,0,2.256-.489,2.4-1.046.484-1.862-5.977-1.522-4.929-5.532C42.187,1.3,44.538-.091,48.231-.091c2.162,0,3.25.353,4.217,1.169,0,0-.484,1.876-.7,2.677l-.376.027Z" transform="translate(-0.068 0.091)" fill="#6d1b00" fill-rule="evenodd"/>
        </g>
        <g id="Group_5" data-name="Group 5" transform="translate(0.838 0.856)">
          <path id="Path_31" data-name="Path 31" d="M0,12.594C.457,10.827,3.223.213,3.223.213H9.939c3.223,0,4.432,1.006,3.908,3C13.485,4.589,12.5,5.934,9.818,6.274L9.8,6.315c2.726.163,3.089,1.427,2.7,2.895-.645,2.46-3.452,3.629-7.172,3.629H.081L0,12.594Zm4.916-2.31h.806c1.236,0,1.948-.408,2.189-1.332S7.656,7.606,6.42,7.606H5.614l-.7,2.677Zm1.33-5.11h.806c1.061,0,1.719-.394,1.934-1.25S8.744,2.754,7.709,2.754H6.877L6.245,5.173ZM27.829,6.519c-.766,2.949-2.243,6.632-8.22,6.564-6.017.068-5.574-3.6-4.808-6.564s1.853-6.564,8.22-6.564,5.574,3.615,4.808,6.564Zm-7.481,3.7c1.813,0,2.216-1.413,2.807-3.7s.927-3.7-.886-3.7-2.216,1.413-2.807,3.7-.927,3.7.886,3.7Zm19.233-6.4a4.173,4.173,0,0,0-2.9-.979c-1.155,0-2.256.231-2.458,1.006-.389,1.468,5.843,1.359,4.835,5.233-.685,2.637-3.156,4.009-7.186,4.009a6.782,6.782,0,0,1-3.814-1.047s.47-1.808.7-2.664l.5-.014a4.821,4.821,0,0,0,3.022.965c1.759,0,2.256-.489,2.4-1.046.484-1.862-5.977-1.522-4.929-5.532.618-2.392,2.968-3.778,6.662-3.778,2.162,0,3.25.353,4.217,1.169,0,0-.5,1.889-.7,2.677Zm11.712,0a4.16,4.16,0,0,0-2.888-.979c-1.155,0-2.243.231-2.444,1.006C45.585,5.309,51.8,5.2,50.8,9.074c-.685,2.637-3.143,4.009-7.186,4.009A6.782,6.782,0,0,1,39.8,12.037s.47-1.808.7-2.664l.5-.014a4.849,4.849,0,0,0,3.022.965c1.759,0,2.256-.489,2.4-1.046.484-1.862-5.977-1.522-4.929-5.532C42.106,1.354,44.47-.032,48.15-.032c2.162,0,3.25.353,4.217,1.169,0,0-.5,1.876-.7,2.677Z" transform="translate(0 0.046)" fill="#dc0814" fill-rule="evenodd"/>
        </g>
      </g>
      <path id="Path_32" data-name="Path 32" d="M73.989,31.479a1.489,1.489,0,0,1,0-2.979,1.459,1.459,0,0,1,1.489,1.489,1.483,1.483,0,0,1-1.489,1.489Zm0-2.727a1.241,1.241,0,1,0,1.156,1.238,1.167,1.167,0,0,0-1.156-1.238Zm-.314,2.089H73.4V29.177h.647c.412,0,.607.135.607.484a.414.414,0,0,1-.431.445l.47.735h-.314l-.431-.716H73.7v.716Zm.314-.928c.216,0,.392-.019.392-.271,0-.193-.2-.232-.372-.232h-.333v.484h.314Zm53.656,24.806a1.971,1.971,0,0,1,0-3.942,1.922,1.922,0,0,1,1.953,1.971,1.953,1.953,0,0,1-1.953,1.971Zm0-3.61a1.643,1.643,0,1,0,1.517,1.638,1.538,1.538,0,0,0-1.517-1.638Zm-.411,2.765h-.36v-2.2h.848c.54,0,.8.179.8.64a.546.546,0,0,1-.565.589l.617.973h-.411l-.565-.947h-.334v.947Zm.411-1.229c.283,0,.514-.026.514-.358,0-.256-.257-.307-.489-.307h-.437v.64h.411Z" transform="translate(-27.415 -7.667)" fill-rule="evenodd"/>
    </g>
  </g>
</svg>
