<svg xmlns="http://www.w3.org/2000/svg" width="30.055" height="30" viewBox="0 0 30.055 30" fill="currentColor">
  <path id="palette" d="M35.5,20.5a15,15,0,1,0,0,30,2.5,2.5,0,0,0,2.509-2.509,2.347,2.347,0,0,0-.655-1.691,2.515,2.515,0,0,1,1.909-4.145h2.945a8.345,8.345,0,0,0,8.345-8.345C50.5,26.445,43.791,20.5,35.5,20.5Zm-9.164,15a2.509,2.509,0,0,1,0-5.018,2.469,2.469,0,0,1,2.509,2.509A2.5,2.5,0,0,1,26.336,35.5Zm5.018-6.655a2.5,2.5,0,0,1-2.509-2.509,2.509,2.509,0,0,1,5.018,0A2.5,2.5,0,0,1,31.355,28.845Zm8.291,0a2.5,2.5,0,0,1-2.509-2.509,2.509,2.509,0,1,1,2.509,2.509ZM44.664,35.5a2.509,2.509,0,1,1,0-5.018,2.469,2.469,0,0,1,2.509,2.509A2.5,2.5,0,0,1,44.664,35.5Z" transform="translate(-20.5 -20.5)"/>
</svg>
