<?xml version="1.0" encoding="UTF-8"?>
<svg width="32px" height="32px" viewBox="0 0 32 32" version="1.1" xmlns="http://www.w3.org/2000/svg" xmlns:xlink="http://www.w3.org/1999/xlink">
    <title>vip/bold</title>
    <defs>
        <path d="M16.8863093,9.99935727 L17.0371968,10.0010001 C17.3918843,10.0210348 17.7116433,10.1528251 17.9615356,10.3585625 L17.9692039,10.0112633 L26.8194872,10.0125426 C29.4861646,10.1181585 31,11.8123496 31,14.5104788 C31,17.2575302 29.3621289,18.8139064 26.6985997,18.446385 L26.6268,18.4352633 L22.8176921,18.4355862 C22.0040994,18.4355862 21.3354906,17.8406981 21.259646,17.0800462 L21.2524809,16.9355862 C21.2524809,16.1558901 21.8732312,15.5151375 22.6669518,15.4424528 L22.8176921,15.4355862 L26.8962905,15.4355862 L27.0354341,15.4598833 C27.8130834,15.5956757 27.8695777,15.5445533 27.8695777,14.5104788 C27.8695777,13.412191 27.6247499,13.0803903 26.8831065,13.0190648 L26.7548559,13.0112633 L21.0191702,13.0112633 L20.8256056,20.2166619 C20.8032846,21.0448128 20.0846545,21.6988209 19.2205005,21.6774298 C18.6228897,21.6626367 18.1121833,21.3287082 17.8613723,20.8502195 C17.6617596,21.5051816 17.0088661,21.9654876 16.2672653,21.923598 C15.4552674,21.877732 14.8263312,21.246149 14.7996639,20.4824978 L14.801826,20.3378761 L15.3396,12.0276248 C15.3092438,12.1068471 15.2715332,12.1844407 15.2263146,12.2595315 L15.1447289,12.3811978 L8.24050967,21.6752974 L1.29309659,12.3850368 C0.789545399,11.7116752 0.950935101,10.7746059 1.65357057,10.2920341 C2.31487455,9.83784888 3.21992951,9.94813705 3.74393221,10.5240697 L3.83756472,10.6374897 L8.23139504,16.5132633 L12.594538,10.6413287 C13.0958768,9.96645261 14.0731719,9.80884039 14.7773876,10.289292 C15.11713,10.5210814 15.3312457,10.8590338 15.4055807,11.2225461 C15.538142,10.5363766 16.1549388,10.0248973 16.8863093,9.99935727 Z" id="path-1"></path>
    </defs>
    <g id="vip/bold" stroke="none" stroke-width="1" fill="none" fill-rule="evenodd">
        <mask id="mask-2" fill="white">
            <use xlink:href="#path-1"></use>
        </mask>
        <use id="Mask" fill="#5AA617" fill-rule="nonzero" xlink:href="#path-1"></use>
    </g>
</svg>