<?xml version="1.0" encoding="UTF-8"?>
<svg width="32px" height="32px" viewBox="0 0 32 32" version="1.1" xmlns="http://www.w3.org/2000/svg" xmlns:xlink="http://www.w3.org/1999/xlink">
    <title>vip/regular</title>
    <g id="vip/regular" stroke="none" stroke-width="1" fill="none" fill-rule="evenodd">
        <path d="M18.6779148,10.7178575 L27.2210958,10.7187713 C29.6579956,10.8194826 31,12.3866643 31,15.0027196 C31,17.6286504 29.5962999,19.0313328 27.2049007,18.6908793 L27.0903678,18.6720065 L23.1342254,18.6724675 C22.5847599,18.6724675 22.131899,18.2588541 22.070008,17.7259927 L22.0627997,17.6010419 C22.0627997,17.0515764 22.4764131,16.5987155 23.0092745,16.5368245 L23.1342254,16.5296162 L27.1768541,16.5296162 L27.3689167,16.5469712 C28.5127303,16.755386 28.8571487,16.4301676 28.8571487,15.0027196 C28.8571487,13.5547722 28.4084259,12.9649416 27.3345384,12.8708215 L27.1768541,12.8607088 L20.7657422,12.8605937 L20.5532427,21.1026378 C20.5379634,21.6941725 20.0460434,22.1613199 19.4545086,22.1460406 C18.9052264,22.1318526 18.4631965,21.7066837 18.4150853,21.1724018 L18.4111059,21.0473065 L18.6779148,10.7178575 Z M2.85730913,11.0607829 L2.94238305,11.1651609 L7.89149158,18.0709367 L12.8057844,11.167903 C13.1489632,10.68585 13.8179457,10.5732701 14.2999988,10.9164489 C14.7449708,11.2332293 14.8751255,11.8276177 14.6225969,12.2963354 L14.5514529,12.4106633 L7.8972581,21.7576137 L1.20063184,12.4134054 C0.855938634,11.9324341 0.966413866,11.2631008 1.44738518,10.9184076 C1.8913587,10.6002292 2.49583005,10.6698867 2.85730913,11.0607829 Z M17.1981184,10.0003439 C17.7465828,10.0334963 18.1736629,10.4736798 18.2032906,11.0093047 L18.2029467,11.1344628 L17.6248476,20.6983721 C17.589145,21.2890261 17.0813827,21.7389031 16.4907287,21.7032005 C15.9422643,21.670048 15.5151841,21.2298645 15.4855564,20.6942396 L15.4859003,20.5690815 L16.0639994,11.0051722 C16.0971518,10.4567078 16.5373354,10.0296277 17.0729602,10 L17.1981184,10.0003439 Z" id="Combined-Shape" fill="#E21B23"></path>
    </g>
</svg>