<?xml version="1.0" encoding="UTF-8"?>
<svg width="32px" height="32px" viewBox="0 0 32 32" version="1.1" xmlns="http://www.w3.org/2000/svg" xmlns:xlink="http://www.w3.org/1999/xlink">
    <title>bold/br-market</title>
    <g id="bold/br-market" stroke="none" stroke-width="1" fill="none" fill-rule="evenodd">
        <path d="M26.4692123,6.79217932 L31,18.1191486 L27.239,18.119 L27.2398388,29.4461179 L5.10868337,29.4461179 L5.108,18.119 L1,18.1191486 L5.53078772,6.79217932 L26.4692123,6.79217932 Z M24.625,18.119 L7.722,18.119 L7.72172805,26.8313306 L24.6250515,26.8313306 L24.625,18.119 Z M14.2573893,21.1687173 C14.9792023,21.1687173 15.5643473,21.7538623 15.5643473,22.4756753 C15.5643473,23.1550287 15.0460182,23.7133198 14.3832581,23.7766504 L14.2573893,23.7826333 L10.772168,23.7826333 C10.050355,23.7826333 9.46521002,23.1974882 9.46521002,22.4756753 C9.46521002,21.7963219 9.98353918,21.2380308 10.6462992,21.1747002 L10.772168,21.1687173 L14.2573893,21.1687173 Z M24.6991124,9.40609531 L7.30001627,9.40609531 L4.86036135,15.5052326 L27.1387673,15.5052326 L24.6991124,9.40609531 Z M25.5843586,2 C26.3061716,2 26.8913166,2.58514503 26.8913166,3.306958 C26.8913166,3.98631138 26.3729875,4.5446025 25.7102274,4.60793311 L25.5843586,4.61391599 L6.41564136,4.61391599 C5.69382839,4.61391599 5.10868337,4.02877097 5.10868337,3.306958 C5.10868337,2.62760461 5.62701252,2.06931349 6.28977258,2.00598289 L6.41564136,2 L25.5843586,2 Z" id="Combined-Shape" fill="#E21B23" fill-rule="nonzero"></path>
    </g>
</svg>