<?xml version="1.0" encoding="UTF-8"?>
<svg width="32px" height="32px" viewBox="0 0 32 32" version="1.1" xmlns="http://www.w3.org/2000/svg" xmlns:xlink="http://www.w3.org/1999/xlink">
    <title>laptop/regular</title>
    <g id="laptop/regular" stroke="none" stroke-width="1" fill="none" fill-rule="evenodd">
        <path d="M1,26 C0.44771525,26 0,25.5522847 0,25 C0,24.4871642 0.38604019,24.0644928 0.883378875,24.0067277 L1,24 L3,24.001 L3,8.5 C3,7.1745166 4.03153594,6.08996133 5.33562431,6.00531768 L5.5,6 L26.5,6 C27.8807119,6 29,7.11928813 29,8.5 L29,8.5 L29,24.001 L31,24 C31.5522847,24 32,24.4477153 32,25 C32,25.5128358 31.6139598,25.9355072 31.1166211,25.9932723 L31,26 L1,26 Z M26.5,8 L5.5,8 C5.22385763,8 5,8.22385763 5,8.5 L5,8.5 L4.999,22.5 L26.999,22.5 L27,8.5 C27,8.2852226 26.86458,8.10207424 26.6744662,8.03128126 L26.5898756,8.00805567 L26.5,8 Z" id="Combined-Shape" fill="#E21B23"></path>
    </g>
</svg>