<?xml version="1.0" encoding="UTF-8"?>
<svg width="32px" height="32px" viewBox="0 0 32 32" version="1.1" xmlns="http://www.w3.org/2000/svg" xmlns:xlink="http://www.w3.org/1999/xlink">
    <title>reports-commision/bold</title>
    <defs>
        <path d="M16.5,5.5 C17.2796961,5.5 17.9204487,6.09488808 17.9931334,6.85553999 L18,7 L18.0011262,7.62993302 C19.8062125,7.96742483 21.037123,8.96383341 21.4552138,10.6361966 C21.6561368,11.439889 21.1674958,12.2542907 20.3638034,12.4552138 C19.6073871,12.6443178 18.8414842,12.2225969 18.5864845,11.5022848 L18.5447862,11.3638034 C18.4036386,10.7992129 17.8800161,10.5 16.5,10.5 C14.9472337,10.5 14.5,11.0541809 14.5,12 C14.5,12.7195317 14.8385057,13.0025309 16.462081,13.4711239 L16.939355,13.6045338 C20.1465162,14.4805469 21.5,15.3753817 21.5,18 C21.5,20.0768183 20.3539452,21.8332271 18.0001124,22.3475984 L18,23 C18,23.3846938 17.8551845,23.7355642 17.6170946,24.0010701 L30,24 C30.8284271,24 31.5,24.6715729 31.5,25.5 C31.5,26.2796961 30.9051119,26.9204487 30.14446,26.9931334 L30,27 L2,27 C1.17157288,27 0.5,26.3284271 0.5,25.5 C0.5,24.7203039 1.09488808,24.0795513 1.85553999,24.0068666 L2,24 L15.3829054,24.0010701 C15.1749755,23.7691971 15.0381857,23.4722169 15.0068666,23.14446 L15,23 L14.9998642,22.3702521 C13.1942378,22.0329396 11.9629535,21.0364724 11.5447863,19.3638034 C11.3438632,18.5601111 11.8325042,17.7457093 12.6361966,17.5447863 C13.3926129,17.3556822 14.1585157,17.7774031 14.4135155,18.4977152 L14.4552137,18.6361966 C14.5963614,19.2007871 15.1199839,19.5 16.5,19.5 C18.0527663,19.5 18.5,18.9458191 18.5,18 C18.5,17.3145586 18.1510666,17.0575035 16.3696045,16.5594819 L16.1047051,16.4864524 C12.8856775,15.6070568 11.5,14.675166 11.5,12 C11.5,9.92289308 12.6463735,8.16628458 15.0008693,7.65218714 L15,7 C15,6.17157288 15.6715729,5.5 16.5,5.5 Z" id="path-1"></path>
    </defs>
    <g id="reports-commision/bold" stroke="none" stroke-width="1" fill="none" fill-rule="evenodd">
        <mask id="mask-2" fill="white">
            <use xlink:href="#path-1"></use>
        </mask>
        <use id="Mask" fill="#5AA617" xlink:href="#path-1"></use>
    </g>
</svg>