<?xml version="1.0" encoding="UTF-8"?>
<svg width="32px" height="32px" viewBox="0 0 32 32" version="1.1" xmlns="http://www.w3.org/2000/svg" xmlns:xlink="http://www.w3.org/1999/xlink">
    <title>reports-commision/regular</title>
    <g id="reports-commision/regular" stroke="none" stroke-width="1" fill="none" fill-rule="evenodd">
        <path d="M30,24.5 C30.5522847,24.5 31,24.9477153 31,25.5 C31,26.0128358 30.6139598,26.4355072 30.1166211,26.4932723 L30,26.5 L2,26.5 C1.44771525,26.5 1,26.0522847 1,25.5 C1,24.9871642 1.38604019,24.5644928 1.88337887,24.5067277 L2,24.5 L30,24.5 Z M16.5,6 C17.0128358,6 17.4355072,6.38604019 17.4932723,6.88337887 L17.5,7 L17.5005477,8.05797487 C19.3535922,8.28508078 20.5758313,9.18021947 20.9701425,10.7574644 C21.1040912,11.2932593 20.7783305,11.8361938 20.2425356,11.9701425 C19.7067407,12.1040912 19.1638062,11.7783305 19.0298575,11.2425356 C18.824648,10.4216975 18.0866774,10 16.5,10 C14.644647,10 14,10.7988017 14,12 C14,12.7042103 14.2322584,13.1119115 14.9830368,13.4730853 L15.2528934,13.5920962 C15.4461243,13.6707452 15.6665319,13.7484682 15.9172575,13.8280085 L16.3164771,13.9490247 L17.3335372,14.2359169 C19.9491617,15.007733 21,15.8337653 21,18 C21,19.9650166 19.8790014,21.5819011 17.5008184,21.9304062 L17.5,23 C17.5,23.5522847 17.0522847,24 16.5,24 C15.9871642,24 15.5644928,23.6139598 15.5067277,23.1166211 L15.5,23 L15.500467,21.9421494 C13.646854,21.715246 12.4242407,20.8200684 12.0298575,19.2425356 C11.8959088,18.7067407 12.2216695,18.1638062 12.7574644,18.0298575 C13.2932593,17.8959088 13.8361938,18.2216695 13.9701425,18.7574644 C14.175352,19.5783025 14.9133226,20 16.5,20 C18.355353,20 19,19.2011983 19,18 C19,17.1595302 18.6414244,16.766821 17.329681,16.3281775 L16.9478538,16.2070376 C16.8801283,16.1865342 16.8103218,16.1658431 16.7383784,16.1449181 L16.2364701,16.0041268 C13.2209436,15.180325 12,14.3592205 12,12 C12,10.0347121 13.1213081,8.41765248 15.5001665,8.06944955 L15.5,7 C15.5,6.44771525 15.9477153,6 16.5,6 Z" id="Combined-Shape" fill="#E21B23"></path>
    </g>
</svg>