<?xml version="1.0" encoding="UTF-8"?>
<svg width="32px" height="32px" viewBox="0 0 32 32" version="1.1" xmlns="http://www.w3.org/2000/svg" xmlns:xlink="http://www.w3.org/1999/xlink">
    <title>gift-intl/bold</title>
    <g id="gift-intl/bold" stroke="none" stroke-width="1" fill="none" fill-rule="evenodd">
        <path d="M26.1187698,4.36821192 C26.930956,5.77495966 26.2665884,7.43065819 24.8791848,8.66246662 L27.3695652,8.66169018 C28.7502771,8.66169018 29.8695652,9.78097831 29.8695652,11.1616902 L29.8695652,11.1616902 L29.8695652,15.4225597 C29.8695652,16.2596843 29.4581163,17.0007098 28.8264149,17.4544398 L28.826087,25.8573424 C28.826087,27.1828258 27.794551,28.267381 26.4904626,28.3520247 L26.326087,28.3573424 L15.1220055,28.3573424 C14.2869147,28.3573424 13.5112481,27.9408064 13.0489212,27.2546313 L12.9682289,27.1246843 C11.8404498,27.9021342 10.4733847,28.3573424 9,28.3573424 C5.13400675,28.3573424 2,25.2233356 2,21.3573424 C2,18.5648413 3.63517574,16.154256 6.00026701,15.0308467 L6,11.1616902 C6,9.78097831 7.11928813,8.66169018 8.5,8.66169018 L8.5,8.66169018 L10.989835,8.66198233 C9.60280273,7.43022425 8.93871566,5.77477532 9.75079541,4.36821192 C10.7638908,2.61347921 13.2611464,2.65468835 15.3804348,3.87826007 C16.6044312,4.58493472 17.5499102,5.5979921 17.9351322,6.66585756 C18.319655,5.5979921 19.265134,4.58493472 20.4891304,3.87826007 C22.6084188,2.65468835 25.1056744,2.61347921 26.1187698,4.36821192 Z M25.826,17.9220808 L15.100484,17.9220267 C15.6732009,18.9368831 16,20.1089487 16,21.3573424 C16,23.6617249 14.8865085,25.7060376 13.1682201,26.9815858 L15.5554586,25.6081068 C15.4811249,25.4788308 15.353941,25.3908728 15.2100534,25.3651445 L15.1220055,25.3573424 L25.826,25.3570808 L25.826,17.9220808 Z M5.37725559,23.0588752 L5.45515599,23.2122283 C6.12377967,24.4874016 7.46029706,25.3573424 9,25.3573424 C10.5595087,25.3573424 11.910571,24.4648769 12.5703138,23.162819 C11.4387617,23.2924749 10.3244092,23.3573424 9.22622823,23.3573424 C7.86890382,23.3573424 6.58582255,23.2582425 5.37725559,23.0588752 Z M7.42545494,17.6804941 L7.31370093,17.7291124 C6.35794054,18.1740774 5.60727639,18.9855778 5.24237536,19.9829469 L4.83859929,19.8960585 C6.16170169,20.2026393 7.62402593,20.3573424 9.22622823,20.3573424 C10.3925806,20.3573424 11.583643,20.2753449 12.799691,20.1110004 C12.4983871,19.1861874 11.8691463,18.4117649 11.0500989,17.92194 L8.5,17.9225597 C8.11534534,17.9225597 7.75098063,17.8356882 7.42545494,17.6804941 Z M26.869,11.6610808 L8.999,11.6610808 L8.999,14.357 C9.97966375,14.3573424 10.9123235,14.5585905 11.7588929,14.9220004 L26.869,14.9220808 L26.869,11.6610808 Z M12.6221075,6.02556226 L12.7053572,6.13232809 C12.9296649,6.39746979 13.25338,6.66655414 13.6413043,6.89052234 C14.2687117,7.25275617 14.5354348,7.99979956 14.3154721,8.66140914 L15.0299775,8.66198367 C14.9467212,8.37142501 14.950822,8.05613796 15.0537736,7.75901782 L15.0537736,7.75901782 L15.0916766,7.66614299 L15.0617269,7.59826503 L15.0062504,7.49654102 C14.8007499,7.15379131 14.3976672,6.77496055 13.8804348,6.47633628 L13.8804348,6.47633628 L13.6861702,6.37089348 C13.3623555,6.20610358 13.0406568,6.09628386 12.7558457,6.04487936 L12.7558457,6.04487936 L12.6221075,6.02556226 Z M23.2476084,6.0254753 L23.1137195,6.04487936 C22.8289084,6.09628386 22.5072097,6.20610358 22.183395,6.37089348 L21.9891304,6.47633628 C21.471898,6.77496055 21.0688153,7.15379131 20.8633148,7.49654102 L20.8078383,7.59826503 L20.7780392,7.66605603 L20.8157916,7.75901782 C20.9187432,8.05613796 20.922844,8.37142501 20.8395878,8.66198367 L21.5540931,8.66140914 C21.3341304,7.99979956 21.6008535,7.25275617 22.2282609,6.89052234 C22.6161852,6.66655414 22.9399003,6.39746979 23.1642081,6.13232809 L23.2476084,6.0254753 Z" id="Combined-Shape" fill="#5AA617"></path>
    </g>
</svg>