<?xml version="1.0" encoding="UTF-8"?>
<svg width="32px" height="32px" viewBox="0 0 32 32" version="1.1" xmlns="http://www.w3.org/2000/svg" xmlns:xlink="http://www.w3.org/1999/xlink">
    <title>gift-intl/regular</title>
    <g id="gift-intl/regular" stroke="none" stroke-width="1" fill="none" fill-rule="evenodd">
        <path d="M26.1857571,5.11277789 C27.0212366,6.55987078 25.8902078,8.44628877 23.9782609,9.55015182 C23.8908142,9.60063919 23.7989117,9.63641802 23.7054183,9.65825594 L27.8695652,9.65625615 C28.9741347,9.65625615 29.8695652,10.5516867 29.8695652,11.6562562 L29.8695652,11.6562562 L29.8695652,15.9171257 C29.8695652,16.6813986 29.4408759,17.3455456 28.8108368,17.6822276 C28.8156877,17.7098677 28.8184555,17.7387791 28.8206012,17.7678634 L28.826087,17.9171257 L28.826087,26.3519083 C28.826087,27.4062701 28.0102092,28.2700734 26.9753493,28.3464226 L26.826087,28.3519083 L15.6220055,28.3519083 C14.9612743,28.3519083 14.3470434,28.025963 13.9758218,27.4877581 L13.8881929,27.3488506 L15.6220055,26.3519083 L26.826087,26.3519083 L26.826087,17.9171257 L14.6744957,17.9175566 C15.5061984,19.0097399 16,20.3731573 16,21.8519083 C16,25.4417592 13.0898509,28.3519083 9.5,28.3519083 C5.91014913,28.3519083 3,25.4417592 3,21.8519083 C3,19.1477949 4.65124773,16.8293511 7.00042591,15.8498941 L7,11.6562562 C7,10.5516867 7.8954305,9.65625615 9,9.65625615 L9,9.65625615 L13.164147,9.65825594 C13.0706535,9.63641802 12.978751,9.60063919 12.8913043,9.55015182 C10.9793575,8.44628877 9.84832864,6.55987078 10.6838081,5.11277789 C11.5192876,3.665685 13.7184879,3.70197569 15.6304348,4.80583874 C17.5423817,5.90970179 18.6734105,7.79611978 17.837931,9.24321267 C17.7277865,9.43398851 17.5642736,9.57474178 17.3771381,9.65750209 L19.4930145,9.65776162 C19.3056338,9.57503621 19.1418939,9.43418808 19.0316342,9.24321267 C18.1961547,7.79611978 19.3271836,5.90970179 21.2391304,4.80583874 C23.1510773,3.70197569 25.3502776,3.665685 26.1857571,5.11277789 Z M5.12231194,22.9031399 L5.16984487,23.0807874 C5.70458945,24.9687423 7.44076686,26.3519083 9.5,26.3519083 C11.5686048,26.3519083 13.3112066,24.956124 13.8373813,23.0549797 C12.441381,23.2528523 11.0710635,23.3519083 9.72622823,23.3519083 C8.07636501,23.3519083 6.54161122,23.2028141 5.12231194,22.9031399 Z M7.95902658,17.6252028 L7.8880004,17.6492448 C6.51174784,18.1774585 5.46086681,19.3622404 5.11884821,20.8200996 L5.11060314,20.8579479 C5.14887556,20.862255 5.18730215,20.8688142 5.22573286,20.8777191 C6.58732037,21.1932174 8.08733967,21.3519083 9.72622823,21.3519083 C11.0928095,21.3519083 12.4916018,21.2415593 13.922884,21.020507 C13.6730009,19.6835344 12.8335323,18.556217 11.6850906,17.917096 L9,17.9171257 C8.61867041,17.9171257 8.26226667,17.8104055 7.95902658,17.6252028 Z M27.8695652,11.6562562 L9,11.6562562 L9.00067087,15.3708021 C9.16547272,15.3582825 9.33199198,15.3519083 9.5,15.3519083 C10.4458947,15.3519083 11.3445993,15.5539533 12.1553109,15.9172403 L27.8695652,15.9171257 L27.8695652,11.6562562 Z M12.9422535,6.00608778 C12.6042997,6.00051095 12.4412708,6.06876318 12.4158589,6.11277789 C12.390447,6.1567926 12.4128533,6.33210585 12.5866599,6.62199405 C12.8380315,7.04125127 13.3035489,7.47876026 13.8913043,7.81810101 C14.369597,8.09424339 14.5334721,8.70583379 14.2573298,9.18412642 C14.1139622,9.43244633 13.8801753,9.59601572 13.6215673,9.65725764 L16.566,9.656 L16.4719056,9.60923808 C16.0277767,9.35282016 15.8547527,8.80716388 16.053396,8.34757339 L16.1058802,8.24321267 C16.1312921,8.19919796 16.1088859,8.02388471 15.9350792,7.73399651 C15.6837076,7.31473929 15.2181902,6.8772303 14.6304348,6.53788955 C14.0426794,6.19854879 13.4310268,6.01415341 12.9422535,6.00608778 Z M23.9273117,6.00608778 C23.4385385,6.01415341 22.8268859,6.19854879 22.2391304,6.53788955 C21.651375,6.8772303 21.1858576,7.31473929 20.934486,7.73399651 C20.7606794,8.02388471 20.7382731,8.19919796 20.763685,8.24321267 C21.0398274,8.7215053 20.8759522,9.3330957 20.3976596,9.60923808 L20.303,9.656 L23.2482658,9.65732103 C22.9895513,9.59612866 22.7556525,9.43253207 22.6122355,9.18412642 C22.3360931,8.70583379 22.4999682,8.09424339 22.9782609,7.81810101 C23.5660163,7.47876026 24.0315337,7.04125127 24.2829053,6.62199405 C24.4567119,6.33210585 24.4791182,6.1567926 24.4537063,6.11277789 C24.4282944,6.06876318 24.2652655,6.00051095 23.9273117,6.00608778 Z" id="Combined-Shape" fill="#E21B23"></path>
    </g>
</svg>