<?xml version="1.0" encoding="UTF-8"?>
<svg width="32px" height="32px" viewBox="0 0 32 32" version="1.1" xmlns="http://www.w3.org/2000/svg" xmlns:xlink="http://www.w3.org/1999/xlink">
    <title>cutlery/bold</title>
    <g id="cutlery/bold" stroke="none" stroke-width="1" fill="none" fill-rule="evenodd">
        <path d="M15,3.5 C15.7796961,3.5 16.4204487,4.09488808 16.4931334,4.85553999 L16.5,5 L16.5,9 C16.5,11.5174902 14.8085909,13.6399306 12.5001762,14.2929177 L12.5,26.3333333 C12.5,27.1617605 11.8284271,27.8333333 11,27.8333333 C10.2203039,27.8333333 9.57955132,27.2384453 9.50686658,26.4777933 L9.5,26.3333333 L9.50012687,14.2930034 C7.25949288,13.6593293 5.60009132,11.6412489 5.5043672,9.22120714 L5.5,9 L5.5,5 C5.5,4.17157288 6.17157288,3.5 7,3.5 C7.77969612,3.5 8.42044868,4.09488808 8.49313342,4.85553999 L8.5,5 L8.5,9 C8.5,9.81792915 8.89279608,10.5441159 9.50004507,11.0002169 L9.5,5 C9.5,4.17157288 10.1715729,3.5 11,3.5 C11.7796961,3.5 12.4204487,4.09488808 12.4931334,4.85553999 L12.5,5 L12.5009713,10.9994531 C13.0666555,10.5741227 13.4460064,9.91431632 13.4946823,9.16437569 L13.5,9 L13.5,5 C13.5,4.17157288 14.1715729,3.5 15,3.5 Z M25.8333333,26.3333333 L22.8333333,26.3333333 L22.8327124,16.6836983 C20.2240866,15.4713001 18.8333333,13.2906991 18.8333333,10.3333333 C18.8333333,7.00924675 20.5903856,4.66651043 23.8589917,3.57697505 L23.8589917,3.57697505 L25.8333333,2.91886117 L25.8333333,26.3333333 Z M22.833,7.553 L22.717664,7.67540801 C22.1140785,8.34664791 21.8333333,9.21708514 21.8333333,10.3333333 C21.8333333,11.4495815 22.1140785,12.3200187 22.717664,12.9912586 L22.717664,12.9912586 L22.833,13.113 L22.833,7.553 Z" id="Combined-Shape" fill="#5AA617" fill-rule="nonzero"></path>
    </g>
</svg>