<?xml version="1.0" encoding="UTF-8"?>
<svg width="32px" height="32px" viewBox="0 0 32 32" version="1.1" xmlns="http://www.w3.org/2000/svg" xmlns:xlink="http://www.w3.org/1999/xlink">
    <title>cutlery/regular</title>
    <g id="cutlery/regular" stroke="none" stroke-width="1" fill="none" fill-rule="evenodd">
        <path d="M15,4 C15.5128358,4 15.9355072,4.38604019 15.9932723,4.88337887 L16,5 L16,9 C16,11.4185387 14.2828356,13.4360122 12.0011864,13.8997409 L12,26.3333333 C12,26.8856181 11.5522847,27.3333333 11,27.3333333 C10.4871642,27.3333333 10.0644928,26.9472931 10.0067277,26.4499545 L10,26.3333333 L10.0000852,13.8999992 C7.7863647,13.4506779 6.10371875,11.5388174 6.00461951,9.21688962 L6,9 L6,5 C6,4.44771525 6.44771525,4 7,4 C7.51283584,4 7.93550716,4.38604019 7.99327227,4.88337887 L8,5 L8,9 C8,10.3062521 8.8348501,11.4175144 10.0000889,11.8293257 L10,5 C10,4.44771525 10.4477153,4 11,4 C11.5128358,4 11.9355072,4.38604019 11.9932723,4.88337887 L12,5 L12.0009007,11.8289758 C13.1128456,11.4355582 13.9237055,10.4051328 13.9949073,9.17627279 L14,9 L14,5 C14,4.44771525 14.4477153,4 15,4 Z M25.3333333,3.61257411 L25.333,16.0535741 L26,16.0540926 L26,26.3333333 L24,26.3333333 L24,16.6085741 L23.7422051,16.5192687 C20.8527016,15.4612531 19.3333333,13.3441906 19.3333333,10.3333333 C19.3333333,7.32247601 20.8527017,5.20541348 23.7422051,4.14739794 L24.0171056,4.0513167 L25.3333333,3.61257411 Z M23.333,6.54 L23.175696,6.63898616 C21.9244387,7.45608024 21.3333333,8.66204329 21.3333333,10.3333333 C21.3333333,11.9166607 21.8638545,13.0823539 22.983605,13.8954229 L23.175696,14.0276805 L23.333,14.125 L23.333,6.54 Z" id="Combined-Shape" fill="#E21B23" fill-rule="nonzero"></path>
    </g>
</svg>