<?xml version="1.0" encoding="UTF-8"?>
<svg width="32px" height="32px" viewBox="0 0 32 32" version="1.1" xmlns="http://www.w3.org/2000/svg" xmlns:xlink="http://www.w3.org/1999/xlink">
    <title>mtu-domestic/bold</title>
    <defs>
        <path d="M20.6666667,1.5 C22.2063512,1.5 23.8802636,2.5291743 23.9938751,4.15668703 L24,4.33333333 L24.0008365,13.7361867 C26.0366153,14.3962558 27.5,16.3636092 27.5,18.6666667 C27.5,21.4097508 26.173524,24.1890339 23.6099101,27.0090092 L23.6099101,27.0090092 L23.2110169,27.4480396 C23.3927176,27.6961709 23.5,28.0022235 23.5,28.3333333 C23.5,29.8401843 22.3236982,31.0722953 20.8392654,31.1614958 L20.6666667,31.1666667 L7.33333333,31.1666667 C5.82648236,31.1666667 4.59437135,29.9903649 4.50517088,28.5059321 L4.5,28.3333333 L4.5,4.33333333 C4.5,2.82648235 5.6763017,1.59437135 7.16073457,1.50517088 L7.33333333,1.5 L20.6666667,1.5 Z M9.833,4.5 L7.5,4.5 L7.5,28.166 L20.509,28.166 L20.5270472,28.0482984 C20.6185772,27.572493 20.9349306,27.1766831 21.3612257,26.9757509 C18.8164814,24.1680538 17.5,21.3993971 17.5,18.6666667 C17.5,17.8937621 17.6648165,17.1586668 17.9607723,16.4981042 C17.6382011,16.491156 17.3175663,16.3792006 17.0532622,16.1636304 L16.9393398,16.0606602 L15,14.121 L15,23 C15,23.8284271 14.3284271,24.5 13.5,24.5 C12.7203039,24.5 12.0795513,23.9051119 12.0068666,23.14446 L12,23 L12,15.12 L11.0606602,16.0606602 C10.5114854,16.609835 9.64242298,16.6441584 9.05326224,16.1636304 L8.93933983,16.0606602 C8.39016504,15.5114854 8.35584162,14.642423 8.83636956,14.0532622 L8.93933983,13.9393398 L12.005,10.873 L12.0068666,10.85554 C12.0755725,10.1365272 12.6518548,9.56562672 13.3732746,9.50527756 L14,8.87867966 L19.0606602,13.9393398 C19.2457957,14.1244753 19.3724199,14.3459652 19.4405327,14.58083 C19.9020495,14.2093171 20.4285554,13.9210595 21.0001687,13.7358609 L21,4.6 L20.9770497,4.58762932 C20.8940484,4.54779598 20.8007375,4.51842116 20.7294354,4.50622333 L20.6666667,4.5 L18.166,4.5 L18.1666667,5.83333333 L9.83333333,5.83333333 L9.833,4.5 Z M22.5,16.5 C21.4114409,16.5 20.5,17.4548428 20.5,18.6666667 C20.5,20.1719102 21.1310338,21.8076687 22.4374281,23.5717129 L22.4374281,23.5717129 L22.5,23.654 L22.7875348,23.2597127 C23.8769251,21.7064625 24.4356449,20.2545113 24.4947495,18.905421 L24.4947495,18.905421 L24.5,18.6666667 C24.5,17.4548428 23.5885591,16.5 22.5,16.5 Z" id="path-1"></path>
    </defs>
    <g id="mtu-domestic/bold" stroke="none" stroke-width="1" fill="none" fill-rule="evenodd">
        <mask id="mask-2" fill="white">
            <use xlink:href="#path-1"></use>
        </mask>
        <use id="Mask" fill="#5AA617" fill-rule="nonzero" xlink:href="#path-1"></use>
    </g>
</svg>