<?xml version="1.0" encoding="UTF-8"?>
<svg width="32px" height="32px" viewBox="0 0 32 32" version="1.1" xmlns="http://www.w3.org/2000/svg" xmlns:xlink="http://www.w3.org/1999/xlink">
    <title>mtu-domestic/regular</title>
    <g id="mtu-domestic/regular" stroke="none" stroke-width="1" fill="none" fill-rule="evenodd">
        <path d="M20.6666667,2 C21.9676204,2 23.386316,2.86905933 23.4935219,4.17460091 L23.5,4.33333333 L23.5004223,14.1154648 C25.5104987,14.5878519 27,16.4534452 27,18.6666667 C27,21.2694635 25.7267938,23.9371337 23.2399401,26.6726728 L23.2399401,26.6726728 L22.5109231,27.473527 C22.8037897,27.6479324 23,27.9677192 23,28.3333333 C23,29.5683033 22.0405731,30.5791873 20.826421,30.6612836 L20.6666667,30.6666667 L7.33333333,30.6666667 C6.09836328,30.6666667 5.08747935,29.7072398 5.00538306,28.4930877 L5,28.3333333 L5,4.33333333 C5,3.09836327 5.95942684,2.08747935 7.17357901,2.00538306 L7.33333333,2 L20.6666667,2 Z M10.333,4 L7.33333333,4 C7.17225028,4 7.03785424,4.11426066 7.00677215,4.26615504 L7,4.33333333 L7,28.3333333 C7,28.4944164 7.11426069,28.6288124 7.26615505,28.6598945 L7.33333333,28.6666667 L20.6666667,28.6666667 C20.8507615,28.6666667 21,28.5174282 21,28.3333333 C21,27.7810486 21.4477153,27.3333333 22,27.3333333 C22.169183,27.3333333 22.3285531,27.3753468 22.4682464,27.4495097 L21.7600599,26.6726728 C19.2732062,23.9371337 18,21.2694635 18,18.6666667 C18,16.4530803 19.4899925,14.5872367 21.500572,14.1152313 L21.5,4.33333333 C21.5,4.28837122 21.1305228,4.04967631 20.7731378,4.00664882 L20.6666667,4 L17.666,4 L17.6666667,5.33333333 L10.3333333,5.33333333 L10.333,4 Z M22.5,16 C21.1299617,16 20,17.1837694 20,18.6666667 C20,20.4531083 20.8116598,22.3770341 22.4748792,24.4364372 L22.4748792,24.4364372 L22.5,24.467 L22.7688153,24.1277739 C24.1925298,22.2819246 24.9246474,20.5464445 24.9944742,18.9228077 L24.9944742,18.9228077 L25,18.6666667 C25,17.1837694 23.8700383,16 22.5,16 Z M14,9.58578644 L18.7071068,14.2928932 C19.0976311,14.6834175 19.0976311,15.3165825 18.7071068,15.7071068 C18.3466228,16.0675907 17.7793918,16.0953203 17.3871006,15.7902954 L17.2928932,15.7071068 L14.5,12.915 L14.5,23 C14.5,23.5522847 14.0522847,24 13.5,24 C12.9871642,24 12.5644928,23.6139598 12.5067277,23.1166211 L12.5,23 L12.5,13.915 L10.7071068,15.7071068 C10.3466228,16.0675907 9.77939176,16.0953203 9.38710056,15.7902954 L9.29289322,15.7071068 C8.93240926,15.3466228 8.90467972,14.7793918 9.20970461,14.3871006 L9.29289322,14.2928932 L12.5,11.085 L12.5,11 C12.5,10.4477153 12.9477153,10 13.5,10 L13.581,10.004 L14,9.58578644 Z" id="Combined-Shape" fill="#E21B23" fill-rule="nonzero"></path>
    </g>
</svg>