<?xml version="1.0" encoding="UTF-8"?>
<svg width="32px" height="32px" viewBox="0 0 32 32" version="1.1" xmlns="http://www.w3.org/2000/svg" xmlns:xlink="http://www.w3.org/1999/xlink">
    <title>mobile-app/regular</title>
    <g id="mobile-app/regular" stroke="none" stroke-width="1" fill="none" fill-rule="evenodd">
        <path d="M22.6666667,2 C23.955331,2 25,3.04466893 25,4.33333333 L25,4.33333333 L25,28.3333333 C25,29.6219977 23.955331,30.6666667 22.6666667,30.6666667 L22.6666667,30.6666667 L9.33333333,30.6666667 C8.04466893,30.6666667 7,29.6219977 7,28.3333333 L7,28.3333333 L7,4.33333333 C7,3.04466892 8.04466892,2 9.33333333,2 L9.33333333,2 Z M12.333,4 L9.33333333,4 C9.14923842,4 9,4.14923842 9,4.33333333 L9,4.33333333 L9,28.3333333 C9,28.5174282 9.14923845,28.6666667 9.33333333,28.6666667 L9.33333333,28.6666667 L22.6666667,28.6666667 C22.8507615,28.6666667 23,28.5174282 23,28.3333333 L23,28.3333333 L23,4.33333333 C23,4.14923845 22.8507615,4 22.6666667,4 L22.6666667,4 L19.666,4 L19.6666667,5.33333333 L12.3333333,5.33333333 L12.333,4 Z M15,9 L15,13 L13,13 L13,9 L15,9 Z" id="Combined-Shape" fill="#E21B23" fill-rule="nonzero"></path>
    </g>
</svg>