<?xml version="1.0" encoding="UTF-8"?>
<svg width="32px" height="32px" viewBox="0 0 32 32" version="1.1" xmlns="http://www.w3.org/2000/svg" xmlns:xlink="http://www.w3.org/1999/xlink">
    <title>reports-login/bold</title>
    <g id="reports-login/bold" stroke="none" stroke-width="1" fill="none" fill-rule="evenodd">
        <path d="M27.25,3 L27.25,30 L7.75,30 L7.75,18 L5.5,18 C4.67157288,18 4,17.3284271 4,16.5 C4,15.7203039 4.59488808,15.0795513 5.35553999,15.0068666 L5.5,15 L7.75,15 L7.75,3 L27.25,3 Z M10.75,27 L24.25,27 L24.25,6 L10.75,6 L10.75,15 L16.129,15 L14.1893398,13.0606602 C13.640165,12.5114854 13.6058416,11.642423 14.0863696,11.0532622 L14.1893398,10.9393398 C14.7385146,10.390165 15.607577,10.3558416 16.1967378,10.8363696 L16.3106602,10.9393398 L21.8713203,16.5 L16.3106602,22.0606602 C15.7248737,22.6464466 14.7751263,22.6464466 14.1893398,22.0606602 C13.640165,21.5114854 13.6058416,20.642423 14.0863696,20.0532622 L14.1893398,19.9393398 L16.129,18 L10.75,18 L10.75,27 Z" id="Combined-Shape" fill="#5AA617"></path>
    </g>
</svg>