<?xml version="1.0" encoding="UTF-8"?>
<svg width="32px" height="32px" viewBox="0 0 32 32" version="1.1" xmlns="http://www.w3.org/2000/svg" xmlns:xlink="http://www.w3.org/1999/xlink">
    <title>reports-login/regular</title>
    <g id="reports-login/regular" stroke="none" stroke-width="1" fill="none" fill-rule="evenodd">
        <path d="M27.25,3 L27.25,29 L8.75,29 L8.75,17 L6,17 C5.44771525,17 5,16.5522847 5,16 C5,15.4871642 5.38604019,15.0644928 5.88337887,15.0067277 L6,15 L8.75,15 L8.75,3 L27.25,3 Z M10.75,27 L25.25,27 L25.25,5 L10.75,5 L10.75,15 L17.835,15 L15.0428932,12.2071068 C14.6824093,11.8466228 14.6546797,11.2793918 14.9597046,10.8871006 L15.0428932,10.7928932 C15.4033772,10.4324093 15.9706082,10.4046797 16.3628994,10.7097046 L16.4571068,10.7928932 L20.9495002,15.2853671 C20.9545979,15.2903575 20.9596425,15.2954021 20.9646329,15.3004998 L21.6642136,16 L16.4571068,21.2071068 C16.0665825,21.5976311 15.4334175,21.5976311 15.0428932,21.2071068 C14.6824093,20.8466228 14.6546797,20.2793918 14.9597046,19.8871006 L15.0428932,19.7928932 L17.835,17 L10.75,17 L10.75,27 Z" id="Combined-Shape" fill="#E21B23"></path>
    </g>
</svg>