<?xml version="1.0" encoding="UTF-8"?>
<svg width="32px" height="32px" viewBox="0 0 32 32" version="1.1" xmlns="http://www.w3.org/2000/svg" xmlns:xlink="http://www.w3.org/1999/xlink">
    <title>mobile-devices/bold</title>
    <g id="mobile-devices/bold" stroke="none" stroke-width="1" fill="none" fill-rule="evenodd">
        <path d="M26.0833333,6.5 L26.2435818,6.50526548 C27.5141151,6.5890646 28.5,7.66230751 28.5,8.95 L28.5,8.95 L28.5,26.05 L28.4949159,26.2097886 C28.4139763,27.4782648 27.3763699,28.5 26.0833333,28.5 L26.0833333,28.5 L21.9166667,28.5 L21.7722067,28.4931334 C21.6774747,28.4840812 21.5853139,28.4662181 21.496553,28.440373 C21.4413878,29.9559216 20.1954195,31.1666667 18.6666667,31.1666667 L18.6666667,31.1666667 L5.33333333,31.1666667 C3.76852655,31.1666667 2.5,29.8981401 2.5,28.3333333 L2.5,28.3333333 L2.5,4.33333333 C2.5,2.76852654 3.76852654,1.5 5.33333333,1.5 L5.33333333,1.5 L18.6666667,1.5 C20.2314734,1.5 21.5,2.76852655 21.5,4.33333333 L21.5,4.33333333 L21.5,6.5 L26.0833333,6.5 Z M7.833,4.5 L5.5,4.5 L5.5,28.166 L18.5,28.166 L18.5,4.5 L16.166,4.5 L16.1666667,5.83333333 L7.83333333,5.83333333 L7.833,4.5 Z M24.5,10.5 L21.5,10.5 L21.5004855,25.5584878 C21.588035,25.5332565 21.678873,25.5157852 21.7722067,25.5068666 L21.9166667,25.5 L25.5006667,25.5 L25.5006667,9.5 L24.5,9.5 L24.5,10.5 Z" id="Combined-Shape" fill="#5AA617"></path>
    </g>
</svg>