<?xml version="1.0" encoding="UTF-8"?>
<svg width="32px" height="32px" viewBox="0 0 32 32" version="1.1" xmlns="http://www.w3.org/2000/svg" xmlns:xlink="http://www.w3.org/1999/xlink">
    <title>mobile-devices/regular</title>
    <g id="mobile-devices/regular" stroke="none" stroke-width="1" fill="none" fill-rule="evenodd">
        <path d="M27.0833333,7 L27.2341757,7.00591758 C28.2290513,7.08432008 29,7.93178946 29,8.95 L29,8.95 L29,26.05 L28.9942863,26.2013762 C28.918559,27.2010168 28.0992341,28 27.0833333,28 L27.0833333,28 L22.9166667,28 L22.8000455,27.9932723 C22.4399813,27.9514514 22.1382542,27.718365 21.9991218,27.3982706 L22,28.3333333 C22,29.6219977 20.955331,30.6666667 19.6666667,30.6666667 L19.6666667,30.6666667 L6.33333333,30.6666667 C5.04466893,30.6666667 4,29.6219977 4,28.3333333 L4,28.3333333 L4,4.33333333 C4,3.04466892 5.04466892,2 6.33333333,2 L6.33333333,2 L19.6666667,2 C20.955331,2 22,3.04466893 22,4.33333333 L22,4.33333333 L22,7 L27.0833333,7 Z M9.333,3.999 L6.33333333,4 C6.14923842,4 6,4.14923842 6,4.33333333 L6,4.33333333 L6,28.3333333 C6,28.5174282 6.14923845,28.6666667 6.33333333,28.6666667 L6.33333333,28.6666667 L19.6666667,28.6666667 C19.8507615,28.6666667 20,28.5174282 20,28.3333333 L20,28.3333333 L20,4.33333333 C20,4.14923845 19.8507615,4 19.6666667,4 L19.6666667,4 L16.666,3.999 L16.6666667,5.33333333 L9.33333333,5.33333333 L9.333,3.999 Z M25,10 L22,10 L21.9991218,26.6017294 C22.1382542,26.281635 22.4399813,26.0485486 22.8000455,26.0067277 L22.9166667,26 L27.0006667,26 L27.0006667,9 L25,9 L25,10 Z" id="Combined-Shape" fill="#E21B23"></path>
    </g>
</svg>