<?xml version="1.0" encoding="UTF-8"?>
<svg width="32px" height="32px" viewBox="0 0 32 32" version="1.1" xmlns="http://www.w3.org/2000/svg" xmlns:xlink="http://www.w3.org/1999/xlink">
    <title>delete/bold</title>
    <defs>
        <path d="M24.3333333,11.5 C25.1130295,11.5 25.753782,12.0948881 25.8264668,12.85554 L25.8333333,13 L25.8333333,26.3333333 C25.8333333,27.9870451 24.7984531,29.0831739 23.1883123,29.1621002 L23,29.1666667 L9.66666667,29.1666667 C8.01295494,29.1666667 6.91682611,28.1317864 6.83789985,26.5216456 L6.83333333,26.3333333 L6.83333333,13 C6.83333333,12.1715729 7.50490621,11.5 8.33333333,11.5 C9.11302945,11.5 9.75378201,12.0948881 9.82646676,12.85554 L9.83333333,13 L9.833,26.166 L22.833,26.166 L22.8333333,13 C22.8333333,12.2203039 23.4282214,11.5795513 24.1888733,11.5068666 L24.3333333,11.5 Z M19,4.83333333 C19.7720384,4.83333333 20.4078491,5.4165935 20.4908278,6.16650963 L25.6666667,6.16666667 C26.4950938,6.16666667 27.1666667,6.83823954 27.1666667,7.66666667 C27.1666667,8.44636278 26.5717786,9.08711534 25.8111267,9.15980009 L25.6666667,9.16666667 L7,9.16666667 C6.17157288,9.16666667 5.5,8.49509379 5.5,7.66666667 C5.5,6.88697055 6.09488808,6.24621799 6.85553999,6.17353324 L7,6.16666667 L12.1758388,6.16650963 C12.25358,5.46392815 12.8165662,4.90762799 13.5222067,4.84019991 L13.6666667,4.83333333 L19,4.83333333 Z" id="path-1"></path>
    </defs>
    <g id="delete/bold" stroke="none" stroke-width="1" fill="none" fill-rule="evenodd">
        <mask id="mask-2" fill="white">
            <use xlink:href="#path-1"></use>
        </mask>
        <use id="Mask" fill="#5AA617" fill-rule="nonzero" xlink:href="#path-1"></use>
    </g>
</svg>