<?xml version="1.0" encoding="UTF-8"?>
<svg width="32px" height="32px" viewBox="0 0 32 32" version="1.1" xmlns="http://www.w3.org/2000/svg" xmlns:xlink="http://www.w3.org/1999/xlink">
    <title>delete/regular</title>
    <g id="delete/regular" stroke="none" stroke-width="1" fill="none" fill-rule="evenodd">
        <path d="M24.3333333,12 C24.8461692,12 25.2688405,12.3860402 25.3266056,12.8833789 L25.3333333,13 L25.3333333,26.3333333 C25.3333333,27.7144581 24.5139714,28.5913669 23.1772624,28.6620448 L23,28.6666667 L9.66666667,28.6666667 C8.28554192,28.6666667 7.40863312,27.8473048 7.33795518,26.5105958 L7.33333333,26.3333333 L7.33333333,13 C7.33333333,12.4477153 7.78104858,12 8.33333333,12 C8.84616917,12 9.26884049,12.3860402 9.3266056,12.8833789 L9.33333333,13 L9.33351005,26.4169656 L9.33956436,26.5398577 C9.3546711,26.6523293 9.40635143,26.6650637 9.58303437,26.66649 L23.0836323,26.66649 L23.2065244,26.6604356 C23.318996,26.6453289 23.3317304,26.5936486 23.3331566,26.4169656 L23.3333333,13 C23.3333333,12.4477153 23.7810486,12 24.3333333,12 Z M19,5.33333333 C19.5522847,5.33333333 20,5.78104858 20,6.33333333 C20,6.45021899 19.9799461,6.56242082 19.9430913,6.6666859 L25.6666667,6.66666667 C26.2189514,6.66666667 26.6666667,7.11438192 26.6666667,7.66666667 C26.6666667,8.17950251 26.2806265,8.60217383 25.7832878,8.65993894 L25.6666667,8.66666667 L7,8.66666667 C6.44771525,8.66666667 6,8.21895142 6,7.66666667 C6,7.15383083 6.38604019,6.73115951 6.88337887,6.6733944 L7,6.66666667 L12.7235754,6.6666859 C12.6867205,6.56242082 12.6666667,6.45021899 12.6666667,6.33333333 C12.6666667,5.82049749 13.0527069,5.39782617 13.5500455,5.34006106 L13.6666667,5.33333333 L19,5.33333333 Z" id="Shape" fill="#E21B23" fill-rule="nonzero"></path>
    </g>
</svg>