<?xml version="1.0" encoding="UTF-8"?>
<svg width="32px" height="32px" viewBox="0 0 32 32" version="1.1" xmlns="http://www.w3.org/2000/svg" xmlns:xlink="http://www.w3.org/1999/xlink">
    <title>rewards/bold</title>
    <g id="rewards/bold" stroke="none" stroke-width="1" fill="none" fill-rule="evenodd">
        <path d="M16.1377889,1 C21.0243083,1 24.9856149,4.96130667 24.9856149,9.84782609 C24.9856149,11.7164835 24.4063216,13.4498396 23.4175222,14.8781072 L24.0666208,14.7223569 L28.2755777,28.7321671 L22.4361936,26.513 L18.7809548,30.9280669 L16.137,22.131 L13.4946229,30.9280669 L9.83819363,26.513 L4,28.7321671 L8.20895688,14.7223569 L8.85874823,14.8791076 C7.86952669,13.450649 7.28996277,11.7169198 7.28996277,9.84782609 C7.28996277,4.96130667 11.2512694,1 16.1377889,1 Z M10.2661936,18.298 L8.62419363,23.766 L10.779705,22.9473915 L12.2321936,24.701 L13.8951936,19.166 L10.2661936,18.298 Z M22.0081936,18.298 L18.3791936,19.166 L20.0421936,24.701 L21.4958727,22.9473915 L23.6501936,23.766 L22.0081936,18.298 Z M16.1377889,4 C12.9081237,4 10.2899628,6.61816092 10.2899628,9.84782609 C10.2899628,13.0774913 12.9081237,15.6956522 16.1377889,15.6956522 C19.367454,15.6956522 21.9856149,13.0774913 21.9856149,9.84782609 C21.9856149,6.61816092 19.367454,4 16.1377889,4 Z" id="Combined-Shape" fill="#5AA617"></path>
    </g>
</svg>