<?xml version="1.0" encoding="UTF-8"?>
<svg width="32px" height="32px" viewBox="0 0 32 32" version="1.1" xmlns="http://www.w3.org/2000/svg" xmlns:xlink="http://www.w3.org/1999/xlink">
    <title>rewards/regular</title>
    <g id="rewards/regular" stroke="none" stroke-width="1" fill="none" fill-rule="evenodd">
        <path d="M16.5414624,2 C21.5120252,2 25.5414624,6.02943725 25.5414624,11 C25.5414624,12.8583867 24.9782069,14.5852181 24.0130992,16.0190906 L27.7341153,28.4045041 L22.5094624,26.419 L19.2205344,30.390331 L16.366,20.893 L13.5135809,30.390331 L10.2244624,26.419 L5,28.4045041 L8.78123142,15.8184083 L8.96782739,15.864132 C8.06515014,14.461534 7.54146242,12.7919239 7.54146242,11 C7.54146242,6.02943725 11.5708997,2 16.5414624,2 Z M22.5804624,18.202 L21.6158173,18.4341416 C20.5911914,19.1348747 19.4143049,19.6292964 18.1449958,19.8575686 L20.0614624,26.239 L21.8820004,24.0418464 L24.6504624,25.093 L22.5804624,18.202 Z M10.1524624,18.202 L8.08246242,25.093 L10.8521149,24.0418464 L12.6714624,26.238 L14.6084189,19.791907 C13.542762,19.5586766 12.5477538,19.1366302 11.6602265,18.5626001 L10.1524624,18.202 Z M16.5414624,4 C12.6754692,4 9.54146242,7.13400675 9.54146242,11 C9.54146242,13.3527756 10.7022126,15.4344434 12.4822921,16.7035828 L16.367,17.63 L20.7682165,16.5803169 C22.3936436,15.3472397 23.4637676,13.4202889 23.5374034,11.2406498 L23.5414624,11 C23.5414624,7.13400675 20.4074557,4 16.5414624,4 Z" id="Combined-Shape" fill="#E21B23"></path>
    </g>
</svg>