<?xml version="1.0" encoding="UTF-8"?>
<svg width="32px" height="32px" viewBox="0 0 32 32" version="1.1" xmlns="http://www.w3.org/2000/svg" xmlns:xlink="http://www.w3.org/1999/xlink">
    <title>help/bold</title>
    <defs>
        <path d="M16.3333333,1.5 C24.5255571,1.5 31.1666667,8.14110954 31.1666667,16.3333333 C31.1666667,24.5255571 24.5255571,31.1666667 16.3333333,31.1666667 C8.14110954,31.1666667 1.5,24.5255571 1.5,16.3333333 C1.5,8.14110954 8.14110954,1.5 16.3333333,1.5 Z M16.3333333,4.5 C9.79796379,4.5 4.5,9.79796379 4.5,16.3333333 C4.5,22.8687029 9.79796379,28.1666667 16.3333333,28.1666667 C22.8687029,28.1666667 28.1666667,22.8687029 28.1666667,16.3333333 C28.1666667,9.79796379 22.8687029,4.5 16.3333333,4.5 Z M17.7041618,22.390783 L17.7563583,22.5256584 L17.9230249,23.0256584 C18.1849966,23.8115733 17.7602566,24.6610533 16.9743416,24.9230249 C16.234657,25.1695865 15.4386656,24.8078499 15.1291715,24.109217 L15.0769751,23.9743416 L14.9103084,23.4743416 C14.6483367,22.6884267 15.0730767,21.8389467 15.8589917,21.5769751 C16.5986764,21.3304135 17.3946678,21.6921501 17.7041618,22.390783 Z M16.3333333,6.83333333 C19.3708994,6.83333333 21.8333333,9.29576723 21.8333333,12.3333333 C21.8333333,13.8129428 21.2443384,15.2030266 20.2175988,16.2272364 C20.0737059,16.3707748 19.9167145,16.4976251 19.7344823,16.6254881 L19.4361638,16.820264 C19.1735225,16.9879476 18.8350522,17.2005986 18.730926,17.2740255 C18.0924781,17.7242415 17.8333333,18.1470888 17.8333333,19 C17.8333333,19.8284271 17.1617605,20.5 16.3333333,20.5 C15.5049062,20.5 14.8333333,19.8284271 14.8333333,19 C14.8333333,17.0818257 15.6214476,15.7958568 17.0020381,14.8223023 L17.2844072,14.6339433 C17.583674,14.4399174 17.9610294,14.2050237 18.011379,14.169696 L18.0988966,14.1033012 C18.567024,13.6363272 18.8333333,13.0078119 18.8333333,12.3333333 C18.8333333,10.9526215 17.7140452,9.83333333 16.3333333,9.83333333 C15.6053144,9.83333333 14.9309897,10.144252 14.4581003,10.6799299 C14.2867058,10.8740816 14.1466082,11.0929691 14.0429446,11.3287705 L13.9721086,11.5086706 C13.6989913,12.2907821 12.8435593,12.7034034 12.0614478,12.4302861 C11.2793363,12.1571688 10.8667149,11.3017368 11.1398322,10.5196253 C11.3748963,9.84648479 11.7388901,9.22712604 12.2090709,8.6945164 C13.2455871,7.52037541 14.7356537,6.83333333 16.3333333,6.83333333 Z" id="path-1"></path>
    </defs>
    <g id="help/bold" stroke="none" stroke-width="1" fill="none" fill-rule="evenodd">
        <mask id="mask-2" fill="white">
            <use xlink:href="#path-1"></use>
        </mask>
        <use id="Mask" fill="#5AA617" fill-rule="nonzero" xlink:href="#path-1"></use>
    </g>
</svg>