<?xml version="1.0" encoding="UTF-8"?>
<svg width="32px" height="32px" viewBox="0 0 32 32" version="1.1" xmlns="http://www.w3.org/2000/svg" xmlns:xlink="http://www.w3.org/1999/xlink">
    <title>help/regular</title>
    <g id="help/regular" stroke="none" stroke-width="1" fill="none" fill-rule="evenodd">
        <path d="M16.3333333,2 C24.2494147,2 30.6666667,8.41725192 30.6666667,16.3333333 C30.6666667,24.2494147 24.2494147,30.6666667 16.3333333,30.6666667 C8.41725192,30.6666667 2,24.2494147 2,16.3333333 C2,8.41725192 8.41725192,2 16.3333333,2 Z M16.3333333,4 C9.52182142,4 4,9.52182142 4,16.3333333 C4,23.1448452 9.52182142,28.6666667 16.3333333,28.6666667 C23.1448452,28.6666667 28.6666667,23.1448452 28.6666667,16.3333333 C28.6666667,9.52182142 23.1448452,4 16.3333333,4 Z M17.2387553,22.5752632 L17.2820166,22.6837722 L17.4486833,23.1837722 C17.6233311,23.7077156 17.3401711,24.2740355 16.8162278,24.4486833 C16.329709,24.6108562 15.8066511,24.3782868 15.594578,23.9247368 L15.5513167,23.8162278 L15.38465,23.3162278 C15.2100023,22.7922844 15.4931622,22.2259645 16.0171056,22.0513167 C16.5036244,21.8891438 17.0266822,22.1217132 17.2387553,22.5752632 Z M16.3333333,7.33333333 C19.094757,7.33333333 21.3333333,9.5719096 21.3333333,12.3333333 C21.3333333,13.6787543 20.7981193,14.94191 19.8644818,15.8732472 C19.7434973,15.9939337 19.6078417,16.1035444 19.4472984,16.2161894 L18.5177198,16.8145692 C18.4873781,16.834678 18.4619184,16.8519077 18.442778,16.865405 C17.6806396,17.402844 17.3333333,17.969545 17.3333333,19 C17.3333333,19.5522847 16.8856181,20 16.3333333,20 C15.7810486,20 15.3333333,19.5522847 15.3333333,19 C15.3333333,17.2593696 16.033286,16.1172543 17.290186,15.2309229 L17.5628623,15.0493897 C17.8566065,14.8592446 18.2367378,14.6223742 18.2985629,14.5789947 L18.4155825,14.4903509 C18.4301174,14.4780732 18.44223,14.4670499 18.4520137,14.4572904 C19.013243,13.8974438 19.3333333,13.1420004 19.3333333,12.3333333 C19.3333333,10.6764791 17.9901875,9.33333333 16.3333333,9.33333333 C15.460371,9.33333333 14.6500893,9.70693921 14.0832621,10.3490277 C13.8263626,10.6400373 13.6279123,10.9777132 13.5000625,11.3438297 C13.3179843,11.8652374 12.7476963,12.1403183 12.2262887,11.9582401 C11.704881,11.7761619 11.4298001,11.2058739 11.6118783,10.6844662 C11.8254995,10.0727305 12.1563846,9.50970829 12.5839091,9.02541865 C13.5264875,7.95768817 14.8805971,7.33333333 16.3333333,7.33333333 Z" id="Combined-Shape" fill="#E21B23" fill-rule="nonzero"></path>
    </g>
</svg>