<?xml version="1.0" encoding="UTF-8"?>
<svg width="32px" height="32px" viewBox="0 0 32 32" version="1.1" xmlns="http://www.w3.org/2000/svg" xmlns:xlink="http://www.w3.org/1999/xlink">
    <title>close/bold</title>
    <defs>
        <path d="M24.6031324,7.39686749 C25.1523072,7.94604228 25.1866306,8.81510469 24.7061027,9.40426543 L24.6031324,9.51818784 L18.122,16 L24.6031324,22.4818121 C25.1889189,23.0675985 25.1889189,24.017346 24.6031324,24.6031324 C24.0539577,25.1523072 23.1848952,25.1866306 22.5957345,24.7061027 L22.4818121,24.6031324 L16,18.122 L9.51818784,24.6031324 C8.9324014,25.1889189 7.98265393,25.1889189 7.39686749,24.6031324 C6.84769271,24.0539577 6.81336929,23.1848952 7.29389722,22.5957345 L7.39686749,22.4818121 L13.878,16 L7.39686749,9.51818784 C6.81108106,8.9324014 6.81108106,7.98265393 7.39686749,7.39686749 C7.94604228,6.84769271 8.81510469,6.81336929 9.40426543,7.29389722 L9.51818784,7.39686749 L16,13.878 L22.4818121,7.39686749 C23.0675985,6.81108106 24.017346,6.81108106 24.6031324,7.39686749 Z" id="path-1"></path>
    </defs>
    <g id="close/bold" stroke="none" stroke-width="1" fill="none" fill-rule="evenodd">
        <mask id="mask-2" fill="white">
            <use xlink:href="#path-1"></use>
        </mask>
        <use id="Mask" fill="#5AA617" fill-rule="nonzero" xlink:href="#path-1"></use>
    </g>
</svg>