<?xml version="1.0" encoding="UTF-8"?>
<svg width="32px" height="32px" viewBox="0 0 32 32" version="1.1" xmlns="http://www.w3.org/2000/svg" xmlns:xlink="http://www.w3.org/1999/xlink">
    <title>close/regular</title>
    <g id="close/regular" stroke="none" stroke-width="1" fill="none" fill-rule="evenodd">
        <path d="M9.07042711,7.66723228 L9.16463445,7.75042089 L16,14.586 L22.8353655,7.75042089 C23.2258898,7.35989659 23.8590548,7.35989659 24.249579,7.75042089 C24.610063,8.11090485 24.6377925,8.6781359 24.3327677,9.07042711 L24.249579,9.16463445 L17.414,16 L24.249579,22.8353655 C24.6401033,23.2258898 24.6401033,23.8590548 24.249579,24.249579 C23.8890951,24.610063 23.321864,24.6377925 22.9295728,24.3327677 L22.8353655,24.249579 L16,17.414 L9.16463445,24.249579 C8.77411016,24.6401033 8.14094518,24.6401033 7.75042089,24.249579 C7.38993692,23.8890951 7.36220739,23.321864 7.66723228,22.9295728 L7.75042089,22.8353655 L14.586,16 L7.75042089,9.16463445 C7.35989659,8.77411016 7.35989659,8.14094518 7.75042089,7.75042089 C8.08086452,7.41997725 8.58503314,7.36913977 8.96893061,7.59790844 L9.07042711,7.66723228 Z" id="Shape" fill="#E21B23" fill-rule="nonzero"></path>
    </g>
</svg>