<?xml version="1.0" encoding="UTF-8"?>
<svg width="32px" height="32px" viewBox="0 0 32 32" version="1.1" xmlns="http://www.w3.org/2000/svg" xmlns:xlink="http://www.w3.org/1999/xlink">
    <title>account-info/bold</title>
    <defs>
        <path d="M16.3333333,0.5 C24.5255571,0.5 31.1666667,7.14110954 31.1666667,15.3333333 C31.1666667,23.5255571 24.5255571,30.1666667 16.3333333,30.1666667 C8.14110954,30.1666667 1.5,23.5255571 1.5,15.3333333 C1.5,7.14110954 8.14110954,0.5 16.3333333,0.5 Z M16.3333333,8.83333333 C13.6890275,8.83333333 12.5,10.3196177 12.5,14 C12.5,16.1743933 12.9359138,17.5905365 13.6936948,18.6610525 L13.8853572,18.8738249 C14.3116598,19.3573644 15.3089672,20.5444741 15.4116897,21.1608089 C15.5340335,21.8948718 15.2558715,22.5321155 14.7273269,23.0606601 C13.9366381,23.851349 12.5630367,24.7051113 10.5668004,25.6673323 C12.2717479,26.6225912 14.2390028,27.1666667 16.3333333,27.1666667 C18.4276638,27.1666667 20.3949187,26.6225912 22.1014658,25.6680725 C20.1039016,24.70528 18.7301068,23.8514271 17.9393398,23.0606602 C17.4107952,22.5321155 17.1326332,21.8948718 17.254977,21.1608089 C17.3862335,20.37327 18.9780932,18.6538177 18.9729719,18.6610525 C19.7307529,17.5905365 20.1666667,16.1743933 20.1666667,14 C20.1666667,10.3196177 18.9776392,8.83333333 16.3333333,8.83333333 Z M16.3333333,3.5 C9.79796379,3.5 4.5,8.79796379 4.5,15.3333333 C4.5,18.553285 5.78607826,21.472857 7.87258485,23.6063994 L7.83502513,23.6236309 C9.6695848,22.8095258 11.0263602,22.0970616 11.8765462,21.5191503 L12.059,21.391 L11.8516855,21.1599389 C11.6323885,20.9095313 11.4348156,20.6623792 11.2450807,20.3943411 C10.1227229,18.8087879 9.5,16.7857622 9.5,14 C9.5,8.79149344 11.8665281,5.83333333 16.3333333,5.83333333 C20.8001386,5.83333333 23.1666667,8.79149342 23.1666667,14 C23.1666667,16.7857622 22.5439438,18.8087879 21.4215859,20.3943411 C21.2950961,20.5730331 21.1651226,20.7424426 21.0275511,20.9097224 L20.7310476,21.2547874 L20.607,21.391 L20.6268463,21.4053718 C21.4560569,21.998605 22.8562807,22.7453934 24.7932416,23.6065743 C26.8805884,21.472857 28.1666667,18.553285 28.1666667,15.3333333 C28.1666667,8.79796379 22.8687029,3.5 16.3333333,3.5 Z" id="path-1"></path>
    </defs>
    <g id="account-info/bold" stroke="none" stroke-width="1" fill="none" fill-rule="evenodd">
        <mask id="mask-2" fill="white">
            <use xlink:href="#path-1"></use>
        </mask>
        <use id="Mask" fill="#5AA617" fill-rule="nonzero" xlink:href="#path-1"></use>
    </g>
</svg>