<?xml version="1.0" encoding="UTF-8"?>
<svg width="32px" height="32px" viewBox="0 0 32 32" version="1.1" xmlns="http://www.w3.org/2000/svg" xmlns:xlink="http://www.w3.org/1999/xlink">
    <title>account-info/regular</title>
    <g id="account-info/regular" stroke="none" stroke-width="1" fill="none" fill-rule="evenodd">
        <path d="M16.3333333,1 C24.2494147,1 30.6666667,7.41725192 30.6666667,15.3333333 C30.6666667,23.2494147 24.2494147,29.6666667 16.3333333,29.6666667 C8.41725192,29.6666667 2,23.2494147 2,15.3333333 C2,7.41725192 8.41725192,1 16.3333333,1 Z M16.3333333,8.33333333 C13.3852776,8.33333333 12,10.0649303 12,14 C12,16.2762881 12.4670487,17.7935784 13.2855924,18.9499339 L13.7951123,19.5447859 C14.2504894,20.0863289 14.8538601,20.8552131 14.9184927,21.2430084 C15.0106546,21.7959801 14.798211,22.2826692 14.3737735,22.7071068 C13.5272502,23.5536301 11.9197546,24.5065354 9.51274656,25.6098575 C11.4655676,26.9095014 13.8110278,27.6666667 16.3333333,27.6666667 C18.8556389,27.6666667 21.201099,26.9095014 23.154821,25.6100634 C20.7470732,24.5066309 19.1394589,23.5536725 18.2928932,22.7071068 C17.8684557,22.2826692 17.656012,21.7959801 17.748174,21.2430084 C17.8505089,20.6289991 19.3034304,19.0596212 19.3810742,18.9499339 C20.199618,17.7935784 20.6666667,16.2762881 20.6666667,14 C20.6666667,10.0649303 19.2813891,8.33333333 16.3333333,8.33333333 Z M16.3333333,3 C9.52182142,3 4,8.52182142 4,15.3333333 C4,18.8147177 5.44244497,21.9592009 7.76228809,24.2017362 L7.97159201,24.1100328 C10.3446536,23.0605349 11.9511014,22.170416 12.7525214,21.4835668 L12.792,21.447 L12.308639,20.9218356 C12.2813294,20.8912886 12.254555,20.8610386 12.2278321,20.8305247 C12.019247,20.5923486 11.8322447,20.3584198 11.6531831,20.1054597 C10.591588,18.605746 10,16.6838674 10,14 C10,9.04618081 12.170278,6.33333333 16.3333333,6.33333333 C20.4963887,6.33333333 22.6666667,9.04618079 22.6666667,14 C22.6666667,16.6838674 22.0750786,18.605746 21.0134836,20.1054597 C20.8344219,20.3584198 20.6474197,20.5923486 20.4388345,20.8305247 L19.874,21.447 L19.9141453,21.4835668 C20.7386664,22.1902145 22.4152944,23.1120195 24.9021966,24.201185 C27.224121,21.9594205 28.6666667,18.8148392 28.6666667,15.3333333 C28.6666667,8.52182142 23.1448452,3 16.3333333,3 Z" id="Combined-Shape" fill="#E21B23" fill-rule="nonzero"></path>
    </g>
</svg>