<?xml version="1.0" encoding="UTF-8"?>
<svg width="32px" height="32px" viewBox="0 0 32 32" version="1.1" xmlns="http://www.w3.org/2000/svg" xmlns:xlink="http://www.w3.org/1999/xlink">
    <title>cards/bold</title>
    <defs>
        <path d="M13.8204002,5.49189347 L13.864,5.505 L26.3333333,5.50523216 C28.5647869,5.50523216 30.3865405,7.25936599 30.4949007,9.46394014 L30.5,9.67189883 L30.5,16.9385655 C30.5,19.170019 28.7458662,20.9917727 26.541292,21.1001329 L26.3333333,21.1052322 L23.1912388,21.1052322 C22.9418507,21.1052322 22.7066773,21.0443716 22.4997609,20.9366926 L22.5,22.9333333 C22.5,25.2345198 20.6345198,27.1 18.3333333,27.1 L18.3333333,27.1 L5.66666667,27.1 C3.36548021,27.1 1.5,25.2345198 1.5,22.9333333 L1.5,22.9333333 L1.5,15.6666667 C1.5,13.3654802 3.36548021,11.5 5.66666667,11.5 L5.66666667,11.5 L9.501,11.4998935 L9.50284889,11.3940634 C9.56935878,7.94793369 10.8016744,5.78111177 13.3315726,5.52465541 L13.5455713,5.50771008 L13.8204002,5.49189347 Z M19.5,22.1498935 L4.5,22.1498935 L4.5,22.9333333 C4.5,23.5347101 4.95501135,24.0298132 5.53954548,24.0931542 L5.66666667,24.1 L18.3333333,24.1 C18.9776655,24.1 19.5,23.5776655 19.5,22.9333333 L19.5,22.9333333 L19.5,22.1498935 Z M18.3333333,14.5 L5.66666667,14.5 C5.02233446,14.5 4.5,15.0223345 4.5,15.6666667 L4.5,15.6666667 L4.5,19.1498935 L19.5,19.1498935 L19.5,15.6666667 C19.5,15.0652899 19.0449886,14.5701868 18.4604545,14.5068458 L18.3333333,14.5 Z M22.5,16.0198935 L22.4997609,18.2737717 C22.6662454,18.1871334 22.8510227,18.1308044 23.0467787,18.1120987 L23.1912388,18.1052322 L26.3333333,18.1052322 C26.9347101,18.1052322 27.4298132,17.6502208 27.4931542,17.0656867 L27.5,16.9385655 L27.499,16.1198935 L22.5,16.0198935 Z M26.3333333,8.50523216 L14.13,8.505 L13.9810115,8.52417215 C13.8769526,8.53357529 13.7743401,8.5359044 13.6701585,8.52947702 L13.581,8.52 L13.5540511,8.52547902 C12.9189193,8.66959875 12.5318271,9.46687927 12.5018759,11.4397896 L12.501,11.4998935 L18.3333333,11.5 C19.6198824,11.5 20.7702421,12.0830955 21.534556,12.9994299 L27.499,13.1188935 L27.5,9.67189883 C27.5,9.0705221 27.0449886,8.57541897 26.4604545,8.512078 L26.3333333,8.50523216 Z" id="path-1"></path>
    </defs>
    <g id="cards/bold" stroke="none" stroke-width="1" fill="none" fill-rule="evenodd">
        <mask id="mask-2" fill="white">
            <use xlink:href="#path-1"></use>
        </mask>
        <use id="Mask" fill="#5AA617" fill-rule="nonzero" xlink:href="#path-1"></use>
    </g>
</svg>