<?xml version="1.0" encoding="UTF-8"?>
<svg width="32px" height="32px" viewBox="0 0 32 32" version="1.1" xmlns="http://www.w3.org/2000/svg" xmlns:xlink="http://www.w3.org/1999/xlink">
    <title>cards/regular</title>
    <g id="cards/regular" stroke="none" stroke-width="1" fill="none" fill-rule="evenodd">
        <path d="M13.7575184,5.9963397 L13.838,6.021 L14.007973,6.00523216 L26.3333333,6.00523216 C28.2930534,6.00523216 29.8936899,7.54265186 29.9949175,9.477166 L30,9.67189883 L30,16.9385655 C30,18.8982856 28.4625803,20.498922 26.5280662,20.6001497 L26.3333333,20.6052322 L23.1912388,20.6052322 C22.638954,20.6052322 22.1912388,20.1575169 22.1912388,19.6052322 C22.1912388,19.0923963 22.5772789,18.669725 23.0746176,18.6119599 L23.1912388,18.6052322 L26.3333333,18.6052322 C27.2053619,18.6052322 27.9209707,17.9355196 27.9938823,17.0823719 L28,16.9385655 L27.999,15.6293397 L21.995,15.5093397 L22,15.6666667 L22,22.9333333 C22,24.9583774 20.3583774,26.6 18.3333333,26.6 L18.3333333,26.6 L5.66666667,26.6 C3.64162258,26.6 2,24.9583774 2,22.9333333 L2,22.9333333 L2,15.6666667 C2,13.6416226 3.64162258,12 5.66666667,12 L5.66666667,12 L10.0482598,12.0003468 C10.0169275,11.903388 10,11.7999529 10,11.6925642 C10,8.3061462 11.0917478,6.26491526 13.3701791,6.02350283 L13.5742992,6.00688411 L13.7575184,5.9963397 Z M20,21.6493397 L4,21.6493397 L4,22.9333333 C4,23.8053619 4.66971256,24.5209707 5.52286029,24.5938823 L5.66666667,24.6 L18.3333333,24.6 C19.2538079,24.6 20,23.8538079 20,22.9333333 L20,22.9333333 L20,21.6493397 Z M18.3333333,14 L5.66666667,14 C4.74619208,14 4,14.7461921 4,15.6666667 L4,15.6666667 L4,19.6493397 L20,19.6493397 L20,15.6666667 C20,14.7946381 19.3302874,14.0790293 18.4771397,14.0061177 L18.3333333,14 Z M26.3333333,8.00523216 L14.093,8.005 L14.0522369,8.01211794 C13.9049814,8.03327931 13.7668435,8.0389346 13.6246534,8.02265046 L13.575,8.014 C12.5933892,8.13951752 12.0417954,9.143701 12.002282,11.4237919 L12,11.6925642 C12,11.7999529 11.9830725,11.903388 11.9517402,12.0003468 L18.3333333,12 C19.5562698,12 20.6393714,12.5987039 21.3055244,13.518998 L21.4032637,13.5045944 L21.4032637,13.5045944 L21.519996,13.5001999 L27.999,13.6293397 L28,9.67189883 C28,8.79987028 27.3302874,8.08426148 26.4771397,8.01134982 L26.3333333,8.00523216 Z" id="Combined-Shape" fill="#E21B23" fill-rule="nonzero"></path>
    </g>
</svg>