<?xml version="1.0" encoding="UTF-8"?>
<svg width="32px" height="32px" viewBox="0 0 32 32" version="1.1" xmlns="http://www.w3.org/2000/svg" xmlns:xlink="http://www.w3.org/1999/xlink">
    <title>bill-pay/bold</title>
    <defs>
        <path d="M23.2608696,4 C24.0744655,4 24.7430769,4.62075278 24.8189218,5.41447651 L24.826087,5.56521739 L24.826087,8.69565217 C24.826087,9.56009787 24.1253153,10.2608696 23.2608696,10.2608696 C22.4472736,10.2608696 21.7786622,9.64011678 21.7028173,8.84639305 L21.6956522,8.69565217 L21.6956522,7.13043478 L8.13043478,7.13043478 L8.13043478,24.8695652 L21.173913,24.8695652 C21.987509,24.8695652 22.6561204,25.490318 22.7319653,26.2840417 L22.7391304,26.4347826 C22.7391304,27.2483786 22.1183777,27.9169899 21.3246539,27.9928349 L21.173913,28 L6.56521739,28 C5.75162144,28 5.08301007,27.3792472 5.00716512,26.5855235 L5,26.4347826 L5,5.56521739 C5,4.75162144 5.62075278,4.08301007 6.41447651,4.00716512 L6.56521739,4 L23.2608696,4 Z M22.7391304,10.2608696 C23.5527264,10.2608696 24.2213378,10.8816223 24.2971827,11.6753461 L24.3043478,11.826087 L24.3051689,11.8768609 C25.6105101,12.2108726 26.5271496,13.0100032 26.8627745,14.3021591 C27.0800947,15.138842 26.578002,15.9932804 25.7413191,16.2106006 C24.9538529,16.4151373 24.1506586,15.9824085 23.8777087,15.2332436 L23.8328777,15.0891452 C23.8170258,15.0281156 23.812972,15.0229131 23.7550092,14.9910336 C23.5797012,14.8946142 23.2415147,14.826087 22.7391304,14.826087 C21.8930999,14.826087 21.7162571,14.9739365 21.6974565,15.337446 L21.6956522,15.4130435 C21.6956522,15.6313286 21.8294188,15.729404 22.9424457,16.0280824 L23.1699865,16.0884043 C25.7598431,16.7692776 26.9130435,17.5031073 26.9130435,19.7173913 C26.9130435,21.3258647 26.0353104,22.7114234 24.3051933,23.223648 L24.3043478,23.3043478 C24.3043478,24.1687935 23.6035761,24.8695652 22.7391304,24.8695652 C21.9255345,24.8695652 21.2569231,24.2488124 21.1810782,23.4550887 L21.173913,23.3043478 L21.1741237,23.2538378 C19.8682338,22.9199832 18.9511997,22.120772 18.6154864,20.8282757 C18.3981661,19.9915928 18.9002588,19.1371544 19.7369417,18.9198342 C20.5244079,18.7152975 21.3276022,19.1480262 21.6005522,19.8971912 L21.6453832,20.0412895 C21.6612351,20.1023192 21.6652889,20.1075216 21.7232517,20.1394012 C21.8985596,20.2358205 22.2367462,20.3043478 22.7391304,20.3043478 C23.585161,20.3043478 23.7620038,20.1564983 23.7808044,19.7929888 L23.7817363,19.6333151 C23.7769942,19.6101984 23.7599888,19.6048647 23.7045994,19.5696181 C23.5085535,19.4448659 23.2238587,19.3437629 22.5636307,19.1663212 L22.3410984,19.107299 C19.7450829,18.4246969 18.5652174,17.6609735 18.5652174,15.4130435 C18.5652174,13.8042502 19.4432997,12.4184601 21.1741001,11.9064812 L21.173913,11.826087 C21.173913,10.9616413 21.8746847,10.2608696 22.7391304,10.2608696 Z M13.8695652,16.5217391 C14.7340109,16.5217391 15.4347826,17.2225108 15.4347826,18.0869565 C15.4347826,18.9005525 14.8140298,19.5691638 14.0203061,19.6450088 L13.8695652,19.6521739 L11.7826087,19.6521739 C10.918163,19.6521739 10.2173913,18.9514022 10.2173913,18.0869565 C10.2173913,17.2733606 10.8381441,16.6047492 11.6318678,16.5289043 L11.7826087,16.5217391 L13.8695652,16.5217391 Z M15.9565217,11.3043478 C16.8209674,11.3043478 17.5217391,12.0051195 17.5217391,12.8695652 C17.5217391,13.6831612 16.9009863,14.3517725 16.1072626,14.4276175 L15.9565217,14.4347826 L11.7826087,14.4347826 C10.918163,14.4347826 10.2173913,13.7340109 10.2173913,12.8695652 C10.2173913,12.0559693 10.8381441,11.3873579 11.6318678,11.311513 L11.7826087,11.3043478 L15.9565217,11.3043478 Z" id="path-1"></path>
    </defs>
    <g id="bill-pay/bold" stroke="none" stroke-width="1" fill="none" fill-rule="evenodd">
        <mask id="mask-2" fill="white">
            <use xlink:href="#path-1"></use>
        </mask>
        <use id="Mask" fill="#5AA617" fill-rule="nonzero" xlink:href="#path-1"></use>
    </g>
</svg>