<?xml version="1.0" encoding="UTF-8"?>
<svg width="32px" height="32px" viewBox="0 0 32 32" version="1.1" xmlns="http://www.w3.org/2000/svg" xmlns:xlink="http://www.w3.org/1999/xlink">
    <title>bill-pay/regular</title>
    <g id="bill-pay/regular" stroke="none" stroke-width="1" fill="none" fill-rule="evenodd">
        <path d="M23.5454545,4 C24.1049118,4 24.5660078,4.42113475 24.6290243,4.96368604 L24.6363636,5.09090909 L24.6363636,8.36363636 C24.6363636,8.96612882 24.147947,9.45454545 23.5454545,9.45454545 C22.9859973,9.45454545 22.5249013,9.0334107 22.4618848,8.49085941 L22.4545455,8.36363636 L22.4545455,6.18181818 L7.18181818,6.18181818 L7.18181818,25.8181818 L21.3636364,25.8181818 C21.9230936,25.8181818 22.3841896,26.2393166 22.4472061,26.7818679 L22.4545455,26.9090909 C22.4545455,27.4685482 22.0334107,27.9296442 21.4908594,27.9926607 L21.3636364,28 L6.09090909,28 C5.53145181,28 5.07035582,27.5788652 5.00733934,27.036314 L5,26.9090909 L5,5.09090909 C5,4.53145181 5.42113475,4.07035582 5.96368604,4.00733934 L6.09090909,4 L23.5454545,4 Z M23,10.5454545 C23.5594573,10.5454545 24.0205533,10.9665893 24.0835697,11.5091406 L24.0909091,11.6363636 L24.0926813,12.1311766 C25.5003382,12.369059 26.4563921,13.1041087 26.7831459,14.3621109 C26.9346115,14.9452535 26.5846681,15.5407712 26.0015255,15.6922368 C25.4600359,15.8328834 24.907876,15.5411927 24.7104869,15.0319084 L24.6713996,14.9106164 C24.5573359,14.471471 24.113339,14.2272727 23,14.2272727 C21.7319341,14.2272727 21.3636364,14.6665278 21.3636364,15.3863636 C21.3636364,15.8941544 21.6100749,16.1262148 22.674432,16.4435052 L23.3117532,16.6199514 C25.7896452,17.2713891 26.8181818,17.9258901 26.8181818,19.8863636 C26.8181818,21.4497093 25.9225153,22.7588165 24.0929267,23.1251141 L24.0909091,23.6363636 C24.0909091,24.2388561 23.6024925,24.7272727 23,24.7272727 C22.4405427,24.7272727 21.9794467,24.306138 21.9164303,23.7635867 L21.9090909,23.6363636 L21.908405,23.1417341 C20.5001537,22.9040463 19.543692,22.1689422 19.2168541,20.9106164 C19.0653885,20.3274738 19.4153319,19.7319561 19.9984745,19.5804905 C20.5399641,19.4398439 21.092124,19.7315345 21.2895131,20.2408189 L21.3286004,20.3621109 C21.4426641,20.8012562 21.8866611,21.0454545 23,21.0454545 C24.2680659,21.0454545 24.6363636,20.6061995 24.6363636,19.8863636 C24.6363636,19.3994999 24.3785929,19.1854308 23.1994778,18.8505113 L22.7225838,18.7210167 C20.2357009,18.0671102 19.1818182,17.3849351 19.1818182,15.3863636 C19.1818182,13.8227072 20.077841,12.5133902 21.9081648,12.1473947 L21.9090909,11.6363636 C21.9090909,11.0338712 22.3975075,10.5454545 23,10.5454545 Z M13.7272727,17.0909091 C14.3297652,17.0909091 14.8181818,17.5793257 14.8181818,18.1818182 C14.8181818,18.7412755 14.3970471,19.2023714 13.8544958,19.2653879 L13.7272727,19.2727273 L11.5454545,19.2727273 C10.9429621,19.2727273 10.4545455,18.7843106 10.4545455,18.1818182 C10.4545455,17.6223609 10.8756802,17.1612649 11.4182315,17.0982484 L11.5454545,17.0909091 L13.7272727,17.0909091 Z M15.9090909,11.6363636 C16.5115834,11.6363636 17,12.1247803 17,12.7272727 C17,13.28673 16.5788652,13.747826 16.036314,13.8108425 L15.9090909,13.8181818 L11.5454545,13.8181818 C10.9429621,13.8181818 10.4545455,13.3297652 10.4545455,12.7272727 C10.4545455,12.1678154 10.8756802,11.7067195 11.4182315,11.643703 L11.5454545,11.6363636 L15.9090909,11.6363636 Z" id="Combined-Shape" fill="#E21B23" fill-rule="nonzero"></path>
    </g>
</svg>