<?xml version="1.0" encoding="UTF-8"?>
<svg width="32px" height="32px" viewBox="0 0 32 32" version="1.1" xmlns="http://www.w3.org/2000/svg" xmlns:xlink="http://www.w3.org/1999/xlink">
    <title>reports-rewards/bold</title>
    <defs>
        <path d="M15.6918727,1.5 C20.1101507,1.5 23.6918727,5.081722 23.6918727,9.5 C23.6918727,11.0321244 23.2611737,12.4636537 22.5142457,13.6801178 L22.8245722,13.6057595 L26.695939,26.4918773 L21.318,24.448 L19.204,27 L30,27 C30.8284271,27 31.5,27.6715729 31.5,28.5 C31.5,29.2796961 30.9051119,29.9204487 30.14446,29.9931334 L30,30 L2,30 C1.17157288,30 0.5,29.3284271 0.5,28.5 C0.5,27.7203039 1.09488808,27.0795513 1.85553999,27.0068666 L2,27 L12.178,27 L10.065,24.448 L4.68780637,26.4918773 L8.55917319,13.6057595 L8.86949973,13.6801178 C8.12257171,12.4636537 7.6918727,11.0321244 7.6918727,9.5 C7.6918727,5.081722 11.2735947,1.5 15.6918727,1.5 Z M17.504,27 L15.691,20.966 L13.879,27 L17.504,27 Z M10.617,17.181 L9.311,21.526 L11.0063266,20.8823042 L12.164,22.28 L13.49,17.868 L10.617,17.181 Z M20.766,17.181 L17.893,17.868 L19.218,22.28 L20.3774188,20.8823042 L22.071,21.525 L20.766,17.181 Z M15.6918727,4.5 C12.930449,4.5 10.6918727,6.73857625 10.6918727,9.5 C10.6918727,12.2614237 12.930449,14.5 15.6918727,14.5 C18.4532965,14.5 20.6918727,12.2614237 20.6918727,9.5 C20.6918727,6.73857625 18.4532965,4.5 15.6918727,4.5 Z" id="path-1"></path>
    </defs>
    <g id="reports-rewards/bold" stroke="none" stroke-width="1" fill="none" fill-rule="evenodd">
        <mask id="mask-2" fill="white">
            <use xlink:href="#path-1"></use>
        </mask>
        <use id="Mask" fill="#5AA617" fill-rule="nonzero" xlink:href="#path-1"></use>
    </g>
</svg>