<?xml version="1.0" encoding="UTF-8"?>
<svg width="32px" height="32px" viewBox="0 0 32 32" version="1.1" xmlns="http://www.w3.org/2000/svg" xmlns:xlink="http://www.w3.org/1999/xlink">
    <title>reports-rewards/regular</title>
    <g id="reports-rewards/regular" stroke="none" stroke-width="1" fill="none" fill-rule="evenodd">
        <path d="M30,27.5 C30.5522847,27.5 31,27.9477153 31,28.5 C31,29.0128358 30.6139598,29.4355072 30.1166211,29.4932723 L30,29.5 L2,29.5 C1.44771525,29.5 1,29.0522847 1,28.5 C1,27.9871642 1.38604019,27.5644928 1.88337887,27.5067277 L2,27.5 L30,27.5 Z M15.75,2 C20.0302068,2 23.5,5.46979319 23.5,9.75 C23.5,11.4564183 22.9485006,13.0340269 22.0140183,14.3143095 L22.4815665,14.2018109 L25.9252078,25.6642144 L21.161,23.854 L18.1675689,27.4693857 L15.691,19.228 L13.2161765,27.4693857 L10.221,23.854 L5.45853758,25.6642144 L8.90217895,14.2018109 L9.51005794,14.3471144 C8.56097938,13.0610201 8,11.4710219 8,9.75 C8,5.46979319 11.4697932,2 15.75,2 Z M21.109,16.585 L17.262,17.505 L19.008,23.318 L20.5342777,21.4767591 L22.842,22.353 L21.109,16.585 Z M10.273,16.585 L8.541,22.353 L10.8494677,21.4767591 L12.374,23.318 L14.121,17.505 L10.273,16.585 Z M15.75,4 C12.5743627,4 10,6.57436269 10,9.75 C10,12.9256373 12.5743627,15.5 15.75,15.5 C18.9256373,15.5 21.5,12.9256373 21.5,9.75 C21.5,6.57436269 18.9256373,4 15.75,4 Z" id="Combined-Shape" fill="#E21B23"></path>
    </g>
</svg>