<?xml version="1.0" encoding="UTF-8"?>
<svg width="32px" height="32px" viewBox="0 0 32 32" version="1.1" xmlns="http://www.w3.org/2000/svg" xmlns:xlink="http://www.w3.org/1999/xlink">
    <title>br-club/bold</title>
    <g id="br-club/bold" stroke="none" stroke-width="1" fill="none" fill-rule="evenodd">
        <path d="M16.0507246,2 C16.8057727,2 17.4909798,2.28211447 18.2882788,2.79869134 C18.3413698,2.83308947 18.3946663,2.86832682 18.4487898,2.90480803 L18.4487898,2.90480803 L18.7884273,3.14185848 C18.9082626,3.22800869 19.0363783,3.32237129 19.1777464,3.42818325 L19.1777464,3.42818325 L20.2864578,4.25828918 C21.1588995,4.88860234 21.8001604,5.25002394 22.4290518,5.43821348 L22.4290518,5.43821348 L22.5874331,5.4784147 C22.6420543,5.48977939 22.6993149,5.49916639 22.7616507,5.5067498 L22.7616507,5.5067498 L22.9663201,5.52426332 C23.0037812,5.52633848 23.0431202,5.52800625 23.0846415,5.52928842 L23.0846415,5.52928842 L23.5254755,5.53100386 L24.4941802,5.51132611 C25.5891632,5.50442456 26.2677873,5.59582354 27.1347676,5.92562408 L27.1347676,5.92562408 L28.1014493,6.29335113 L28.1014493,19.6830664 C28.1014493,24.0836941 24.1407105,27.627513 16.5877817,30.5237489 L16.5877817,30.5237489 L16.0507246,30.7296881 L15.0977585,30.3621794 C7.81540304,27.4959666 4,24.002201 4,19.6830664 L4,19.6830664 L4,6.29335113 L4.96668165,5.92562408 C5.94941244,5.55179192 6.71291755,5.43457961 7.98392492,5.40169898 L7.98392492,5.40169898 L9.18510288,5.38288302 L9.48743634,5.37109998 L9.7394573,5.35314245 C9.77798024,5.34956124 9.81494094,5.34566746 9.85060646,5.34143345 L9.85060646,5.34143345 L10.0511939,5.31172539 C10.145853,5.29460876 10.2336626,5.27393231 10.3218331,5.24894939 C10.8893889,5.08813383 11.4952742,4.71095353 12.3968329,3.99087889 L12.3968329,3.99087889 L13.3290053,3.23998706 L13.6496293,2.99418133 C13.7505645,2.91911526 13.8468987,2.85000216 13.9426472,2.78409341 C14.6750539,2.27993915 15.3202375,2 16.0507246,2 Z M16.0403683,5.00098167 L15.993485,5.01849487 L15.8777276,5.08884963 L15.6754293,5.23336947 L15.0288803,5.73182879 L13.9991137,6.54771399 C12.9396739,7.37056261 12.1137245,7.85932533 11.1396789,8.13531878 C10.5777284,8.29454611 10.1227575,8.35503457 9.38406762,8.37873115 L9.38406762,8.37873115 L8.90368182,8.38902964 L8.13968074,8.39891195 L7.71529833,8.41364178 C7.45224929,8.42649137 7.22614113,8.44589185 7.02014816,8.47479207 L7.02014816,8.47479207 L7,8.477 L7,19.6830664 C7,22.3609596 9.82733381,24.9999811 15.8072387,27.4154931 L15.8072387,27.4154931 L16.051,27.512 L16.2942106,27.4154931 C16.5543294,27.3104212 16.808483,27.2049263 17.0566983,27.0990238 L17.0566983,27.0990238 L17.7835559,26.7801082 C22.6290458,24.5927012 24.9901897,22.240338 25.0976064,19.8539411 L25.0976064,19.8539411 L25.1014493,19.6830664 L25.101,8.526 L25.0070098,8.52083758 C24.7901397,8.50991667 24.53948,8.5089967 24.2343583,8.51517437 L24.2343583,8.51517437 L23.7348699,8.527741 L23.2745447,8.53328336 C22.5661748,8.53270523 22.1262764,8.47904862 21.5690119,8.31229271 C20.4667474,7.98245092 19.5129954,7.42246526 18.2547935,6.48872689 L18.2547935,6.48872689 L17.5646933,5.97799859 L16.6722831,5.33176832 L16.4690339,5.19354571 L16.3189936,5.09945118 L16.2102909,5.04134535 L16.1549255,5.01858242 L16.0887383,5.00237027 L16.0403683,5.00098167 Z M13.2882982,13.1738281 L13.5162926,13.1802678 C14.1081681,13.2146126 14.5711688,13.3863366 14.9052947,13.6954399 C15.2811863,14.043181 15.4691321,14.4737177 15.4691321,14.9870499 C15.4691321,15.4175866 15.3350034,15.7868546 15.0667459,16.0948539 C14.8879076,16.3001868 14.6262738,16.462466 14.2818444,16.5816916 C14.8051121,16.7075408 15.1901112,16.9236371 15.4368419,17.2299805 C15.6835725,17.5363239 15.8069378,17.921323 15.8069378,18.3849779 C15.8069378,18.7625255 15.7191746,19.1019871 15.5436481,19.4033628 C15.3681216,19.7047385 15.1280146,19.9431895 14.8233271,20.118716 C14.6345533,20.2280061 14.3497368,20.3074898 13.9688774,20.3571671 C13.4621688,20.4234035 13.126019,20.4565217 12.960428,20.4565217 L12.960428,20.4565217 L9.07566236,20.4565217 L9.07566236,13.1738281 L13.2882982,13.1738281 Z M20.7647334,13.1738281 L21.0178548,13.1766225 C21.590541,13.1896628 22.0377144,13.2483441 22.359375,13.3526664 C22.7269871,13.471892 23.023395,13.692956 23.2485988,14.0158585 C23.4738026,14.338761 23.5864046,14.7320397 23.5864046,15.1956946 C23.5864046,15.5997368 23.5002972,15.9483059 23.3280825,16.241402 C23.1558679,16.5344981 22.9190727,16.7721213 22.617697,16.9542714 C22.4256114,17.0701851 22.1623217,17.1662279 21.8278278,17.2423998 C22.0960853,17.331819 22.2914827,17.4212381 22.41402,17.5106573 C22.4968156,17.57027 22.6168691,17.6977751 22.7741805,17.8931726 C22.931492,18.08857 23.0366423,18.2392578 23.0896315,18.3452361 L23.0896315,18.3452361 L24.1775645,20.4565217 L21.6340863,20.4565217 L20.4318954,18.2309783 L20.3571034,18.0953316 C20.2347501,17.8832831 20.1238961,17.7413808 20.0245414,17.6696247 C19.8622622,17.5570228 19.6784562,17.5007218 19.4731233,17.5007218 L19.4731233,17.5007218 L19.2744141,17.5007218 L19.2744141,20.4565217 L17.0140965,20.4565217 L17.0140965,13.1738281 L20.7647334,13.1738281 Z M12.4884935,17.4162704 L11.3459154,17.4162704 L11.3459154,18.8916865 L12.4934613,18.8916865 C12.8809443,18.8916865 13.1541695,18.8229662 13.3131369,18.6855256 C13.4721043,18.5480851 13.551588,18.3634511 13.551588,18.1316236 C13.551588,17.9163553 13.4729322,17.7433127 13.3156208,17.6124958 C13.1583093,17.4816788 12.8826002,17.4162704 12.4884935,17.4162704 L12.4884935,17.4162704 Z M20.2629925,14.6442765 L19.2744141,14.6442765 L19.2744141,16.1246603 L20.2232507,16.1246603 C20.3259171,16.1246603 20.5246264,16.0915421 20.8193784,16.0253057 C20.9684103,15.9954993 21.0901197,15.9193274 21.1845066,15.7967901 C21.2788935,15.6742527 21.326087,15.5335003 21.326087,15.3745329 C21.326087,15.1393937 21.251571,14.9588995 21.1025391,14.8330503 C20.9535071,14.7072011 20.6736583,14.6442765 20.2629925,14.6442765 L20.2629925,14.6442765 Z M12.3394616,14.6492442 L11.3459154,14.6492442 L11.3459154,16.0302734 L12.3245584,16.0302734 C12.6756114,16.0302734 12.9198582,15.9698327 13.0572987,15.8489513 C13.1947393,15.7280698 13.2634596,15.5533713 13.2634596,15.3248556 C13.2634596,15.1128991 13.1947393,14.9473081 13.0572987,14.8280825 C12.9198582,14.708857 12.6805791,14.6492442 12.3394616,14.6492442 L12.3394616,14.6492442 Z" id="Combined-Shape" fill="#5AA617"></path>
    </g>
</svg>