<?xml version="1.0" encoding="UTF-8"?>
<svg width="32px" height="32px" viewBox="0 0 32 32" version="1.1" xmlns="http://www.w3.org/2000/svg" xmlns:xlink="http://www.w3.org/1999/xlink">
    <title>br-club/regular</title>
    <g id="br-club/regular" stroke="none" stroke-width="1" fill="none" fill-rule="evenodd">
        <path d="M15.5507246,2 C16.1866777,2 16.7930868,2.24967165 17.5164018,2.7183137 L17.5164018,2.7183137 L17.8301059,2.92981366 L18.1803679,3.18161772 L19.4992587,4.16765067 C20.4112472,4.82620161 21.0932341,5.21000957 21.7857118,5.41722669 C21.9438919,5.46456053 22.0973926,5.49515658 22.2881512,5.51287148 L22.2881512,5.51287148 L22.5376294,5.52819323 C22.5830844,5.52979864 22.6307007,5.5309505 22.6808139,5.53167968 L22.6808139,5.53167968 L23.0141385,5.53122935 L23.9823516,5.51147331 C25.026105,5.504328 25.6581827,5.58908429 26.4569948,5.89295356 L26.4569948,5.89295356 L27.1014493,6.13810492 L27.1014493,19.1830664 C27.1014493,23.3155639 23.288654,26.7270123 15.9087627,29.5568954 L15.9087627,29.5568954 L15.5507246,29.6941882 L14.7787682,29.3960913 C7.67027355,26.5980216 4,23.2375922 4,19.1830664 L4,19.1830664 L4,6.13810492 L4.64445443,5.89295355 C5.56475257,5.54287086 6.2859384,5.43244612 7.50988423,5.40123447 L7.50988423,5.40123447 L8.71826367,5.38219104 L9.03892376,5.36918375 L9.3094336,5.3490638 L9.5436011,5.32022948 C9.61713409,5.30898768 9.68691134,5.29602654 9.75523418,5.2810791 L9.75523418,5.2810791 L9.95814077,5.23001096 C10.6069733,5.04616584 11.2587791,4.6403987 12.2088706,3.881561 L12.2088706,3.881561 L13.1363398,3.13438892 L13.4459714,2.89692023 L13.7261501,2.69595031 C14.3824273,2.2442 14.9452419,2 15.5507246,2 Z M15.5212648,4.00069927 L15.4303547,4.01394785 L15.3626432,4.03552196 L15.2845852,4.07050888 L15.192184,4.12166814 L15.017946,4.23476663 L14.7889547,4.39977521 L14.4917213,4.62600728 L13.1982468,5.64826511 C12.1834429,6.43675234 11.4023922,6.89952182 10.5033713,7.15425721 C10.0378231,7.28616917 9.64502772,7.3449727 9.05518807,7.37166045 L9.05518807,7.37166045 L8.62980917,7.38514424 L7.61372144,7.39937646 L7.16786453,7.41528316 C6.7519722,7.43618413 6.41939245,7.47330307 6.11089492,7.53775672 L6.11089492,7.53775672 L6,7.562 L6,19.1830664 C6,22.1805943 9.09089244,25.0073037 15.5036386,27.5320774 L15.5036386,27.5320774 L15.55,27.55 L15.9942841,27.3738871 C22.0072851,24.9423103 24.9739055,22.2359438 25.0974226,19.3701882 L25.0974226,19.3701882 L25.1014493,19.1830664 L25.101,7.582 L25.0433601,7.57176069 C24.6982253,7.51649252 24.3009655,7.50385033 23.7342695,7.51507864 L23.7342695,7.51507864 L23.232713,7.52765361 L22.7951995,7.53312843 C22.1237024,7.53315431 21.7165685,7.48416135 21.2123519,7.33327951 C20.1794542,7.02419507 19.2678636,6.48896399 18.0527651,5.58721357 L18.0527651,5.58721357 L16.8910248,4.73059419 L16.5505022,4.48647544 L16.2098524,4.25463049 L16.0214569,4.13964779 L15.9201183,4.08618332 L15.8334015,4.04824896 L15.7572051,4.02325409 L15.6874277,4.00860806 L15.619968,4.00172024 L15.5212648,4.00069927 Z M12.7882982,12.6738281 L13.0162926,12.6802678 C13.6081681,12.7146126 14.0711688,12.8863366 14.4052947,13.1954399 C14.7811863,13.543181 14.9691321,13.9737177 14.9691321,14.4870499 C14.9691321,14.9175866 14.8350034,15.2868546 14.5667459,15.5948539 C14.3879076,15.8001868 14.1262738,15.962466 13.7818444,16.0816916 C14.3051121,16.2075408 14.6901112,16.4236371 14.9368419,16.7299805 C15.1835725,17.0363239 15.3069378,17.421323 15.3069378,17.8849779 C15.3069378,18.2625255 15.2191746,18.6019871 15.0436481,18.9033628 C14.8681216,19.2047385 14.6280146,19.4431895 14.3233271,19.618716 C14.1345533,19.7280061 13.8497368,19.8074898 13.4688774,19.8571671 C12.9621688,19.9234035 12.626019,19.9565217 12.460428,19.9565217 L12.460428,19.9565217 L8.57566236,19.9565217 L8.57566236,12.6738281 L12.7882982,12.6738281 Z M20.2647334,12.6738281 L20.5178548,12.6766225 C21.090541,12.6896628 21.5377144,12.7483441 21.859375,12.8526664 C22.2269871,12.971892 22.523395,13.192956 22.7485988,13.5158585 C22.9738026,13.838761 23.0864046,14.2320397 23.0864046,14.6956946 C23.0864046,15.0997368 23.0002972,15.4483059 22.8280825,15.741402 C22.6558679,16.0344981 22.4190727,16.2721213 22.117697,16.4542714 C21.9256114,16.5701851 21.6623217,16.6662279 21.3278278,16.7423998 C21.5960853,16.831819 21.7914827,16.9212381 21.91402,17.0106573 C21.9968156,17.07027 22.1168691,17.1977751 22.2741805,17.3931726 C22.431492,17.58857 22.5366423,17.7392578 22.5896315,17.8452361 L22.5896315,17.8452361 L23.6775645,19.9565217 L21.1340863,19.9565217 L19.9318954,17.7309783 L19.8571034,17.5953316 C19.7347501,17.3832831 19.6238961,17.2413808 19.5245414,17.1696247 C19.3622622,17.0570228 19.1784562,17.0007218 18.9731233,17.0007218 L18.9731233,17.0007218 L18.7744141,17.0007218 L18.7744141,19.9565217 L16.5140965,19.9565217 L16.5140965,12.6738281 L20.2647334,12.6738281 Z M11.9884935,16.9162704 L10.8459154,16.9162704 L10.8459154,18.3916865 L11.9934613,18.3916865 C12.3809443,18.3916865 12.6541695,18.3229662 12.8131369,18.1855256 C12.9721043,18.0480851 13.051588,17.8634511 13.051588,17.6316236 C13.051588,17.4163553 12.9729322,17.2433127 12.8156208,17.1124958 C12.6583093,16.9816788 12.3826002,16.9162704 11.9884935,16.9162704 L11.9884935,16.9162704 Z M19.7629925,14.1442765 L18.7744141,14.1442765 L18.7744141,15.6246603 L19.7232507,15.6246603 C19.8259171,15.6246603 20.0246264,15.5915421 20.3193784,15.5253057 C20.4684103,15.4954993 20.5901197,15.4193274 20.6845066,15.2967901 C20.7788935,15.1742527 20.826087,15.0335003 20.826087,14.8745329 C20.826087,14.6393937 20.751571,14.4588995 20.6025391,14.3330503 C20.4535071,14.2072011 20.1736583,14.1442765 19.7629925,14.1442765 L19.7629925,14.1442765 Z M11.8394616,14.1492442 L10.8459154,14.1492442 L10.8459154,15.5302734 L11.8245584,15.5302734 C12.1756114,15.5302734 12.4198582,15.4698327 12.5572987,15.3489513 C12.6947393,15.2280698 12.7634596,15.0533713 12.7634596,14.8248556 C12.7634596,14.6128991 12.6947393,14.4473081 12.5572987,14.3280825 C12.4198582,14.208857 12.1805791,14.1492442 11.8394616,14.1492442 L11.8394616,14.1492442 Z" id="Combined-Shape" fill="#E21B23"></path>
    </g>
</svg>