<?xml version="1.0" encoding="UTF-8"?>
<svg width="32px" height="32px" viewBox="0 0 32 32" version="1.1" xmlns="http://www.w3.org/2000/svg" xmlns:xlink="http://www.w3.org/1999/xlink">
    <title>unlock/bold</title>
    <defs>
        <path d="M16.3333333,1.5 C20.7601342,1.5 24.3642871,5.02217507 24.4962561,9.41698941 L24.5,9.66666667 L24.5,13.5 L27.1666667,13.5 L27.1666667,29.8333333 L5.5,29.8333333 L5.5,13.5 L21.5,13.5 L21.5,9.66666667 C21.5,6.81319548 19.1868045,4.5 16.3333333,4.5 C13.5530281,4.5 11.2856473,6.69609089 11.1711993,9.4482644 L11.1666667,9.66666667 L11.1666667,10.5 C11.1666667,11.3284271 10.4950938,12 9.66666667,12 C8.88697055,12 8.24621799,11.4051119 8.17353324,10.64446 L8.16666667,10.5 L8.16666667,9.66666667 C8.16666667,5.15634121 11.8230079,1.5 16.3333333,1.5 Z M24.166,16.5 L8.5,16.5 L8.5,26.833 L24.166,26.833 L24.166,16.5 Z M16.3333333,18.8333333 C17.8981401,18.8333333 19.1666667,20.1018599 19.1666667,21.6666667 C19.1666667,23.2314735 17.8981401,24.5 16.3333333,24.5 C14.7685265,24.5 13.5,23.2314735 13.5,21.6666667 C13.5,20.1018599 14.7685265,18.8333333 16.3333333,18.8333333 Z" id="path-1"></path>
    </defs>
    <g id="unlock/bold" stroke="none" stroke-width="1" fill="none" fill-rule="evenodd">
        <mask id="mask-2" fill="white">
            <use xlink:href="#path-1"></use>
        </mask>
        <use id="Mask" fill="#5AA617" fill-rule="nonzero" xlink:href="#path-1"></use>
    </g>
</svg>