<?xml version="1.0" encoding="UTF-8"?>
<svg width="32px" height="32px" viewBox="0 0 32 32" version="1.1" xmlns="http://www.w3.org/2000/svg" xmlns:xlink="http://www.w3.org/1999/xlink">
    <title>unlock/regular</title>
    <g id="unlock/regular" stroke="none" stroke-width="1" fill="none" fill-rule="evenodd">
        <path d="M16.3333333,2 C20.4860898,2 23.8676849,5.30173441 23.9962105,9.42329504 L24,9.66666667 L24,14 L26.6666667,14 L26.6666667,29.3333333 L6,29.3333333 L6,14 L22,14 L22,9.66666667 C22,6.53705311 19.4629469,4 16.3333333,4 C13.2765015,4 10.7849896,6.42042274 10.6707586,9.44930742 L10.6666667,9.66666667 L10.6666667,10.5 C10.6666667,11.0522847 10.2189514,11.5 9.66666667,11.5 C9.15383083,11.5 8.73115951,11.1139598 8.6733944,10.6166211 L8.66666667,10.5 L8.66666667,9.66666667 C8.66666667,5.43248358 12.0991503,2 16.3333333,2 Z M24.666,16 L8,16 L8,27.333 L24.666,27.333 L24.666,16 Z M16.3333333,19.3333333 C17.6219977,19.3333333 18.6666667,20.3780023 18.6666667,21.6666667 C18.6666667,22.9553311 17.6219977,24 16.3333333,24 C15.0446689,24 14,22.9553311 14,21.6666667 C14,20.3780023 15.0446689,19.3333333 16.3333333,19.3333333 Z M16.3333333,21.3333333 C16.1492384,21.3333333 16,21.4825718 16,21.6666667 C16,21.8507616 16.1492384,22 16.3333333,22 C16.5174282,22 16.6666667,21.8507616 16.6666667,21.6666667 C16.6666667,21.4825718 16.5174282,21.3333333 16.3333333,21.3333333 Z" id="Combined-Shape" fill="#E21B23" fill-rule="nonzero"></path>
    </g>
</svg>