<?xml version="1.0" encoding="UTF-8"?>
<svg width="32px" height="32px" viewBox="0 0 32 32" version="1.1" xmlns="http://www.w3.org/2000/svg" xmlns:xlink="http://www.w3.org/1999/xlink">
    <title>lightbulb/bold</title>
    <g id="lightbulb/bold" stroke="none" stroke-width="1" fill="none" fill-rule="evenodd">
        <path d="M20,27 L20,30 L12,30 L12,27 L20,27 Z M9.11891541,4.28248557 C12.8288962,0.572504811 18.8439634,0.572504811 22.5539443,4.28248557 C26.2472289,7.97577025 26.0459577,13.578459 22.2304233,17.3939935 C21.6945434,17.9298735 21.3364298,19.3623277 21.3364298,21.6666667 L21.3364298,21.6666667 L21.3364298,24.5 L10.3364298,24.5 L10.3364298,21.6666667 C10.3364298,19.3623278 9.97831624,17.9298735 9.44243632,17.3939935 C5.69939556,13.6509527 5.45677859,7.94462239 9.11891541,4.28248557 Z M20.2441178,6.22259894 C17.6943946,3.86690808 13.7167313,3.92731041 11.2402357,6.40380592 C8.79187193,8.85216973 8.95388936,12.6628059 11.5637567,15.2726732 L11.5637567,15.2726732 L11.7153032,15.4325018 C12.8489643,16.6930689 13.3364298,18.7638803 13.3364298,21.6666667 L13.335,21.5 L18.337,21.5 L18.3392073,21.2927588 C18.3800397,18.5853414 18.8731849,16.6382616 19.9575565,15.4325018 L19.9575565,15.4325018 L20.2959673,15.079762 C22.7906329,12.4202175 22.859712,8.83089409 20.4326239,6.40380591 L20.4326239,6.40380591 Z" id="Combined-Shape" fill="#5AA617" fill-rule="nonzero"></path>
    </g>
</svg>