<?xml version="1.0" encoding="UTF-8"?>
<svg width="32px" height="32px" viewBox="0 0 32 32" version="1.1" xmlns="http://www.w3.org/2000/svg" xmlns:xlink="http://www.w3.org/1999/xlink">
    <title>lightbulb/regular</title>
    <g id="lightbulb/regular" stroke="none" stroke-width="1" fill="none" fill-rule="evenodd">
        <path d="M19.3201401,27.5 L19.3201401,29.5 L13,29.5 L13,27.5 L19.3201401,27.5 Z M9.4724688,4.63603896 C12.9871875,1.12132035 18.6856722,1.12132035 22.2003909,4.63603896 C25.6925089,8.1281571 25.5025945,13.4147155 21.8768699,17.0404401 C21.2233203,17.6939897 20.8364298,19.2415518 20.8364298,21.6666667 L20.8364298,21.6666667 L20.8364298,24 L10.8364298,24 L10.8364298,21.6666667 C10.8364298,19.2415519 10.4495393,17.6939897 9.79598971,17.0404401 C6.24181119,13.4862616 6.01262748,8.09588028 9.4724688,4.63603896 Z M20.5971986,5.868102 C17.8519229,3.31799451 13.5582236,3.37871135 10.8866824,6.05025253 C8.23602304,8.70091184 8.41147373,12.827497 11.2102033,15.6262266 C12.3344315,16.7504548 12.8364298,18.7584482 12.8364298,21.6666667 L12.8364298,21.6666667 L12.836,22 L18.836,22 L18.8364298,21.6666667 C18.8364298,18.8796239 19.2974665,16.9193505 20.3253599,15.7713592 L20.3253599,15.7713592 L20.4626564,15.6262266 C23.3291415,12.7597414 23.4736292,8.73770451 20.7861773,6.05025252 L20.7861773,6.05025252 Z" id="Combined-Shape" fill="#E21B23" fill-rule="nonzero"></path>
    </g>
</svg>