<?xml version="1.0" encoding="UTF-8"?>
<svg width="32px" height="32px" viewBox="0 0 32 32" version="1.1" xmlns="http://www.w3.org/2000/svg" xmlns:xlink="http://www.w3.org/1999/xlink">
    <title>warn/bold</title>
    <g id="warn/bold" stroke="none" stroke-width="1" fill="none" fill-rule="evenodd">
        <path d="M13.8911864,5.19318735 C14.684575,3.84442684 16.4211299,3.39420889 17.7698904,4.18759747 C18.1851258,4.43185354 18.5312243,4.77795207 18.7754803,5.19318737 L18.7754803,5.19318737 L29.7775914,23.8967763 C30.57098,25.2455368 30.120762,26.9820916 28.7720012,27.7754805 C28.3365841,28.031608 27.8406072,28.1666667 27.3354445,28.1666667 L27.3354445,28.1666667 L5.33122219,28.1666667 C3.76641541,28.1666667 2.49788885,26.8981401 2.49788885,25.3333333 C2.49788885,24.8281704 2.63294753,24.3321933 2.88907525,23.8967763 L2.88907525,23.8967763 Z M16.333,6.958 L5.622,25.166 L27.043,25.166 L16.333,6.958 Z M17.3939935,20.2726732 C17.9797799,20.8584596 17.9797799,21.8082071 17.3939935,22.3939935 C16.8082071,22.9797799 15.8584596,22.9797799 15.2726732,22.3939935 C14.6868867,21.8082071 14.6868867,20.8584596 15.2726732,20.2726732 C15.8584596,19.6868867 16.8082071,19.6868867 17.3939935,20.2726732 Z M16.3333333,11.8333333 C17.1130295,11.8333333 17.753782,12.4282214 17.8264668,13.1888733 L17.8333333,13.3333333 L17.8333333,17.3333333 C17.8333333,18.1617605 17.1617605,18.8333333 16.3333333,18.8333333 C15.5536372,18.8333333 14.9128847,18.2384453 14.8401999,17.4777933 L14.8333333,17.3333333 L14.8333333,13.3333333 C14.8333333,12.5049062 15.5049062,11.8333333 16.3333333,11.8333333 Z" id="Combined-Shape" fill="#5AA617" fill-rule="nonzero"></path>
    </g>
</svg>