<?xml version="1.0" encoding="UTF-8"?>
<svg width="32px" height="32px" viewBox="0 0 32 32" version="1.1" xmlns="http://www.w3.org/2000/svg" xmlns:xlink="http://www.w3.org/1999/xlink">
    <title>warn/regular</title>
    <g id="warn/regular" stroke="none" stroke-width="1" fill="none" fill-rule="evenodd">
        <path d="M14.3221535,5.44669742 C14.9755323,4.33595347 16.4056364,3.96518575 17.5163803,4.61856457 C17.8583389,4.81971664 18.1433612,5.10473894 18.3445131,5.44669743 L18.3445131,5.44669743 L29.3466243,24.1502864 C30.0000032,25.2610303 29.6292354,26.6911343 28.5184912,27.3445133 C28.1599124,27.5554419 27.7514608,27.6666667 27.3354445,27.6666667 L27.3354445,27.6666667 L5.33122219,27.6666667 C4.04255779,27.6666667 2.99788885,26.6219977 2.99788885,25.3333333 C2.99788885,24.9173168 3.10911364,24.5088651 3.32004236,24.1502864 L3.32004236,24.1502864 Z M16.4319985,6.31126939 C16.2875552,6.2663839 16.1260275,6.32472821 16.0460219,6.46073769 L16.0460219,6.46073769 L5.04391071,25.1643268 C5.01377809,25.2155522 4.99788885,25.2739024 4.99788885,25.3333333 C4.99788885,25.5174282 5.1471273,25.6666667 5.33122219,25.6666667 L5.33122219,25.6666667 L27.3354445,25.6666667 C27.3948753,25.6666667 27.4532256,25.6507774 27.5044512,25.6206447 C27.6631289,25.5273049 27.7160957,25.3230043 27.6227559,25.1643267 L27.6227559,25.1643267 L16.6206446,6.46073751 C16.5919087,6.41188643 16.5511913,6.37116904 16.5023401,6.34243304 L16.5023401,6.34243304 Z M17.0404401,20.6262266 C17.4309644,21.0167508 17.4309644,21.6499158 17.0404401,22.0404401 C16.6499158,22.4309644 16.0167508,22.4309644 15.6262266,22.0404401 C15.2357023,21.6499158 15.2357023,21.0167508 15.6262266,20.6262266 C16.0167508,20.2357023 16.6499158,20.2357023 17.0404401,20.6262266 Z M16.3333333,12.3333333 C16.8461692,12.3333333 17.2688405,12.7193735 17.3266056,13.2167122 L17.3333333,13.3333333 L17.3333333,17.3333333 C17.3333333,17.8856181 16.8856181,18.3333333 16.3333333,18.3333333 C15.8204975,18.3333333 15.3978262,17.9472931 15.3400611,17.4499545 L15.3333333,17.3333333 L15.3333333,13.3333333 C15.3333333,12.7810486 15.7810486,12.3333333 16.3333333,12.3333333 Z" id="Combined-Shape" fill="#E21B23" fill-rule="nonzero"></path>
    </g>
</svg>