<?xml version="1.0" encoding="UTF-8"?>
<svg width="32px" height="32px" viewBox="0 0 32 32" version="1.1" xmlns="http://www.w3.org/2000/svg" xmlns:xlink="http://www.w3.org/1999/xlink">
    <title>card/bold</title>
    <defs>
        <path d="M27,4.5 C29.3011865,4.5 31.1666667,6.36548021 31.1666667,8.66666667 L31.1666667,8.66666667 L31.1666667,22 C31.1666667,24.3011865 29.3011865,26.1666667 27,26.1666667 L27,26.1666667 L5.66666667,26.1666667 C3.36548021,26.1666667 1.5,24.3011865 1.5,22 L1.5,22 L1.5,8.66666667 C1.5,6.36548021 3.36548021,4.5 5.66666667,4.5 L5.66666667,4.5 Z M28.166,19.5 L4.499,19.5 L4.5,22 C4.5,22.6013767 4.95501135,23.0964799 5.53954548,23.1598208 L5.66666667,23.1666667 L27,23.1666667 C27.6443322,23.1666667 28.1666667,22.6443322 28.1666667,22 L28.1666667,22 L28.166,19.5 Z M27,7.5 L5.66666667,7.5 C5.02233446,7.5 4.5,8.02233446 4.5,8.66666667 L4.5,8.66666667 L4.499,16.5 L28.166,16.5 L28.1666667,8.66666667 C28.1666667,8.06528994 27.7116553,7.57018681 27.1271212,7.50684584 L27,7.5 Z" id="path-1"></path>
    </defs>
    <g id="card/bold" stroke="none" stroke-width="1" fill="none" fill-rule="evenodd">
        <mask id="mask-2" fill="white">
            <use xlink:href="#path-1"></use>
        </mask>
        <use id="Mask" fill="#5AA617" fill-rule="nonzero" xlink:href="#path-1"></use>
    </g>
</svg>