<?xml version="1.0" encoding="UTF-8"?>
<svg width="32px" height="32px" viewBox="0 0 32 32" version="1.1" xmlns="http://www.w3.org/2000/svg" xmlns:xlink="http://www.w3.org/1999/xlink">
    <title>card/regular</title>
    <g id="card/regular" stroke="none" stroke-width="1" fill="none" fill-rule="evenodd">
        <path d="M27,5 L5.66666667,5 C3.64162258,5 2,6.64162258 2,8.66666667 L2,22 C2,24.0250441 3.64162258,25.6666667 5.66666667,25.6666667 L27,25.6666667 C29.0250441,25.6666667 30.6666667,24.0250441 30.6666667,22 L30.6666667,8.66666667 C30.6666667,6.64162258 29.0250441,5 27,5 Z M5.66666667,7 L27,7 C27.9204746,7 28.6666667,7.74619208 28.6666667,8.66666667 L28.6666667,22 C28.6666667,22.9204746 27.9204746,23.6666667 27,23.6666667 L5.66666667,23.6666667 C4.74619208,23.6666667 4,22.9204746 4,22 L4,8.66666667 C4,7.74619208 4.74619208,7 5.66666667,7 Z" id="Combined-Shape" fill="#E21B23" fill-rule="nonzero"></path>
    </g>
</svg>