<?xml version="1.0" encoding="UTF-8"?>
<svg width="32px" height="32px" viewBox="0 0 32 32" version="1.1" xmlns="http://www.w3.org/2000/svg" xmlns:xlink="http://www.w3.org/1999/xlink">
    <title>reports-billing/bold</title>
    <g id="reports-billing/bold" stroke="none" stroke-width="1" fill="none" fill-rule="evenodd">
        <path d="M25,25.5 L30.5,25.5 C31.3284271,25.5 32,26.1715729 32,27 C32,27.7796961 31.4051119,28.4204487 30.64446,28.4931334 L30.5,28.5 L2.5,28.5 C1.67157288,28.5 1,27.8284271 1,27 C1,26.2203039 1.59488808,25.5795513 2.35553999,25.5068666 L2.5,25.5 L10.7590684,25.5 L10.765935,25.35554 C10.8386197,24.5948881 11.4793723,24 12.2590684,24 L12.2590684,24 L22,24 L22,7 L8.991,7 L8.97295275,7.12535823 C8.83981186,7.81747244 8.23096511,8.3403233 7.5,8.3403233 C6.67157288,8.3403233 6,7.66875042 6,6.8403233 L6,6.8403233 L6,5.5 L6.00686658,5.35553999 C6.07955132,4.59488808 6.72030388,4 7.5,4 L7.5,4 L23.5,4 L23.64446,4.00686658 C24.4051119,4.07955132 25,4.72030388 25,5.5 L25,5.5 L25,25.5 Z M8,10 C8.77969612,10 9.42044868,10.5948881 9.49313342,11.35554 L9.5,11.5 L9.50078686,11.5486584 C10.7517388,11.8687529 11.6301851,12.6345864 11.9518256,13.8729025 C12.1600908,14.6747236 11.6789186,15.4935604 10.8770975,15.7018256 C10.1224423,15.8978399 9.3527145,15.4831415 9.09113749,14.7651918 L9.04817444,14.6270975 C9.03298307,14.5686108 9.02909814,14.5636251 8.97355046,14.5330739 C8.80554703,14.440672 8.48145155,14.375 8,14.375 C7.18922072,14.375 7.01974634,14.5166892 7.00172915,14.8650524 L7,14.9375 C7,15.0653383 7.04787455,15.150154 7.3285452,15.2621134 L7.50583697,15.3262959 L7.73597202,15.3983926 L8.19484384,15.5269123 L8.41290377,15.5847208 C10.8948497,16.2372243 12,16.9404778 12,19.0625 C12,20.6039536 11.1588392,21.9317808 9.50081028,22.4226627 L9.5,22.5 C9.5,23.3284271 8.82842712,24 8,24 C7.22030388,24 6.57955132,23.4051119 6.50686658,22.64446 L6.5,22.5 L6.50020187,22.4515945 C5.24872408,22.1316506 4.36989972,21.3657398 4.04817445,20.1270976 C3.83990922,19.3252764 4.32108134,18.5064397 5.12290245,18.2981744 C5.87755761,18.1021601 6.64728547,18.5168584 6.90886249,19.2348082 L6.95182555,19.3729024 C6.96701692,19.4313892 6.97090187,19.4363749 7.02644956,19.4669261 C7.19445299,19.559328 7.51854846,19.625 8,19.625 C8.81077929,19.625 8.98025366,19.4833108 8.99827085,19.1349476 L8.99916397,18.981927 C8.99764914,18.9745425 8.99482848,18.9690515 8.98977488,18.9637612 L8.92524106,18.920884 C8.89108155,18.8991469 8.8541136,18.878159 8.81268474,18.8573443 L8.67336295,18.7948443 L8.49736083,18.7299284 L8.2747635,18.6591408 L7.83181273,18.5343911 L7.61855266,18.4778282 C5.13070448,17.8236679 4,17.0917663 4,14.9375 C4,13.3957397 4.84149551,12.067691 6.5001793,11.5770444 L6.5,11.5 C6.5,10.6715729 7.17157288,10 8,10 Z M18.5,16.5 C19.3284271,16.5 20,17.1715729 20,18 C20,18.7796961 19.4051119,19.4204487 18.64446,19.4931334 L18.5,19.5 L16.5,19.5 C15.6715729,19.5 15,18.8284271 15,18 C15,17.2203039 15.5948881,16.5795513 16.35554,16.5068666 L16.5,16.5 L18.5,16.5 Z M18.5,11.5 C19.3284271,11.5 20,12.1715729 20,13 C20,13.7796961 19.4051119,14.4204487 18.64446,14.4931334 L18.5,14.5 L14.5,14.5 C13.6715729,14.5 13,13.8284271 13,13 C13,12.2203039 13.5948881,11.5795513 14.35554,11.5068666 L14.5,11.5 L18.5,11.5 Z" id="Combined-Shape" fill="#5AA617"></path>
    </g>
</svg>