<?xml version="1.0" encoding="UTF-8"?>
<svg width="32px" height="32px" viewBox="0 0 32 32" version="1.1" xmlns="http://www.w3.org/2000/svg" xmlns:xlink="http://www.w3.org/1999/xlink">
    <title>reports-billing/regular</title>
    <g id="reports-billing/regular" stroke="none" stroke-width="1" fill="none" fill-rule="evenodd">
        <path d="M23,4 L23.1166211,4.00672773 C23.6139598,4.06449284 24,4.48716416 24,5 L24,5 L24,25 L23.9932723,25.1166211 C23.9771475,25.25545 23.9325889,25.3856064 23.8655723,25.5011143 L30,25.5 C30.5522847,25.5 31,25.9477153 31,26.5 C31,27.0128358 30.6139598,27.4355072 30.1166211,27.4932723 L30,27.5 L2,27.5 C1.44771525,27.5 1,27.0522847 1,26.5 C1,25.9871642 1.38604019,25.5644928 1.88337887,25.5067277 L2,25.5 L10.8934962,25.5011143 C10.8080119,25.3537761 10.7590684,25.1826037 10.7590684,25 L10.7590684,25 L10.7657961,24.8833789 C10.8235612,24.3860402 11.2462326,24 11.7590684,24 L11.7590684,24 L22,24 L22,6 L8,6 L8,6.3403233 L7.99327227,6.45694442 C7.93550716,6.95428311 7.51283584,7.3403233 7,7.3403233 C6.44771525,7.3403233 6,6.89260805 6,6.3403233 L6,6.3403233 L6,5 L6.00672773,4.88337887 C6.06449284,4.38604019 6.48716416,4 7,4 L7,4 L23,4 Z M7.5,10 C8.01283584,10 8.43550716,10.3860402 8.49327227,10.8833789 L8.5,11 L8.5016245,11.4535786 C9.79197667,11.6716374 10.6683594,12.3454329 10.9678837,13.4986017 C11.1067272,14.0331491 10.7859458,14.5790402 10.2513983,14.7178837 C9.75503289,14.8468098 9.24888634,14.5794266 9.06794631,14.1125827 L9.03211629,14.0013983 C8.92755789,13.5988484 8.52056071,13.375 7.5,13.375 C6.33760625,13.375 6,13.7776505 6,14.4375 C6,14.8512554 6.17849045,15.065305 6.90339271,15.3120363 L7.2015627,15.4065464 L7.78577377,15.5682888 C10.0571748,16.16544 11,16.7653993 11,18.5625 C11,19.9955668 10.1789723,21.1955818 8.50184947,21.5313546 L8.5,22 C8.5,22.5522847 8.05228475,23 7.5,23 C6.98716416,23 6.56449284,22.6139598 6.50672773,22.1166211 L6.5,22 L6.49937124,21.5465896 C5.20847421,21.3287091 4.33171768,20.6548637 4.0321163,19.5013984 C3.89327281,18.966851 4.21405422,18.4209598 4.74860163,18.2821163 C5.24496708,18.1531902 5.75111364,18.4205733 5.93205368,18.8874173 L5.9678837,18.9986016 C6.07244212,19.4011515 6.4794393,19.625 7.5,19.625 C8.66239376,19.625 9,19.2223495 9,18.5625 C9,18.1687131 8.81603734,17.9696111 8.03025508,17.7173128 L7.68285466,17.6129687 L7.00646498,17.4298894 L6.55777026,17.2992517 C4.77013642,16.7469999 4,16.0732356 4,14.4375 C4,13.0041482 4.82135424,11.803941 6.4991511,11.4684452 L6.5,11 C6.5,10.4477153 6.94771525,10 7.5,10 Z M18,16.5 C18.5522847,16.5 19,16.9477153 19,17.5 C19,18.0128358 18.6139598,18.4355072 18.1166211,18.4932723 L18,18.5 L16,18.5 C15.4477153,18.5 15,18.0522847 15,17.5 C15,16.9871642 15.3860402,16.5644928 15.8833789,16.5067277 L16,16.5 L18,16.5 Z M18,11.5 C18.5522847,11.5 19,11.9477153 19,12.5 C19,13.0128358 18.6139598,13.4355072 18.1166211,13.4932723 L18,13.5 L14,13.5 C13.4477153,13.5 13,13.0522847 13,12.5 C13,11.9871642 13.3860402,11.5644928 13.8833789,11.5067277 L14,11.5 L18,11.5 Z" id="Combined-Shape" fill="#E21B23"></path>
    </g>
</svg>