<?xml version="1.0" encoding="UTF-8"?>
<svg width="32px" height="32px" viewBox="0 0 32 32" version="1.1" xmlns="http://www.w3.org/2000/svg" xmlns:xlink="http://www.w3.org/1999/xlink">
    <title>security/bold</title>
    <defs>
        <path d="M15.9286792,3 C13.7260959,3 10.5942767,3.77976112 6.45703043,5.32423677 L5,5.87680182 L5,18.9549867 C5,22.8953275 8.44421461,26.0558 14.9827158,28.635059 L15.9286792,29 L16.470463,28.7922483 C23.2711291,26.1844741 26.8573584,22.9757426 26.8573584,18.9549867 L26.8573584,5.87680182 L25.8821688,5.50583835 C21.5053655,3.84089624 18.2159772,3 15.9286792,3 Z M16.1291862,6.02932674 C17.697334,6.0740713 20.0415015,6.63260797 23.1146648,7.7142233 L23.8302824,7.9703633 L23.8309549,18.9549867 L23.8269645,19.1148531 C23.7179032,21.2985273 21.3709888,23.4863577 16.5055234,25.5189915 L15.9283429,25.7535101 L15.7214716,25.6711456 C10.4832959,23.5463376 8.02640347,21.2462323 8.02640347,18.9549867 L8.02640347,7.9703633 L8.31911167,7.8649594 C11.7378989,6.6352575 14.2946655,6.02640347 15.9286792,6.02640347 L16.1291862,6.02932674 Z" id="path-1"></path>
    </defs>
    <g id="security/bold" stroke="none" stroke-width="1" fill="none" fill-rule="evenodd">
        <mask id="mask-2" fill="white">
            <use xlink:href="#path-1"></use>
        </mask>
        <use id="Mask" fill="#5AA617" fill-rule="nonzero" xlink:href="#path-1"></use>
    </g>
</svg>