<?xml version="1.0" encoding="UTF-8"?>
<svg width="32px" height="32px" viewBox="0 0 32 32" version="1.1" xmlns="http://www.w3.org/2000/svg" xmlns:xlink="http://www.w3.org/1999/xlink">
    <title>security/regular</title>
    <g id="security/regular" stroke="none" stroke-width="1" fill="none" fill-rule="evenodd">
        <path d="M15.860631,3 C13.642299,3 10.4308099,3.79997875 6.17324323,5.38948534 L5,5.83405432 L5,19.0973359 C5,22.9248452 8.43618734,26.077441 15.065815,28.6929313 L15.860631,29 L16.2369393,28.8557013 C23.1404088,26.2085063 26.721262,23.004585 26.721262,19.0973359 L26.721262,5.83405432 L26.0439218,5.57639317 C21.5389589,3.86269899 18.1642834,3 15.860631,3 Z M16.0779352,5.10515424 C17.8493358,5.15461853 20.4823619,5.79677686 23.9398868,7.03896129 L24.6185037,7.28714649 L24.6192044,19.0973359 L24.614818,19.2824711 C24.4919602,21.8715693 21.7865888,24.3423392 16.2887476,26.5755885 L15.8602806,26.7458938 L15.8299692,26.7347007 C9.93089451,24.4070262 7.10205761,21.8155567 7.10205761,19.0973359 L7.10205761,7.28609547 L7.32572093,7.20438874 C11.1556162,5.79971105 14.0164028,5.10205761 15.860631,5.10205761 L16.0779352,5.10515424 Z" id="Path" fill="#E21B23" fill-rule="nonzero"></path>
    </g>
</svg>