<?xml version="1.0" encoding="UTF-8"?>
<svg width="32px" height="32px" viewBox="0 0 32 32" version="1.1" xmlns="http://www.w3.org/2000/svg" xmlns:xlink="http://www.w3.org/1999/xlink">
    <title>puzzle/bold</title>
    <g id="puzzle/bold" stroke="none" stroke-width="1" fill="none" fill-rule="evenodd">
        <path d="M13.1253746,2.50509928 C10.9207999,2.61345946 9.16666667,4.43521249 9.16666667,6.66666667 L9.166,7.833 L2.5,7.83333333 L2.5,17.5 L6.66666667,17.5 C7.31101684,17.5 7.83333333,18.0223111 7.83333333,18.6666667 C7.83333333,19.3110222 7.31101684,19.8333333 6.66666667,19.8333333 L2.5,19.8333333 L2.5,29.5 L12.1666667,29.5 L12.1666667,25.3333333 C12.1666667,24.6889778 12.6889832,24.1666667 13.3333333,24.1666667 C13.9777062,24.1666667 14.5,24.6889605 14.5,25.3333333 L14.5,29.5 L24.1666667,29.5 L24.166,22.833 L25.3333333,22.8333333 C27.6345605,22.8333333 29.5,20.9678938 29.5,18.6666667 L29.4949008,18.4587045 C29.3865429,16.2540956 27.5648263,14.5 25.3333333,14.5 L24.166,14.5 L24.1666667,7.83333333 L17.5,7.833 L17.5,6.66666667 C17.5,4.36546921 15.6345501,2.5 13.3333333,2.5 L13.1253746,2.50509928 Z M13.3333333,5.5 C13.9776889,5.5 14.5,6.0223165 14.5,6.66666667 L14.5,10.8333333 L21.166,10.833 L21.1666667,17.5 L25.3333333,17.5 C25.9777062,17.5 26.5,18.0222938 26.5,18.6666667 C26.5,19.3110395 25.9777062,19.8333333 25.3333333,19.8333333 L21.1666667,19.8333333 L21.166,26.5 L17.5,26.5 L17.5,25.3333333 C17.5,23.0321062 15.6345605,21.1666667 13.3333333,21.1666667 L13.1253737,21.1717659 C10.9207901,21.2801244 9.16666667,23.1018504 9.16666667,25.3333333 L9.166,26.5 L5.5,26.5 L5.5,22.833 L6.66666667,22.8333333 C8.96786413,22.8333333 10.8333333,20.9678835 10.8333333,18.6666667 L10.8282341,18.4587054 C10.7198745,16.2541053 8.89813087,14.5 6.66666667,14.5 L5.5,14.5 L5.5,10.833 L12.1666667,10.8333333 L12.1666667,6.66666667 C12.1666667,6.02233379 12.6890005,5.5 13.3333333,5.5 Z" id="Path" fill="#5AA617" fill-rule="nonzero"></path>
    </g>
</svg>