<?xml version="1.0" encoding="UTF-8"?>
<svg width="32px" height="32px" viewBox="0 0 32 32" version="1.1" xmlns="http://www.w3.org/2000/svg" xmlns:xlink="http://www.w3.org/1999/xlink">
    <title>puzzle/regular</title>
    <g id="puzzle/regular" stroke="none" stroke-width="1" fill="none" fill-rule="evenodd">
        <path d="M13.1386004,3.0050825 C11.2040857,3.10631007 9.66666667,4.70694594 9.66666667,6.66666667 L9.666,8.333 L3,8.33333333 L3,17 L6.66666667,17 C7.58715805,17 8.33333333,17.7461676 8.33333333,18.6666667 C8.33333333,19.5871658 7.58715805,20.3333333 6.66666667,20.3333333 L3,20.3333333 L3,29 L11.6666667,29 L11.6666667,25.3333333 C11.6666667,24.4128342 12.4128419,23.6666667 13.3333333,23.6666667 C14.2538486,23.6666667 15,24.4128181 15,25.3333333 L15,29 L23.6666667,29 L23.666,22.333 L25.3333333,22.3333333 C27.3584181,22.3333333 29,20.6917514 29,18.6666667 L28.9949176,18.4719302 C28.8936924,16.5373816 27.2930928,15 25.3333333,15 L23.666,15 L23.6666667,8.33333333 L17,8.333 L17,6.66666667 C17,4.64161042 15.3584066,3 13.3333333,3 L13.1386004,3.0050825 Z M13.3333333,5 C14.2538324,5 15,5.74617528 15,6.66666667 L15,10.3333333 L21.666,10.333 L21.6666667,17 L25.3333333,17 C26.2538486,17 27,17.7461514 27,18.6666667 C27,19.5871819 26.2538486,20.3333333 25.3333333,20.3333333 L21.6666667,20.3333333 L21.666,27 L17,27 L17,25.3333333 C17,23.3082486 15.3584181,21.6666667 13.3333333,21.6666667 L13.1385994,21.6717491 C11.204075,21.772975 9.66666667,23.373585 9.66666667,25.3333333 L9.666,27 L5,27 L5,22.333 L6.66666667,22.3333333 C8.69172291,22.3333333 10.3333333,20.6917399 10.3333333,18.6666667 L10.3282509,18.4719312 C10.227024,16.5373924 8.62639852,15 6.66666667,15 L5,15 L5,10.333 L11.6666667,10.3333333 L11.6666667,6.66666667 C11.6666667,5.74619142 12.4128581,5 13.3333333,5 Z" id="Path" fill="#E21B23" fill-rule="nonzero"></path>
    </g>
</svg>