<?xml version="1.0" encoding="UTF-8"?>
<svg width="32px" height="32px" viewBox="0 0 32 32" version="1.1" xmlns="http://www.w3.org/2000/svg" xmlns:xlink="http://www.w3.org/1999/xlink">
    <title>globe/bold</title>
    <defs>
        <path d="M16.3333333,-0.0271911849 L16.9264692,0.511642028 C24.8437246,0.822984354 31.1666667,7.33975772 31.1666667,15.3333333 C31.1666667,23.3269089 24.8437246,29.8436823 16.9264692,30.1550246 L16.3333333,30.6938578 L15.7401975,30.1550246 C7.82294209,29.8436823 1.5,23.3269089 1.5,15.3333333 C1.5,7.33975772 7.82294209,0.822984354 15.7401975,0.511642028 L16.3333333,-0.0271911849 Z M26.81334,20.8336982 L22.5570131,20.8335776 C22.054393,22.9409164 21.2409382,24.8487872 20.116458,26.5501349 C23.0133002,25.5724769 25.408781,23.5043363 26.81334,20.8336982 Z M10.1096536,20.8335775 L5.85332669,20.8336982 C7.25772354,23.5040282 9.6528136,25.5719996 12.549916,26.5489317 C11.4254091,24.8480381 10.612175,22.9405026 10.1096536,20.8335775 Z M19.4576165,20.8341898 L13.2090502,20.8341898 C13.822057,22.9872014 14.8324499,24.8516693 16.2398654,26.4410481 L16.2398654,26.4410481 L16.333,26.544 L16.4268012,26.4410481 C17.8342167,24.8516693 18.8446097,22.9872014 19.4576165,20.8341898 Z M9.61665847,12.8323321 L4.76464308,12.8330364 C4.59127512,13.6390288 4.5,14.4755218 4.5,15.3333333 C4.5,16.1911448 4.59127512,17.0276379 4.76464308,17.8336302 L9.61659864,17.8337119 C9.5388634,17.0246984 9.5,16.1911349 9.5,15.3333333 C9.5,14.4753117 9.53888334,13.6415405 9.61665847,12.8323321 Z M20.0347931,12.8325964 L12.6318735,12.8325964 C12.5439623,13.6334596 12.5,14.4668737 12.5,15.3333333 C12.5,16.199793 12.5439623,17.0332071 12.6318735,17.8340703 L20.0347931,17.8340703 C20.1065574,17.1803044 20.1490346,16.504847 20.1622174,15.8074289 L20.1622174,15.8074289 L20.1666667,15.3333333 C20.1666667,14.4668737 20.1227044,13.6334596 20.0347931,12.8325964 Z M27.9020236,12.8330364 L23.0500082,12.8323321 C23.1277833,13.6415405 23.1666667,14.4753117 23.1666667,15.3333333 C23.1666667,16.1911349 23.1278033,17.0246985 23.050068,17.8337119 L27.9020236,17.8336302 C28.0753915,17.0276379 28.1666667,16.1911448 28.1666667,15.3333333 C28.1666667,14.4755218 28.0753915,13.6390288 27.9020236,12.8330364 Z M12.5495464,4.11753385 L12.3232632,4.19675377 C9.5280002,5.2034341 7.22093109,7.23259594 5.85332669,9.83296848 L10.1097246,9.83279147 C10.6122516,7.7259844 11.425462,5.81854852 12.5495464,4.11753385 Z M16.333,4.122 L16.2398654,4.22561858 C14.8324499,5.81499736 13.8220569,7.67946529 13.2090502,9.83247685 L19.4576165,9.83247683 C18.8446097,7.67946527 17.8342168,5.81499734 16.4268012,4.22561857 L16.4268012,4.22561857 L16.333,4.122 Z M20.1157476,4.11739677 L20.2267053,4.28554627 C21.2942066,5.94386593 22.0708947,7.79507397 22.5569421,9.83279145 L26.81334,9.83296848 C25.408781,7.16233033 23.0133002,5.09418974 20.1157476,4.11739677 Z" id="path-1"></path>
    </defs>
    <g id="globe/bold" stroke="none" stroke-width="1" fill="none" fill-rule="evenodd">
        <mask id="mask-2" fill="white">
            <use xlink:href="#path-1"></use>
        </mask>
        <use id="Mask" fill="#5AA617" fill-rule="nonzero" xlink:href="#path-1"></use>
    </g>
</svg>