<?xml version="1.0" encoding="UTF-8"?>
<svg width="32px" height="32px" viewBox="0 0 32 32" version="1.1" xmlns="http://www.w3.org/2000/svg" xmlns:xlink="http://www.w3.org/1999/xlink">
    <title>watch/bold</title>
    <g id="watch/bold" stroke="none" stroke-width="1" fill="none" fill-rule="evenodd">
        <path d="M20.8333333,1.5 L20.8338186,9.93197625 C22.4643268,11.3077531 23.5,13.3662627 23.5,15.6666667 C23.5,17.9670707 22.4643268,20.0255802 20.8338186,21.4013571 L20.8333333,31.1666667 L11.1666667,31.1666667 L11.1661814,21.4013571 C9.53567323,20.0255802 8.5,17.9670707 8.5,15.6666667 C8.5,13.3662627 9.53567323,11.3077531 11.1661814,9.93197625 L11.1666667,1.5 L20.8333333,1.5 Z M17.833679,22.9408931 C17.2468546,23.0883534 16.6325728,23.1666667 16,23.1666667 C15.3674272,23.1666667 14.7531454,23.0883534 14.166321,22.9408931 L14.166,28.166 L17.833,28.166 Z M16,11.1666667 C13.5147186,11.1666667 11.5,13.1813853 11.5,15.6666667 C11.5,18.151948 13.5147186,20.1666667 16,20.1666667 C18.4852814,20.1666667 20.5,18.151948 20.5,15.6666667 C20.5,13.1813853 18.4852814,11.1666667 16,11.1666667 Z M17.833,4.5 L14.166,4.5 L14.166321,8.39244022 C14.7531454,8.24497998 15.3674272,8.16666667 16,8.16666667 C16.6325728,8.16666667 17.2468546,8.24497998 17.833679,8.39244022 L17.833,4.5 Z" id="Combined-Shape" fill="#5AA617" fill-rule="nonzero"></path>
    </g>
</svg>