<?xml version="1.0" encoding="UTF-8"?>
<svg width="32px" height="32px" viewBox="0 0 32 32" version="1.1" xmlns="http://www.w3.org/2000/svg" xmlns:xlink="http://www.w3.org/1999/xlink">
    <title>watch/regular</title>
    <g id="watch/regular" stroke="none" stroke-width="1" fill="none" fill-rule="evenodd">
        <path d="M20.3333333,2 L20.3340393,10.1693814 C21.9578035,11.4513058 23,13.4372772 23,15.6666667 C23,17.8960561 21.9578035,19.8820275 20.3340393,21.1639519 L20.3333333,30.6666667 L11.6666667,30.6666667 L11.6659607,21.1639519 C10.0421965,19.8820275 9,17.8960561 9,15.6666667 C9,13.4372772 10.0421965,11.4513058 11.6659607,10.1693814 L11.6666667,2 L20.3333333,2 Z M18.3334999,22.2682945 C17.6036354,22.5262855 16.8182116,22.6666667 16,22.6666667 C15.1817884,22.6666667 14.3963646,22.5262855 13.6665001,22.2682945 L13.666,28.666 L18.333,28.666 Z M16,10.6666667 C13.2385763,10.6666667 11,12.9052429 11,15.6666667 C11,18.4280904 13.2385763,20.6666667 16,20.6666667 C18.7614237,20.6666667 21,18.4280904 21,15.6666667 C21,12.9052429 18.7614237,10.6666667 16,10.6666667 Z M18.333,4 L13.666,4 L13.6665001,9.06503887 C14.3963646,8.80704788 15.1817884,8.66666667 16,8.66666667 C16.8182116,8.66666667 17.6036354,8.80704788 18.3334999,9.06503887 L18.333,4 Z" id="Combined-Shape" fill="#E21B23" fill-rule="nonzero"></path>
    </g>
</svg>