<?xml version="1.0" encoding="UTF-8"?>
<svg width="32px" height="32px" viewBox="0 0 32 32" version="1.1" xmlns="http://www.w3.org/2000/svg" xmlns:xlink="http://www.w3.org/1999/xlink">
    <title>menu/bold</title>
    <defs>
        <path d="M24,21.1666667 C24.8284271,21.1666667 25.5,21.8382395 25.5,22.6666667 C25.5,23.4463628 24.9051119,24.0871153 24.14446,24.1598001 L24,24.1666667 L8,24.1666667 C7.17157288,24.1666667 6.5,23.4950938 6.5,22.6666667 C6.5,21.8869705 7.09488808,21.246218 7.85553999,21.1735332 L8,21.1666667 L24,21.1666667 Z M24,14.5 C24.8284271,14.5 25.5,15.1715729 25.5,16 C25.5,16.7796961 24.9051119,17.4204487 24.14446,17.4931334 L24,17.5 L8,17.5 C7.17157288,17.5 6.5,16.8284271 6.5,16 C6.5,15.2203039 7.09488808,14.5795513 7.85553999,14.5068666 L8,14.5 L24,14.5 Z M24,7.83333333 C24.8284271,7.83333333 25.5,8.50490621 25.5,9.33333333 C25.5,10.1130295 24.9051119,10.753782 24.14446,10.8264668 L24,10.8333333 L8,10.8333333 C7.17157288,10.8333333 6.5,10.1617605 6.5,9.33333333 C6.5,8.55363722 7.09488808,7.91288466 7.85553999,7.84019991 L8,7.83333333 L24,7.83333333 Z" id="path-1"></path>
    </defs>
    <g id="menu/bold" stroke="none" stroke-width="1" fill="none" fill-rule="evenodd">
        <mask id="mask-2" fill="white">
            <use xlink:href="#path-1"></use>
        </mask>
        <use id="Mask" fill="#5AA617" fill-rule="nonzero" xlink:href="#path-1"></use>
    </g>
</svg>