<?xml version="1.0" encoding="UTF-8"?>
<svg width="32px" height="32px" viewBox="0 0 32 32" version="1.1" xmlns="http://www.w3.org/2000/svg" xmlns:xlink="http://www.w3.org/1999/xlink">
    <title>menu/regular</title>
    <g id="menu/regular" stroke="none" stroke-width="1" fill="none" fill-rule="evenodd">
        <path d="M24,21.6666667 C24.5522847,21.6666667 25,22.1143819 25,22.6666667 C25,23.1795025 24.6139598,23.6021738 24.1166211,23.6599389 L24,23.6666667 L8,23.6666667 C7.44771525,23.6666667 7,23.2189514 7,22.6666667 C7,22.1538308 7.38604019,21.7311595 7.88337887,21.6733944 L8,21.6666667 L24,21.6666667 Z M24,15 C24.5522847,15 25,15.4477153 25,16 C25,16.5128358 24.6139598,16.9355072 24.1166211,16.9932723 L24,17 L8,17 C7.44771525,17 7,16.5522847 7,16 C7,15.4871642 7.38604019,15.0644928 7.88337887,15.0067277 L8,15 L24,15 Z M24,8.33333333 C24.5522847,8.33333333 25,8.78104858 25,9.33333333 C25,9.84616917 24.6139598,10.2688405 24.1166211,10.3266056 L24,10.3333333 L8,10.3333333 C7.44771525,10.3333333 7,9.88561808 7,9.33333333 C7,8.82049749 7.38604019,8.39782617 7.88337887,8.34006106 L8,8.33333333 L24,8.33333333 Z" id="Shape" fill="#E21B23" fill-rule="nonzero"></path>
    </g>
</svg>