<?xml version="1.0" encoding="UTF-8"?>
<svg width="32px" height="32px" viewBox="0 0 32 32" version="1.1" xmlns="http://www.w3.org/2000/svg" xmlns:xlink="http://www.w3.org/1999/xlink">
    <title>lock/bold</title>
    <defs>
        <path d="M16.3333333,2.5 C20.8436587,2.5 24.5,6.15634123 24.5,10.6666667 L24.5,10.6666667 L24.5,13.166 L27.1666667,13.1666667 L27.1666667,29.5 L5.5,29.5 L5.5,13.1666667 L8.166,13.166 L8.16666667,10.6666667 C8.16666667,6.34767476 11.5250517,2.79538415 15.8197615,2.51684388 L16.0734532,2.50425401 Z M24.165,16.166 L8.499,16.166 L8.5,26.5 L24.166,26.5 L24.165,16.166 Z M16.3333333,18.5 C17.8981401,18.5 19.1666667,19.7685265 19.1666667,21.3333333 C19.1666667,22.8981401 17.8981401,24.1666667 16.3333333,24.1666667 C14.7685265,24.1666667 13.5,22.8981401 13.5,21.3333333 C13.5,19.7685265 14.7685265,18.5 16.3333333,18.5 Z M16.3333333,5.5 L16.1510105,5.5031395 C13.3757815,5.59889212 11.1666667,7.88092175 11.1666667,10.6666667 L11.1666667,10.6666667 L11.166,13.166 L21.5,13.166 L21.5,10.6666667 C21.5,7.88636141 19.3039091,5.61898062 16.5517356,5.50453263 L16.5517356,5.50453263 L16.3333333,5.5 Z" id="path-1"></path>
    </defs>
    <g id="lock/bold" stroke="none" stroke-width="1" fill="none" fill-rule="evenodd">
        <mask id="mask-2" fill="white">
            <use xlink:href="#path-1"></use>
        </mask>
        <use id="Mask" fill="#5AA617" fill-rule="nonzero" xlink:href="#path-1"></use>
    </g>
</svg>