<?xml version="1.0" encoding="UTF-8"?>
<svg width="32px" height="32px" viewBox="0 0 32 32" version="1.1" xmlns="http://www.w3.org/2000/svg" xmlns:xlink="http://www.w3.org/1999/xlink">
    <title>lock/regular</title>
    <g id="lock/regular" stroke="none" stroke-width="1" fill="none" fill-rule="evenodd">
        <path d="M16.3333333,3 C20.5675164,3 24,6.4324836 24,10.6666667 L24,10.6666667 L24,13.666 L26.6666667,13.6666667 L26.6666667,29 L6,29 L6,13.6666667 L8.666,13.666 L8.66666667,10.6666667 C8.66666667,6.61532461 11.8145382,3.2825265 15.8348521,3.01660857 L16.0820646,3.00417985 Z M24.666,15.666 L8,15.666 L8,27 L24.666,27 L24.666,15.666 Z M16.3333333,19 C17.6219977,19 18.6666667,20.0446689 18.6666667,21.3333333 C18.6666667,22.6219977 17.6219977,23.6666667 16.3333333,23.6666667 C15.0446689,23.6666667 14,22.6219977 14,21.3333333 C14,20.0446689 15.0446689,19 16.3333333,19 Z M16.3333333,21 C16.1492384,21 16,21.1492384 16,21.3333333 C16,21.5174282 16.1492384,21.6666667 16.3333333,21.6666667 C16.5174282,21.6666667 16.6666667,21.5174282 16.6666667,21.3333333 C16.6666667,21.1492384 16.5174282,21 16.3333333,21 Z M16.3505561,4.99985168 L16.1337694,5.00343684 C13.089492,5.10847233 10.6666667,7.61126623 10.6666667,10.6666667 L10.6666667,10.6666667 L10.666,13.666 L22,13.666 L22,10.6666667 C22,7.60983482 19.5795772,5.11832295 16.5506926,5.00409191 L16.5506926,5.00409191 L16.3505561,4.99985168 Z" id="Combined-Shape" fill="#E21B23" fill-rule="nonzero"></path>
    </g>
</svg>