<?xml version="1.0" encoding="UTF-8"?>
<svg width="32px" height="32px" viewBox="0 0 32 32" version="1.1" xmlns="http://www.w3.org/2000/svg" xmlns:xlink="http://www.w3.org/1999/xlink">
    <title>mouse-click/bold</title>
    <defs>
        <path d="M15.3333333,1.5 C21.3164229,1.5 26.1666667,6.3502486 26.1666667,12.3333333 L26.1666667,12.3333333 L26.1666667,20.3333333 C26.1666667,26.1996367 21.4972369,30.9957775 15.6250205,31.1626742 L15.6250205,31.1626742 L15.3333333,31.1666667 C9.3502486,31.1666667 4.5,26.3164229 4.5,20.3333333 L4.5,20.3333333 L4.5,12.3333333 C4.5,6.46704318 9.16944244,1.67088978 15.0416467,1.50399248 L15.0416467,1.50399248 Z M23.166,15.166 L7.5,15.166 L7.5,20.3333333 C7.5,24.5763711 10.8735106,28.0316209 15.0645693,28.1629459 L15.3120259,28.166818 L15.5610594,28.1634321 C19.7900611,28.0431284 23.1666667,24.5748943 23.1666667,20.3333333 L23.1666667,20.3333333 L23.166,15.166 Z M23.1649222,12.166352 C23.0867373,8.42764731 20.3891676,5.33299441 16.8332642,4.64345122 L16.833,12.166 Z M13.8334627,4.64323308 C10.2192276,5.34342595 7.5,8.52700587 7.5,12.3333333 L7.502,12.166 L13.833,12.166 Z" id="path-1"></path>
    </defs>
    <g id="mouse-click/bold" stroke="none" stroke-width="1" fill="none" fill-rule="evenodd">
        <mask id="mask-2" fill="white">
            <use xlink:href="#path-1"></use>
        </mask>
        <use id="Mask" fill="#5AA617" fill-rule="nonzero" xlink:href="#path-1"></use>
    </g>
</svg>