<?xml version="1.0" encoding="UTF-8"?>
<svg width="32px" height="32px" viewBox="0 0 32 32" version="1.1" xmlns="http://www.w3.org/2000/svg" xmlns:xlink="http://www.w3.org/1999/xlink">
    <title>mouse-click/regular</title>
    <g id="mouse-click/regular" stroke="none" stroke-width="1" fill="none" fill-rule="evenodd">
        <path d="M15.3333333,2 C21.0402804,2 25.6666667,6.62639087 25.6666667,12.3333333 L25.6666667,12.3333333 L25.6666667,20.3333333 C25.6666667,25.9288463 21.2127076,30.5036693 15.6179181,30.6627246 L15.6179181,30.6627246 L15.3333333,30.6666667 C9.62639087,30.6666667 5,26.0402804 5,20.3333333 L5,20.3333333 L5,12.3333333 C5,6.73783358 9.45397176,2.16299792 15.0487492,2.00394203 L15.0487492,2.00394203 Z M23.666,14.666 L7,14.666 L7,20.3333333 C7,24.8504812 10.5940557,28.5282815 15.0651303,28.6629472 L15.3191284,28.6667676 L15.5752773,28.6632299 C20.0745904,28.5352366 23.6666667,24.8456847 23.6666667,20.3333333 L23.6666667,20.3333333 L23.666,14.666 Z M23.6666667,12.3333333 C23.6666667,8.06948047 20.4643751,4.55356457 16.3336144,4.05941684 L16.333,12.666 L23.666,12.666 Z M14.3335484,4.05926821 C10.1953935,4.55346562 7,8.07744462 7,12.3333333 L7,12.3333333 L7,12.666 L14.333,12.666 Z" id="Combined-Shape" fill="#E21B23" fill-rule="nonzero"></path>
    </g>
</svg>