<?xml version="1.0" encoding="UTF-8"?>
<svg width="32px" height="32px" viewBox="0 0 32 32" version="1.1" xmlns="http://www.w3.org/2000/svg" xmlns:xlink="http://www.w3.org/1999/xlink">
    <title>reports-billpayreports-billpay/bold</title>
    <defs>
        <path d="M5.5,5 C5.5,4.22030388 6.09488808,3.57955132 6.85553999,3.50686658 L7,3.5 L23,3.5 C23.7796961,3.5 24.4204487,4.09488808 24.4931334,4.85553999 L24.5,5 L24.5,6.3403233 C24.5,7.16875042 23.8284271,7.8403233 23,7.8403233 C22.2690349,7.8403233 21.6601881,7.31747244 21.5270472,6.62535823 L21.509,6.5 L8.5,6.5 L8.5,23.5 L18.2409316,23.5 C19.0206277,23.5 19.6613803,24.0948881 19.734065,24.85554 L19.7409316,25 L30,25 C30.8284271,25 31.5,25.6715729 31.5,26.5 C31.5,27.2796961 30.9051119,27.9204487 30.14446,27.9931334 L30,28 L2,28 C1.17157288,28 0.5,27.3284271 0.5,26.5 C0.5,25.7203039 1.09488808,25.0795513 1.85553999,25.0068666 L2,25 L5.5,25 L5.5,5 Z M22.5,9.5 C23.2796961,9.5 23.9204487,10.0948881 23.9931334,10.85554 L24,11 L24.0007869,11.0486584 C25.2517388,11.3687529 26.1301851,12.1345864 26.4518256,13.3729025 C26.6600908,14.1747236 26.1789186,14.9935604 25.3770975,15.2018256 C24.6224423,15.3978399 23.8527145,14.9831415 23.5911375,14.2651918 L23.5481744,14.1270975 C23.5329831,14.0686108 23.5290981,14.0636251 23.4735505,14.0330739 C23.305547,13.940672 22.9814515,13.875 22.5,13.875 C21.6892207,13.875 21.5197463,14.0166892 21.5017291,14.3650524 L21.5,14.4375 C21.5,14.6466899 21.628193,14.7406788 22.6948438,15.0269123 L22.9129038,15.0847208 C25.3948497,15.7372243 26.5,16.4404778 26.5,18.5625 C26.5,20.1039536 25.6588392,21.4317808 24.0008103,21.9226627 L24,22 C24,22.8284271 23.3284271,23.5 22.5,23.5 C21.7203039,23.5 21.0795513,22.9051119 21.0068666,22.14446 L21,22 L21.0002019,21.9515945 C19.7487241,21.6316506 18.8698997,20.8657398 18.5481744,19.6270976 C18.3399092,18.8252764 18.8210813,18.0064397 19.6229024,17.7981744 C20.3775576,17.6021601 21.1472855,18.0168584 21.4088625,18.7348082 L21.4518256,18.8729024 C21.4670169,18.9313892 21.4709019,18.9363749 21.5264496,18.9669261 C21.694453,19.059328 22.0185485,19.125 22.5,19.125 C23.3107793,19.125 23.4802537,18.9833108 23.4982709,18.6349476 L23.499164,18.481927 C23.4968917,18.4708502 23.4916814,18.464034 23.4804039,18.4557647 L23.4252411,18.420884 L23.4252411,18.420884 C23.2373638,18.3013298 22.9645313,18.2044394 22.3318127,18.0343911 L22.1185527,17.9778282 C19.6307045,17.3236679 18.5,16.5917663 18.5,14.4375 C18.5,12.8957397 19.3414955,11.567691 21.0001793,11.0770444 L21,11 C21,10.1715729 21.6715729,9.5 22.5,9.5 Z M14,15.5 C14.8284271,15.5 15.5,16.1715729 15.5,17 C15.5,17.7796961 14.9051119,18.4204487 14.14446,18.4931334 L14,18.5 L12,18.5 C11.1715729,18.5 10.5,17.8284271 10.5,17 C10.5,16.2203039 11.0948881,15.5795513 11.85554,15.5068666 L12,15.5 L14,15.5 Z M16,10.5 C16.8284271,10.5 17.5,11.1715729 17.5,12 C17.5,12.7796961 16.9051119,13.4204487 16.14446,13.4931334 L16,13.5 L12,13.5 C11.1715729,13.5 10.5,12.8284271 10.5,12 C10.5,11.2203039 11.0948881,10.5795513 11.85554,10.5068666 L12,10.5 L16,10.5 Z" id="path-1"></path>
    </defs>
    <g id="reports-billpayreports-billpay/bold" stroke="none" stroke-width="1" fill="none" fill-rule="evenodd">
        <mask id="mask-2" fill="white">
            <use xlink:href="#path-1"></use>
        </mask>
        <use id="Mask" fill="#5AA617" fill-rule="nonzero" xlink:href="#path-1"></use>
    </g>
</svg>