<?xml version="1.0" encoding="UTF-8"?>
<svg width="32px" height="32px" viewBox="0 0 32 32" version="1.1" xmlns="http://www.w3.org/2000/svg" xmlns:xlink="http://www.w3.org/1999/xlink">
    <title>reports-billpayreports-billpay/regular</title>
    <g id="reports-billpayreports-billpay/regular" stroke="none" stroke-width="1" fill="none" fill-rule="evenodd">
        <path d="M23,4 C23.5128358,4 23.9355072,4.38604019 23.9932723,4.88337887 L24,5 L24,6.3403233 C24,6.89260805 23.5522847,7.3403233 23,7.3403233 C22.4871642,7.3403233 22.0644928,6.95428311 22.0067277,6.45694442 L22,6.3403233 L22,6 L8,6 L8,24 L18.2409316,24 C18.7537674,24 19.1764388,24.3860402 19.2342039,24.8833789 L19.2409316,25 C19.2409316,25.1826037 19.1919881,25.3537761 19.1065038,25.5011143 L30,25.5 C30.5522847,25.5 31,25.9477153 31,26.5 C31,27.0128358 30.6139598,27.4355072 30.1166211,27.4932723 L30,27.5 L2,27.5 C1.44771525,27.5 1,27.0522847 1,26.5 C1,25.9871642 1.38604019,25.5644928 1.88337887,25.5067277 L2,25.5 L6.13442774,25.5011143 C6.06741114,25.3856064 6.02285249,25.25545 6.00672773,25.1166211 L6,25 L6,5 C6,4.48716416 6.38604019,4.06449284 6.88337887,4.00672773 L7,4 L23,4 Z M22.5,10 C23.0128358,10 23.4355072,10.3860402 23.4932723,10.8833789 L23.5,11 L23.5016245,11.4535786 C24.7919767,11.6716374 25.6683594,12.3454329 25.9678837,13.4986017 C26.1067272,14.0331491 25.7859458,14.5790402 25.2513983,14.7178837 C24.7550329,14.8468098 24.2488863,14.5794266 24.0679463,14.1125827 L24.0321163,14.0013983 C23.9275579,13.5988484 23.5205607,13.375 22.5,13.375 C21.3376062,13.375 21,13.7776505 21,14.4375 C21,14.8512554 21.1784905,15.065305 21.9033927,15.3120363 L22.2015627,15.4065464 L22.7857738,15.5682888 C25.0571748,16.16544 26,16.7653993 26,18.5625 C26,19.9955668 25.1789723,21.1955818 23.5018495,21.5313546 L23.5,22 C23.5,22.5522847 23.0522847,23 22.5,23 C21.9871642,23 21.5644928,22.6139598 21.5067277,22.1166211 L21.5,22 L21.4993712,21.5465896 C20.2084742,21.3287091 19.3317177,20.6548637 19.0321163,19.5013984 C18.8932728,18.966851 19.2140542,18.4209598 19.7486016,18.2821163 C20.2449671,18.1531902 20.7511136,18.4205733 20.9320537,18.8874173 L20.9678837,18.9986016 C21.0724421,19.4011515 21.4794393,19.625 22.5,19.625 C23.6623938,19.625 24,19.2223495 24,18.5625 C24,18.1687131 23.8160373,17.9696111 23.0302551,17.7173128 L22.6828547,17.6129687 L22.006465,17.4298894 L21.5577703,17.2992517 C19.7701364,16.7469999 19,16.0732356 19,14.4375 C19,13.0041482 19.8213542,11.803941 21.4991511,11.4684452 L21.5,11 C21.5,10.4477153 21.9477153,10 22.5,10 Z M14,16 C14.5522847,16 15,16.4477153 15,17 C15,17.5128358 14.6139598,17.9355072 14.1166211,17.9932723 L14,18 L12,18 C11.4477153,18 11,17.5522847 11,17 C11,16.4871642 11.3860402,16.0644928 11.8833789,16.0067277 L12,16 L14,16 Z M16,11 C16.5522847,11 17,11.4477153 17,12 C17,12.5128358 16.6139598,12.9355072 16.1166211,12.9932723 L16,13 L12,13 C11.4477153,13 11,12.5522847 11,12 C11,11.4871642 11.3860402,11.0644928 11.8833789,11.0067277 L12,11 L16,11 Z" id="Combined-Shape" fill="#E21B23"></path>
    </g>
</svg>