<?xml version="1.0" encoding="UTF-8"?>
<svg width="32px" height="32px" viewBox="0 0 32 32" version="1.1" xmlns="http://www.w3.org/2000/svg" xmlns:xlink="http://www.w3.org/1999/xlink">
    <title>keypad/bold</title>
    <defs>
        <path d="M16,23.5 C17.5648068,23.5 18.8333333,24.7685265 18.8333333,26.3333333 C18.8333333,27.8981401 17.5648068,29.1666667 16,29.1666667 C14.4351932,29.1666667 13.1666667,27.8981401 13.1666667,26.3333333 C13.1666667,24.7685265 14.4351932,23.5 16,23.5 Z M9.33333333,16.8333333 C10.8981401,16.8333333 12.1666667,18.1018599 12.1666667,19.6666667 C12.1666667,21.2314735 10.8981401,22.5 9.33333333,22.5 C7.76852654,22.5 6.5,21.2314735 6.5,19.6666667 C6.5,18.1018599 7.76852654,16.8333333 9.33333333,16.8333333 Z M16,16.8333333 C17.5648068,16.8333333 18.8333333,18.1018599 18.8333333,19.6666667 C18.8333333,21.2314735 17.5648068,22.5 16,22.5 C14.4351932,22.5 13.1666667,21.2314735 13.1666667,19.6666667 C13.1666667,18.1018599 14.4351932,16.8333333 16,16.8333333 Z M22.6666667,16.8333333 C24.2314735,16.8333333 25.5,18.1018599 25.5,19.6666667 C25.5,21.2314735 24.2314735,22.5 22.6666667,22.5 C21.1018599,22.5 19.8333333,21.2314735 19.8333333,19.6666667 C19.8333333,18.1018599 21.1018599,16.8333333 22.6666667,16.8333333 Z M9.33333333,10.1666667 C10.8981401,10.1666667 12.1666667,11.4351932 12.1666667,13 C12.1666667,14.5648068 10.8981401,15.8333333 9.33333333,15.8333333 C7.76852654,15.8333333 6.5,14.5648068 6.5,13 C6.5,11.4351932 7.76852654,10.1666667 9.33333333,10.1666667 Z M16,10.1666667 C17.5648068,10.1666667 18.8333333,11.4351932 18.8333333,13 C18.8333333,14.5648068 17.5648068,15.8333333 16,15.8333333 C14.4351932,15.8333333 13.1666667,14.5648068 13.1666667,13 C13.1666667,11.4351932 14.4351932,10.1666667 16,10.1666667 Z M22.6666667,10.1666667 C24.2314735,10.1666667 25.5,11.4351932 25.5,13 C25.5,14.5648068 24.2314735,15.8333333 22.6666667,15.8333333 C21.1018599,15.8333333 19.8333333,14.5648068 19.8333333,13 C19.8333333,11.4351932 21.1018599,10.1666667 22.6666667,10.1666667 Z M9.33333333,3.5 C10.8981401,3.5 12.1666667,4.76852654 12.1666667,6.33333333 C12.1666667,7.89814012 10.8981401,9.16666667 9.33333333,9.16666667 C7.76852654,9.16666667 6.5,7.89814012 6.5,6.33333333 C6.5,4.76852654 7.76852654,3.5 9.33333333,3.5 Z M16,3.5 C17.5648068,3.5 18.8333333,4.76852654 18.8333333,6.33333333 C18.8333333,7.89814012 17.5648068,9.16666667 16,9.16666667 C14.4351932,9.16666667 13.1666667,7.89814012 13.1666667,6.33333333 C13.1666667,4.76852654 14.4351932,3.5 16,3.5 Z M22.6666667,3.5 C24.2314735,3.5 25.5,4.76852654 25.5,6.33333333 C25.5,7.89814012 24.2314735,9.16666667 22.6666667,9.16666667 C21.1018599,9.16666667 19.8333333,7.89814012 19.8333333,6.33333333 C19.8333333,4.76852654 21.1018599,3.5 22.6666667,3.5 Z" id="path-1"></path>
    </defs>
    <g id="keypad/bold" stroke="none" stroke-width="1" fill="none" fill-rule="evenodd">
        <mask id="mask-2" fill="white">
            <use xlink:href="#path-1"></use>
        </mask>
        <use id="Mask" fill="#5AA617" fill-rule="nonzero" xlink:href="#path-1"></use>
    </g>
</svg>