<?xml version="1.0" encoding="UTF-8"?>
<svg width="32px" height="32px" viewBox="0 0 32 32" version="1.1" xmlns="http://www.w3.org/2000/svg" xmlns:xlink="http://www.w3.org/1999/xlink">
    <title>keypad/regular</title>
    <g id="keypad/regular" stroke="none" stroke-width="1" fill="none" fill-rule="evenodd">
        <path d="M16,24 C17.2886644,24 18.3333333,25.0446689 18.3333333,26.3333333 C18.3333333,27.6219977 17.2886644,28.6666667 16,28.6666667 C14.7113356,28.6666667 13.6666667,27.6219977 13.6666667,26.3333333 C13.6666667,25.0446689 14.7113356,24 16,24 Z M16,26 C15.8159051,26 15.6666667,26.1492384 15.6666667,26.3333333 C15.6666667,26.5174282 15.8159051,26.6666667 16,26.6666667 C16.1840949,26.6666667 16.3333333,26.5174282 16.3333333,26.3333333 C16.3333333,26.1492384 16.1840949,26 16,26 Z M9.33333333,17.3333333 C10.6219977,17.3333333 11.6666667,18.3780023 11.6666667,19.6666667 C11.6666667,20.9553311 10.6219977,22 9.33333333,22 C8.04466892,22 7,20.9553311 7,19.6666667 C7,18.3780023 8.04466892,17.3333333 9.33333333,17.3333333 Z M16,17.3333333 C17.2886644,17.3333333 18.3333333,18.3780023 18.3333333,19.6666667 C18.3333333,20.9553311 17.2886644,22 16,22 C14.7113356,22 13.6666667,20.9553311 13.6666667,19.6666667 C13.6666667,18.3780023 14.7113356,17.3333333 16,17.3333333 Z M22.6666667,17.3333333 C23.9553311,17.3333333 25,18.3780023 25,19.6666667 C25,20.9553311 23.9553311,22 22.6666667,22 C21.3780023,22 20.3333333,20.9553311 20.3333333,19.6666667 C20.3333333,18.3780023 21.3780023,17.3333333 22.6666667,17.3333333 Z M9.33333333,19.3333333 C9.14923842,19.3333333 9,19.4825718 9,19.6666667 C9,19.8507616 9.14923842,20 9.33333333,20 C9.51742825,20 9.66666667,19.8507616 9.66666667,19.6666667 C9.66666667,19.4825718 9.51742825,19.3333333 9.33333333,19.3333333 Z M16,19.3333333 C15.8159051,19.3333333 15.6666667,19.4825718 15.6666667,19.6666667 C15.6666667,19.8507616 15.8159051,20 16,20 C16.1840949,20 16.3333333,19.8507616 16.3333333,19.6666667 C16.3333333,19.4825718 16.1840949,19.3333333 16,19.3333333 Z M22.6666667,19.3333333 C22.4825718,19.3333333 22.3333333,19.4825718 22.3333333,19.6666667 C22.3333333,19.8507616 22.4825718,20 22.6666667,20 C22.8507616,20 23,19.8507616 23,19.6666667 C23,19.4825718 22.8507616,19.3333333 22.6666667,19.3333333 Z M9.33333333,10.6666667 C10.6219977,10.6666667 11.6666667,11.7113356 11.6666667,13 C11.6666667,14.2886644 10.6219977,15.3333333 9.33333333,15.3333333 C8.04466892,15.3333333 7,14.2886644 7,13 C7,11.7113356 8.04466892,10.6666667 9.33333333,10.6666667 Z M16,10.6666667 C17.2886644,10.6666667 18.3333333,11.7113356 18.3333333,13 C18.3333333,14.2886644 17.2886644,15.3333333 16,15.3333333 C14.7113356,15.3333333 13.6666667,14.2886644 13.6666667,13 C13.6666667,11.7113356 14.7113356,10.6666667 16,10.6666667 Z M22.6666667,10.6666667 C23.9553311,10.6666667 25,11.7113356 25,13 C25,14.2886644 23.9553311,15.3333333 22.6666667,15.3333333 C21.3780023,15.3333333 20.3333333,14.2886644 20.3333333,13 C20.3333333,11.7113356 21.3780023,10.6666667 22.6666667,10.6666667 Z M9.33333333,12.6666667 C9.14923842,12.6666667 9,12.8159051 9,13 C9,13.1840949 9.14923842,13.3333333 9.33333333,13.3333333 C9.51742825,13.3333333 9.66666667,13.1840949 9.66666667,13 C9.66666667,12.8159051 9.51742825,12.6666667 9.33333333,12.6666667 Z M16,12.6666667 C15.8159051,12.6666667 15.6666667,12.8159051 15.6666667,13 C15.6666667,13.1840949 15.8159051,13.3333333 16,13.3333333 C16.1840949,13.3333333 16.3333333,13.1840949 16.3333333,13 C16.3333333,12.8159051 16.1840949,12.6666667 16,12.6666667 Z M22.6666667,12.6666667 C22.4825718,12.6666667 22.3333333,12.8159051 22.3333333,13 C22.3333333,13.1840949 22.4825718,13.3333333 22.6666667,13.3333333 C22.8507616,13.3333333 23,13.1840949 23,13 C23,12.8159051 22.8507616,12.6666667 22.6666667,12.6666667 Z M9.33333333,4 C10.6219977,4 11.6666667,5.04466892 11.6666667,6.33333333 C11.6666667,7.62199775 10.6219977,8.66666667 9.33333333,8.66666667 C8.04466892,8.66666667 7,7.62199775 7,6.33333333 C7,5.04466892 8.04466892,4 9.33333333,4 Z M16,4 C17.2886644,4 18.3333333,5.04466892 18.3333333,6.33333333 C18.3333333,7.62199775 17.2886644,8.66666667 16,8.66666667 C14.7113356,8.66666667 13.6666667,7.62199775 13.6666667,6.33333333 C13.6666667,5.04466892 14.7113356,4 16,4 Z M22.6666667,4 C23.9553311,4 25,5.04466892 25,6.33333333 C25,7.62199775 23.9553311,8.66666667 22.6666667,8.66666667 C21.3780023,8.66666667 20.3333333,7.62199775 20.3333333,6.33333333 C20.3333333,5.04466892 21.3780023,4 22.6666667,4 Z M9.33333333,6 C9.14923842,6 9,6.14923842 9,6.33333333 C9,6.51742825 9.14923842,6.66666667 9.33333333,6.66666667 C9.51742825,6.66666667 9.66666667,6.51742825 9.66666667,6.33333333 C9.66666667,6.14923842 9.51742825,6 9.33333333,6 Z M16,6 C15.8159051,6 15.6666667,6.14923842 15.6666667,6.33333333 C15.6666667,6.51742825 15.8159051,6.66666667 16,6.66666667 C16.1840949,6.66666667 16.3333333,6.51742825 16.3333333,6.33333333 C16.3333333,6.14923842 16.1840949,6 16,6 Z M22.6666667,6 C22.4825718,6 22.3333333,6.14923842 22.3333333,6.33333333 C22.3333333,6.51742825 22.4825718,6.66666667 22.6666667,6.66666667 C22.8507616,6.66666667 23,6.51742825 23,6.33333333 C23,6.14923842 22.8507616,6 22.6666667,6 Z" id="Combined-Shape" fill="#E21B23" fill-rule="nonzero"></path>
    </g>
</svg>