<?xml version="1.0" encoding="UTF-8"?>
<svg width="32px" height="32px" viewBox="0 0 32 32" version="1.1" xmlns="http://www.w3.org/2000/svg" xmlns:xlink="http://www.w3.org/1999/xlink">
    <title>tag-outline/bold</title>
    <defs>
        <path d="M16.4350288,3 L28.1880772,14.7530483 C29.8152617,16.3802329 29.8152617,19.0184203 28.1880772,20.6456048 L28.1880772,20.6456048 L20.6456048,28.1880772 C19.0184203,29.8152617 16.3802329,29.8152617 14.7530483,28.1880772 L14.7530483,28.1880772 L3,16.4350288 L3,3 L16.4350288,3 Z M15.1916902,5.99909154 L6.00000919,5.99979865 L6.00000919,15.1921868 L16.8743687,26.0667568 C17.2996062,26.4919944 17.9714386,26.5203436 18.4295555,26.1518043 L18.4295555,26.1518043 L18.5242845,26.0667568 L26.0667568,18.5242845 C26.5223685,18.0686728 26.5223685,17.3299803 26.0667568,16.8743687 L26.0667568,16.8743687 L15.1916902,5.99909154 Z M10.1299934,9.81933321 C11.2364789,8.71284771 13.0304463,8.71284771 14.1369318,9.81933321 C15.2434173,10.9258187 15.2434173,12.7197861 14.1369318,13.8262716 C13.0304463,14.9327571 11.2364789,14.9327571 10.1299934,13.8262716 C9.02350788,12.7197861 9.02350788,10.9258187 10.1299934,9.81933321 Z" id="path-1"></path>
    </defs>
    <g id="tag-outline/bold" stroke="none" stroke-width="1" fill="none" fill-rule="evenodd">
        <mask id="mask-2" fill="white">
            <use xlink:href="#path-1"></use>
        </mask>
        <use id="Mask" fill="#5AA617" fill-rule="nonzero" xlink:href="#path-1"></use>
    </g>
</svg>