<?xml version="1.0" encoding="UTF-8"?>
<svg width="32px" height="32px" viewBox="0 0 32 32" version="1.1" xmlns="http://www.w3.org/2000/svg" xmlns:xlink="http://www.w3.org/1999/xlink">
    <title>tag-outline/regular</title>
    <g id="tag-outline/regular" stroke="none" stroke-width="1" fill="none" fill-rule="evenodd">
        <path d="M15.7279221,3 L27.3345238,14.6066017 C28.7664462,16.0385241 28.7664462,18.360129 27.3345238,19.7920514 L27.3345238,19.7920514 L19.7920514,27.3345238 C18.360129,28.7664462 16.0385241,28.7664462 14.6066017,27.3345238 L14.6066017,27.3345238 L3,15.7279221 L3,3 L15.7279221,3 Z M14.8988725,4.99916705 L4.99937758,4.99916705 L4.99937758,14.898662 L16.0208153,25.9203102 C16.6374326,26.5369275 17.6170027,26.5693811 18.2718256,26.0176708 L18.2718256,26.0176708 L18.3778379,25.9203102 L25.9203102,18.3778379 C26.571184,17.7269641 26.571184,16.6716891 25.9203102,16.0208153 L25.9203102,16.0208153 L14.8988725,4.99916705 Z M9.95321668,9.7461099 C10.86444,8.83488655 12.341825,8.83488655 13.2530483,9.7461099 C14.1642717,10.6573332 14.1642717,12.1347182 13.2530483,13.0459415 C12.341825,13.9571649 10.86444,13.9571649 9.95321668,13.0459415 C9.04199333,12.1347182 9.04199333,10.6573332 9.95321668,9.7461099 Z M11.8388348,11.1603235 C11.70866,11.0301487 11.497605,11.0301487 11.3674302,11.1603235 C11.2372555,11.2904982 11.2372555,11.5015532 11.3674302,11.631728 C11.497605,11.7619027 11.70866,11.7619027 11.8388348,11.631728 C11.9690095,11.5015532 11.9690095,11.2904982 11.8388348,11.1603235 Z" id="Combined-Shape" fill="#E21B23" fill-rule="nonzero"></path>
    </g>
</svg>