<?xml version="1.0" encoding="UTF-8"?>
<svg width="32px" height="32px" viewBox="0 0 32 32" version="1.1" xmlns="http://www.w3.org/2000/svg" xmlns:xlink="http://www.w3.org/1999/xlink">
    <title>calendar/bold</title>
    <defs>
        <path d="M22.6666667,2.5 C23.4463628,2.5 24.0871153,3.09488808 24.1598001,3.85553999 L24.1666667,4 L24.166,5.166 L29.5,5.16666667 L29.5,29.5 L2.5,29.5 L2.5,5.16666667 L7.833,5.166 L7.83333333,4 C7.83333333,3.17157288 8.50490621,2.5 9.33333333,2.5 C10.1130295,2.5 10.753782,3.09488808 10.8264668,3.85553999 L10.8333333,4 L10.833,5.166 L21.166,5.166 L21.1666667,4 C21.1666667,3.17157288 21.8382395,2.5 22.6666667,2.5 Z M26.5,13.5 L5.5,13.5 L5.5,26.499 L26.5,26.499 L26.5,13.5 Z M9.312,8.165 L5.5,8.166 L5.5,10.5 L26.5,10.5 L26.5,8.166 L22.687805,8.16652076 C22.6807705,8.16661793 22.6737243,8.16666667 22.6666667,8.16666667 L22.645,8.165 L9.3546182,8.16651873 C9.347535,8.16661725 9.34043994,8.16666667 9.33333333,8.16666667 L9.312,8.165 Z" id="path-1"></path>
    </defs>
    <g id="calendar/bold" stroke="none" stroke-width="1" fill="none" fill-rule="evenodd">
        <mask id="mask-2" fill="white">
            <use xlink:href="#path-1"></use>
        </mask>
        <use id="Mask" fill="#5AA617" fill-rule="nonzero" xlink:href="#path-1"></use>
    </g>
</svg>