<?xml version="1.0" encoding="UTF-8"?>
<svg width="32px" height="32px" viewBox="0 0 32 32" version="1.1" xmlns="http://www.w3.org/2000/svg" xmlns:xlink="http://www.w3.org/1999/xlink">
    <title>calendar/regular</title>
    <g id="calendar/regular" stroke="none" stroke-width="1" fill="none" fill-rule="evenodd">
        <path d="M22.6666667,3 C23.1795025,3 23.6021738,3.38604019 23.6599389,3.88337887 L23.6666667,4 L23.666,5.666 L29,5.66666667 L29,29 L3,29 L3,5.66666667 L8.333,5.666 L8.33333333,4 C8.33333333,3.44771525 8.78104858,3 9.33333333,3 C9.84616917,3 10.2688405,3.38604019 10.3266056,3.88337887 L10.3333333,4 L10.333,5.666 L21.666,5.666 L21.6666667,4 C21.6666667,3.44771525 22.1143819,3 22.6666667,3 Z M27,13 L5,13 L5,26.999 L27,26.999 L27,13 Z M9.316,7.665 L5,7.666 L5,11 L27,11 L27,7.666 L22.6838282,7.66652238 C22.6781192,7.66661844 22.6723986,7.66666667 22.6666667,7.66666667 L22.649,7.665 L9.35064248,7.66651988 C9.34488449,7.66661761 9.33911464,7.66666667 9.33333333,7.66666667 L9.316,7.665 Z" id="Combined-Shape" fill="#E21B23" fill-rule="nonzero"></path>
    </g>
</svg>