<?xml version="1.0" encoding="UTF-8"?>
<svg width="32px" height="32px" viewBox="0 0 32 32" version="1.1" xmlns="http://www.w3.org/2000/svg" xmlns:xlink="http://www.w3.org/1999/xlink">
    <title>bill-pay-intl/bold</title>
    <defs>
        <path d="M20.5,4 C21.2796961,4 21.9204487,4.59488808 21.9931334,5.35553999 L22,5.5 L22,9.4180727 C22,9.66214071 21.9417084,9.89259398 21.8382876,10.09627 C22.2154614,10.0329013 22.6038884,10 23,10 C26.8659932,10 30,13.1340068 30,17 C30,20.8659932 26.8659932,24 23,24 C19.1340068,24 16,20.8659932 16,17 C16,14.2760856 17.555839,11.9155569 19.8273343,10.7585965 C19.3776286,10.5333122 19.0570191,10.0873825 19.0068666,9.56253271 L19,9.4180727 L19,7 L6,7 L6,24 L19.7638354,24 C20.5435315,24 21.1842841,24.5948881 21.2569688,25.35554 L21.2638354,25.5 C21.2638354,26.2796961 20.6689473,26.9204487 19.9082954,26.9931334 L19.7638354,27 L4.5,27 C3.72030388,27 3.07955132,26.4051119 3.00686658,25.64446 L3,25.5 L3,5.5 C3,4.72030388 3.59488808,4.07955132 4.35553999,4.00686658 L4.5,4 L20.5,4 Z M19.3772556,18.7015329 L19.455156,18.8548859 C20.1237797,20.1300593 21.4602971,21 23,21 C24.5596266,21 25.9107753,20.1073996 26.5704634,18.8051813 C25.4387617,18.9351326 24.3244092,19 23.2262282,19 C21.8689038,19 20.5858226,18.9009001 19.3772556,18.7015329 Z M11.5,16 C12.3284271,16 13,16.6715729 13,17.5 C13,18.2796961 12.4051119,18.9204487 11.64446,18.9931334 L11.5,19 L9.5,19 C8.67157288,19 8,18.3284271 8,17.5 C8,16.7203039 8.59488808,16.0795513 9.35553999,16.0068666 L9.5,16 L11.5,16 Z M23,13 C21.2734601,13 19.8024092,14.0938784 19.2420857,15.6263967 L18.8385993,15.5387161 C20.1617017,15.8452969 21.6240259,16 23.2262282,16 C24.3925806,16 25.583643,15.9180026 26.799691,15.753658 C26.2767132,14.1536469 24.7730809,13 23,13 Z M13.5,11 C14.3284271,11 15,11.6715729 15,12.5 C15,13.2796961 14.4051119,13.9204487 13.64446,13.9931334 L13.5,14 L9.5,14 C8.67157288,14 8,13.3284271 8,12.5 C8,11.7203039 8.59488808,11.0795513 9.35553999,11.0068666 L9.5,11 L13.5,11 Z" id="path-1"></path>
    </defs>
    <g id="bill-pay-intl/bold" stroke="none" stroke-width="1" fill="none" fill-rule="evenodd">
        <mask id="mask-2" fill="white">
            <use xlink:href="#path-1"></use>
        </mask>
        <use id="Mask" fill="#5AA617" fill-rule="nonzero" xlink:href="#path-1"></use>
    </g>
</svg>