<?xml version="1.0" encoding="UTF-8"?>
<svg width="32px" height="32px" viewBox="0 0 32 32" version="1.1" xmlns="http://www.w3.org/2000/svg" xmlns:xlink="http://www.w3.org/1999/xlink">
    <title>bill-pay-intl/regular</title>
    <g id="bill-pay-intl/regular" stroke="none" stroke-width="1" fill="none" fill-rule="evenodd">
        <path d="M20,5 C20.5128358,5 20.9355072,5.38604019 20.9932723,5.88337887 L21,6 L21,9.9180727 C21,10.4703574 20.5522847,10.9180727 20,10.9180727 C19.4871642,10.9180727 19.0644928,10.5320325 19.0067277,10.0346938 L19,9.9180727 L19,7 L5,7 L5,25 L19.2638354,25 C19.7766712,25 20.1993425,25.3860402 20.2571076,25.8833789 L20.2638354,26 C20.2638354,26.5128358 19.8777952,26.9355072 19.3804565,26.9932723 L19.2638354,27 L4,27 C3.48716416,27 3.06449284,26.6139598 3.00672773,26.1166211 L3,26 L3,6 C3,5.48716416 3.38604019,5.06449284 3.88337887,5.00672773 L4,5 L20,5 Z M22.5,11 C26.0898509,11 29,13.9101491 29,17.5 C29,21.0898509 26.0898509,24 22.5,24 C18.9101491,24 16,21.0898509 16,17.5 C16,13.9101491 18.9101491,11 22.5,11 Z M18.1223119,18.5512315 L18.1698449,18.7288791 C18.7045895,20.616834 20.4407669,22 22.5,22 C24.5686048,22 26.3112066,20.6042157 26.8373813,18.7030714 C25.441381,18.900944 24.0710635,19 22.7262282,19 C21.076365,19 19.5416112,18.8509058 18.1223119,18.5512315 Z M11,17 C11.5522847,17 12,17.4477153 12,18 C12,18.5128358 11.6139598,18.9355072 11.1166211,18.9932723 L11,19 L9,19 C8.44771525,19 8,18.5522847 8,18 C8,17.4871642 8.38604019,17.0644928 8.88337887,17.0067277 L9,17 L11,17 Z M22.5,13 C20.3697588,13 18.5852372,14.4802014 18.1188482,16.4681913 L18.1106031,16.5060396 C18.1488756,16.5103467 18.1873022,16.5169058 18.2257329,16.5258108 C19.5873204,16.841309 21.0873397,17 22.7262282,17 C24.0928095,17 25.4916018,16.889651 26.922884,16.6685987 C26.5321647,14.5795067 24.7005391,13 22.5,13 Z M13,12 C13.5522847,12 14,12.4477153 14,13 C14,13.5128358 13.6139598,13.9355072 13.1166211,13.9932723 L13,14 L9,14 C8.44771525,14 8,13.5522847 8,13 C8,12.4871642 8.38604019,12.0644928 8.88337887,12.0067277 L9,12 L13,12 Z" id="Combined-Shape" fill="#E21B23" fill-rule="nonzero"></path>
    </g>
</svg>