<?xml version="1.0" encoding="UTF-8"?>
<svg width="32px" height="32px" viewBox="0 0 32 32" version="1.1" xmlns="http://www.w3.org/2000/svg" xmlns:xlink="http://www.w3.org/1999/xlink">
    <title>wifi/bold</title>
    <defs>
        <path d="M18.7266534,21.9579545 C19.3124398,22.5437409 19.3124398,23.4934884 18.7266534,24.0792748 C18.1774786,24.6284496 17.3084162,24.662773 16.7192554,24.1822451 L16.605333,24.0792748 C15.9017878,23.3757296 14.7854005,23.3366438 14.0359839,23.9620173 L13.907702,24.0792748 C13.3219156,24.6650613 12.3721681,24.6650613 11.7863817,24.0792748 C11.2005953,23.4934884 11.2005953,22.5437409 11.7863817,21.9579545 C13.7028848,20.0414514 16.8101503,20.0414514 18.7266534,21.9579545 Z M23.5456048,17.1390032 C24.1313913,17.7247896 24.1313913,18.6745371 23.5456048,19.2603235 C22.9598184,19.8461099 22.0100709,19.8461099 21.4242845,19.2603235 C18.0179208,15.8539598 12.4951142,15.8539598 9.08875059,19.2603235 C8.50296416,19.8461099 7.55321669,19.8461099 6.96743025,19.2603235 C6.38164381,18.6745371 6.3816438,17.7247896 6.96743023,17.1390032 C11.5453667,12.5610666 18.9676683,12.5610666 23.5456048,17.1390032 Z M28.3645563,12.3200517 C28.9503427,12.9058381 28.9503427,13.8555856 28.3645563,14.441372 C27.7787699,15.0271585 26.8290224,15.0271585 26.243236,14.441372 C20.1754389,8.37357504 10.3375962,8.37357504 4.26979917,14.441372 C3.68401273,15.0271585 2.73426527,15.0271585 2.14847883,14.441372 C1.56269239,13.8555856 1.56269239,12.9058381 2.14847883,12.3200517 C9.38784871,5.08068182 21.1251864,5.08068182 28.3645563,12.3200517 Z" id="path-1"></path>
    </defs>
    <g id="wifi/bold" stroke="none" stroke-width="1" fill="none" fill-rule="evenodd">
        <mask id="mask-2" fill="white">
            <use xlink:href="#path-1"></use>
        </mask>
        <use id="Mask" fill="#5AA617" fill-rule="nonzero" xlink:href="#path-1"></use>
    </g>
</svg>