<?xml version="1.0" encoding="UTF-8"?>
<svg width="32px" height="32px" viewBox="0 0 32 32" version="1.1" xmlns="http://www.w3.org/2000/svg" xmlns:xlink="http://www.w3.org/1999/xlink">
    <title>wifi/regular</title>
    <g id="wifi/regular" stroke="none" stroke-width="1" fill="none" fill-rule="evenodd">
        <path d="M18.3731,22.3115079 C18.7636243,22.7020322 18.7636243,23.3351972 18.3731,23.7257214 C17.9825757,24.1162457 17.3494107,24.1162457 16.9588864,23.7257214 C16.018694,22.7855291 14.494341,22.7855291 13.5541486,23.7257214 C13.1636244,24.1162457 12.5304594,24.1162457 12.1399351,23.7257214 C11.7494108,23.3351972 11.7494108,22.7020322 12.1399351,22.3115079 C13.861176,20.5902669 16.651859,20.5902669 18.3731,22.3115079 Z M23.1920514,17.4925566 C23.5825757,17.8830808 23.5825757,18.5162458 23.1920514,18.9067701 C22.8015272,19.2972944 22.1683622,19.2972944 21.7778379,18.9067701 C18.176212,15.3051443 12.336823,15.3051443 8.7351972,18.9067701 C8.34467291,19.2972944 7.71150793,19.2972944 7.32098364,18.9067701 C6.93045934,18.5162458 6.93045934,17.8830809 7.32098363,17.4925566 C11.703658,13.1098821 18.809377,13.1098821 23.1920514,17.4925566 Z M28.0110029,12.6736051 C28.4015272,13.0641294 28.4015272,13.6972944 28.0110029,14.0878186 C27.6204786,14.4783429 26.9873136,14.4783429 26.5967894,14.0878186 C20.3337302,7.8247595 10.1793049,7.8247595 3.91624578,14.0878186 C3.52572149,14.4783429 2.89255651,14.4783429 2.50203222,14.0878186 C2.11150793,13.6972944 2.11150793,13.0641294 2.50203222,12.6736051 C9.54613995,5.62949735 20.9668952,5.62949735 28.0110029,12.6736051 Z" id="Shape" fill="#E21B23" fill-rule="nonzero"></path>
    </g>
</svg>