<?xml version="1.0" encoding="UTF-8"?>
<svg width="32px" height="32px" viewBox="0 0 32 32" version="1.1" xmlns="http://www.w3.org/2000/svg" xmlns:xlink="http://www.w3.org/1999/xlink">
    <title>camera/bold</title>
    <defs>
        <path d="M18.128,5.49999997 C19.5207772,5.49999997 20.8214835,6.19563345 21.5947421,7.35461637 L21.5947421,7.35461637 L22.136,8.166 L29.5,8.16666667 L29.5,25.8333333 L2.5,25.8333333 L2.5,8.16666667 L9.863,8.166 L10.4055578,7.35416668 C11.1355743,6.2599964 12.3363288,5.57872128 13.6407977,5.50640111 L13.6407977,5.50640111 L13.872,5.49999997 Z M18.128,8.49999997 L13.872,8.49999997 C13.481777,8.49999997 13.1175141,8.69481217 12.9014088,9.01871696 L12.9014088,9.01871696 L11.4694423,11.1666667 L5.5,11.166 L5.5,22.833 L26.5,22.833 L26.5,11.166 L20.5305577,11.1666667 L19.0988911,9.01916665 C18.8824859,8.69481217 18.518223,8.49999997 18.128,8.49999997 L18.128,8.49999997 Z M16,10.8333333 C19.0375661,10.8333333 21.5,13.2957672 21.5,16.3333333 C21.5,19.3708995 19.0375661,21.8333333 16,21.8333333 C12.9624339,21.8333333 10.5,19.3708995 10.5,16.3333333 C10.5,13.2957672 12.9624339,10.8333333 16,10.8333333 Z M16,13.8333333 C14.6192881,13.8333333 13.5,14.9526215 13.5,16.3333333 C13.5,17.7140452 14.6192881,18.8333333 16,18.8333333 C17.3807119,18.8333333 18.5,17.7140452 18.5,16.3333333 C18.5,14.9526215 17.3807119,13.8333333 16,13.8333333 Z" id="path-1"></path>
    </defs>
    <g id="camera/bold" stroke="none" stroke-width="1" fill="none" fill-rule="evenodd">
        <mask id="mask-2" fill="white">
            <use xlink:href="#path-1"></use>
        </mask>
        <use id="Mask" fill="#5AA617" fill-rule="nonzero" xlink:href="#path-1"></use>
    </g>
</svg>