<?xml version="1.0" encoding="UTF-8"?>
<svg width="32px" height="32px" viewBox="0 0 32 32" version="1.1" xmlns="http://www.w3.org/2000/svg" xmlns:xlink="http://www.w3.org/1999/xlink">
    <title>camera/regular</title>
    <g id="camera/regular" stroke="none" stroke-width="1" fill="none" fill-rule="evenodd">
        <path d="M18.128,5.99999997 C19.3536848,5.99999997 20.4983173,6.61216323 21.178717,7.63196647 L21.178717,7.63196647 L21.868,8.666 L29,8.66666667 L29,25.3333333 L3,25.3333333 L3,8.66666667 L10.131,8.666 L10.821483,7.63166668 C11.461671,6.67213402 12.5132596,6.07342866 13.6566221,6.00631292 L13.6566221,6.00631292 L13.872,5.99999997 Z M18.128,7.99999997 L13.872,7.99999997 C13.3146846,7.99999997 12.7943478,8.27828238 12.4853836,8.74136686 L12.4853836,8.74136686 L11.2018504,10.6666667 L5,10.666 L5,23.333 L27,23.333 L27,10.666 L20.7981496,10.6666667 L19.5148163,8.74166666 C19.2056522,8.27828238 18.6853154,7.99999997 18.128,7.99999997 L18.128,7.99999997 Z M16,11.3333333 C18.7614237,11.3333333 21,13.5719096 21,16.3333333 C21,19.0947571 18.7614237,21.3333333 16,21.3333333 C13.2385763,21.3333333 11,19.0947571 11,16.3333333 C11,13.5719096 13.2385763,11.3333333 16,11.3333333 Z M16,13.3333333 C14.3431458,13.3333333 13,14.6764791 13,16.3333333 C13,17.9901876 14.3431458,19.3333333 16,19.3333333 C17.6568542,19.3333333 19,17.9901876 19,16.3333333 C19,14.6764791 17.6568542,13.3333333 16,13.3333333 Z" id="Combined-Shape" fill="#E21B23" fill-rule="nonzero"></path>
    </g>
</svg>