<?xml version="1.0" encoding="UTF-8"?>
<svg width="32px" height="32px" viewBox="0 0 32 32" version="1.1" xmlns="http://www.w3.org/2000/svg" xmlns:xlink="http://www.w3.org/1999/xlink">
    <title>money-transfer/bold</title>
    <defs>
        <path d="M30,6 L30,27 L4.5,27 C3.67157288,27 3,26.3284271 3,25.5 C3,24.7203039 3.59488808,24.0795513 4.35553999,24.0068666 L4.5,24 L27,24 L27,9 L4.5,9 C3.72030388,9 3.07955132,8.40511192 3.00686658,7.64446001 L3,7.5 C3,6.72030388 3.59488808,6.07955132 4.35553999,6.00686658 L4.5,6 L30,6 Z M17,10 C17.5197974,10 17.9469658,10.4759105 17.9954223,11.084432 L17.9964655,11.1042345 C19.0288969,11.3408329 19.7264646,11.9825049 19.9727491,13.0525889 C20.0879754,13.5532368 19.8272075,14.0661309 19.3903077,14.1981699 C18.9791079,14.3224419 18.5584415,14.0650564 18.4143093,13.6169523 L18.3905949,13.5307444 C18.3406907,13.3139152 18.2155658,13.1462799 17.9805389,13.0347912 C17.8893993,13.5856331 17.4850249,14 17,14 C16.5311044,14 16.1375845,13.612734 16.0294396,13.0902013 C15.7406269,13.277221 15.636455,13.5814619 15.636455,13.96875 C15.636455,14.4893426 15.8835293,14.707017 16.9453409,15.0400683 L17.2325657,15.1273154 C19.1951727,15.7096114 19.999799,16.2874476 19.999799,18.03125 C19.999799,19.3785615 19.34194,20.5088124 17.9974161,20.8750395 L18,20.8 C18,21.4627417 17.5522847,22 17,22 C16.4802026,22 16.0530342,21.5240895 16.0045777,20.915568 L16.0035345,20.8957655 C14.9711031,20.6591671 14.2735355,20.0174951 14.0272509,18.9474111 C13.9120246,18.4467632 14.1727925,17.9338691 14.6096923,17.8018301 C15.0208921,17.6775581 15.4415585,17.9349436 15.5856907,18.3830477 L15.6094051,18.4692556 C15.6593093,18.6860848 15.7844342,18.8537201 16.0194611,18.9652088 C16.1106007,18.4143669 16.5149751,18 17,18 C17.4688956,18 17.8624155,18.387266 17.9705604,18.9097987 C18.2593731,18.722779 18.363545,18.4185382 18.363545,18.03125 C18.363545,17.5521555 18.127033,17.3480852 17.0789661,17.0204448 L16.7949045,16.9342917 C14.8250292,16.3497452 14.000201,15.7472036 14.000201,13.96875 C14.000201,12.6210967 14.6583939,11.4906141 16.0036076,11.1246818 L16,11.2 C16,10.5372583 16.4477153,10 17,10 Z M8.5,17.2604779 C9.32842712,17.2604779 10,17.9320508 10,18.7604779 C10,19.5401741 9.40511192,20.1809266 8.64446001,20.2536114 L8.5,20.2604779 L4.5,20.2604779 C3.67157288,20.2604779 3,19.5889051 3,18.7604779 C3,17.9807818 3.59488808,17.3400293 4.35553999,17.2673445 L4.5,17.2604779 L8.5,17.2604779 Z M8.5,12 C9.32842712,12 10,12.6715729 10,13.5 C10,14.2796961 9.40511192,14.9204487 8.64446001,14.9931334 L8.5,15 L4.5,15 C3.67157288,15 3,14.3284271 3,13.5 C3,12.7203039 3.59488808,12.0795513 4.35553999,12.0068666 L4.5,12 L8.5,12 Z" id="path-1"></path>
    </defs>
    <g id="money-transfer/bold" stroke="none" stroke-width="1" fill="none" fill-rule="evenodd">
        <mask id="mask-2" fill="white">
            <use xlink:href="#path-1"></use>
        </mask>
        <use id="Mask" fill="#5AA617" fill-rule="nonzero" xlink:href="#path-1"></use>
    </g>
</svg>