<?xml version="1.0" encoding="UTF-8"?>
<svg width="32px" height="32px" viewBox="0 0 32 32" version="1.1" xmlns="http://www.w3.org/2000/svg" xmlns:xlink="http://www.w3.org/1999/xlink">
    <title>money-transfer/regular</title>
    <g id="money-transfer/regular" stroke="none" stroke-width="1" fill="none" fill-rule="evenodd">
        <path d="M29,6 L29,26 L4,26 C3.44771525,26 3,25.5522847 3,25 C3,24.4871642 3.38604019,24.0644928 3.88337887,24.0067277 L4,24 L27,24 L27,8 L4,8 C3.48716416,8 3.06449284,7.61395981 3.00672773,7.11662113 L3,7 C3,6.48716416 3.38604019,6.06449284 3.88337887,6.00672773 L4,6 L29,6 Z M17.8181818,11 C18.3310177,11 18.753689,11.3860402 18.8114541,11.8833789 L18.8181818,12 L18.818848,12.1067094 C19.7350805,12.3214443 20.3740597,12.8623793 20.6042473,13.7486017 C20.7430908,14.2831491 20.4223094,14.8290402 19.887762,14.9678837 C19.3913965,15.0968098 18.88525,14.8294266 18.7043099,14.3625827 L18.6684799,14.2513983 C18.6288566,14.0988484 18.4491321,14 17.8181818,14 C17.1351114,14 17,14.1611423 17,14.5 C17,14.705481 17.1176096,14.7944519 17.9057481,15.00814 L18.0953609,15.0586275 C19.8621316,15.5231115 20.6363636,16.0157878 20.6363636,17.5 C20.6363636,18.6019381 20.0278381,19.5453158 18.8192644,19.8749397 L18.8181818,20 C18.8181818,20.5522847 18.3704666,21 17.8181818,21 C17.305346,21 16.8826747,20.6139598 16.8249095,20.1166211 L16.8181818,20 L16.8184845,19.8935175 C15.9017336,19.6789369 15.2623851,19.1379331 15.0321163,18.2513984 C14.8932728,17.716851 15.2140542,17.1709598 15.7486016,17.0321163 C16.2449671,16.9031902 16.7511136,17.1705733 16.9320537,17.6374173 L16.9678837,17.7486016 C17.0075071,17.9011516 17.1872315,18 17.8181818,18 C18.5012523,18 18.6363636,17.8388577 18.6363636,17.5 C18.6363636,17.3385393 18.5407128,17.2574901 17.8973963,17.0769094 L17.5638836,16.9868636 C15.792395,16.5210645 15,16.0081496 15,14.5 C15,13.3977531 15.6088667,12.4541555 16.8181156,12.1247833 L16.8181818,12 C16.8181818,11.4477153 17.2658971,11 17.8181818,11 Z M8,17.7604779 C8.55228475,17.7604779 9,18.2081932 9,18.7604779 C9,19.2733138 8.61395981,19.6959851 8.11662113,19.7537502 L8,19.7604779 L4,19.7604779 C3.44771525,19.7604779 3,19.3127627 3,18.7604779 C3,18.2476421 3.38604019,17.8249708 3.88337887,17.7672057 L4,17.7604779 L8,17.7604779 Z M8,12.5 C8.55228475,12.5 9,12.9477153 9,13.5 C9,14.0128358 8.61395981,14.4355072 8.11662113,14.4932723 L8,14.5 L4,14.5 C3.44771525,14.5 3,14.0522847 3,13.5 C3,12.9871642 3.38604019,12.5644928 3.88337887,12.5067277 L4,12.5 L8,12.5 Z" id="Combined-Shape" fill="#E21B23" fill-rule="nonzero"></path>
    </g>
</svg>