<?xml version="1.0" encoding="UTF-8"?>
<svg width="32px" height="32px" viewBox="0 0 32 32" version="1.1" xmlns="http://www.w3.org/2000/svg" xmlns:xlink="http://www.w3.org/1999/xlink">
    <title>call-outline/bold</title>
    <defs>
        <path d="M4.21813995,4.36645604 L7.04496244,1.53963355 L13.639629,10.995085 L8.912,15.722 L9.17891515,16.1112656 C10.0078859,17.2965234 10.9506466,18.4372739 12.0078404,19.5340668 L12.4096534,19.9433047 C13.6311939,21.1648452 14.9082813,22.241454 16.2416984,23.174047 L16.63,23.44 L21.3578731,18.7133291 L30.8133288,25.3079987 L27.9864994,28.1348122 C26.5573904,29.5639212 24.4596113,30.0941009 22.5231101,29.5155956 C17.9741087,28.1566385 13.8909011,25.667193 10.2883331,22.0646251 C6.68577037,18.4620624 4.19632689,14.3788613 2.83737358,9.82988483 C2.28294521,7.97406505 2.74676105,5.97011484 4.04419684,4.54851897 L4.21813995,4.36645604 Z M21.702,22.61 L19.302,25.011 L19.4556016,25.0891662 C20.5612243,25.6407058 21.7012914,26.1055556 22.8761713,26.4841465 L23.3818237,26.6411198 C24.2033685,26.886546 25.0887728,26.6929782 25.7313219,26.1379319 L25.865182,26.0134888 L26.159,25.719 L21.702,22.61 Z M6.633,6.193 L6.33946029,6.48777639 C5.68985985,7.13737682 5.44887163,8.09091461 5.71184363,8.97115207 C6.11636316,10.3252456 6.63346671,11.6338008 7.26379743,12.8973675 L7.341,13.05 L9.741,10.65 L6.633,6.193 Z" id="path-1"></path>
    </defs>
    <g id="call-outline/bold" stroke="none" stroke-width="1" fill="none" fill-rule="evenodd">
        <mask id="mask-2" fill="white">
            <use xlink:href="#path-1"></use>
        </mask>
        <use id="Mask" fill="#5AA617" fill-rule="nonzero" xlink:href="#path-1"></use>
    </g>
</svg>