<?xml version="1.0" encoding="UTF-8"?>
<svg width="32px" height="32px" viewBox="0 0 32 32" version="1.1" xmlns="http://www.w3.org/2000/svg" xmlns:xlink="http://www.w3.org/1999/xlink">
    <title>call-outline/regular</title>
    <g id="call-outline/regular" stroke="none" stroke-width="1" fill="none" fill-rule="evenodd">
        <path d="M4.57169334,4.72000943 L6.97637258,2.3153302 L12.9899676,10.9376397 L8.271,15.656 L8.45550907,15.9392826 C9.3730058,17.3109337 10.4366889,18.6244509 11.6471689,19.8803561 L12.0561,20.2968581 C13.4373343,21.6780924 14.8896231,22.8780117 16.4136822,23.8974535 L16.696,24.081 L21.4153184,19.3629905 L30.0376308,25.3765876 L27.632946,27.7812588 C26.3337561,29.0804486 24.4266844,29.5624302 22.6662291,29.0365163 C18.1983466,27.7017924 14.1869334,25.2561185 10.6418864,21.7110717 C7.09684479,18.1660301 4.65117278,14.1546232 3.31645107,9.68675986 C2.81337856,8.00284185 3.23248544,6.18476799 4.40688242,4.89285591 L4.57169334,4.72000943 Z M21.645,21.961 L18.469,25.137 L18.7536881,25.2913627 C20.0304949,25.9627016 21.3534638,26.5188029 22.7229614,26.9600953 L23.2387048,27.1201991 C24.22896,27.4160254 25.2965325,27.1803448 26.0684117,26.5074284 L26.2187344,26.3670432 L26.935,25.65 L21.645,21.961 Z M6.701,5.418 L5.9859069,6.13422299 C5.20638616,6.91374373 4.91719963,8.05799171 5.23276444,9.11427136 C5.6969364,10.6680461 6.30634506,12.1628752 7.06160091,13.5992805 L7.215,13.883 L10.391,10.707 L6.701,5.418 Z" id="Path" fill="#E21B23" fill-rule="nonzero"></path>
    </g>
</svg>