<?xml version="1.0" encoding="UTF-8"?>
<svg width="32px" height="32px" viewBox="0 0 32 32" version="1.1" xmlns="http://www.w3.org/2000/svg" xmlns:xlink="http://www.w3.org/1999/xlink">
    <title>gift/bold</title>
    <defs>
        <path d="M24.6286608,4.40288795 C25.4614655,5.84534801 24.7801694,7.54308939 23.3574832,8.8061331 L25.9111565,8.80518032 C27.3268612,8.80518032 28.4745166,9.95283573 28.4745166,11.3685404 L28.4745166,11.3685404 L28.4745166,15.7373977 C28.4745166,16.5956575 28.0527193,17.3554013 27.4051116,17.8206424 L27.4045923,26.4366399 C27.4045923,27.8523446 26.2569369,29 24.8412322,29 L24.8412322,29 L7.63328434,29 C6.21757964,29 5.06992422,27.8523446 5.06992422,26.4366399 L5.06992422,26.4366399 L5.06916287,17.8204684 C4.42169209,17.3552119 4,16.5955505 4,15.7373977 L4,15.7373977 L4,11.3685404 C4,9.95283573 5.14765541,8.80518032 6.56336011,8.80518032 L6.56336011,8.80518032 L9.11648909,8.80564986 C7.69417343,7.54265637 7.01315724,5.84516406 7.84585574,4.40288795 C8.88462708,2.60368321 11.4451732,2.64593675 13.618173,3.90051873 C14.8731003,4.62505137 15.8424925,5.6636866 16.2375316,6.75852943 C16.6320241,5.6636866 17.6014163,4.62505137 18.8563436,3.90051873 C21.0293434,2.64593675 23.5898895,2.60368321 24.6286608,4.40288795 Z M24.328471,18.3005349 L8.14546598,18.3005349 L8.14546598,25.9229425 L24.328471,25.9229425 L24.328471,18.3005349 Z M25.3979049,11.8808558 L7.07603214,11.8808558 L7.07603214,15.2245027 L25.3979049,15.2245027 L25.3979049,11.8808558 Z M10.7898044,6.10247452 L10.875298,6.21171396 C11.1052907,6.48357542 11.43721,6.75947946 11.8349659,6.98912392 C12.4783998,7.36061063 12.7518638,8.12681341 12.5260879,8.80528893 L13.2588995,8.80571124 C13.1734651,8.50772503 13.1776449,8.18435935 13.2832329,7.87963058 L13.2832329,7.87963058 L13.3219624,7.7846342 L13.2913877,7.71480367 L13.2345052,7.61050156 C13.0237965,7.25906519 12.6104981,6.87063333 12.0801569,6.56444071 L12.0801569,6.56444071 L11.8809689,6.45632556 C11.5489474,6.28735922 11.2190955,6.17475622 10.9270662,6.12204892 L10.9270662,6.12204892 L10.7898044,6.10247452 Z M21.6848666,6.10238536 L21.5474504,6.12204892 C21.255421,6.17475622 20.9255692,6.28735922 20.5935477,6.45632556 L20.3943597,6.56444071 C19.8640185,6.87063333 19.4507201,7.25906519 19.2400114,7.61050156 L19.1831289,7.71480367 L19.1527086,7.78454504 L19.1912837,7.87963058 C19.2968717,8.18435935 19.3010514,8.50772503 19.215617,8.80571124 L19.9484287,8.80528893 C19.7226527,8.12681341 19.9961168,7.36061063 20.6395507,6.98912392 C21.0373065,6.75947946 21.3692259,6.48357542 21.5992185,6.21171396 L21.6848666,6.10238536 Z" id="path-1"></path>
    </defs>
    <g id="gift/bold" stroke="none" stroke-width="1" fill="none" fill-rule="evenodd">
        <mask id="mask-2" fill="white">
            <use xlink:href="#path-1"></use>
        </mask>
        <use id="Mask" fill="#5AA617" fill-rule="nonzero" xlink:href="#path-1"></use>
    </g>
</svg>