<?xml version="1.0" encoding="UTF-8"?>
<svg width="32px" height="32px" viewBox="0 0 32 32" version="1.1" xmlns="http://www.w3.org/2000/svg" xmlns:xlink="http://www.w3.org/1999/xlink">
    <title>gift/regular</title>
    <g id="gift/regular" stroke="none" stroke-width="1" fill="none" fill-rule="evenodd">
        <path d="M24.4842133,4.18808862 C25.3762365,5.73311806 24.1686617,7.74720529 22.1273179,8.92577573 C22.0334782,8.97995411 21.9348326,9.01826838 21.8344868,9.04155068 L26.2819784,9.039061 C27.4613031,9.039061 28.4173347,9.99509257 28.4173347,11.1744173 L28.4173347,11.1744173 L28.4173347,15.7236545 C28.4173347,16.5395057 27.9597965,17.2484932 27.287315,17.6080219 C27.2982956,17.6906153 27.3032358,17.7742361 27.3032358,17.8590108 L27.3032358,17.8590108 L27.3032358,26.8646437 C27.3032358,28.0439684 26.3472042,29 25.1678795,29 L25.1678795,29 L7.24945519,29 C6.07013049,29 5.11409892,28.0439684 5.11409892,26.8646437 L5.11409892,26.8646437 L5.11409892,17.8590108 C5.11409892,17.7738943 5.11907896,17.689941 5.12876356,17.6074263 C4.45757902,17.2485564 4,16.5395421 4,15.7236545 L4,15.7236545 L4,11.1744173 C4,9.99509257 4.95603156,9.039061 6.13535626,9.039061 L6.13535626,9.039061 L10.5824168,9.04145057 C10.4822195,9.01815862 10.3837221,8.97987653 10.2900168,8.92577573 C8.24867295,7.74720529 7.04109821,5.73311806 7.93312137,4.18808862 C8.82514453,2.64305918 11.1731826,2.68180596 13.2145265,3.8603764 C15.2558704,5.03894684 16.4634451,7.05303408 15.5714219,8.59806351 C15.4537257,8.80191947 15.2789546,8.95227887 15.0789467,9.04061077 L17.3389844,9.04087396 C17.1387276,8.9525777 16.963726,8.80212208 16.8459127,8.59806351 C15.9538896,7.05303408 17.1614643,5.03894684 19.2028082,3.8603764 C21.2441521,2.68180596 23.5921902,2.64305918 24.4842133,4.18808862 Z M25.1678795,17.8590108 L7.24945519,17.8590108 L7.24945519,26.8646437 L25.1678795,26.8646437 L25.1678795,17.8590108 Z M26.2819784,11.1744173 L6.13535626,11.1744173 L6.13535626,15.7236545 L26.2819784,15.7236545 L26.2819784,11.1744173 Z M10.3444142,5.14185606 C9.98358822,5.13590179 9.80952587,5.20877321 9.78239414,5.25576675 C9.7552624,5.30276029 9.77918508,5.48993842 9.96475459,5.79944571 C10.2331386,6.24707748 10.7301613,6.71419626 11.357695,7.07650296 C11.8683575,7.37133413 12.0433235,8.02431584 11.7484923,8.53497841 C11.5948504,8.80109388 11.3439478,8.97604622 11.0666093,9.04085797 L14.214,9.039 L14.1129465,8.98886083 C13.6387598,8.71508903 13.4540259,8.13250376 13.666113,7.64180904 L13.7221492,7.53038538 C13.7492809,7.48339184 13.7253582,7.29621371 13.5397887,6.98670642 C13.2714047,6.53907465 12.774382,6.07195588 12.1468484,5.70964917 C11.5193147,5.34734247 10.8662666,5.15046755 10.3444142,5.14185606 Z M22.0729205,5.14185606 C21.551068,5.15046755 20.8980199,5.34734247 20.2704863,5.70964917 C19.6429527,6.07195588 19.14593,6.53907465 18.877546,6.98670642 C18.6919764,7.29621371 18.6680538,7.48339184 18.6951855,7.53038538 C18.9900167,8.04104796 18.8150508,8.69402966 18.3043882,8.98886083 L18.202,9.039 L21.3500208,9.04069307 C21.072962,8.97574983 20.8223541,8.80086851 20.6688424,8.53497841 C20.3740112,8.02431584 20.5489771,7.37133413 21.0596397,7.07650296 C21.6871733,6.71419626 22.1841961,6.24707748 22.4525801,5.79944571 C22.6381496,5.48993842 22.6620723,5.30276029 22.6349405,5.25576675 C22.6078088,5.20877321 22.4337465,5.13590179 22.0729205,5.14185606 Z" id="Combined-Shape" fill="#E21B23" fill-rule="nonzero"></path>
    </g>
</svg>