<?xml version="1.0" encoding="UTF-8"?>
<svg width="32px" height="32px" viewBox="0 0 32 32" version="1.1" xmlns="http://www.w3.org/2000/svg" xmlns:xlink="http://www.w3.org/1999/xlink">
    <title>download/bold</title>
    <defs>
        <path d="M26.3333333,25.5 C27.1617605,25.5 27.8333333,26.1715729 27.8333333,27 C27.8333333,27.7796961 27.2384453,28.4204487 26.4777933,28.4931334 L26.3333333,28.5 L5,28.5 C4.17157288,28.5 3.5,27.8284271 3.5,27 C3.5,26.2203039 4.09488808,25.5795513 4.85553999,25.5068666 L5,25.5 L26.3333333,25.5 Z M15.6666667,1.5 C16.4463628,1.5 17.0871153,2.09488808 17.1598001,2.85553999 L17.1666667,3 L17.166,18.044 L21.2726732,13.9393398 C21.8584596,13.3535534 22.8082071,13.3535534 23.3939935,13.9393398 C23.9431683,14.4885146 23.9774917,15.357577 23.4969638,15.9467378 L23.3939935,16.0606602 L15.6666667,23.787987 L7.93933983,16.0606602 C7.35355339,15.4748737 7.35355339,14.5251263 7.93933983,13.9393398 C8.48851461,13.390165 9.35757702,13.3558416 9.94673776,13.8363696 L10.0606602,13.9393398 L14.166,18.044 L14.1666667,3 C14.1666667,2.17157288 14.8382395,1.5 15.6666667,1.5 Z" id="path-1"></path>
    </defs>
    <g id="download/bold" stroke="none" stroke-width="1" fill="none" fill-rule="evenodd">
        <mask id="mask-2" fill="white">
            <use xlink:href="#path-1"></use>
        </mask>
        <use id="Mask" fill="#5AA617" fill-rule="nonzero" xlink:href="#path-1"></use>
    </g>
</svg>