<?xml version="1.0" encoding="UTF-8"?>
<svg width="32px" height="32px" viewBox="0 0 32 32" version="1.1" xmlns="http://www.w3.org/2000/svg" xmlns:xlink="http://www.w3.org/1999/xlink">
    <title>download/regular</title>
    <g id="download/regular" stroke="none" stroke-width="1" fill="none" fill-rule="evenodd">
        <path d="M26.3333333,26 C26.8856181,26 27.3333333,26.4477153 27.3333333,27 C27.3333333,27.5128358 26.9472931,27.9355072 26.4499545,27.9932723 L26.3333333,28 L5,28 C4.44771525,28 4,27.5522847 4,27 C4,26.4871642 4.38604019,26.0644928 4.88337887,26.0067277 L5,26 L26.3333333,26 Z M15.6666667,2 C16.1795025,2 16.6021738,2.38604019 16.6599389,2.88337887 L16.6666667,3 L16.666,19.252 L21.6262266,14.2928932 C21.9867105,13.9324093 22.5539416,13.9046797 22.9462328,14.2097046 L23.0404401,14.2928932 C23.4009241,14.6533772 23.4286536,15.2206082 23.1236287,15.6128994 L23.0404401,15.7071068 L15.6666667,23.0808802 L8.29289322,15.7071068 C7.90236893,15.3165825 7.90236893,14.6834175 8.29289322,14.2928932 C8.65337718,13.9324093 9.22060824,13.9046797 9.61289944,14.2097046 L9.70710678,14.2928932 L14.666,19.252 L14.6666667,3 C14.6666667,2.44771525 15.1143819,2 15.6666667,2 Z" id="Combined-Shape" fill="#E21B23" fill-rule="nonzero"></path>
    </g>
</svg>