<?xml version="1.0" encoding="UTF-8"?>
<svg width="32px" height="32px" viewBox="0 0 32 32" version="1.1" xmlns="http://www.w3.org/2000/svg" xmlns:xlink="http://www.w3.org/1999/xlink">
    <title>cloud/bold</title>
    <defs>
        <path d="M17.3555164,6.50504089 C14.3569347,6.60229101 11.6339001,8.10065767 9.93538823,10.4775533 L9.883,10.553 L9.68383514,10.5308515 C9.45744879,10.5103376 9.22932808,10.5 9,10.5 C4.85786437,10.5 1.5,13.8578644 1.5,18 C1.5,22.1421356 4.85786437,25.5 9,25.5 L25,25.5 C28.4057559,25.5 31.1666667,22.7390893 31.1666667,19.3333333 L31.1622983,19.0995754 C31.0635662,16.4617088 29.3008647,14.2216049 26.8586345,13.45167 L26.817,13.439 L26.80842,13.4069828 C25.6710206,9.3826143 21.9723538,6.5 17.6666667,6.5 L17.3555164,6.50504089 Z M17.6666667,9.5 C20.8628982,9.5 23.571606,11.8231894 24.0812263,14.9420067 L24.2631113,16.0551224 L25.3829631,16.1894379 C26.9627349,16.3789164 28.1666667,17.7266021 28.1666667,19.3333333 C28.1666667,21.082235 26.7489017,22.5 25,22.5 L9,22.5 C6.51471862,22.5 4.5,20.4852814 4.5,18 C4.5,15.5147186 6.51471862,13.5 9,13.5 C9.41510391,13.5 9.8212917,13.5558116 10.2117056,13.664622 L11.3678683,13.9868504 L11.9358348,12.9295154 C13.0614035,10.8341396 15.2455926,9.5 17.6666667,9.5 Z" id="path-1"></path>
    </defs>
    <g id="cloud/bold" stroke="none" stroke-width="1" fill="none" fill-rule="evenodd">
        <mask id="mask-2" fill="white">
            <use xlink:href="#path-1"></use>
        </mask>
        <use id="Mask" fill="#5AA617" fill-rule="nonzero" xlink:href="#path-1"></use>
    </g>
</svg>