<?xml version="1.0" encoding="UTF-8"?>
<svg width="32px" height="32px" viewBox="0 0 32 32" version="1.1" xmlns="http://www.w3.org/2000/svg" xmlns:xlink="http://www.w3.org/1999/xlink">
    <title>cloud/regular</title>
    <g id="cloud/regular" stroke="none" stroke-width="1" fill="none" fill-rule="evenodd">
        <path d="M17.3629718,7.00506851 C14.4365387,7.10284529 11.7882425,8.60905617 10.1936538,10.9826086 L10.123,11.089 L9.76511318,11.041418 C9.51231674,11.0138934 9.25700167,11 9,11 C5.13400674,11 2,14.1340067 2,18 C2,21.8659933 5.13400674,25 9,25 L25,25 C28.1296135,25 30.6666667,22.4629469 30.6666667,19.3333333 L30.6619771,19.1011992 C30.5622437,16.6366602 28.8816727,14.552815 26.5737122,13.8879922 L26.405,13.842 L26.3850799,13.7577318 C25.3804557,9.8339572 21.8218239,7 17.6666667,7 L17.3629718,7.00506851 Z M17.6666667,9 C21.108881,9 24.0257024,11.501683 24.574682,14.8613752 L24.6959387,15.6034523 L25.4425066,15.692996 C27.2728657,15.91253 28.6666667,17.472756 28.6666667,19.3333333 C28.6666667,21.3583774 27.0250441,23 25,23 L9,23 C6.23857624,23 4,20.7614238 4,18 C4,15.2385762 6.23857624,13 9,13 C9.46058396,13 9.91192678,13.062016 10.3459421,13.1829784 L11.1167173,13.3977973 L11.4953616,12.6929073 C12.7072183,10.4368964 15.059636,9 17.6666667,9 Z" id="Path" fill="#E21B23" fill-rule="nonzero"></path>
    </g>
</svg>