<?xml version="1.0" encoding="UTF-8"?>
<svg width="32px" height="32px" viewBox="0 0 32 32" version="1.1" xmlns="http://www.w3.org/2000/svg" xmlns:xlink="http://www.w3.org/1999/xlink">
    <title>settings/bold</title>
    <defs>
        <path d="M19.7478055,2.5 L21.053,6.417 L21.2274001,6.50932866 C21.3550893,6.57978808 21.4813266,6.65281558 21.6060378,6.72836075 L21.6060378,6.72836075 L21.77,6.832 L25.8174402,6.00430523 L29.5652457,12.4956948 L26.825,15.585 L26.8333333,16 C26.8333333,16.1217968 26.8313174,16.2433751 26.8272942,16.3646996 L26.8272942,16.3646996 L26.825,16.414 L29.5652457,19.5043052 L25.8174402,25.9956947 L21.77,25.167 L21.6060376,25.2716393 C21.4813265,25.3471845 21.3550892,25.420212 21.2274,25.4906714 L21.2274,25.4906714 L21.053,25.582 L19.7478055,29.5 L12.2521945,29.5 L10.946,25.582 L10.7726001,25.4906715 C10.644911,25.4202121 10.5186736,25.3471846 10.3939625,25.2716394 L10.3939625,25.2716394 L10.229,25.167 L6.1825598,25.9956947 L2.4347543,19.5043052 L5.174,16.414 L5.16666667,16 C5.16666667,15.8782033 5.16868257,15.7566252 5.17270583,15.6353008 L5.17270583,15.6353008 L5.174,15.585 L2.4347543,12.4956948 L6.1825598,6.00430523 L10.229,6.832 L10.3939624,6.72836068 C10.5186735,6.65281551 10.6449108,6.579788 10.7726,6.50932858 L10.7726,6.50932858 L10.946,6.417 L12.2521945,2.5 L19.7478055,2.5 Z M17.585,5.5 L14.414,5.5 L13.3866942,8.58333396 L12.7874382,8.85320504 C12.3063945,9.06984001 11.8485425,9.33486537 11.4206527,9.64378367 L11.4206527,9.64378367 L10.8868826,10.029143 L7.699,9.377 L6.113,12.123 L8.27130801,14.5559637 L8.20597291,15.2092296 C8.1798355,15.4705697 8.16666667,15.734353 8.16666667,16 C8.16666667,16.265647 8.1798355,16.5294303 8.20597291,16.7907704 L8.20597291,16.7907704 L8.27130801,17.4440363 L6.113,19.876 L7.699,22.622 L10.8868825,21.9708571 L11.4206526,22.3562163 C11.8485425,22.6651347 12.3063946,22.9301601 12.7874382,23.146795 L12.7874382,23.146795 L13.3866942,23.4166661 L14.414,26.5 L17.585,26.5 L18.6133059,23.4166661 L19.2125618,23.146795 C19.6936055,22.93016 20.1514576,22.6651346 20.5793474,22.3562164 L20.5793474,22.3562164 L21.1131174,21.9708571 L24.3,22.622 L25.886,19.876 L23.7286919,17.4440361 L23.7940271,16.7907701 C23.8201645,16.5294306 23.8333333,16.2656474 23.8333333,16 C23.8333333,15.7343526 23.8201645,15.4705694 23.7940271,15.2092299 L23.7940271,15.2092299 L23.7286918,14.5559639 L25.886,12.123 L24.3,9.377 L21.1131174,10.029143 L20.5793473,9.64378363 C20.1514576,9.33486544 19.6936056,9.06984005 19.2125618,8.85320501 L19.2125618,8.85320501 L18.6133059,8.58333393 L17.585,5.5 Z M16,13.1666667 C17.5648068,13.1666667 18.8333333,14.4351932 18.8333333,16 C18.8333333,17.5648068 17.5648068,18.8333333 16,18.8333333 C14.4351932,18.8333333 13.1666667,17.5648068 13.1666667,16 C13.1666667,14.4351932 14.4351932,13.1666667 16,13.1666667 Z" id="path-1"></path>
    </defs>
    <g id="settings/bold" stroke="none" stroke-width="1" fill="none" fill-rule="evenodd">
        <mask id="mask-2" fill="white">
            <use xlink:href="#path-1"></use>
        </mask>
        <use id="Mask" fill="#5AA617" fill-rule="nonzero" xlink:href="#path-1"></use>
    </g>
</svg>