<?xml version="1.0" encoding="UTF-8"?>
<svg width="32px" height="32px" viewBox="0 0 32 32" version="1.1" xmlns="http://www.w3.org/2000/svg" xmlns:xlink="http://www.w3.org/1999/xlink">
    <title>settings/regular</title>
    <g id="settings/regular" stroke="none" stroke-width="1" fill="none" fill-rule="evenodd">
        <path d="M19.3874259,3 L20.643,6.766 L20.9858749,6.94712498 C21.1076628,7.01432876 21.2280682,7.08398321 21.34702,7.15604033 L21.34702,7.15604033 L21.672,7.362 L25.5646173,6.56640312 L28.9520431,12.4335969 L26.315,15.406 L26.3275703,15.6519163 L26.3333333,16 L26.3275703,16.3480837 L26.315,16.593 L28.9520431,19.5664031 L25.5646173,25.4335969 L21.672,24.637 L21.3470199,24.8439598 C21.2280681,24.9160169 21.1076627,24.9856713 20.9858748,25.0528751 L20.9858748,25.0528751 L20.643,25.233 L19.3874259,29 L12.6125741,29 L11.356,25.233 L11.0141253,25.0528752 C10.8923374,24.9856714 10.7719321,24.9160169 10.6529803,24.8439598 L10.6529803,24.8439598 L10.327,24.637 L6.43538269,25.4335968 L3.04795681,19.5664031 L5.684,16.593 L5.67242967,16.3480834 L5.66666667,16 L5.67242967,15.6519166 L5.684,15.406 L3.04795681,12.4335969 L6.4353827,6.56640312 L10.327,7.362 L10.6529802,7.15604026 C10.771932,7.08398314 10.8923373,7.01432869 11.0141252,6.94712491 L11.0141252,6.94712491 L11.356,6.766 L12.6125741,3 L19.3874259,3 Z M17.945,5 L14.054,5 L12.9816296,8.21738887 L12.5821256,8.39730293 C12.0702564,8.62781993 11.5831438,8.90978272 11.1279779,9.23839313 L11.1279779,9.23839313 L10.7721312,9.49529935 L7.446,8.815 L5.5,12.185 L7.75201169,14.7239608 L7.70845496,15.1594714 C7.68066455,15.4373392 7.66666667,15.7177292 7.66666667,16 C7.66666667,16.2822708 7.68066455,16.5626608 7.70845496,16.8405286 L7.70845496,16.8405286 L7.75201169,17.2760392 L5.5,19.814 L7.446,23.184 L10.7721312,22.5047007 L11.1279779,22.7616069 C11.5831438,23.0902173 12.0702565,23.3721801 12.5821256,23.6026971 L12.5821256,23.6026971 L12.9816296,23.7826112 L14.054,27 L17.945,27 L19.0183704,23.7826112 L19.4178744,23.6026971 C19.9297436,23.3721801 20.4168563,23.0902173 20.8720221,22.7616069 L20.8720221,22.7616069 L21.2278688,22.5047007 L24.553,23.184 L26.499,19.814 L24.2479882,17.2760391 L24.291545,16.8405284 C24.3193355,16.5626611 24.3333333,16.2822712 24.3333333,16 C24.3333333,15.7177288 24.3193355,15.4373389 24.291545,15.1594716 L24.291545,15.1594716 L24.2479882,14.7239609 L26.499,12.185 L24.553,8.815 L21.2278688,9.49529935 L20.8720221,9.23839311 C20.4168564,8.90978279 19.9297437,8.62781998 19.4178744,8.39730291 L19.4178744,8.39730291 L19.0183704,8.21738885 L17.945,5 Z M16,13.6666667 C17.2886644,13.6666667 18.3333333,14.7113356 18.3333333,16 C18.3333333,17.2886644 17.2886644,18.3333333 16,18.3333333 C14.7113356,18.3333333 13.6666667,17.2886644 13.6666667,16 C13.6666667,14.7113356 14.7113356,13.6666667 16,13.6666667 Z M16,15.6666667 C15.8159051,15.6666667 15.6666667,15.8159051 15.6666667,16 C15.6666667,16.1840949 15.8159051,16.3333333 16,16.3333333 C16.1840949,16.3333333 16.3333333,16.1840949 16.3333333,16 C16.3333333,15.8159051 16.1840949,15.6666667 16,15.6666667 Z" id="Combined-Shape" fill="#E21B23" fill-rule="nonzero"></path>
    </g>
</svg>