<?xml version="1.0" encoding="UTF-8"?>
<svg width="32px" height="32px" viewBox="0 0 32 32" version="1.1" xmlns="http://www.w3.org/2000/svg" xmlns:xlink="http://www.w3.org/1999/xlink">
    <title>mtu-intl/bold</title>
    <defs>
        <path d="M19.6666667,1.5 C21.2063512,1.5 22.8802636,2.5291743 22.9938751,4.15668703 L23,4.33333333 L23.0008652,14.6612787 C26.1456138,15.3482737 28.5,18.1491887 28.5,21.5 C28.5,25.0271634 25.8912714,27.9450256 22.4980044,28.4293963 L22.5,28.3333333 C22.5,29.8401843 21.3236982,31.0722953 19.8392654,31.1614958 L19.6666667,31.1666667 L6.33333333,31.1666667 C4.82648236,31.1666667 3.59437135,29.9903649 3.50517088,28.5059321 L3.5,28.3333333 L3.5,4.33333333 C3.5,2.82648235 4.6763017,1.59437135 6.16073457,1.50517088 L6.33333333,1.5 L19.6666667,1.5 Z M8.833,4.5 L6.5,4.5 L6.5,28.166 L19.3602067,28.1669085 C16.5408022,27.2627272 14.5,24.619691 14.5,21.5 C14.5,19.5184784 15.3233327,17.7292564 16.6465611,16.4557712 C16.4348155,16.4069958 16.231264,16.3088112 16.0532622,16.1636304 L15.9393398,16.0606602 L14,14.121 L14,23 C14,23.8284271 13.3284271,24.5 12.5,24.5 C11.7203039,24.5 11.0795513,23.9051119 11.0068666,23.14446 L11,23 L11,15.12 L10.0606602,16.0606602 C9.51148539,16.609835 8.64242298,16.6441584 8.05326224,16.1636304 L7.93933983,16.0606602 C7.39016504,15.5114854 7.35584162,14.642423 7.83636956,14.0532622 L7.93933983,13.9393398 L11.005,10.873 L11.0068666,10.85554 C11.0755725,10.1365272 11.6518548,9.56562672 12.3732746,9.50527756 L13,8.87867966 L18.0606602,13.9393398 C18.399638,14.2783176 18.5424591,14.7391716 18.4891234,15.1808493 C18.9649058,14.9516985 19.4713501,14.7764961 20.0001338,14.6610606 L20,4.6 L19.9770497,4.58762932 C19.8940484,4.54779598 19.8007375,4.51842116 19.7294354,4.50622333 L19.6666667,4.5 L17.166,4.5 L17.1666667,5.83333333 L8.83333333,5.83333333 L8.833,4.5 Z M17.8772556,23.2015329 L17.955156,23.3548859 C18.6237797,24.6300593 19.9602971,25.5 21.5,25.5 C23.0596266,25.5 24.4107753,24.6073996 25.0704634,23.3051813 C23.9387617,23.4351326 22.8244092,23.5 21.7262282,23.5 C20.3689038,23.5 19.0858226,23.4009001 17.8772556,23.2015329 Z M21.5,17.5 C19.8453993,17.5 18.4254403,18.5046209 17.8168221,19.9371639 L17.742,20.126 L17.7847907,20.1352808 C18.9883895,20.3777655 20.3020484,20.5 21.7262282,20.5 C22.8925806,20.5 24.083643,20.4180026 25.299691,20.253658 C24.7767132,18.6536469 23.2730809,17.5 21.5,17.5 Z" id="path-1"></path>
    </defs>
    <g id="mtu-intl/bold" stroke="none" stroke-width="1" fill="none" fill-rule="evenodd">
        <mask id="mask-2" fill="white">
            <use xlink:href="#path-1"></use>
        </mask>
        <use id="Mask" fill="#5AA617" fill-rule="nonzero" xlink:href="#path-1"></use>
    </g>
</svg>