<?xml version="1.0" encoding="UTF-8"?>
<svg width="32px" height="32px" viewBox="0 0 32 32" version="1.1" xmlns="http://www.w3.org/2000/svg" xmlns:xlink="http://www.w3.org/1999/xlink">
    <title>mtu-intl/regular</title>
    <g id="mtu-intl/regular" stroke="none" stroke-width="1" fill="none" fill-rule="evenodd">
        <path d="M19.6666667,2 C20.9676204,2 22.386316,2.86905933 22.4935219,4.17460091 L22.5,4.33333333 L22.5,15 L22.4958992,15.0758163 C25.6129968,15.5550905 28,18.248788 28,21.5 C28,24.9432298 25.3227159,27.7611465 21.9363096,27.9855881 C21.9778139,28.0926297 22,28.2103906 22,28.3333333 C22,29.5683033 21.0405731,30.5791873 19.826421,30.6612836 L19.6666667,30.6666667 L6.33333333,30.6666667 C5.09836328,30.6666667 4.08747935,29.7072398 4.00538306,28.4930877 L4,28.3333333 L4,4.33333333 C4,3.09836327 4.95942684,2.08747935 6.17357901,2.00538306 L6.33333333,2 L19.6666667,2 Z M9.333,4 L6.33333333,4 C6.17225028,4 6.03785424,4.11426066 6.00677215,4.26615504 L6,4.33333333 L6,28.3333333 C6,28.4944164 6.11426069,28.6288124 6.26615505,28.6598945 L6.33333333,28.6666667 L19.6666667,28.6666667 C19.8507615,28.6666667 20,28.5174282 20,28.3333333 C20,28.1591006 20.044559,27.9952753 20.1229029,27.8526312 C17.1949426,27.222687 15,24.6176716 15,21.5 C15,18.248788 17.3870032,15.5550905 20.5041008,15.0758163 L20.5,15 L20.5,4.33333333 C20.5,4.28837122 20.1305228,4.04967631 19.7731378,4.00664882 L19.6666667,4 L16.666,4 L16.6666667,5.33333333 L9.33333333,5.33333333 L9.333,4 Z M17.1223119,22.5512315 L17.1698449,22.7288791 C17.7045895,24.616834 19.4407669,26 21.5,26 C23.5686048,26 25.3112066,24.6042157 25.8373813,22.7030714 C24.441381,22.900944 23.0710635,23 21.7262282,23 C20.076365,23 18.5416112,22.8509058 17.1223119,22.5512315 Z M13,9.58578644 L17.7071068,14.2928932 C18.0976311,14.6834175 18.0976311,15.3165825 17.7071068,15.7071068 C17.3466228,16.0675907 16.7793918,16.0953203 16.3871006,15.7902954 L16.2928932,15.7071068 L13.5,12.915 L13.5,23 C13.5,23.5522847 13.0522847,24 12.5,24 C11.9871642,24 11.5644928,23.6139598 11.5067277,23.1166211 L11.5,23 L11.5,13.915 L9.70710678,15.7071068 C9.34662282,16.0675907 8.77939176,16.0953203 8.38710056,15.7902954 L8.29289322,15.7071068 C7.93240926,15.3466228 7.90467972,14.7793918 8.20970461,14.3871006 L8.29289322,14.2928932 L11.5,11.085 L11.5,11 C11.5,10.4477153 11.9477153,10 12.5,10 L12.581,10.004 L13,9.58578644 Z M21.5,17 C19.3697588,17 17.5852372,18.4802014 17.1188482,20.4681913 L17.1106031,20.5060396 C17.1488756,20.5103467 17.1873022,20.5169058 17.2257329,20.5258108 C18.5873204,20.841309 20.0873397,21 21.7262282,21 C23.0928095,21 24.4916018,20.889651 25.922884,20.6685987 C25.5321647,18.5795067 23.7005391,17 21.5,17 Z" id="Combined-Shape" fill="#E21B23" fill-rule="nonzero"></path>
    </g>
</svg>