<?xml version="1.0" encoding="UTF-8"?>
<svg width="32px" height="32px" viewBox="0 0 32 32" version="1.1" xmlns="http://www.w3.org/2000/svg" xmlns:xlink="http://www.w3.org/1999/xlink">
    <title>bank/bold</title>
    <defs>
        <path d="M28,25 C28.8284271,25 29.5,25.6715729 29.5,26.5 C29.5,27.2796961 28.9051119,27.9204487 28.14446,27.9931334 L28,28 L4,28 C3.17157288,28 2.5,27.3284271 2.5,26.5 C2.5,25.7203039 3.09488808,25.0795513 3.85553999,25.0068666 L4,25 L28,25 Z M6.5,16.5 C7.27969612,16.5 7.92044868,17.0948881 7.99313342,17.85554 L8,18 L8,22 C8,22.8284271 7.32842712,23.5 6.5,23.5 C5.72030388,23.5 5.07955132,22.9051119 5.00686658,22.14446 L5,22 L5,18 C5,17.1715729 5.67157288,16.5 6.5,16.5 Z M13.5,16.5 C14.2796961,16.5 14.9204487,17.0948881 14.9931334,17.85554 L15,18 L15,22 C15,22.8284271 14.3284271,23.5 13.5,23.5 C12.7203039,23.5 12.0795513,22.9051119 12.0068666,22.14446 L12,22 L12,18 C12,17.1715729 12.6715729,16.5 13.5,16.5 Z M20.5,16.5 C21.2796961,16.5 21.9204487,17.0948881 21.9931334,17.85554 L22,18 L22,22 C22,22.8284271 21.3284271,23.5 20.5,23.5 C19.7203039,23.5 19.0795513,22.9051119 19.0068666,22.14446 L19,22 L19,18 C19,17.1715729 19.6715729,16.5 20.5,16.5 Z M26.5,16.5 C27.2796961,16.5 27.9204487,17.0948881 27.9931334,17.85554 L28,18 L28,22 C28,22.8284271 27.3284271,23.5 26.5,23.5 C25.7203039,23.5 25.0795513,22.9051119 25.0068666,22.14446 L25,22 L25,18 C25,17.1715729 25.6715729,16.5 26.5,16.5 Z M15.1679497,3.75192456 C15.6717988,3.41602515 16.3282012,3.41602515 16.8320503,3.75192456 L16.8320503,3.75192456 L28.8320503,11.7519246 C30.0669061,12.5751617 29.4841119,14.5 28,14.5 L28,14.5 L4,14.5 C2.51588806,14.5 1.93309393,12.5751617 3.16794971,11.7519246 L3.16794971,11.7519246 Z M16,6.803 L8.954,11.5 L23.045,11.5 L16,6.803 Z" id="path-1"></path>
    </defs>
    <g id="bank/bold" stroke="none" stroke-width="1" fill="none" fill-rule="evenodd">
        <mask id="mask-2" fill="white">
            <use xlink:href="#path-1"></use>
        </mask>
        <use id="Mask" fill="#5AA617" fill-rule="nonzero" xlink:href="#path-1"></use>
    </g>
</svg>