<?xml version="1.0" encoding="UTF-8"?>
<svg width="32px" height="32px" viewBox="0 0 32 32" version="1.1" xmlns="http://www.w3.org/2000/svg" xmlns:xlink="http://www.w3.org/1999/xlink">
    <title>bank/regular</title>
    <g id="bank/regular" stroke="none" stroke-width="1" fill="none" fill-rule="evenodd">
        <path d="M28,25.7452616 C28.5522847,25.7452616 29,26.1929768 29,26.7452616 C29,27.2580974 28.6139598,27.6807687 28.1166211,27.7385338 L28,27.7452616 L4,27.7452616 C3.44771525,27.7452616 3,27.2975463 3,26.7452616 C3,26.2324257 3.38604019,25.8097544 3.88337887,25.7519893 L4,25.7452616 L28,25.7452616 Z M6.5,17.2452616 C7.01283584,17.2452616 7.43550716,17.6313018 7.49327227,18.1286404 L7.5,18.2452616 L7.5,22.2452616 C7.5,22.7975463 7.05228475,23.2452616 6.5,23.2452616 C5.98716416,23.2452616 5.56449284,22.8592214 5.50672773,22.3618827 L5.5,22.2452616 L5.5,18.2452616 C5.5,17.6929768 5.94771525,17.2452616 6.5,17.2452616 Z M13.5,17.2452616 C14.0128358,17.2452616 14.4355072,17.6313018 14.4932723,18.1286404 L14.5,18.2452616 L14.5,22.2452616 C14.5,22.7975463 14.0522847,23.2452616 13.5,23.2452616 C12.9871642,23.2452616 12.5644928,22.8592214 12.5067277,22.3618827 L12.5,22.2452616 L12.5,18.2452616 C12.5,17.6929768 12.9477153,17.2452616 13.5,17.2452616 Z M20.5,17.2452616 C21.0128358,17.2452616 21.4355072,17.6313018 21.4932723,18.1286404 L21.5,18.2452616 L21.5,22.2452616 C21.5,22.7975463 21.0522847,23.2452616 20.5,23.2452616 C19.9871642,23.2452616 19.5644928,22.8592214 19.5067277,22.3618827 L19.5,22.2452616 L19.5,18.2452616 C19.5,17.6929768 19.9477153,17.2452616 20.5,17.2452616 Z M26.5,17.2452616 C27.0128358,17.2452616 27.4355072,17.6313018 27.4932723,18.1286404 L27.5,18.2452616 L27.5,22.2452616 C27.5,22.7975463 27.0522847,23.2452616 26.5,23.2452616 C25.9871642,23.2452616 25.5644928,22.8592214 25.5067277,22.3618827 L25.5,22.2452616 L25.5,18.2452616 C25.5,17.6929768 25.9477153,17.2452616 26.5,17.2452616 Z M15.4452998,4.41321128 C15.7811992,4.18927834 16.2188008,4.18927834 16.5547002,4.41321128 L16.5547002,4.41321128 L28.5547002,12.4132113 C29.3779374,12.9620361 28.989408,14.2452616 28,14.2452616 L28,14.2452616 L4,14.2452616 C3.01059204,14.2452616 2.62206262,12.9620361 3.4452998,12.4132113 L3.4452998,12.4132113 Z M16,6.447 L7.302,12.245 L24.697,12.245 L16,6.447 Z" id="Combined-Shape" fill="#E21B23" fill-rule="nonzero"></path>
    </g>
</svg>