<?xml version="1.0" encoding="UTF-8"?>
<svg width="32px" height="32px" viewBox="0 0 32 32" version="1.1" xmlns="http://www.w3.org/2000/svg" xmlns:xlink="http://www.w3.org/1999/xlink">
    <title>basketball/bold</title>
    <g id="basketball/bold" stroke="none" stroke-width="1" fill="none" fill-rule="evenodd">
        <path d="M16.3333333,1.5 C24.5255571,1.5 31.1666667,8.14110954 31.1666667,16.3333333 C31.1666667,24.5255571 24.5255571,31.1666667 16.3333333,31.1666667 C8.14110954,31.1666667 1.5,24.5255571 1.5,16.3333333 C1.5,8.14110954 8.14110954,1.5 16.3333333,1.5 Z M18.1644747,16.4129005 L17.9584851,16.7501852 C17.8834057,16.8750299 17.8091779,17.0009754 17.7358427,17.127992 C15.470031,21.052549 14.5163119,25.2032091 15.0278845,28.094983 C15.4570606,28.142548 15.8923803,28.1666667 16.3333333,28.1666667 C18.6607599,28.1666667 20.8312501,27.4947419 22.6614021,26.3342939 C22.8045902,23.0617352 21.1584839,19.3494526 18.1644747,16.4129005 Z M13.4838225,13.118545 L13.4598087,13.1588604 C11.1985792,16.7941535 8.28183373,19.6112784 5.42976216,20.9360992 C6.65326089,23.8341241 8.99945712,26.1425716 11.9231833,27.3175371 C11.7030121,23.8423835 12.8461507,19.5972435 15.1377713,15.6279837 C15.3621987,15.2392754 15.5944265,14.8587795 15.8337055,14.4871616 C15.0710673,13.9578075 14.28304,13.5010854 13.4838225,13.118545 Z M25.8568331,9.30845823 L25.6398043,9.39097141 C23.7583855,10.1434028 21.7299618,11.7532471 19.9286,13.9491316 C22.9481276,16.779681 24.9162125,20.3248017 25.494004,23.8249169 C27.1642908,21.784615 28.1666667,19.1760329 28.1666667,16.3333333 C28.1666667,13.7030266 27.3084806,11.27316 25.8568331,9.30845823 Z M5.38311708,11.9014739 L5.35516133,11.9082039 C4.80362343,13.2751927 4.5,14.7688055 4.5,16.3333333 C4.5,16.8965188 4.53934337,17.4505151 4.61543155,17.9927237 C6.62764697,16.9173668 8.79964393,14.8070531 10.5947638,12.0711905 C8.77720643,11.6136179 6.98738312,11.5491087 5.38311708,11.9014739 Z M16.8969585,4.51318644 L16.8938676,4.53422052 C16.5560383,6.45078786 15.8868641,8.48095812 14.9273779,10.4842869 C15.8394798,10.930614 16.734521,11.4566669 17.5982678,12.0592326 C19.437096,9.81436312 21.5267961,8.06052843 23.6246222,7.0129926 C21.7537306,5.54675236 19.4294356,4.63193907 16.8969585,4.51318644 Z M13.7863402,4.77490404 L13.7005894,4.79393242 C11.1636933,5.37030932 8.93655174,6.76180348 7.30912285,8.6784569 C8.88124121,8.65345127 10.5101885,8.89335046 12.1265947,9.38135064 C12.8913782,7.82388398 13.4520899,6.25605621 13.7863402,4.77490404 Z" id="Combined-Shape" fill="#5AA617" fill-rule="nonzero"></path>
    </g>
</svg>