<?xml version="1.0" encoding="UTF-8"?>
<svg width="32px" height="32px" viewBox="0 0 32 32" version="1.1" xmlns="http://www.w3.org/2000/svg" xmlns:xlink="http://www.w3.org/1999/xlink">
    <title>basketball/regular</title>
    <g id="basketball/regular" stroke="none" stroke-width="1" fill="none" fill-rule="evenodd">
        <path d="M16.3333333,2 C24.2494147,2 30.6666667,8.41725192 30.6666667,16.3333333 C30.6666667,24.2494147 24.2494147,30.6666667 16.3333333,30.6666667 C8.41725192,30.6666667 2,24.2494147 2,16.3333333 C2,8.41725192 8.41725192,2 16.3333333,2 Z M18.0712796,15.6355296 L17.9830415,15.7675485 C17.7490915,16.1279581 17.5220169,16.4983602 17.3028285,16.8779947 C14.8894204,21.0581995 13.9239561,25.5061619 14.6087534,28.546162 C15.1726716,28.625925 15.7482446,28.6666667 16.3333333,28.6666667 C18.8522072,28.6666667 21.1947165,27.9115603 23.1468445,26.6153642 C23.4077799,22.9712393 21.5233144,18.8012322 18.0712796,15.6355296 Z M13.2892856,12.4779577 L13.4999072,12.1195702 C11.1163401,16.2480644 7.86556564,19.4122293 4.78448213,20.6727045 C6.09522989,24.1586621 8.93961789,26.8947248 12.4957853,28.0579488 C12.0417456,24.5688133 13.1492628,20.0722411 15.5707809,15.8779891 C15.8721985,15.3559336 16.1878549,14.8491596 16.5158013,14.3593436 C15.4806836,13.5994258 14.3939643,12.9705365 13.2892856,12.4779577 Z M26.0361135,8.71886206 L25.7821323,8.8034762 C23.617047,9.56794985 21.2691981,11.4275367 19.2458172,14.000751 C22.6995369,17.0944221 24.823309,21.1254287 25.1320638,24.9753389 C27.3181662,22.7505879 28.6666667,19.6994402 28.6666667,16.3333333 C28.6666667,13.4597124 27.6838913,10.815631 26.0361135,8.71886206 Z M5.25134209,11.4185484 L4.99094362,11.4815923 C4.35312924,12.9707321 4,14.6107939 4,16.3333333 C4,17.1547672 4.08030462,17.957445 4.23349143,18.7339441 C6.64077255,17.6744738 9.3030584,15.1311403 11.3805776,11.7679311 C9.25568827,11.1293332 7.13604558,10.9994756 5.25134209,11.4185484 Z M14.2759092,10.6779504 L14.2539606,10.7193499 C15.4357247,11.2587341 16.5922647,11.9351224 17.6928639,12.7414871 C19.7641772,10.111548 22.1818849,8.1308142 24.5525419,7.13630259 C22.3710787,5.18648813 19.4907656,4 16.3333333,4 L16.4742992,4.0010345 C16.1554403,6.12864407 15.4024845,8.42521239 14.2759092,10.6779504 Z M14.4235032,4.14762778 L14.2454414,4.17599505 C10.9461507,4.73856403 8.09362918,6.61154129 6.24239694,9.24040677 C8.21083553,9.04453952 10.3103753,9.30552473 12.3826119,9.98620369 C13.3959348,8.00917676 14.0912092,6.0013497 14.4235032,4.14762778 Z" id="Combined-Shape" fill="#E21B23" fill-rule="nonzero"></path>
    </g>
</svg>