<?xml version="1.0" encoding="UTF-8"?>
<svg width="32px" height="32px" viewBox="0 0 32 32" version="1.1" xmlns="http://www.w3.org/2000/svg" xmlns:xlink="http://www.w3.org/1999/xlink">
    <title>compliance/bold</title>
    <g id="compliance/bold" stroke="none" stroke-width="1" fill="none" fill-rule="evenodd">
        <path d="M18.3157895,1.5 C19.3500028,1.5 20.2563792,2.04733493 20.7610553,2.86814132 L26.6578947,2.86842105 L26.6578947,30.5 L4.5,30.5 L4.5,2.86842105 L10.3968394,2.86814131 C10.9015155,2.04733492 11.8078919,1.5 12.8421053,1.5 L12.8421053,1.5 Z M10.3968394,5.86870079 L7.499,5.868 L7.499,27.5 L23.657,27.5 L23.657,5.868 L20.7610553,5.86870079 C20.2563792,6.68950718 19.3500028,7.23684211 18.3157895,7.23684211 L18.3157895,7.23684211 L12.8421053,7.23684211 C11.8078919,7.23684211 10.9015155,6.68950718 10.3968394,5.86870079 Z M15.5789474,10.3947368 C19.4304068,10.3947368 22.5526316,13.5169616 22.5526316,17.3684211 C22.5526316,21.2198805 19.4304068,24.3421053 15.5789474,24.3421053 C11.7274879,24.3421053 8.60526316,21.2198805 8.60526316,17.3684211 C8.60526316,13.5169616 11.7274879,10.3947368 15.5789474,10.3947368 Z M19.5078882,16.7701305 L14.789561,21.2636994 C15.0446892,21.315121 15.308667,21.3421053 15.5789474,21.3421053 C17.7735526,21.3421053 19.5526316,19.5630262 19.5526316,17.3684211 C19.5526316,17.1650613 19.5373555,16.9652695 19.5078882,16.7701305 Z M15.5789474,13.3947368 C13.3843422,13.3947368 11.6052632,15.1738159 11.6052632,17.3684211 C11.6052632,19.2920346 12.9721045,20.8964053 14.787547,21.263293 L12.1117161,18.7152796 C11.5118206,18.1439505 11.4886629,17.1944854 12.0599919,16.5945899 C12.5956129,16.0321879 13.46358,15.9766843 14.0642823,16.4427039 L14.1806816,16.5428658 L14.788,17.121 L17.5854003,14.4576528 C17.7012134,14.3473545 17.8300552,14.259213 17.9666896,14.1931007 C17.3025055,13.6915818 16.4753924,13.3947368 15.5789474,13.3947368 Z" id="Combined-Shape" fill="#5AA617"></path>
    </g>
</svg>