<?xml version="1.0" encoding="UTF-8"?>
<svg width="32px" height="32px" viewBox="0 0 32 32" version="1.1" xmlns="http://www.w3.org/2000/svg" xmlns:xlink="http://www.w3.org/1999/xlink">
    <title>compliance/regular</title>
    <g id="compliance/regular" stroke="none" stroke-width="1" fill="none" fill-rule="evenodd">
        <path d="M18.3157895,2 C19.2662378,2 20.0859256,2.55985293 20.4630662,3.3677723 L26.1578947,3.36842105 L26.1578947,30 L5,30 L5,3.36842105 L10.6948285,3.36777229 C11.0719691,2.55985292 11.8916569,2 12.8421053,2 L12.8421053,2 Z M24.157,5.368 L20.4630662,5.3690698 C20.0859256,6.17698918 19.2662378,6.73684211 18.3157895,6.73684211 L18.3157895,6.73684211 L12.8421053,6.73684211 C11.8916569,6.73684211 11.0719691,6.17698919 10.6948285,5.36906981 L6.999,5.368 L6.999,28 L24.157,28 L24.157,5.368 Z M15.5789474,10.8947368 C19.1542644,10.8947368 22.0526316,13.793104 22.0526316,17.3684211 C22.0526316,20.9437381 19.1542644,23.8421053 15.5789474,23.8421053 C12.0036303,23.8421053 9.10526316,20.9437381 9.10526316,17.3684211 C9.10526316,13.793104 12.0036303,10.8947368 15.5789474,10.8947368 Z M15.5789474,12.8947368 C13.1081998,12.8947368 11.1052632,14.8976735 11.1052632,17.3684211 C11.1052632,19.8391686 13.1081998,21.8421053 15.5789474,21.8421053 C18.0496949,21.8421053 20.0526316,19.8391686 20.0526316,17.3684211 C20.0526316,16.675043 19.8948884,16.0185079 19.6133308,15.4327445 C19.6425895,15.6937104 19.5691288,15.9628283 19.3949991,16.1758466 L19.3095382,16.2679976 L14.7883041,20.5739348 L12.4565437,18.3532106 C12.0566133,17.9723246 12.0411749,17.3393478 12.4220609,16.9394175 C12.773648,16.570251 13.3400343,16.528699 13.7396463,16.8240679 L13.835854,16.9049348 L14.788,17.811 L17.9302279,14.8197217 C18.2785743,14.4879632 18.8037266,14.456885 19.1850979,14.7186679 C18.3698162,13.6127159 17.0582283,12.8947368 15.5789474,12.8947368 Z M18.3157895,4 L12.8421053,4 C12.6386319,4 12.4736842,4.16494772 12.4736842,4.36842105 C12.4736842,4.57189438 12.6386319,4.73684211 12.8421053,4.73684211 L12.8421053,4.73684211 L18.3157895,4.73684211 C18.5192628,4.73684211 18.6842105,4.57189435 18.6842105,4.36842105 C18.6842105,4.16494775 18.5192628,4 18.3157895,4 L18.3157895,4 Z" id="Combined-Shape" fill="#E21B23"></path>
    </g>
</svg>