<?xml version="1.0" encoding="UTF-8"?>
<svg width="32px" height="32px" viewBox="0 0 32 32" version="1.1" xmlns="http://www.w3.org/2000/svg" xmlns:xlink="http://www.w3.org/1999/xlink">
    <title>fingerprint/bold</title>
    <defs>
        <path d="M18.7723093,6.37931034 C24.3838313,6.37931034 28.8810049,11.2598215 28.8810049,17.2218082 C28.8810049,19.7121395 28.0946101,22.0802281 26.6719245,23.9891286 C25.312692,25.8128905 22.7632694,25.4223859 20.5371332,23.9340994 C19.6117328,23.3154216 18.8524694,22.5541122 18.4366921,21.7599372 C17.8283674,20.597978 17.9606469,19.3188771 19.0031351,18.4964949 L19.1509503,18.3872366 C19.8257049,17.9198437 20.4697672,16.7293811 20.4987372,15.8109344 C20.5235441,15.0244744 20.1586515,14.669131 18.7723093,14.669131 C17.3351971,14.669131 16.642828,15.3504125 16.3576097,16.8265271 C16.0937713,18.1919922 16.2962389,20.0588253 16.7653082,21.4651642 C18.0960889,25.45504 19.8066123,27 25.4692112,27 C26.2976384,27 26.9692112,27.6715729 26.9692112,28.5 C26.9692112,29.3284271 26.2976384,30 25.4692112,30 C18.3634913,30 15.6243597,27.5259919 13.9194343,22.4143752 C13.2984267,20.5525032 13.0409306,18.1782852 13.4120911,16.2573871 C13.9517207,13.4645967 15.7764068,11.669131 18.7723093,11.669131 C21.8143981,11.669131 23.576738,13.3853512 23.497246,15.9055146 C23.4461883,17.524212 22.5962597,19.2973295 21.4199293,20.3984332 L21.227,20.57 L21.2342092,20.5805057 C21.4096372,20.8067377 21.6877704,21.069835 22.0288723,21.3176989 L22.2044866,21.4401201 C23.2631934,22.1479201 24.1961181,22.2908196 24.2664979,22.1963869 C25.30338,20.8051415 25.8810049,19.0657265 25.8810049,17.2218082 C25.8810049,12.8643567 22.6696899,9.37931034 18.7723093,9.37931034 C14.8749287,9.37931034 11.6636136,12.8643567 11.6636136,17.2218082 C11.6636136,18.0502354 10.9920408,18.7218082 10.1636136,18.7218082 C9.33518651,18.7218082 8.66361364,18.0502354 8.66361364,17.2218082 C8.66361364,11.2598215 13.1607873,6.37931034 18.7723093,6.37931034 Z M8.79063201,21.2264053 C8.98575377,24.1124851 10.4190979,25.943844 13.2909446,26.9431774 C14.073355,27.2154373 14.4869136,28.0704165 14.2146537,28.8528269 C13.9423938,29.6352373 13.0874145,30.048796 12.3050041,29.776536 C8.31066553,28.3866026 6.07472575,25.5297812 5.79746483,21.4287671 C5.74158419,20.6022268 6.36632727,19.8868833 7.19286756,19.8310026 C8.01940786,19.775122 8.73475136,20.3998651 8.79063201,21.2264053 Z M18.2860571,1 C22.267067,1 25.9706588,2.70408035 28.5102304,5.60858595 C29.0555259,6.23223993 28.9920038,7.17986074 28.3683498,7.72515627 C27.7446959,8.2704518 26.797075,8.20692972 26.2517795,7.58327574 C24.2782789,5.32618499 21.3959924,4 18.2860571,4 C12.3387553,4 7,8.79275848 7,14.2348538 C7,15.063281 6.32842712,15.7348538 5.5,15.7348538 C4.67157288,15.7348538 4,15.063281 4,14.2348538 C4,7.05943347 10.7497314,1 18.2860571,1 Z" id="path-1"></path>
    </defs>
    <g id="fingerprint/bold" stroke="none" stroke-width="1" fill="none" fill-rule="evenodd">
        <mask id="mask-2" fill="white">
            <use xlink:href="#path-1"></use>
        </mask>
        <use id="Mask" fill="#5AA617" fill-rule="nonzero" xlink:href="#path-1"></use>
    </g>
</svg>