<?xml version="1.0" encoding="UTF-8"?>
<svg width="32px" height="32px" viewBox="0 0 32 32" version="1.1" xmlns="http://www.w3.org/2000/svg" xmlns:xlink="http://www.w3.org/1999/xlink">
    <title>fingerprint/regular</title>
    <g id="fingerprint/regular" stroke="none" stroke-width="1" fill="none" fill-rule="evenodd">
        <path d="M18.2723093,7.37931034 C23.5981411,7.37931034 27.8810049,12.0272441 27.8810049,17.7218082 C27.8810049,20.104404 27.1294051,22.3677136 25.7710201,24.1903383 C24.6265964,25.7258787 22.3465901,25.3766416 20.3150255,24.0184362 C19.4536115,23.4425367 18.7517748,22.7388087 18.3796581,22.0280296 C17.8790259,21.0717737 17.9761072,20.0660759 18.7928518,19.4051537 L18.9356604,19.29826 C19.7410391,18.7403856 20.4645364,17.4030979 20.4984887,16.3266978 C20.5324097,15.2512872 19.9346093,14.669131 18.2723093,14.669131 C16.5753987,14.669131 15.6943101,15.5361098 15.3666899,17.2316705 C15.0849645,18.6897077 15.2966035,20.641105 15.7909959,22.123366 C17.184134,26.3001986 19.0660921,28 24.9692112,28 C25.521496,28 25.9692112,28.4477153 25.9692112,29 C25.9692112,29.5522847 25.521496,30 24.9692112,30 C18.1040115,30 15.5363146,27.6808332 13.8937466,22.7561733 C13.298062,20.9702235 13.0497374,18.6805697 13.4030109,16.8522438 C13.9002386,14.2788993 15.5362052,12.669131 18.2723093,12.669131 C21.0384403,12.669131 22.5678724,14.1585384 22.4974945,16.3897512 C22.4436133,18.0979652 21.4023757,20.0225531 20.0745006,20.9423533 L20.061058,20.9487083 C20.0575477,20.9507909 20.0661501,20.9549135 20.0941243,20.9991648 L20.151522,21.1003993 C20.3489966,21.4775947 20.8211264,21.9509969 21.4265944,22.3557834 C22.6798728,23.1936644 23.8822138,23.3778315 24.1674024,22.9951772 C25.268585,21.5176559 25.8810049,19.673462 25.8810049,17.7218082 C25.8810049,13.0969342 22.4553802,9.37931034 18.2723093,9.37931034 C14.0892384,9.37931034 10.6636136,13.0969342 10.6636136,17.7218082 C10.6636136,18.274093 10.2158984,18.7218082 9.66361364,18.7218082 C9.11132889,18.7218082 8.66361364,18.274093 8.66361364,17.7218082 C8.66361364,12.0272441 12.9464775,7.37931034 18.2723093,7.37931034 Z M7.79177081,21.7601323 C8.00058243,24.8487011 9.56769254,26.8509704 12.6266212,27.9154038 C13.1482281,28.0969104 13.4239339,28.6668966 13.2424273,29.1885035 C13.0609206,29.7101104 12.4909345,29.9858162 11.9693275,29.8043096 C8.16207093,28.4794761 6.05989708,25.7935652 5.79632603,21.8950401 C5.75907227,21.3440133 6.17556765,20.8671176 6.72659452,20.8298638 C7.27762138,20.7926101 7.75451705,21.2091054 7.79177081,21.7601323 Z M17.7860571,2 C21.6218879,2 25.1885955,3.64109779 27.6338219,6.43770092 C27.9973522,6.85347024 27.9550042,7.48521744 27.5392349,7.8487478 C27.1234656,8.21227815 26.4917183,8.1699301 26.128188,7.75416078 C24.0603422,5.38916755 21.0411715,4 17.7860571,4 C11.573918,4 6,9.00387098 6,14.7348538 C6,15.2871386 5.55228475,15.7348538 5,15.7348538 C4.44771525,15.7348538 4,15.2871386 4,14.7348538 C4,7.84832097 10.5145687,2 17.7860571,2 Z" id="Combined-Shape" fill="#E21B23" fill-rule="nonzero"></path>
    </g>
</svg>