<?xml version="1.0" encoding="UTF-8"?>
<svg width="32px" height="32px" viewBox="0 0 32 32" version="1.1" xmlns="http://www.w3.org/2000/svg" xmlns:xlink="http://www.w3.org/1999/xlink">
    <title>search/bold</title>
    <defs>
        <path d="M13,3.5 C18.2467051,3.5 22.5,7.75329488 22.5,13 C22.5,15.0819334 21.8302914,17.0074481 20.6945516,18.5728665 L27.3939935,25.2726732 C27.9797799,25.8584596 27.9797799,26.8082071 27.3939935,27.3939935 C26.8448187,27.9431683 25.9757563,27.9774917 25.3865956,27.4969638 L25.2726732,27.3939935 L18.5728665,20.6945516 C17.0074481,21.8302914 15.0819334,22.5 13,22.5 C7.75329488,22.5 3.5,18.2467051 3.5,13 C3.5,7.75329488 7.75329488,3.5 13,3.5 Z M13,6.5 C9.41014913,6.5 6.5,9.41014913 6.5,13 C6.5,16.5898509 9.41014913,19.5 13,19.5 C16.5898509,19.5 19.5,16.5898509 19.5,13 C19.5,9.41014913 16.5898509,6.5 13,6.5 Z" id="path-1"></path>
    </defs>
    <g id="search/bold" stroke="none" stroke-width="1" fill="none" fill-rule="evenodd">
        <mask id="mask-2" fill="white">
            <use xlink:href="#path-1"></use>
        </mask>
        <use id="Mask" fill="#5AA617" fill-rule="nonzero" xlink:href="#path-1"></use>
    </g>
</svg>