<?xml version="1.0" encoding="UTF-8"?>
<svg width="32px" height="32px" viewBox="0 0 32 32" version="1.1" xmlns="http://www.w3.org/2000/svg" xmlns:xlink="http://www.w3.org/1999/xlink">
    <title>search/regular</title>
    <g id="search/regular" stroke="none" stroke-width="1" fill="none" fill-rule="evenodd">
        <path d="M13,4 C17.9705627,4 22,8.02943725 22,13 C22,15.124779 21.2636898,17.0775836 20.0323074,18.6171757 L27.0404401,25.6262266 C27.4309644,26.0167508 27.4309644,26.6499158 27.0404401,27.0404401 C26.6799562,27.4009241 26.1127251,27.4286536 25.7204339,27.1236287 L25.6262266,27.0404401 L18.6171757,20.0323074 C17.0775836,21.2636898 15.124779,22 13,22 C8.02943725,22 4,17.9705627 4,13 C4,8.02943725 8.02943725,4 13,4 Z M13,6 C9.13400675,6 6,9.13400675 6,13 C6,16.8659932 9.13400675,20 13,20 C16.8659932,20 20,16.8659932 20,13 C20,9.13400675 16.8659932,6 13,6 Z" id="Combined-Shape" fill="#E21B23" fill-rule="nonzero"></path>
    </g>
</svg>