<?xml version="1.0" encoding="UTF-8"?>
<svg width="32px" height="32px" viewBox="0 0 32 32" version="1.1" xmlns="http://www.w3.org/2000/svg" xmlns:xlink="http://www.w3.org/1999/xlink">
    <title>mtu/bold</title>
    <defs>
        <path d="M22.6666667,1.5 C24.2314734,1.5 25.5,2.76852655 25.5,4.33333333 L25.5,4.33333333 L25.5,28.3333333 C25.5,29.8981401 24.2314734,31.1666667 22.6666667,31.1666667 L22.6666667,31.1666667 L9.33333333,31.1666667 C7.76852655,31.1666667 6.5,29.8981401 6.5,28.3333333 L6.5,28.3333333 L6.5,4.33333333 C6.5,2.76852654 7.76852654,1.5 9.33333333,1.5 L9.33333333,1.5 Z M11.833,4.499 L9.5,4.5 L9.5,28.166 L22.5,28.166 L22.5,4.5 L20.166,4.499 L20.1666667,5.83333333 L11.8333333,5.83333333 L11.833,4.499 Z M16,8.87867966 L21.0606602,13.9393398 C21.6464466,14.5251263 21.6464466,15.4748737 21.0606602,16.0606602 C20.5114854,16.609835 19.642423,16.6441584 19.0532622,16.1636304 L18.9393398,16.0606602 L17,14.12 L17,23 C17,23.8284271 16.3284271,24.5 15.5,24.5 C14.7203039,24.5 14.0795513,23.9051119 14.0068666,23.14446 L14,23 L14,15.12 L13.0606602,16.0606602 C12.5114854,16.609835 11.642423,16.6441584 11.0532622,16.1636304 L10.9393398,16.0606602 C10.390165,15.5114854 10.3558416,14.642423 10.8363696,14.0532622 L10.9393398,13.9393398 L14.005,10.873 L14.0068666,10.85554 C14.0755725,10.1365272 14.6518548,9.56562672 15.3732746,9.50527756 L16,8.87867966 Z" id="path-1"></path>
    </defs>
    <g id="mtu/bold" stroke="none" stroke-width="1" fill="none" fill-rule="evenodd">
        <mask id="mask-2" fill="white">
            <use xlink:href="#path-1"></use>
        </mask>
        <use id="Mask" fill="#5AA617" fill-rule="nonzero" xlink:href="#path-1"></use>
    </g>
</svg>