<?xml version="1.0" encoding="UTF-8"?>
<svg width="32px" height="32px" viewBox="0 0 32 32" version="1.1" xmlns="http://www.w3.org/2000/svg" xmlns:xlink="http://www.w3.org/1999/xlink">
    <title>mtu/regular</title>
    <g id="mtu/regular" stroke="none" stroke-width="1" fill="none" fill-rule="evenodd">
        <path d="M22.6666667,2 C23.955331,2 25,3.04466893 25,4.33333333 L25,4.33333333 L25,28.3333333 C25,29.6219977 23.955331,30.6666667 22.6666667,30.6666667 L22.6666667,30.6666667 L9.33333333,30.6666667 C8.04466893,30.6666667 7,29.6219977 7,28.3333333 L7,28.3333333 L7,4.33333333 C7,3.04466892 8.04466892,2 9.33333333,2 L9.33333333,2 Z M12.333,3.999 L9.33333333,4 C9.14923842,4 9,4.14923842 9,4.33333333 L9,4.33333333 L9,28.3333333 C9,28.5174282 9.14923845,28.6666667 9.33333333,28.6666667 L9.33333333,28.6666667 L22.6666667,28.6666667 C22.8507615,28.6666667 23,28.5174282 23,28.3333333 L23,28.3333333 L23,4.33333333 C23,4.14923845 22.8507615,4 22.6666667,4 L22.6666667,4 L19.666,3.999 L19.6666667,5.33333333 L12.3333333,5.33333333 L12.333,3.999 Z M16,9.58578644 L20.7071068,14.2928932 C21.0976311,14.6834175 21.0976311,15.3165825 20.7071068,15.7071068 C20.3466228,16.0675907 19.7793918,16.0953203 19.3871006,15.7902954 L19.2928932,15.7071068 L16.5,12.914 L16.5,23 C16.5,23.5522847 16.0522847,24 15.5,24 C14.9871642,24 14.5644928,23.6139598 14.5067277,23.1166211 L14.5,23 L14.5,13.914 L12.7071068,15.7071068 C12.3466228,16.0675907 11.7793918,16.0953203 11.3871006,15.7902954 L11.2928932,15.7071068 C10.9324093,15.3466228 10.9046797,14.7793918 11.2097046,14.3871006 L11.2928932,14.2928932 L14.5,11.085 L14.5,11 C14.5,10.4477153 14.9477153,10 15.5,10 L15.581,10.004 L16,9.58578644 Z" id="Combined-Shape" fill="#E21B23" fill-rule="nonzero"></path>
    </g>
</svg>