<?xml version="1.0" encoding="UTF-8"?>
<svg width="32px" height="32px" viewBox="0 0 32 32" version="1.1" xmlns="http://www.w3.org/2000/svg" xmlns:xlink="http://www.w3.org/1999/xlink">
    <title>info/bold</title>
    <defs>
        <path d="M16.3333333,0.5 C24.5255571,0.5 31.1666667,7.14110954 31.1666667,15.3333333 C31.1666667,23.5255571 24.5255571,30.1666667 16.3333333,30.1666667 C8.14110954,30.1666667 1.5,23.5255571 1.5,15.3333333 C1.5,7.14110954 8.14110954,0.5 16.3333333,0.5 Z M16.3333333,3.5 C9.79796379,3.5 4.5,8.79796379 4.5,15.3333333 C4.5,21.8687029 9.79796379,27.1666667 16.3333333,27.1666667 C22.8687029,27.1666667 28.1666667,21.8687029 28.1666667,15.3333333 C28.1666667,8.79796379 22.8687029,3.5 16.3333333,3.5 Z M16.3333333,13.8333333 C17.1130295,13.8333333 17.753782,14.4282214 17.8264668,15.1888733 L17.8333333,15.3333333 L17.8333333,19.3333333 C17.8333333,20.1617605 17.1617605,20.8333333 16.3333333,20.8333333 C15.5536372,20.8333333 14.9128847,20.2384453 14.8401999,19.4777933 L14.8333333,19.3333333 L14.8333333,15.3333333 C14.8333333,14.5049062 15.5049062,13.8333333 16.3333333,13.8333333 Z M17.2800711,10.1697029 L17.3939935,10.2726732 L17.5606602,10.4393398 C18.1464466,11.0251263 18.1464466,11.9748737 17.5606602,12.5606602 C17.0114854,13.109835 16.142423,13.1441584 15.5532622,12.6636304 L15.4393398,12.5606602 L15.2726732,12.3939935 C14.6868867,11.8082071 14.6868867,10.8584596 15.2726732,10.2726732 C15.8218479,9.72349838 16.6909104,9.68917495 17.2800711,10.1697029 Z" id="path-1"></path>
    </defs>
    <g id="info/bold" stroke="none" stroke-width="1" fill="none" fill-rule="evenodd">
        <mask id="mask-2" fill="white">
            <use xlink:href="#path-1"></use>
        </mask>
        <use id="Mask" fill="#5AA617" fill-rule="nonzero" xlink:href="#path-1"></use>
    </g>
</svg>