<?xml version="1.0" encoding="UTF-8"?>
<svg width="32px" height="32px" viewBox="0 0 32 32" version="1.1" xmlns="http://www.w3.org/2000/svg" xmlns:xlink="http://www.w3.org/1999/xlink">
    <title>brmobile-activation/bold</title>
    <g id="brmobile-activation/bold" stroke="none" stroke-width="1" fill="none" fill-rule="evenodd">
        <path d="M22.6666667,1.5 C24.2314734,1.5 25.5,2.76852655 25.5,4.33333333 L25.5,4.33333333 L25.5,28.3333333 C25.5,29.8981401 24.2314734,31.1666667 22.6666667,31.1666667 L22.6666667,31.1666667 L9.33333333,31.1666667 C7.76852655,31.1666667 6.5,29.8981401 6.5,28.3333333 L6.5,28.3333333 L6.5,4.33333333 C6.5,2.76852654 7.76852654,1.5 9.33333333,1.5 L9.33333333,1.5 Z M11.833,4.5 L9.5,4.5 L9.5,28.166 L22.5,28.166 L22.5,4.5 L20.166,4.5 L20.1666667,5.83333333 L11.8333333,5.83333333 L11.833,4.5 Z M21.0606602,11.9393398 C21.609835,12.4885146 21.6441584,13.357577 21.1636304,13.9467378 L21.0606602,14.0606602 L14.5,20.6213203 L10.9393398,17.0606602 C10.3535534,16.4748737 10.3535534,15.5251263 10.9393398,14.9393398 C11.4885146,14.390165 12.357577,14.3558416 12.9467378,14.8363696 L13.0606602,14.9393398 L14.5,16.379 L18.9393398,11.9393398 C19.5251263,11.3535534 20.4748737,11.3535534 21.0606602,11.9393398 Z" id="Combined-Shape" fill="#5AA617"></path>
    </g>
</svg>