<?xml version="1.0" encoding="UTF-8"?>
<svg width="32px" height="32px" viewBox="0 0 32 32" version="1.1" xmlns="http://www.w3.org/2000/svg" xmlns:xlink="http://www.w3.org/1999/xlink">
    <title>brmobile-activation/regular</title>
    <g id="brmobile-activation/regular" stroke="none" stroke-width="1" fill="none" fill-rule="evenodd">
        <path d="M22.6666667,2 C23.955331,2 25,3.04466893 25,4.33333333 L25,4.33333333 L25,28.3333333 C25,29.6219977 23.955331,30.6666667 22.6666667,30.6666667 L22.6666667,30.6666667 L9.33333333,30.6666667 C8.04466893,30.6666667 7,29.6219977 7,28.3333333 L7,28.3333333 L7,4.33333333 C7,3.04466892 8.04466892,2 9.33333333,2 L9.33333333,2 Z M12.333,3.999 L9.33333333,4 C9.14923842,4 9,4.14923842 9,4.33333333 L9,4.33333333 L9,28.3333333 C9,28.5174282 9.14923845,28.6666667 9.33333333,28.6666667 L9.33333333,28.6666667 L22.6666667,28.6666667 C22.8507615,28.6666667 23,28.5174282 23,28.3333333 L23,28.3333333 L23,4.33333333 C23,4.14923845 22.8507615,4 22.6666667,4 L22.6666667,4 L19.666,3.999 L19.6666667,5.33333333 L12.3333333,5.33333333 L12.333,3.999 Z M20.7071068,12.2928932 C21.0675907,12.6533772 21.0953203,13.2206082 20.7902954,13.6128994 L20.7071068,13.7071068 L14.5,19.9142136 L11.2928932,16.7071068 C10.9023689,16.3165825 10.9023689,15.6834175 11.2928932,15.2928932 C11.6533772,14.9324093 12.2206082,14.9046797 12.6128994,15.2097046 L12.7071068,15.2928932 L14.5,17.085 L19.2928932,12.2928932 C19.6834175,11.9023689 20.3165825,11.9023689 20.7071068,12.2928932 Z" id="Combined-Shape" fill="#E21B23"></path>
    </g>
</svg>