<?xml version="1.0" encoding="UTF-8"?>
<svg width="32px" height="32px" viewBox="0 0 32 32" version="1.1" xmlns="http://www.w3.org/2000/svg" xmlns:xlink="http://www.w3.org/1999/xlink">
    <title>gift-domestic/regular</title>
    <g id="gift-domestic/regular" stroke="none" stroke-width="1" fill="none" fill-rule="evenodd">
        <path d="M25.1857571,5.11277789 C26.0212366,6.55987078 24.8902078,8.44628877 22.9782609,9.55015182 C22.8908142,9.60063919 22.7989117,9.63641802 22.7054183,9.65825594 L26.8695652,9.65625615 C27.9741347,9.65625615 28.8695652,10.5516867 28.8695652,11.6562562 L28.8695652,11.6562562 L28.8695652,15.9171257 C28.8695652,16.6813986 28.4408759,17.3455456 27.8108368,17.6822276 C27.8156877,17.7098677 27.8184555,17.7387791 27.8206012,17.7678634 L27.826087,17.9171257 L27.826087,26.3519083 C27.826087,27.4062701 27.0102092,28.2700734 25.9753493,28.3464226 L25.826087,28.3519083 L12.7310998,28.3519083 C11.9579637,28.3519083 11.2595062,27.9070755 10.9287492,27.2188982 L10.8636076,27.0677803 L12.7310998,26.3519083 L25.826087,26.3519083 L25.826087,17.9171257 L12.5187961,17.917132 C12.8267912,18.5495473 13,19.2638489 13,20.018575 C13,22.6213718 11.7267938,25.2890421 9.23994007,28.0245811 L9.23994007,28.0245811 L8.5,28.8385152 L7.76005993,28.0245811 C5.27320624,25.2890421 4,22.6213718 4,20.018575 C4,18.3992364 4.79738212,16.9659952 6.0126312,16.1283902 C6.00379117,16.0599856 6,15.9889984 6,15.9171257 L6,15.9171257 L6,11.6562562 C6,10.5516867 6.8954305,9.65625615 8,9.65625615 L8,9.65625615 L12.164147,9.65825594 C12.0706535,9.63641802 11.978751,9.60063919 11.8913043,9.55015182 C9.97935747,8.44628877 8.84832864,6.55987078 9.68380811,5.11277789 C10.5192876,3.665685 12.7184879,3.70197569 14.6304348,4.80583874 C16.5423817,5.90970179 17.6734105,7.79611978 16.837931,9.24321267 C16.7277865,9.43398851 16.5642736,9.57474178 16.3771381,9.65750209 L18.4930145,9.65776162 C18.3056338,9.57503621 18.1418939,9.43418808 18.0316342,9.24321267 C17.1961547,7.79611978 18.3271836,5.90970179 20.2391304,4.80583874 C22.1510773,3.70197569 24.3502776,3.665685 25.1857571,5.11277789 Z M7.1912515,17.7468608 L7.07636015,17.8269174 C6.4279145,18.3067499 6,19.1060228 6,20.018575 C6,21.8050166 6.81165981,23.7289424 8.47487916,25.7883455 L8.47487916,25.7883455 L8.5,25.8186468 L8.76881529,25.4796823 C10.1925298,23.6338329 10.9246474,21.8983528 10.9944742,20.274716 L10.9944742,20.274716 L11,20.018575 C11,19.1611402 10.6222158,18.4037139 10.0386773,17.9173124 L8,17.9171257 C7.71216805,17.9171257 7.43853735,17.8563229 7.1912515,17.7468608 Z M26.8695652,11.6562562 L8,11.6562562 L8.00016069,15.380286 C8.16420484,15.3615365 8.33097448,15.3519083 8.5,15.3519083 C9.28001111,15.3519083 10.011981,15.5569485 10.6497586,15.9172266 L26.8695652,15.9171257 L26.8695652,11.6562562 Z M11.9422535,6.00608778 C11.6042997,6.00051095 11.4412708,6.06876318 11.4158589,6.11277789 C11.390447,6.1567926 11.4128533,6.33210585 11.5866599,6.62199405 C11.8380315,7.04125127 12.3035489,7.47876026 12.8913043,7.81810101 C13.369597,8.09424339 13.5334721,8.70583379 13.2573298,9.18412642 C13.1139622,9.43244633 12.8801753,9.59601572 12.6215673,9.65725764 L15.566,9.656 L15.4719056,9.60923808 C15.0277767,9.35282016 14.8547527,8.80716388 15.053396,8.34757339 L15.1058802,8.24321267 C15.1312921,8.19919796 15.1088859,8.02388471 14.9350792,7.73399651 C14.6837076,7.31473929 14.2181902,6.8772303 13.6304348,6.53788955 C13.0426794,6.19854879 12.4310268,6.01415341 11.9422535,6.00608778 Z M22.9273117,6.00608778 C22.4385385,6.01415341 21.8268859,6.19854879 21.2391304,6.53788955 C20.651375,6.8772303 20.1858576,7.31473929 19.934486,7.73399651 C19.7606794,8.02388471 19.7382731,8.19919796 19.763685,8.24321267 C20.0398274,8.7215053 19.8759522,9.3330957 19.3976596,9.60923808 L19.303,9.656 L22.2482658,9.65732103 C21.9895513,9.59612866 21.7556525,9.43253207 21.6122355,9.18412642 C21.3360931,8.70583379 21.4999682,8.09424339 21.9782609,7.81810101 C22.5660163,7.47876026 23.0315337,7.04125127 23.2829053,6.62199405 C23.4567119,6.33210585 23.4791182,6.1567926 23.4537063,6.11277789 C23.4282944,6.06876318 23.2652655,6.00051095 22.9273117,6.00608778 Z" id="Combined-Shape" fill="#E21B23"></path>
    </g>
</svg>