<?xml version="1.0" encoding="UTF-8"?>
<svg width="32px" height="32px" viewBox="0 0 32 32" version="1.1" xmlns="http://www.w3.org/2000/svg" xmlns:xlink="http://www.w3.org/1999/xlink">
    <title>reporst-running-bal/bold</title>
    <defs>
        <path d="M25.0909903,5.25520382 C25.9194174,5.25520382 26.5909903,5.9267767 26.5909903,6.75520382 C26.5909903,7.53185425 26.0007407,8.1706445 25.2443565,8.24745949 L25.0909903,8.25520382 L21.951,8.25420382 L22.201111,8.50441183 C27.4792218,13.7825227 28.2022189,21.192965 23.4142136,25.9809704 L23.393,25.9992038 L30,26 C30.8284271,26 31.5,26.6715729 31.5,27.5 C31.5,28.2796961 30.9051119,28.9204487 30.14446,28.9931334 L30,29 L2,29 C1.17157288,29 0.5,28.3284271 0.5,27.5 C0.5,26.7203039 1.09488808,26.0795513 1.85553999,26.0068666 L2,26 L21.3132696,26.0009702 C21.30643,25.9943812 21.2996375,25.9877146 21.2928932,25.9809704 C20.7071068,25.395184 20.7071068,24.4454365 21.2928932,23.85965 C24.745935,20.4066082 24.285649,15.0073549 20.2968496,10.8473841 L20.0797906,10.6257322 L19.52,10.0662038 L19.5199224,13.8262716 C19.5199224,14.6029221 18.9296728,15.2417123 18.1732887,15.3185273 L18.0199224,15.3262716 C17.243272,15.3262716 16.6044818,14.736022 16.5276668,13.9796379 L16.5199224,13.8262716 L16.5199224,5.25520382 L25.0909903,5.25520382 Z M9.5,6.96015511 C10.2796961,6.96015511 10.9204487,7.55504319 10.9931334,8.3156951 L11,8.46015511 L11.0011262,9.09008813 C12.8062125,9.42757994 14.037123,10.4239885 14.4552138,12.0963517 C14.6561368,12.9000441 14.1674958,13.7144458 13.3638034,13.9153689 C12.6073871,14.1044729 11.8414842,13.682752 11.5864845,12.9624399 L11.5447862,12.8239585 C11.4036386,12.259368 10.8800161,11.9601551 9.5,11.9601551 C7.9472337,11.9601551 7.5,12.514336 7.5,13.4601551 C7.5,14.2096673 7.86730222,14.4855114 9.67178944,14.9908648 L10.4861841,15.2198231 C13.3010663,16.0519621 14.5,16.9899261 14.5,19.4601551 C14.5,21.5369734 13.3539452,23.2933822 11.0001124,23.8077535 L11,24.4601551 C11,25.2885822 10.3284271,25.9601551 9.5,25.9601551 C8.72030388,25.9601551 8.07955132,25.365267 8.00686658,24.6046151 L8,24.4601551 L7.99986421,23.8304072 C6.19423779,23.4930947 4.96295351,22.4966275 4.54478625,20.8239586 C4.34386316,20.0202662 4.8325042,19.2058645 5.63619656,19.0049414 C6.3926129,18.8158373 7.15851574,19.2375582 7.41351549,19.9578703 L7.45521375,20.0963517 C7.59636139,20.6609422 8.11998393,20.9601551 9.5,20.9601551 C11.0527663,20.9601551 11.5,20.4059742 11.5,19.4601551 C11.5,18.7747137 11.1510666,18.5176586 9.36960446,18.019637 L9.10470513,17.9466075 C5.88567745,17.0672119 4.5,16.1353211 4.5,13.4601551 C4.5,11.3830482 5.64637348,9.62643969 8.0008693,9.11234225 L8,8.46015511 C8,7.63172798 8.67157288,6.96015511 9.5,6.96015511 Z" id="path-1"></path>
    </defs>
    <g id="reporst-running-bal/bold" stroke="none" stroke-width="1" fill="none" fill-rule="evenodd">
        <mask id="mask-2" fill="white">
            <use xlink:href="#path-1"></use>
        </mask>
        <use id="Mask" fill="#5AA617" xlink:href="#path-1"></use>
    </g>
</svg>