<?xml version="1.0" encoding="UTF-8"?>
<svg width="32px" height="32px" viewBox="0 0 32 32" version="1.1" xmlns="http://www.w3.org/2000/svg" xmlns:xlink="http://www.w3.org/1999/xlink">
    <title>reporst-running-bal/regular</title>
    <g id="reporst-running-bal/regular" stroke="none" stroke-width="1" fill="none" fill-rule="evenodd">
        <path d="M30,25.8180195 C30.5522847,25.8180195 31,26.2657347 31,26.8180195 C31,27.3308553 30.6139598,27.7535266 30.1166211,27.8112918 L30,27.8180195 L2,27.8180195 C1.44771525,27.8180195 1,27.3703042 1,26.8180195 C1,26.3051836 1.38604019,25.8825123 1.88337887,25.8247472 L2,25.8180195 L30,25.8180195 Z M25.1213203,5 C25.6736051,5 26.1213203,5.44771525 26.1213203,6 C26.1213203,6.50980131 25.7398352,6.93050198 25.2467582,6.99220858 L25.1213203,7 L20.671,6.999 L21.8475576,8.1759847 C26.9440119,13.272439 27.6364485,20.3696481 23.0606602,24.9454365 C22.6701359,25.3359608 22.0369709,25.3359608 21.6464466,24.9454365 C21.2559223,24.5549122 21.2559223,23.9217472 21.6464466,23.5312229 C25.3101988,19.8674708 24.8212664,14.1575293 20.6522616,9.81364614 L20.433344,9.59019826 L19.049,8.206 L19.0502525,13.0710678 C19.0502525,13.5808691 18.6687673,14.0015698 18.1756904,14.0632764 L18.0502525,14.0710678 C17.5404512,14.0710678 17.1197506,13.6895826 17.058044,13.1965057 L17.0502525,13.0710678 L17.0502525,5 L25.1213203,5 Z M9.5,6.77817459 C10.0128358,6.77817459 10.4355072,7.16421478 10.4932723,7.66155347 L10.5,7.77817459 L10.5005477,8.83614947 C12.3535922,9.06325537 13.5758313,9.95839407 13.9701425,11.535639 C14.1040912,12.0714339 13.7783305,12.6143684 13.2425356,12.7483171 C12.7067407,12.8822658 12.1638062,12.5565051 12.0298575,12.0207102 C11.824648,11.1998721 11.0866774,10.7781746 9.5,10.7781746 C7.64464703,10.7781746 7,11.5769763 7,12.7781746 C7,13.5997533 7.31612949,14.0177502 8.4029613,14.4291268 L8.73484884,14.5468257 C8.79378957,14.5665265 8.8545761,14.586298 8.9172575,14.6061831 L9.31647714,14.7271993 L10.0755101,14.9395257 L10.5817945,15.0889958 C13.0158643,15.8405945 14,16.6818184 14,18.7781746 C14,20.7431912 12.8790014,22.3600757 10.5008184,22.7085808 L10.5,23.7781746 C10.5,24.3304593 10.0522847,24.7781746 9.5,24.7781746 C8.98716416,24.7781746 8.56449284,24.3921344 8.50672773,23.8947957 L8.5,23.7781746 L8.50046703,22.720324 C6.646854,22.4934205 5.4242407,21.598243 5.0298575,20.0207102 C4.89590877,19.4849153 5.22166946,18.9419808 5.75746437,18.8080321 C6.29325928,18.6740834 6.83619377,18.9998441 6.9701425,19.535639 C7.17535204,20.3564771 7.91332263,20.7781746 9.5,20.7781746 C11.355353,20.7781746 12,19.9793729 12,18.7781746 C12,17.9377048 11.6414244,17.5449956 10.329681,17.1063521 L9.94785381,16.9852122 L9.51608175,16.8595691 L9.23647009,16.7823014 C9.0537109,16.732374 8.87754339,16.6824565 8.70783986,16.632206 L8.21799347,16.480112 C5.9428958,15.7368453 5,14.8514289 5,12.7781746 C5,10.8128867 6.12130811,9.19582707 8.50016653,8.84762414 L8.5,7.77817459 C8.5,7.22588984 8.94771525,6.77817459 9.5,6.77817459 Z" id="Combined-Shape" fill="#E21B23"></path>
    </g>
</svg>