<?xml version="1.0" encoding="UTF-8"?>
<svg width="32px" height="32px" viewBox="0 0 32 32" version="1.1" xmlns="http://www.w3.org/2000/svg" xmlns:xlink="http://www.w3.org/1999/xlink">
    <title>FAQs/bold</title>
    <defs>
        <path d="M30,3 L30,23.3333333 L18.287,23.333 L8.33333333,29.9694423 L8.333,23.333 L3,23.3333333 L3,3 L30,3 Z M27,5.999 L6,5.999 L6,20.333 L11.3333333,20.3333333 L11.333,24.363 L17.3791699,20.3333333 L27,20.333 L27,5.999 Z M16.9284343,8 C19.1358404,8 21,9.63105266 21,11.75 C21,12.803053 20.5283112,13.7770775 19.730894,14.4730613 C19.611267,14.5774715 19.4867275,14.6655171 19.345898,14.7519737 L18.7017173,15.1161623 C18.4878191,15.248136 18.4390104,15.2961433 18.4301504,15.4346102 L18.4284343,15.5 C18.4284343,16.3284271 17.7568614,17 16.9284343,17 C16.1000071,17 15.4284343,16.3284271 15.4284343,15.5 C15.4284343,14.2135231 15.9992929,13.3228535 16.9448187,12.6805746 L17.1948678,12.5219455 L17.774,12.196 L17.8461782,12.1251177 C17.9240186,12.0354769 17.9716232,11.9406733 17.9905604,11.8453393 L18,11.75 C18,11.383666 17.5615012,11 16.9284343,11 C16.572641,11 16.2573948,11.1271781 16.0558449,11.3269395 C15.9796546,11.4024538 15.9253252,11.4833388 15.8931408,11.5639785 C15.5860593,12.333389 14.7133901,12.7081806 13.9439797,12.401099 C13.1745692,12.0940175 12.7997776,11.2213483 13.1068592,10.4519379 C13.2942035,9.98253581 13.5801794,9.55677811 13.9439994,9.19618652 C14.7128335,8.43417476 15.7890558,8 16.9284343,8 Z" id="path-1"></path>
    </defs>
    <g id="FAQs/bold" stroke="none" stroke-width="1" fill="none" fill-rule="evenodd">
        <mask id="mask-2" fill="white">
            <use xlink:href="#path-1"></use>
        </mask>
        <use id="Mask" fill="#5AA617" fill-rule="nonzero" xlink:href="#path-1"></use>
    </g>
</svg>