<?xml version="1.0" encoding="UTF-8"?>
<svg width="32px" height="32px" viewBox="0 0 32 32" version="1.1" xmlns="http://www.w3.org/2000/svg" xmlns:xlink="http://www.w3.org/1999/xlink">
    <title>FAQs/regular</title>
    <g id="FAQs/regular" stroke="none" stroke-width="1" fill="none" fill-rule="evenodd">
        <path d="M29,3 L29,22.3333333 L17.636,22.333 L8.33333333,28.5351838 L8.333,22.333 L3,22.3333333 L3,3 L29,3 Z M27,4.999 L5,4.999 L5,20.333 L10.3333333,20.3333333 L10.333,24.797 L17.0305577,20.3333333 L27,20.333 L27,4.999 Z M16.4284343,8 C18.3734505,8 20,9.42315488 20,11.25 C20,12.1539811 19.5938961,12.9925744 18.9021118,13.5963621 C18.8062523,13.6800281 18.7032998,13.7528124 18.5843052,13.8258643 L17.9391724,14.190639 C17.6020105,14.3986655 17.4607013,14.5700378 17.4334618,14.8778407 L17.4284343,15 C17.4284343,15.5522847 16.980719,16 16.4284343,16 C15.8761495,16 15.4284343,15.5522847 15.4284343,15 C15.4284343,13.8289563 15.9702771,13.0553865 16.8889925,12.4885455 L17.5379341,12.1214267 L17.5869832,12.0895653 C17.856236,11.8545621 18,11.5576934 18,11.25 C18,10.5915638 17.323891,10 16.4284343,10 C15.9420435,10 15.4999679,10.1783442 15.2038707,10.471814 C15.1107742,10.5640844 15.035223,10.6649816 14.9787784,10.7710181 L14.9287606,10.8786384 C14.7240395,11.3915787 14.1422601,11.6414398 13.6293198,11.4367188 C13.1163795,11.2319977 12.8665184,10.6502183 13.0712394,10.137278 C13.2327238,9.73266963 13.4800919,9.36439072 13.7959736,9.05131202 C14.4702603,8.38300865 15.4196534,8 16.4284343,8 Z" id="Combined-Shape" fill="#E21B23" fill-rule="nonzero"></path>
    </g>
</svg>