<?xml version="1.0" encoding="UTF-8"?>
<svg width="32px" height="32px" viewBox="0 0 32 32" version="1.1" xmlns="http://www.w3.org/2000/svg" xmlns:xlink="http://www.w3.org/1999/xlink">
    <title>manage-store/bold</title>
    <defs>
        <path d="M21.0478184,3.5 L24.5305983,10.3967873 C25.8961612,9.16166176 28.0054041,9.20236978 29.3219457,10.5189113 L29.3219457,10.5189113 L30.4810886,11.6780544 C31.8396371,13.0366028 31.8396371,15.2392451 30.4810886,16.5977935 L30.4810886,16.5977935 L18.5788822,28.5 L12.5,28.5 L12.5,22.4211178 L12.9668171,21.954 L5.81818182,21.9545455 C4.49269842,21.9545455 3.40814315,20.9230095 3.3234995,19.6189211 L3.31818182,19.4545455 L3.31781705,12.191 L0.561817052,12.1916996 L4.95218164,3.5 L21.0478184,3.5 Z M27.2006254,12.6402317 C27.0136498,12.4532561 26.7105024,12.4532561 26.5235268,12.6402317 L26.5235268,12.6402317 L15.5,23.663 L15.5,25.499 L17.336,25.499 L28.3597683,14.4764732 C28.5233719,14.3128696 28.5438224,14.060322 28.4211196,13.8744823 L28.4211196,13.8744823 L28.3597683,13.7993747 Z M19.6808171,12.191 L6.31781705,12.191 L6.318,18.954 L15.7212149,18.9545455 L15.7208171,19.2 L20.5668171,14.353 L19.6818182,14.3537601 L19.6808171,12.191 Z M12,13.5 L12,16.5 L8,16.5 L8,13.5 L12,13.5 Z M19.202,6.499 L6.797,6.499 L5.55011493,8.96874911 C5.58447541,8.96508621 5.61904394,8.96211942 5.65380613,8.95986313 L5.81818182,8.95454545 L20.1818182,8.95454545 C20.2723792,8.95454545 20.3618155,8.9593607 20.4498851,8.96874911 L19.202,6.499 Z" id="path-1"></path>
    </defs>
    <g id="manage-store/bold" stroke="none" stroke-width="1" fill="none" fill-rule="evenodd">
        <mask id="mask-2" fill="white">
            <use xlink:href="#path-1"></use>
        </mask>
        <use id="Mask" fill="#5AA617" fill-rule="nonzero" xlink:href="#path-1"></use>
    </g>
</svg>