<?xml version="1.0" encoding="UTF-8"?>
<svg width="32px" height="32px" viewBox="0 0 32 32" version="1.1" xmlns="http://www.w3.org/2000/svg" xmlns:xlink="http://www.w3.org/1999/xlink">
    <title>manage-store/regular</title>
    <g id="manage-store/regular" stroke="none" stroke-width="1" fill="none" fill-rule="evenodd">
        <path d="M20.7402122,4 L24.3935447,11.234 L24.7557598,10.8724647 C25.8725147,9.75570988 27.6553776,9.71103968 28.8254211,10.7384541 L28.9683923,10.8724647 L30.1275352,12.0316078 C31.2908216,13.1948941 31.2908216,15.0809539 30.1275353,16.2442402 L30.1275353,16.2442402 L18.3717754,28 L13,28 L13,22.6282246 L14.1735447,21.454 L5.81818182,21.4545455 C4.76382002,21.4545455 3.9000167,20.6386677 3.82366755,19.6038078 L3.81818182,19.4545455 L3.8175447,11.691 L1.3745447,11.6916996 L5.25978776,4 L20.7402122,4 Z M27.5541787,12.2866783 C27.171941,11.9044406 26.5522111,11.9044406 26.1699734,12.2866783 L26.1699734,12.2866783 L15,23.456 L15,25.999 L17.543,25.999 L28.7133217,14.8300266 C29.0661565,14.4771918 29.0932977,13.9219968 28.7947451,13.5380297 L28.7947451,13.5380297 L28.7133217,13.4458213 Z M20.1815447,11.691 L5.8175447,11.691 L5.81818182,19.4545455 L15.7212149,19.4545455 L15.7205447,19.907 L21.2745447,14.353 L20.1818182,14.3537601 L20.1815447,11.691 Z M12,14 L12,16 L8,16 L8,14 L12,14 Z M23.9365447,11.691 L22.1815447,11.691 L22.1815447,13.446 L23.9365447,11.691 Z M19.509,5.999 L6.49,5.999 L4.625,9.691 L4.87524986,9.69033192 C5.11480775,9.56202552 5.38353696,9.48108594 5.66891947,9.46003119 L5.81818182,9.45454545 L20.1818182,9.45454545 C20.5228637,9.45454545 20.8439715,9.5399086 21.1249411,9.69043419 L21.374,9.691 L19.509,5.999 Z" id="Combined-Shape" fill="#E21B23" fill-rule="nonzero"></path>
    </g>
</svg>