<?xml version="1.0" encoding="UTF-8"?>
<svg width="32px" height="32px" viewBox="0 0 32 32" version="1.1" xmlns="http://www.w3.org/2000/svg" xmlns:xlink="http://www.w3.org/1999/xlink">
    <title>bill-pay-domestic/bold</title>
    <defs>
        <path d="M22.2608696,4 C23.0744655,4 23.7430769,4.62075278 23.8189218,5.41447651 L23.826087,5.56521739 L23.826087,9.4444911 C23.826087,9.76918949 23.7272177,10.0707957 23.5579421,10.3208468 C26.0831222,10.7068021 28,12.9596198 28,15.6521739 C28,18.5145226 26.6158511,21.4146441 23.9407758,24.357227 L23.9407758,24.357227 L22.7826087,25.6312108 L21.6244416,24.357227 C18.9493663,21.4146441 17.5652174,18.5145226 17.5652174,15.6521739 C17.5652174,13.2786848 19.0547158,11.2468902 21.1380309,10.5334861 C20.8966207,10.2859758 20.737553,9.95874411 20.7028173,9.59523198 L20.6956522,9.4444911 L20.6956522,7.13043478 L7.13043478,7.13043478 L7.13043478,24.8695652 L21.0291395,24.8695652 C21.8427354,24.8695652 22.5113468,25.490318 22.5871917,26.2840417 L22.5943569,26.4347826 C22.5943569,27.2483786 21.9736041,27.9169899 21.1798804,27.9928349 L21.0291395,28 L5.56521739,28 C4.75162144,28 4.08301007,27.3792472 4.00716512,26.5855235 L4,26.4347826 L4,5.56521739 C4,4.75162144 4.62075278,4.08301007 5.41447651,4.00716512 L5.56521739,4 L22.2608696,4 Z M22.7826087,13.3913043 C21.6467209,13.3913043 20.6956522,14.3876621 20.6956522,15.6521739 C20.6956522,17.2228628 21.3541223,18.9297413 22.7173163,20.770483 L22.7173163,20.770483 L22.7826087,20.8563478 L23.082645,20.4449176 C24.2194001,18.8241348 24.8024121,17.3090553 24.8640864,15.9013089 L24.8640864,15.9013089 L24.8695652,15.6521739 C24.8695652,14.3876621 23.9184965,13.3913043 22.7826087,13.3913043 Z M12.8695652,16.5217391 C13.7340109,16.5217391 14.4347826,17.2225108 14.4347826,18.0869565 C14.4347826,18.9005525 13.8140298,19.5691638 13.0203061,19.6450088 L12.8695652,19.6521739 L10.7826087,19.6521739 C9.918163,19.6521739 9.2173913,18.9514022 9.2173913,18.0869565 C9.2173913,17.2733606 9.83814409,16.6047492 10.6318678,16.5289043 L10.7826087,16.5217391 L12.8695652,16.5217391 Z M14.9565217,11.3043478 C15.8209674,11.3043478 16.5217391,12.0051195 16.5217391,12.8695652 C16.5217391,13.6831612 15.9009863,14.3517725 15.1072626,14.4276175 L14.9565217,14.4347826 L10.7826087,14.4347826 C9.918163,14.4347826 9.2173913,13.7340109 9.2173913,12.8695652 C9.2173913,12.0559693 9.83814409,11.3873579 10.6318678,11.311513 L10.7826087,11.3043478 L14.9565217,11.3043478 Z" id="path-1"></path>
    </defs>
    <g id="bill-pay-domestic/bold" stroke="none" stroke-width="1" fill="none" fill-rule="evenodd">
        <mask id="mask-2" fill="white">
            <use xlink:href="#path-1"></use>
        </mask>
        <use id="Mask" fill="#5AA617" fill-rule="nonzero" xlink:href="#path-1"></use>
    </g>
</svg>