<?xml version="1.0" encoding="UTF-8"?>
<svg width="32px" height="32px" viewBox="0 0 32 32" version="1.1" xmlns="http://www.w3.org/2000/svg" xmlns:xlink="http://www.w3.org/1999/xlink">
    <title>bill-pay-domestic/regular</title>
    <g id="bill-pay-domestic/regular" stroke="none" stroke-width="1" fill="none" fill-rule="evenodd">
        <path d="M22.5454545,4 C23.1049118,4 23.5660078,4.42113475 23.6290243,4.96368604 L23.6363636,5.09090909 L23.6363636,9.14651343 C23.6363636,9.74900588 23.147947,10.2374225 22.5454545,10.2374225 C21.9859973,10.2374225 21.5249013,9.81628776 21.4618848,9.27373647 L21.4545455,9.14651343 L21.4545455,6.18181818 L6.18181818,6.18181818 L6.18181818,25.8181818 L21.2577367,25.8181818 C21.817194,25.8181818 22.27829,26.2393166 22.3413065,26.7818679 L22.3486458,26.9090909 C22.3486458,27.4685482 21.9275111,27.9296442 21.3849598,27.9926607 L21.2577367,28 L5.09090909,28 C4.53145181,28 4.07035582,27.5788652 4.00733934,27.036314 L4,26.9090909 L4,5.09090909 C4,4.53145181 4.42113475,4.07035582 4.96368604,4.00733934 L5.09090909,4 L22.5454545,4 Z M23.0909091,10.5454545 C25.8137691,10.5454545 28,12.8357917 28,15.6363636 C28,18.4757784 26.6110477,21.3859641 23.8981164,24.3701885 L23.8981164,24.3701885 L23.0909091,25.2581166 L22.2837017,24.3701885 C19.5707704,21.3859641 18.1818182,18.4757784 18.1818182,15.6363636 C18.1818182,12.8357917 20.3680491,10.5454545 23.0909091,10.5454545 Z M23.0909091,12.7272727 C21.5963219,12.7272727 20.3636364,14.0186575 20.3636364,15.6363636 C20.3636364,17.5852091 21.2490834,19.6840372 23.0635045,21.9306587 L23.0635045,21.9306587 L23.0909091,21.964 L23.3841621,21.5939352 C24.9373052,19.5802813 25.7359789,17.6870304 25.8121537,15.9157902 L25.8121537,15.9157902 L25.8181818,15.6363636 C25.8181818,14.0186575 24.5854963,12.7272727 23.0909091,12.7272727 Z M12.7272727,17.0909091 C13.3297652,17.0909091 13.8181818,17.5793257 13.8181818,18.1818182 C13.8181818,18.7412755 13.3970471,19.2023714 12.8544958,19.2653879 L12.7272727,19.2727273 L10.5454545,19.2727273 C9.94296209,19.2727273 9.45454545,18.7843106 9.45454545,18.1818182 C9.45454545,17.6223609 9.87568021,17.1612649 10.4182315,17.0982484 L10.5454545,17.0909091 L12.7272727,17.0909091 Z M14.9090909,11.6363636 C15.5115834,11.6363636 16,12.1247803 16,12.7272727 C16,13.28673 15.5788652,13.747826 15.036314,13.8108425 L14.9090909,13.8181818 L10.5454545,13.8181818 C9.94296209,13.8181818 9.45454545,13.3297652 9.45454545,12.7272727 C9.45454545,12.1678154 9.87568021,11.7067195 10.4182315,11.643703 L10.5454545,11.6363636 L14.9090909,11.6363636 Z" id="Combined-Shape" fill="#E21B23" fill-rule="nonzero"></path>
    </g>
</svg>