<?xml version="1.0" encoding="UTF-8"?>
<svg width="32px" height="32px" viewBox="0 0 32 32" version="1.1" xmlns="http://www.w3.org/2000/svg" xmlns:xlink="http://www.w3.org/1999/xlink">
    <title>notification-outline/bold</title>
    <defs>
        <path d="M16.1689129,3 C21.4156181,3 25.6689129,7.25329488 25.6689129,12.5 L25.6689129,12.5 L25.6689129,19.1666667 C25.6689129,21.308411 26.2897161,22.5500172 27.5064,23.1583592 L27.5064,23.1583592 L27.6298386,23.2265398 C28.890613,23.9935856 28.3704515,26 26.8355796,26 L26.8355796,26 L20.057366,26.0001315 C19.4551504,27.5600822 17.94126,28.6666667 16.1689129,28.6666667 C14.3965659,28.6666667 12.8826755,27.5600822 12.2804599,26.0001315 L5.50224626,26 C3.91940965,26 3.41569374,23.8662253 4.83142583,23.1583592 L4.83142583,23.1583592 L4.9867424,23.075397 C6.10091912,22.4403499 6.66891293,21.2152916 6.66891293,19.1666667 L6.66891293,19.1666667 L6.66891293,12.5 C6.66891293,7.36339072 10.7518056,3.16121836 15.8968201,3.00398184 L15.8968201,3.00398184 Z M16.1918264,5.99982498 L15.9656048,6.00310527 C12.4627336,6.11027606 9.66891293,8.98571682 9.66891293,12.5 L9.66891293,12.5 L9.66891293,19.1666667 C9.66891293,20.5496886 9.4516588,21.7679092 9.01512261,22.799613 L9.01512261,22.799613 L8.92691293,22.9993333 L23.4119129,22.9993333 L23.3227032,22.799613 C22.8861671,21.7679092 22.6689129,20.5496886 22.6689129,19.1666667 L22.6689129,19.1666667 L22.6689129,12.5 C22.6689129,8.91014912 19.7587638,6 16.1918264,5.99982498 L16.1918264,5.99982498 Z" id="path-1"></path>
    </defs>
    <g id="notification-outline/bold" stroke="none" stroke-width="1" fill="none" fill-rule="evenodd">
        <mask id="mask-2" fill="white">
            <use xlink:href="#path-1"></use>
        </mask>
        <use id="Mask" fill="#5AA617" fill-rule="nonzero" xlink:href="#path-1"></use>
    </g>
</svg>