<?xml version="1.0" encoding="UTF-8"?>
<svg width="32px" height="32px" viewBox="0 0 32 32" version="1.1" xmlns="http://www.w3.org/2000/svg" xmlns:xlink="http://www.w3.org/1999/xlink">
    <title>notification-outline/regular</title>
    <g id="notification-outline/regular" stroke="none" stroke-width="1" fill="none" fill-rule="evenodd">
        <path d="M15.6666667,3 C20.6372294,3 24.6666667,7.02943725 24.6666667,12 L24.6666667,12 L24.6666667,18.6666667 C24.6666667,20.9833851 25.3768317,22.4037152 26.7805469,23.1055728 L26.7805469,23.1055728 L26.8838025,23.1641077 C27.6974725,23.6848036 27.3479722,25 26.3333333,25 L26.3333333,25 L19.1950143,25.0010507 C18.7593816,26.5395164 17.3446542,27.6666667 15.6666667,27.6666667 C13.9886792,27.6666667 12.5739517,26.5395164 12.138319,25.0010507 L5,25 C3.94477559,25 3.60896499,23.5774836 4.55278638,23.1055728 L4.55278638,23.1055728 L4.72463734,23.0140857 C6.01444909,22.2837981 6.66666667,20.8868551 6.66666667,18.6666667 L6.66666667,18.6666667 L6.66666667,12 C6.66666667,7.1337784 10.534714,3.15272797 15.4022117,3.0039235 L15.4022117,3.0039235 Z M16.9992207,25.0011989 L14.3340063,25.0010576 C14.6381235,25.4052716 15.121869,25.6666667 15.6666667,25.6666667 C16.2114008,25.6666667 16.6950971,25.4053325 16.9992207,25.0011989 Z M15.6819423,4.99988332 L15.4480682,5.00333912 C11.6753326,5.11876644 8.66666667,8.21532914 8.66666667,12 L8.66666667,12 L8.66666667,18.6666667 C8.66666667,20.3310059 8.34168586,21.7270506 7.68893387,22.8249208 L7.68893387,22.8249208 L7.58066667,22.9993333 L23.7536667,22.9993333 L23.6443995,22.8249208 C22.9916475,21.7270506 22.6666667,20.3310059 22.6666667,18.6666667 L22.6666667,18.6666667 L22.6666667,12 C22.6666667,8.13400675 19.5326599,4.99988332 15.6819423,4.99988332 L15.6819423,4.99988332 Z" id="Combined-Shape" fill="#E21B23" fill-rule="nonzero"></path>
    </g>
</svg>