<?xml version="1.0" encoding="UTF-8"?>
<svg width="32px" height="32px" viewBox="0 0 32 32" version="1.1" xmlns="http://www.w3.org/2000/svg" xmlns:xlink="http://www.w3.org/1999/xlink">
    <title>add-contact/bold</title>
    <defs>
        <path d="M10,6.5 C13.5780698,6.5 15.5,8.90268308 15.5,13 C15.5,15.1657428 15.0096067,16.7588724 14.1222662,18.0124169 C14.0249682,18.1498696 13.9500365,18.2519012 13.8687337,18.353449 L13.763,18.481 L13.9044283,18.5667988 C14.1609567,18.7165263 14.465926,18.8724838 14.8379886,19.0475127 L15.5967044,19.3944503 C18.3249119,20.6345446 19.5,21.6769614 19.5,24 C19.5,24.8284271 18.8284271,25.5 18,25.5 C17.2203039,25.5 16.5795513,24.9051119 16.5068666,24.14446 L16.5,24 C16.5,23.3430268 16.1530072,22.9780825 14.7770229,22.3215644 L13.8194624,21.8821158 C12.4755632,21.266162 11.6711053,20.7924256 10.9393398,20.0606602 C10.464851,19.5861713 10.2069408,18.9953225 10.321335,18.3089571 C10.436008,17.6209194 11.6239918,16.3120706 11.6744246,16.2754942 C12.1964158,15.540621 12.5,14.5543738 12.5,13 C12.5,10.4307544 11.7554803,9.5 10,9.5 C8.24451974,9.5 7.5,10.4307544 7.5,13 C7.5,14.4507489 7.76445559,15.4065964 8.22474251,16.1280287 L8.32634783,16.2791283 C8.26043308,16.1860106 9.5585314,17.5881557 9.67866496,18.3089571 C9.79305921,18.9953225 9.53514903,19.5861713 9.06066017,20.0606602 C8.38518435,20.736136 7.64776942,21.1917527 6.48130477,21.742315 L5.64470442,22.1255497 C3.91623395,22.9112181 3.5,23.2804579 3.5,24 C3.5,24.8284271 2.82842712,25.5 2,25.5 C1.17157288,25.5 0.5,24.8284271 0.5,24 C0.5,21.7543961 1.59805453,20.705462 4.1356379,19.5178555 L4.93057349,19.1549213 C5.41014867,18.935116 5.78773767,18.7464718 6.09557169,18.5667988 L6.236,18.481 L6.21575718,18.4561295 C6.15265087,18.3813866 6.09761024,18.3122881 6.04030152,18.2362707 L5.8777338,18.0124169 C4.99039331,16.7588724 4.5,15.1657428 4.5,13 C4.5,8.90268308 6.42193024,6.5 10,6.5 Z M24.6666667,7.83333333 C25.4463628,7.83333333 26.0871153,8.42822142 26.1598001,9.18887332 L26.1666667,9.33333333 L26.166,13.166 L30,13.1666667 C30.8284271,13.1666667 31.5,13.8382395 31.5,14.6666667 C31.5,15.4463628 30.9051119,16.0871153 30.14446,16.1598001 L30,16.1666667 L26.166,16.166 L26.1666667,20 C26.1666667,20.8284271 25.4950938,21.5 24.6666667,21.5 C23.8869705,21.5 23.246218,20.9051119 23.1735332,20.14446 L23.1666667,20 L23.166,16.166 L19.3333333,16.1666667 C18.5049062,16.1666667 17.8333333,15.4950938 17.8333333,14.6666667 C17.8333333,13.8869705 18.4282214,13.246218 19.1888733,13.1735332 L19.3333333,13.1666667 L23.166,13.166 L23.1666667,9.33333333 C23.1666667,8.50490621 23.8382395,7.83333333 24.6666667,7.83333333 Z" id="path-1"></path>
    </defs>
    <g id="add-contact/bold" stroke="none" stroke-width="1" fill="none" fill-rule="evenodd">
        <mask id="mask-2" fill="white">
            <use xlink:href="#path-1"></use>
        </mask>
        <use id="Mask" fill="#5AA617" fill-rule="nonzero" xlink:href="#path-1"></use>
    </g>
</svg>