<?xml version="1.0" encoding="UTF-8"?>
<svg width="32px" height="32px" viewBox="0 0 32 32" version="1.1" xmlns="http://www.w3.org/2000/svg" xmlns:xlink="http://www.w3.org/1999/xlink">
    <title>add-contact/regular</title>
    <g id="add-contact/regular" stroke="none" stroke-width="1" fill="none" fill-rule="evenodd">
        <path d="M10,7 C13.2743048,7 15,9.15736163 15,13 C15,15.063848 14.5407415,16.5558305 13.7141639,17.7235355 L13.5826814,17.9054051 C13.4606319,18.069227 13.3542731,18.194179 13.1501259,18.417724 L13.013,18.566 L13.0540635,18.5991936 C13.3844759,18.8574231 13.795212,19.097163 14.3642926,19.3750509 L15.3898029,19.8496335 C17.9513876,21.0139902 19,21.9442109 19,24 C19,24.5522847 18.5522847,25 18,25 C17.4477153,25 17,24.5522847 17,24 C17,23.0954411 16.5439731,22.6155213 15.0082643,21.8783143 L14.0277897,21.4275833 C12.7346938,20.8349144 11.9709271,20.3851406 11.2928932,19.7071068 C10.9225115,19.3367251 10.7303196,18.8964309 10.814532,18.3911566 C10.905744,17.8438848 12.0649042,16.5918142 12.0817545,16.5680097 C12.6652809,15.7436629 13,14.6562686 13,13 C13,10.1760758 12.0592452,9 10,9 C7.94075482,9 7,10.1760758 7,13 C7,14.6562686 7.33471907,15.7436629 7.91824549,16.5680097 L8.23400437,16.9296412 C8.58920838,17.3482169 9.12466002,18.0263087 9.185468,18.3911566 C9.26968039,18.8964309 9.0774885,19.3367251 8.70710678,19.7071068 C8.08122939,20.3329842 7.38230146,20.7643678 6.26142255,21.2931812 L5.43780294,21.6703665 C3.54270964,22.5317725 3,23.0132085 3,24 C3,24.5522847 2.55228475,25 2,25 C1.44771525,25 1,24.5522847 1,24 C1,22.0859894 1.90896366,21.14765 4.10164989,20.0876401 L5.13890085,19.6094537 C5.88411987,19.267895 6.40077321,18.9944113 6.80106315,18.707552 L6.986,18.566 L6.7554242,18.3135312 C6.63895533,18.1838651 6.55754211,18.0878357 6.47756117,17.9847133 L6.28583614,17.7235355 C5.45925846,16.5558305 5,15.063848 5,13 C5,9.15736163 6.72569515,7 10,7 Z M24.6666667,8.33333333 C25.1795025,8.33333333 25.6021738,8.71937352 25.6599389,9.21671221 L25.6666667,9.33333333 L25.666,13.666 L30,13.6666667 C30.5522847,13.6666667 31,14.1143819 31,14.6666667 C31,15.1795025 30.6139598,15.6021738 30.1166211,15.6599389 L30,15.6666667 L25.666,15.666 L25.6666667,20 C25.6666667,20.5522847 25.2189514,21 24.6666667,21 C24.1538308,21 23.7311595,20.6139598 23.6733944,20.1166211 L23.6666667,20 L23.666,15.666 L19.3333333,15.6666667 C18.7810486,15.6666667 18.3333333,15.2189514 18.3333333,14.6666667 C18.3333333,14.1538308 18.7193735,13.7311595 19.2167122,13.6733944 L19.3333333,13.6666667 L23.666,13.666 L23.6666667,9.33333333 C23.6666667,8.78104858 24.1143819,8.33333333 24.6666667,8.33333333 Z" id="Combined-Shape" fill="#E21B23" fill-rule="nonzero"></path>
    </g>
</svg>