<?xml version="1.0" encoding="UTF-8"?>
<svg width="32px" height="32px" viewBox="0 0 32 32" version="1.1" xmlns="http://www.w3.org/2000/svg" xmlns:xlink="http://www.w3.org/1999/xlink">
    <title>chat/bold</title>
    <defs>
        <path d="M16.3333333,2.5 C8.20547455,2.5 1.5,7.86437964 1.5,14.6666667 L1.50526138,14.9943271 C1.59282036,17.7182266 2.76996861,20.2725582 4.79180663,22.3218175 L4.941,22.469 L3.77687394,30.6219474 L12.275,26.372 L12.7078709,26.4686089 C13.88336,26.7099163 15.0986452,26.8333333 16.3333333,26.8333333 C24.4611921,26.8333333 31.1666667,21.4689537 31.1666667,14.6666667 C31.1666667,7.86437964 24.4611921,2.5 16.3333333,2.5 Z M16.3333333,5.5 C22.9330679,5.5 28.1666667,9.68687903 28.1666667,14.6666667 C28.1666667,19.6464543 22.9330679,23.8333333 16.3333333,23.8333333 C15.0074865,23.8333333 13.7129902,23.6635372 12.4864951,23.3351222 L11.9367353,23.1879147 L7.556,25.378 L8.13831915,21.3050343 L7.51954277,20.7692318 C5.57517302,19.0855892 4.5,16.9308396 4.5,14.6666667 C4.5,9.68687903 9.73359879,5.5 16.3333333,5.5 Z" id="path-1"></path>
    </defs>
    <g id="chat/bold" stroke="none" stroke-width="1" fill="none" fill-rule="evenodd">
        <mask id="mask-2" fill="white">
            <use xlink:href="#path-1"></use>
        </mask>
        <use id="Mask" fill="#5AA617" fill-rule="nonzero" xlink:href="#path-1"></use>
    </g>
</svg>