<?xml version="1.0" encoding="UTF-8"?>
<svg width="32px" height="32px" viewBox="0 0 32 32" version="1.1" xmlns="http://www.w3.org/2000/svg" xmlns:xlink="http://www.w3.org/1999/xlink">
    <title>chat/regular</title>
    <g id="chat/regular" stroke="none" stroke-width="1" fill="none" fill-rule="evenodd">
        <path d="M16.3333333,3 C8.46016192,3 2,8.16812954 2,14.6666667 L2.00538688,14.9898035 C2.09503429,17.6760682 3.30025083,20.1940695 5.36986236,22.1902753 L5.472,22.286 L4.40680485,29.7479649 L12.213,25.844 L11.8398578,25.7500467 C13.2775778,26.1350208 14.7894787,26.3333333 16.3333333,26.3333333 C24.2065047,26.3333333 30.6666667,21.1652038 30.6666667,14.6666667 C30.6666667,8.16812954 24.2065047,3 16.3333333,3 Z M16.3333333,5 C23.1877553,5 28.6666667,9.38312913 28.6666667,14.6666667 C28.6666667,19.9502042 23.1877553,24.3333333 16.3333333,24.3333333 C14.963885,24.3333333 13.6259077,24.157834 12.3571676,23.8181071 L11.9906611,23.7199688 L6.926,26.252 L7.60475918,21.5044202 L7.1922416,21.1472185 C5.14253298,19.3723623 4,17.0826169 4,14.6666667 C4,9.38312913 9.47891141,5 16.3333333,5 Z" id="Path" fill="#E21B23" fill-rule="nonzero"></path>
    </g>
</svg>