<?xml version="1.0" encoding="UTF-8"?>
<svg width="32px" height="32px" viewBox="0 0 32 32" version="1.1" xmlns="http://www.w3.org/2000/svg" xmlns:xlink="http://www.w3.org/1999/xlink">
    <title>wallet/bold</title>
    <defs>
        <path d="M26,5.5 C27.3807119,5.5 28.5,6.61928813 28.5,8 L28.5,8 L28.5,25 C28.5,26.3807119 27.3807119,27.5 26,27.5 L26,27.5 L6,27.5 C4.61928813,27.5 3.5,26.3807119 3.5,25 L3.5,25 L3.5,8 C3.5,6.61928813 4.61928813,5.5 6,5.5 L6,5.5 Z M25.5,8.5 L6.5,8.5 L6.5,24.5 L25.5,24.5 L25.5,22.5 L16,22.5 C14.6745166,22.5 13.5899613,21.4684641 13.5053177,20.1643757 L13.5,20 L13.5,14 C13.5,12.6192881 14.6192881,11.5 16,11.5 L16,11.5 L25.5,11.5 L25.5,8.5 Z M25.5,14.5 L16.5,14.5 L16.5,19.5 L25.5,19.5 L25.5,14.5 Z M20.1693332,15.5 C20.9977603,15.5 21.6693332,16.1715729 21.6693332,17 C21.6693332,17.7796961 21.0744451,18.4204487 20.3137932,18.4931334 L20.1693332,18.5 L18.1693332,18.5 C17.3409061,18.5 16.6693332,17.8284271 16.6693332,17 C16.6693332,16.2203039 17.2642213,15.5795513 18.0248732,15.5068666 L18.1693332,15.5 L20.1693332,15.5 Z" id="path-1"></path>
    </defs>
    <g id="wallet/bold" stroke="none" stroke-width="1" fill="none" fill-rule="evenodd">
        <mask id="mask-2" fill="white">
            <use xlink:href="#path-1"></use>
        </mask>
        <use id="Mask" fill="#5AA617" fill-rule="nonzero" xlink:href="#path-1"></use>
    </g>
</svg>