<?xml version="1.0" encoding="UTF-8"?>
<svg width="32px" height="32px" viewBox="0 0 32 32" version="1.1" xmlns="http://www.w3.org/2000/svg" xmlns:xlink="http://www.w3.org/1999/xlink">
    <title>wallet/regular</title>
    <g id="wallet/regular" stroke="none" stroke-width="1" fill="none" fill-rule="evenodd">
        <path d="M26,6 C27.1045695,6 28,6.8954305 28,8 L28,8 L28,25 C28,26.1045695 27.1045695,27 26,27 L26,27 L6,27 C4.8954305,27 4,26.1045695 4,25 L4,25 L4,8 C4,6.8954305 4.8954305,6 6,6 L6,6 Z M26,8 L6,8 L6,25 L26,25 L26,22 L16,22 C14.8954305,22 14,21.1045695 14,20 L14,20 L14,14 C14,12.8954305 14.8954305,12 16,12 L16,12 L26,12 L26,12 L26,8 Z M26,14 L16,14 L16,20 L26,20 L26,14 Z M20.1693332,16 C20.721618,16 21.1693332,16.4477153 21.1693332,17 C21.1693332,17.5128358 20.783293,17.9355072 20.2859543,17.9932723 L20.1693332,18 L18.1693332,18 C17.6170485,18 17.1693332,17.5522847 17.1693332,17 C17.1693332,16.4871642 17.5553734,16.0644928 18.0527121,16.0067277 L18.1693332,16 L20.1693332,16 Z" id="Combined-Shape" fill="#E21B23" fill-rule="nonzero"></path>
    </g>
</svg>