<?xml version="1.0" encoding="UTF-8"?>
<svg width="32px" height="32px" viewBox="0 0 32 32" version="1.1" xmlns="http://www.w3.org/2000/svg" xmlns:xlink="http://www.w3.org/1999/xlink">
    <title>refund/bold</title>
    <defs>
        <path d="M13.6666667,3.5 C20.2843211,3.5 25.6679745,8.78338598 25.8295963,15.3621272 L25.8333333,15.6666667 L25.833,16.045 L27.2726732,14.6060065 C27.8584596,14.0202201 28.8082071,14.0202201 29.3939935,14.6060065 C29.9431683,15.1551813 29.9774917,16.0242437 29.4969638,16.6134044 L29.3939935,16.7273268 L24.3333333,21.787987 L19.2726732,16.7273268 C18.6868867,16.1415404 18.6868867,15.1917929 19.2726732,14.6060065 C19.8218479,14.0568317 20.6909104,14.0225083 21.2800711,14.5030362 L21.3939935,14.6060065 L22.833,16.046 L22.8333333,15.6666667 C22.8333333,10.6040565 18.7292769,6.5 13.6666667,6.5 C8.60405646,6.5 4.5,10.6040565 4.5,15.6666667 C4.5,20.7292769 8.60405646,24.8333333 13.6666667,24.8333333 C14.4950938,24.8333333 15.1666667,25.5049062 15.1666667,26.3333333 C15.1666667,27.1617605 14.4950938,27.8333333 13.6666667,27.8333333 C6.94720221,27.8333333 1.5,22.3861311 1.5,15.6666667 C1.5,8.94720221 6.94720221,3.5 13.6666667,3.5 Z M13.5,8.5 C14.2796961,8.5 14.9204487,9.09488808 14.9931334,9.85553999 L15,10 L15.0007869,10.0486584 C16.2517388,10.3687529 17.1301851,11.1345864 17.4518256,12.3729025 C17.6600908,13.1747236 17.1789186,13.9935604 16.3770975,14.2018256 C15.6224423,14.3978399 14.8527145,13.9831415 14.5911375,13.2651918 L14.5481744,13.1270975 C14.5329831,13.0686108 14.5290981,13.0636251 14.4735505,13.0330739 C14.305547,12.940672 13.9814515,12.875 13.5,12.875 C12.6892207,12.875 12.5197463,13.0166892 12.5017291,13.3650524 L12.5,13.4375 C12.5,13.6466899 12.628193,13.7406788 13.6948438,14.0269123 L13.9129038,14.0847208 C16.3948497,14.7372243 17.5,15.4404778 17.5,17.5625 C17.5,19.1039536 16.6588392,20.4317808 15.0008103,20.9226627 L15,21 C15,21.8284271 14.3284271,22.5 13.5,22.5 C12.7203039,22.5 12.0795513,21.9051119 12.0068666,21.14446 L12,21 L12.0002019,20.9515945 C10.7487241,20.6316506 9.86989972,19.8657398 9.54817445,18.6270976 C9.33990922,17.8252764 9.82108134,17.0064397 10.6229024,16.7981744 C11.3775576,16.6021601 12.1472855,17.0168584 12.4088625,17.7348082 L12.4518256,17.8729024 C12.4670169,17.9313892 12.4709019,17.9363749 12.5264496,17.9669261 C12.694453,18.059328 13.0185485,18.125 13.5,18.125 C14.3107793,18.125 14.4802537,17.9833108 14.4982709,17.6349476 L14.499164,17.481927 C14.4968917,17.4708502 14.4916814,17.464034 14.4804039,17.4557647 L14.4252411,17.420884 L14.4252411,17.420884 C14.2373638,17.3013298 13.9645313,17.2044394 13.3318127,17.0343911 L13.1185527,16.9778282 C10.6307045,16.3236679 9.5,15.5917663 9.5,13.4375 C9.5,11.8957397 10.3414955,10.567691 12.0001793,10.0770444 L12,10 C12,9.17157288 12.6715729,8.5 13.5,8.5 Z" id="path-1"></path>
    </defs>
    <g id="refund/bold" stroke="none" stroke-width="1" fill="none" fill-rule="evenodd">
        <mask id="mask-2" fill="white">
            <use xlink:href="#path-1"></use>
        </mask>
        <use id="Mask" fill="#5AA617" fill-rule="nonzero" xlink:href="#path-1"></use>
    </g>
</svg>