<?xml version="1.0" encoding="UTF-8"?>
<svg width="32px" height="32px" viewBox="0 0 32 32" version="1.1" xmlns="http://www.w3.org/2000/svg" xmlns:xlink="http://www.w3.org/1999/xlink">
    <title>refund/regular</title>
    <g id="refund/regular" stroke="none" stroke-width="1" fill="none" fill-rule="evenodd">
        <path d="M13.6666667,4 C20.0108607,4 25.1723263,9.06386258 25.329639,15.3701634 L25.3333333,15.6666667 L25.333,17.251 L27.6262266,14.9595599 C27.9867105,14.5990759 28.5539416,14.5713464 28.9462328,14.8763713 L29.0404401,14.9595599 C29.4009241,15.3200438 29.4286536,15.8872749 29.1236287,16.2795661 L29.0404401,16.3737734 L24.3333333,21.0808802 L19.6262266,16.3737734 C19.2357023,15.9832492 19.2357023,15.3500842 19.6262266,14.9595599 C19.9867105,14.5990759 20.5539416,14.5713464 20.9462328,14.8763713 L21.0404401,14.9595599 L23.333,17.251 L23.3333333,15.6666667 C23.3333333,10.3279141 19.0054193,6 13.6666667,6 C8.32791408,6 4,10.3279141 4,15.6666667 C4,21.0054193 8.32791408,25.3333333 13.6666667,25.3333333 C14.2189514,25.3333333 14.6666667,25.7810486 14.6666667,26.3333333 C14.6666667,26.8856181 14.2189514,27.3333333 13.6666667,27.3333333 C7.22334458,27.3333333 2,22.1099887 2,15.6666667 C2,9.22334458 7.22334458,4 13.6666667,4 Z M13.5,9 C14.0128358,9 14.4355072,9.38604019 14.4932723,9.88337887 L14.5,10 L14.5016245,10.4535786 C15.7919767,10.6716374 16.6683594,11.3454329 16.9678837,12.4986017 C17.1067272,13.0331491 16.7859458,13.5790402 16.2513983,13.7178837 C15.7550329,13.8468098 15.2488863,13.5794266 15.0679463,13.1125827 L15.0321163,13.0013983 C14.9275579,12.5988484 14.5205607,12.375 13.5,12.375 C12.3376062,12.375 12,12.7776505 12,13.4375 C12,13.9029749 12.225902,14.1156969 13.2015627,14.4065464 L13.7857738,14.5682888 C16.0571748,15.16544 17,15.7653993 17,17.5625 C17,18.9955668 16.1789723,20.1955818 14.5018495,20.5313546 L14.5,21 C14.5,21.5522847 14.0522847,22 13.5,22 C12.9871642,22 12.5644928,21.6139598 12.5067277,21.1166211 L12.5,21 L12.4993712,20.5465896 C11.2084742,20.3287091 10.3317177,19.6548637 10.0321163,18.5013984 C9.89327281,17.966851 10.2140542,17.4209598 10.7486016,17.2821163 C11.2449671,17.1531902 11.7511136,17.4205733 11.9320537,17.8874173 L11.9678837,17.9986016 C12.0724421,18.4011515 12.4794393,18.625 13.5,18.625 C14.6623938,18.625 15,18.2223495 15,17.5625 C15,17.0899558 14.7350938,16.8977576 13.4832245,16.5575672 L13.2457018,16.4942653 C10.9660591,15.894851 10,15.2695238 10,13.4375 C10,12.0041482 10.8213542,10.803941 12.4991511,10.4684452 L12.5,10 C12.5,9.44771525 12.9477153,9 13.5,9 Z" id="Combined-Shape" fill="#E21B23" fill-rule="nonzero"></path>
    </g>
</svg>