<?xml version="1.0" encoding="UTF-8"?>
<svg width="32px" height="32px" viewBox="0 0 32 32" version="1.1" xmlns="http://www.w3.org/2000/svg" xmlns:xlink="http://www.w3.org/1999/xlink">
    <title>refresh/bold</title>
    <defs>
        <path d="M6,9.21201299 L11.0606602,14.2726732 C11.6464466,14.8584596 11.6464466,15.8082071 11.0606602,16.3939935 C10.5114854,16.9431683 9.64242298,16.9774917 9.05326224,16.4969638 L8.93933983,16.3939935 L7.499,14.9531982 L7.49999983,15.3536172 C7.49944591,18.2807935 9.11747985,20.9683383 11.704677,22.3375612 C14.2918743,23.7067841 17.4240948,23.5332174 19.8441702,21.886525 C20.5290815,21.4204907 21.4621073,21.5979255 21.9281416,22.2828369 C22.394176,22.9677482 22.2167411,23.900774 21.5318298,24.3668083 C18.1927384,26.6388269 13.8710671,26.878305 10.3013899,24.989124 C6.82565166,23.1496583 4.61766046,19.5857168 4.50456287,15.6714471 L4.49999983,15.3533333 L4.499,14.9541982 L3.06066017,16.3939935 C2.51148539,16.9431683 1.64242298,16.9774917 1.05326224,16.4969638 L0.939339828,16.3939935 C0.390165043,15.8448187 0.355841619,14.9757563 0.836369556,14.3865956 L0.939339828,14.2726732 L6,9.21201299 Z M20.3866101,5.76420937 C23.8623483,7.60367506 26.0703395,11.1676166 26.1834371,15.0818862 L26.1880002,15.4 L26.188,15.6901982 L27.6060065,14.2726732 C28.1917929,13.6868867 29.1415404,13.6868867 29.7273268,14.2726732 C30.2765016,14.8218479 30.310825,15.6909104 29.8302971,16.2800711 L29.7273268,16.3939935 L24.6666667,21.4546537 L19.6060065,16.3939935 C19.0202201,15.8082071 19.0202201,14.8584596 19.6060065,14.2726732 C20.1551813,13.7234984 21.0242437,13.689175 21.6134044,14.1697029 L21.7273268,14.2726732 L23.188,15.7331982 L23.1880002,15.3997162 C23.1885541,12.4725399 21.5705202,9.78499508 18.983323,8.41577216 C16.3961257,7.04654923 13.2639052,7.22011589 10.8438298,8.86680829 C10.1589185,9.33284263 9.22589271,9.15540779 8.75985838,8.47049648 C8.29382404,7.78558517 8.47125888,6.85255938 9.15617019,6.38652504 C12.4952616,4.11450641 16.8169329,3.87502837 20.3866101,5.76420937 Z" id="path-1"></path>
    </defs>
    <g id="refresh/bold" stroke="none" stroke-width="1" fill="none" fill-rule="evenodd">
        <mask id="mask-2" fill="white">
            <use xlink:href="#path-1"></use>
        </mask>
        <use id="Mask" fill="#5AA617" fill-rule="nonzero" xlink:href="#path-1"></use>
    </g>
</svg>