<?xml version="1.0" encoding="UTF-8"?>
<svg width="32px" height="32px" viewBox="0 0 32 32" version="1.1" xmlns="http://www.w3.org/2000/svg" xmlns:xlink="http://www.w3.org/1999/xlink">
    <title>refresh/regular</title>
    <g id="refresh/regular" stroke="none" stroke-width="1" fill="none" fill-rule="evenodd">
        <path d="M6,9.91911977 L10.7071068,14.6262266 C11.0976311,15.0167508 11.0976311,15.6499158 10.7071068,16.0404401 C10.3466228,16.4009241 9.77939176,16.4286536 9.38710056,16.1236287 L9.29289322,16.0404401 L6.999,13.7461993 L6.99999983,15.3535226 C6.99941086,18.4659631 8.71985201,21.3236057 11.4707959,22.7794883 C14.2217397,24.2353709 17.552202,24.050819 20.1254468,22.2999056 C20.5820543,21.989216 21.2040715,22.1075059 21.5147611,22.5641135 C21.8254506,23.020721 21.7071607,23.6427382 21.2505532,23.9534277 C18.0646311,26.1212253 13.9412016,26.3497182 10.5352711,24.5471968 C7.22394981,22.7947456 5.11859235,19.4018602 5.00485315,15.6736821 L4.99999983,15.3533333 L4.999,13.7481993 L2.70710678,16.0404401 C2.34662282,16.4009241 1.77939176,16.4286536 1.38710056,16.1236287 L1.29289322,16.0404401 C0.932409257,15.6799562 0.904679722,15.1127251 1.20970461,14.7204339 L1.29289322,14.6262266 L6,9.91911977 Z M20.1527289,6.2061365 C23.4640502,7.95858777 25.5694076,11.3514731 25.6831469,15.0796512 L25.6880002,15.4 L25.688,16.8961993 L27.9595599,14.6262266 C28.3200438,14.2657426 28.8872749,14.2380131 29.2795661,14.5430379 L29.3737734,14.6262266 C29.7342574,14.9867105 29.7619869,15.5539416 29.4569621,15.9462328 L29.3737734,16.0404401 L24.6666667,20.7475469 L19.9595599,16.0404401 C19.5690356,15.6499158 19.5690356,15.0167508 19.9595599,14.6262266 C20.3200438,14.2657426 20.8872749,14.2380131 21.2795661,14.5430379 L21.3737734,14.6262266 L23.688,16.9401993 L23.6880002,15.3998108 C23.6885891,12.2873702 21.968148,9.42972762 19.2172041,7.97384503 C16.4662603,6.51796242 13.135798,6.70251431 10.5625532,8.45342775 C10.1059457,8.76411731 9.48392848,8.64582741 9.17323892,8.18921988 C8.86254936,7.73261234 8.98083925,7.11059514 9.43744679,6.79990558 C12.6233689,4.63210799 16.7467984,4.40361518 20.1527289,6.2061365 Z" id="Combined-Shape" fill="#E21B23" fill-rule="nonzero"></path>
    </g>
</svg>